<?xml version="1.0" standalone="no"?>
<!DOCTYPE svg PUBLIC "-//W3C//DTD SVG 1.1//EN" "http://www.w3.org/Graphics/SVG/1.1/DTD/svg11.dtd" >
<svg xmlns="http://www.w3.org/2000/svg" xmlns:xlink="http://www.w3.org/1999/xlink" version="1.1">
<metadata></metadata>
<defs>
<font id="belta_boldbold" horiz-adv-x="659" >
<font-face units-per-em="2048" ascent="1638" descent="-410" />
<missing-glyph horiz-adv-x="508" />
<glyph horiz-adv-x="0" />
<glyph unicode="&#xd;" horiz-adv-x="508" />
<glyph unicode=" "  horiz-adv-x="508" />
<glyph unicode="&#x09;" horiz-adv-x="508" />
<glyph unicode="&#xa0;" horiz-adv-x="508" />
<glyph unicode="!" horiz-adv-x="315" d="M0 733l4 16l-4 15l4 15l-4 4l4 4h4l-8 30l8 27l-4 22l4 4v4h-4l4 4v7l-4 4l11 27h-7q2 49 7 49l-4 4v53l-3 88l3 34h-7v4h7v11l-3 4v4l3 3h4l-4 4v27l4 4l-4 3v80l-3 4l3 4v68l-3 23l3 4v4l-7 19h4l-4 3q0 62 30 76h8v-7l4 4h3l38 -8v4l65 -23q46 0 46 -53l-4 -27l4 -11 l-8 -99l4 -4h4l-8 -30l4 -4v-4l-4 -23l4 -11l-4 -19l4 -42h-4l4 -4v-3l-4 -4l4 -4v-4l-4 -4v-3h4l-4 -4v-4l4 -11l-4 -31l4 -34l-4 -4h4l-4 -4v-3l4 -23h-4l8 -19l-4 -4v-95l4 -4v-4h-8v-7l4 -4l-8 -30l4 -4v-4l-4 -11h4l-4 -4v-4l4 -4v-4l-4 -15h4l-4 -4v-7l4 -4l-4 -11 l4 -4l-4 -19v-31l4 -3l-8 -16l8 -30l-4 -15q0 -19 8 -19l-4 -4v-4l4 -4l-4 -3v-4l4 -12l-4 -22v-4l4 -4l-4 -4v-15l4 -4l-4 -4v-3l4 -19l-4 -12l4 -4l-4 -3h4l-4 -4v-4l8 -19h-4l4 -4v-11l-4 -4l4 -4v-53l-4 -4v-4h4l-4 -3v-23l4 -15l-4 -4v-4l4 -15l-4 -4l7 -57l-3 -11 l11 -92l-27 -11l-3 4l-4 -12l-23 4l-11 -4v4l-4 -4h-8l-15 4l-4 -4h-4q-30 3 -30 8l-4 -4h-4q-15 0 -45 50l4 3v4l-16 46h4l-4 4v7l4 4l-4 4v7l4 4l-4 4v23l4 26h-4l4 4v4l-7 15l7 23h-4l4 4v4l-4 34h4l-4 4l4 19l-4 49l4 15l-7 95v4l3 4l-7 19h4l-4 4v3l4 12l-4 4v3l4 12 l-4 11h4l-4 4v53zM30 61l19 7l4 -3l4 3l4 -3l4 3v-3l3 3h4l15 -3l12 3l4 -3h3l12 3l4 -3l3 3l4 -3l4 3q0 -7 61 -19v4l23 -7l3 3l4 -3v-12q0 -14 -42 -23v-3l-22 7v-4l-4 -11h-4l-4 4l-4 -4h-19v8l-19 -8v4l-11 -4q-19 5 -19 15l-4 -4q-19 0 -34 27l4 4q-12 0 -12 19z" />
<glyph unicode="&#x22;" horiz-adv-x="330" d="M32 1538q-6 48 50 55q82 -18 94 -108l1 -7l-8 -2l9 -7l1 -7l-7 -10l36 -83q-27 -28 -53 -31q-70 -10 -123 200zM178 1590l34 44q98 -18 109 -98l-7 -1l8 -6l1 -9l-6 -8l8 -8l1 -7l-6 -9l1 -7l8 -8q7 -53 -34 -101l-9 8l-15 -2l-8 -10l-7 -1l-12 23l8 9q-24 -4 -74 191z " />
<glyph unicode="#" horiz-adv-x="1109" d="M-40 329q10 34 57 34l4 -4q0 11 15 11l11 -3q76 9 76 15l4 -4h19l4 4h4v-4l34 8l4 -4l4 26l-4 4l4 4v15l-4 4l4 4v4l-4 3l4 4v38h-35l-26 4v-4l-4 4h-8l-3 -4l-23 8l-12 -4v4l-3 -4h-8l-4 4l-11 -4q-34 10 -46 30v4q17 12 34 12v3l4 -3l19 3h12l3 -3h4l4 3v4l4 -4l34 8 l4 -4h4l57 8v49l3 4l-3 4v7l3 4v4h-3l3 4v4l-3 3l3 19v122l4 4l-4 4l4 19v26l4 4v4h-8v4h8v7l-4 4l8 46l-4 3v4l8 23q0 116 19 179l-4 3l4 19v27l3 4l-3 4l3 38v7l19 4h12q9 -8 26 -8l4 -11l4 4h4l4 -4h3v4l65 -27l4 4h4l11 -11l4 3h4l11 -7l4 4q0 -8 11 -8v-4l-4 -4v-3h8 v-4q-15 -13 -15 -23h4l-23 -103l4 -3v-4l-4 -4v-4h4q-11 -27 -19 -186l-8 -27l4 -3v-4l-8 -15l4 -4l-8 -46h4l-7 -26l3 -4l-3 -4h3l-3 -4v-4l3 -11h-3l3 -4l-11 -87l4 -4h11l12 8v-8h3l12 8l4 -4v4l11 -4q9 7 57 11l19 8l4 -4h4l26 8v79l4 19l-4 4h-4l4 4v30l4 16l-4 11h4 l-4 4l4 19v68l4 19h-4l4 4v4l-4 4l8 30l-4 4l4 19v72l7 76l-4 11h4l-4 4v4l8 23v26l-4 16q12 68 27 76q0 6 34 7l4 -4l4 4l3 -4v4l38 -7v3l23 -7l4 4v-8l4 4h4l11 -8l4 4h15q0 -11 19 -11l11 -16l-11 -68l4 -23l4 4h3l4 -4v-4l-4 -3h-3l-4 3l-4 -11l4 -4v-4l-8 -38l4 -3v-4 l-8 -23l4 -15l-4 -12l8 -7q-6 0 -11 -23h7l-4 -4v-4l4 -3h-4l8 -23v-4h-4v8h-4v-4l4 -12h-7l3 -3l-3 -4v-8h7l-7 -15l7 -8h-11l4 -3v-4l-4 -4l4 -4l-8 -7h4l-4 -4v-4l4 -4l-4 -19v-26l4 -19h-8l4 -4v-8l-4 -4l4 -3v-4l-4 -4v-4h4l-4 -4v-57l-4 -15l4 -15v-30l-4 -4v-4l4 -4 h4l4 4l4 -4h3l4 4h4l4 -4v8h11l4 -4l4 4h4q68 -5 68 -15l4 3q23 -2 23 -7l3 4h4l15 -8l4 4l4 -4l4 4q0 -8 23 -8q0 -6 26 -15q15 -17 15 -27h-3q-23 -9 -23 -15l-4 4h-4l-11 -4l-4 4v-4l-4 4h-7l-4 -4l-27 8v-4l-4 4h-15v-8l-11 4l-34 -8v4l-12 -4l-4 4h-3l-38 -11v4 q-12 -8 -31 -8l-4 -72h4l65 11q11 -7 45 -7v-4l12 4l30 -8l4 4h4l30 -8v4q11 -8 53 -11q0 -7 23 -23q0 -14 -19 -34l-11 3l-12 -7l-11 4l-11 -8l-19 8l-35 -8v4q-76 -9 -76 -15l-3 3h-4l-4 -3h-4v3l-15 -7l-4 4v3l-23 -7l-3 4h-4l-19 -12l4 -4v-121l-4 -4v-4h4l-4 -4v-34 l-4 -15l4 -15l-4 -12h4l-8 -30h4l-4 -4v-34l4 -4l-4 -4v-15l8 -30q-9 -23 -15 -23l-12 8l-4 -4h-3l-4 4h-4l-4 -4l-4 4l-3 -4v-4l-16 8l-3 -4l-31 7v-3l-15 7l-4 -4l-11 12l-15 -4q-50 15 -50 72l4 4l-4 4l4 4l-8 7h8v4l-4 4v4h4l-4 3l8 38l-4 4q2 31 8 31l-4 11l4 38l-4 4 l4 4h-4l7 30l-3 4v11l3 46l-3 4l-35 -8v4l-15 -8v8h-4l-15 -8l-4 4l-3 -4v4q-89 -10 -92 -15v-8h-3l-4 4h-4v-4h4l-12 -72l4 -4v-4l-4 -15h4l-4 -4v-7q0 -68 -7 -88h4l-4 -3v-4l4 -4l-8 -23l4 -4l-12 -79l4 -31l-4 -11h-22l-19 -4l-8 8l-11 -4l-8 7h-8l-7 -7q-53 8 -53 45h3 l-3 4v76l3 4l-3 4l3 26v114l4 16l-4 3l8 54l-4 3h-4v-3l-3 3h-4l-34 -3l-4 3h-4v-3l-4 3h-4l-3 -3h-4v3l-4 -3h-23l-4 3l-11 -3q-72 0 -114 19zM344 408h7q19 0 19 8l4 -4h4q57 3 57 8l4 -4l42 11l3 -3h4l34 7v42l4 4l-4 4v11l4 4v4h-4l4 3v8l-4 -4h-15l-15 4l-23 -8l-11 4 q-72 -1 -72 -7l-4 3h-12l-3 -3h-4l-4 3l-4 -15l4 -4v-11q0 -8 -11 -8l-4 -11l4 -19v-19l-4 -4v-4z" />
<glyph unicode="$" horiz-adv-x="667" d="M0 40v4l11 3l8 -7l4 4v3l4 -3l41 7q0 -7 19 -7v-4l4 4h12q0 -12 64 -23l61 26l91 54v7h4l4 -4h4l34 38q0 8 11 8q27 44 53 209h-3l3 4v125l-3 38h3l-15 72h4l-8 27h4l-15 65h4l-31 95q-41 104 -83 125q-26 24 -133 53q-46 13 -46 23l-4 -4h-7v8q-12 0 -12 11 q-19 0 -30 27q-40 46 -53 121v19l4 35l-4 3v4q11 19 11 50q9 0 23 41h-4q20 58 84 99l26 12q31 3 31 15l7 -8q28 12 76 12v-4l42 7v-3l19 7l4 -4h19l4 4l4 -4h26v-7l4 4h4l4 -4v4q91 -30 91 -50q-53 -12 -53 -23q-27 4 -27 12l-4 -4l-19 4h-7q-20 0 -35 -12h-22v-7l-4 4h-4 q0 -7 -42 -23q-55 -36 -83 -171v-27l3 -4l-3 -11q29 -122 98 -122l35 -15l3 4l8 -8l4 4q0 -6 26 -11v-4l4 4h4q76 -33 133 -91l23 -42q23 -51 30 -88l12 -30l-4 -4h-4l23 -57l15 -76l-4 -26l4 -16h-4l4 -3v-4l-11 -57l7 -38l-4 -4v-4l4 -11h-4l4 -4v-23l-4 -4l4 -3v-4 l-7 -34l3 -4v-4l-7 -30h4l-8 -31h4q-31 -152 -46 -152q0 -13 -26 -34q-41 -46 -114 -76v-8h-4l-4 4h-4q0 -9 -45 -26l-4 3q0 -7 -19 -15l-4 4h-4l-61 -19h-53q-27 0 -42 8v-4q-26 15 -45 15l-4 -4l-23 8l-4 -4v8h-3l-4 -4q-18 0 -53 38v19h-8zM222 299l3 18l-2 34l3 5l-3 4 v4l4 138l-3 4v5l4 47l-3 5l4 47l-3 17l2 5l-3 4l7 138h-3q15 106 8 289h3l-3 5v4l2 13h-3q8 42 6 78l-4 133l-3 4l-1 5l3 4l-3 4h-3l6 13l-3 5l-1 12l3 5l-3 4l1 43l-1 22l3 4l-6 17l2 13l-4 22l3 21l-4 17q6 1 6 14h15l18 -4l14 5l4 -4l-1 4l3 -4h3l3 5h3q1 -9 43 -16v4 q15 1 31 -42l-3 -4v-4q3 -30 7 -30l-2 -22l1 -17l3 -4l-3 -5l5 -51l1 -31l-2 -38l3 -5l1 -4l-3 -17h3l-5 -31l3 1l-3 -5l2 -39l-3 -17l4 -17l-3 -4l7 -17l-5 -27l6 1q-8 -12 -10 -57l4 -25l-2 -26l3 -5v-4l-4 -65l6 -8l-5 -13v-5l3 -4l-4 -47h3l-10 -143l-6 8l2 18l-3 13 l-6 -1l3 -4l-2 -21l3 -5v-4q-6 0 -5 -30h-3l3 -5l-3 -69h3l-5 -30l3 -21l-4 -44l3 -4v-4l-5 -22l3 -4l-2 -22v-4l3 -4l-7 -52l3 -5v-4l-2 -104l3 1l-3 -5l2 -34l3 -4l-3 -5l7 -202l3 -5v-4h-6l4 -4v-5l-5 -34l4 -26v-17l-26 -27l-9 4q-26 -5 -32 -14l-6 8v-8q-6 -1 -25 29 l-3 -4q-16 30 -17 51l3 21h-3l3 5l-1 4l-3 4v4l3 5h-3l2 13l-3 4v4l3 18l-1 8h-3l3 22l-1 17l-3 4l3 5l-2 47l-3 4l3 5l-5 133z" />
<glyph unicode="%" horiz-adv-x="966" d="M-50 84q0 9 84 121l60 99h-3q56 110 155 270q66 106 88 163l121 213l244 445q64 100 64 110h19q0 -12 42 -34q0 -10 19 -12q5 -15 38 -30l11 -19l4 4h8q0 -16 7 -16l-19 -45l4 -4q-10 0 -38 -46q-48 -51 -64 -102l-23 -38l4 -4q-11 0 -16 -23h-7l-8 -7l4 -4v-4l-46 -84 l-34 -60l-4 -4l4 -12h-4q-36 -94 -83 -159l-23 -46l4 -4h-8q0 -9 -23 -38l-22 -41q0 -12 -65 -126q0 -14 -34 -53h4l-76 -129q-8 0 -8 -19l-38 -65l4 -4q-10 0 -53 -91q-74 -126 -114 -167q-24 -19 -57 -19q-12 0 -19 19l-27 -8q-2 9 -34 19l-23 19l-4 -3zM37 798l12 8h23 l3 -4l12 4l19 -12l15 12v-8l4 4h11l-4 -4v-4l12 -4v4l4 -4h3l4 4l4 -4h4l11 4l8 -7v7h4l34 -15v4q11 0 11 -19h8l-8 -12l4 -3l-27 -16l-15 8l-26 -11l-4 3h-19l-15 -3q-63 20 -88 49h4zM455 448h4l27 4l11 -4l4 4l8 -7h30l19 -4v4l34 -8l4 4h11l12 -8h4v8l11 -8h19l4 -23 q0 -15 -46 -26v4l-11 -8l-19 8v-4l-4 4h-4l-30 -4v4l-4 -4h-4l-4 4l-19 -8v4q-57 37 -57 64z" />
<glyph unicode="&#x26;" horiz-adv-x="1683" />
<glyph unicode="'" horiz-adv-x="330" d="M32 1477q-4 32 35 37q57 -12 65 -75l1 -5h-6l7 -6v-5l-5 -6l25 -57q-19 -20 -37 -22q-48 -7 -85 139z" />
<glyph unicode="(" horiz-adv-x="449" d="M-20 788v4l4 4v3h-4l4 12l-4 11l8 53h-4l26 118v8l-3 4q10 0 15 38q6 0 23 64l-4 4l4 4l-4 4q7 0 23 60l22 42l-3 4l64 122q9 0 38 60q36 43 65 111l38 7q0 -19 42 -19q47 -13 60 -26v3q21 -8 31 -26q-34 -80 -53 -99l3 -4q-14 0 -45 -76q-49 -74 -88 -167v-4l4 -11l-4 4 h-3q0 -22 -27 -95h4q-42 -125 -42 -190h4l-8 -31h4l-4 -4l4 -19l-4 -3l4 -4v-50l4 -19l-4 -3l4 -4h-4l8 -31l-4 -3q7 -113 23 -164l-4 -4v-3l11 -31h-4q6 -26 12 -26l-4 -4v-4q8 -10 15 -68l4 -4l-4 -4v-4l23 -72h-4l15 -38l-3 -4q8 0 19 -42l3 -11h4l-4 -11l-3 3h-8 q32 -106 46 -106v-19q0 -38 -31 -38l-4 4h-15q-61 0 -61 26q-7 0 -34 65l-61 114l-11 19q-24 84 -34 84l4 3v4l-12 31l4 3q-11 22 -23 88h4q-17 64 -23 64l4 4l-11 46l3 4v3l-7 27h4l-12 65l4 3v4l-15 65l4 4h3l-7 22l4 31l-4 11l4 4h-8z" />
<glyph unicode=")" horiz-adv-x="442" d="M-30 1459v8q0 30 49 61l19 -4h4l4 4v-4q27 0 27 -8l3 -3l4 3l12 -3v-16q16 -56 57 -106l53 -80v-4l-4 -3q11 0 11 -19v-4l-3 4h-4l4 -12l3 4h4l4 -4l-8 -11v-4q16 0 27 -61l-4 -4q0 -7 12 -7v-8l-4 -4l15 -60h-4q4 -23 12 -23l-4 -4l27 -118h-4l15 -64l-4 -4l19 -61h-4 q3 -27 12 -27l-4 -11l8 -68l-8 -12h4l-4 -4l4 -3l-8 -16h4v-3l-4 -4v-4l8 -30l-8 -76l4 -4l-8 -31h4l4 -3l-8 -23h4l-4 -65l4 -19l-7 -11l3 -4v-23l-3 -4h3q-30 -164 -45 -209h4q-12 -16 -12 -30l-41 -87q-20 -56 -35 -65l-3 -4q-60 -16 -76 -30v4q-54 -13 -54 -19 q-26 0 -30 30h4l-4 4q5 15 19 23v3l-4 4h8q7 28 23 46l22 49q31 99 38 107l-3 3l7 23l-4 12q8 0 12 22v4l-4 4h4q0 24 7 34h-4q7 9 19 84v4l-3 3l3 4v4l-3 4l19 87l-4 4q4 0 11 80l-4 4l4 3v16l-4 3q8 0 8 19v46l4 4h-4l4 19l-4 42l4 11l-4 4v11l-8 69l4 3l-7 19h3l-15 65v4 l4 4l-19 83h4v4l-4 4v4l4 3l-8 16h4l-8 34h4l-15 72l4 4q-46 140 -84 167q-65 118 -76 125z" />
<glyph unicode="*" horiz-adv-x="584" d="M127 1233q4 19 23 19q11 16 42 30l30 34q0 9 -57 46q-27 26 -27 49v12h8v3q97 -35 125 -60q0 9 54 53l34 -4h4q0 -15 38 -15l3 -4q12 0 19 -11q19 0 19 -8l-3 -4l11 -4v-3q0 -22 -53 -73l-4 -15l4 -4l-4 -3l38 -31l15 -34l-4 4h-3l-4 -27h-8l-26 -4q0 19 -27 19l-11 19 l3 4l-11 4q-17 -6 -46 -38l-53 -19l-23 4h-3l-4 -4l-53 15h-12l-30 34z" />
<glyph unicode="+" horiz-adv-x="682" d="M76 707q0 17 61 19v-3l4 3h19l3 -3l27 7l4 -4l19 4h15l4 95h4l-4 4v42l-4 4l4 3v4l-4 38l4 4h23l3 -11l12 3l11 -3v3l27 -11l4 4q15 0 41 -19l4 4h4l11 -12l4 4h4q15 0 30 -27q-1 -19 -11 -19l4 -3l-4 -4v-4l4 -27l-8 -7v-27h8v-4l-4 -30h8l3 4h4l4 -4v4l30 -12l4 4 q23 -2 23 -15l4 4h4q0 -12 7 -12l4 4q53 -15 53 -45h-4q-17 -15 -34 -16v4l-4 -4h-3l-57 4l-61 -4v-15l4 -4q-8 -10 -12 -57h4l-8 -19l4 -3v-4l-4 -27l4 -4h4l-4 -3v-4l4 -4l-8 -30h8l-23 -23v-4l-23 8q0 -8 -11 -8l-4 4h-4l-11 -4q-30 0 -61 19q-11 0 -11 19l-15 8l3 3 l-7 31l11 114l-11 4l-4 -4h-4l-42 11l-3 -4v4l-4 -4h-4l-34 12h-12l-26 34z" />
<glyph unicode="," horiz-adv-x="232" d="M7 -111l5 35l14 3q-29 15 63 267l69 23q96 -93 48 -190l-9 5l4 -13l-5 -11l-13 -4l4 -15l-5 -8l-13 -6l-5 -9l4 -15q-32 -63 -114 -85l-4 15l-19 9l-15 -5z" />
<glyph unicode="-" d="M67 580v8l4 19l4 -4q12 8 49 8v4l4 -4h4l3 4h4l4 -4v4l4 -4l80 11l11 -4l11 4v-4l38 12l4 -4h12l3 4h4v-4q19 8 69 8h3l4 3l4 -3h8l3 3l4 -3h4l4 3l34 -7v4l38 -8l4 4l26 -15v7h4q30 -11 42 -34v-15q-11 0 -23 -15l-26 3l-8 -7l-30 7q-23 -2 -23 -7l-4 4h-8l-72 -16v4 l-4 -4h-38l-3 -3h-4l-4 3l-4 -3v-4l-4 4h-3l-16 -4l-3 4h-4l-31 -4v4l-3 -4h-16l-3 4l-4 -4h-31l-3 4l-4 -4h-4l-4 4h-4v-8h-3l-19 11l-4 -3h-4l-23 3l-4 -3q-10 22 -30 22l-11 19v4l-4 -4h-4z" />
<glyph unicode="." horiz-adv-x="232" d="M7 -22l5 23l16 3q-32 9 67 176l76 15q103 -62 51 -125l-9 3l4 -9l-5 -7l-14 -3l3 -9l-4 -6l-15 -4l-5 -6l4 -10q-35 -42 -123 -56l-4 10l-21 6l-16 -3z" />
<glyph unicode="/" horiz-adv-x="757" d="M-40 57l46 122l34 79l-4 4q22 6 30 84l4 11h4l-4 4v8h8l-4 3v4h8l-4 4q131 313 201 422l137 273l87 168q9 7 50 110q34 -5 34 -12l4 4h4l19 -11v4l19 -8l3 4l23 -15v3l50 -30l11 4l-4 -4v-4h4l-4 -4v-3l4 -16l-30 -68q-7 0 -23 -38q-31 -42 -46 -84q-33 -42 -57 -106h-7 v-23q-19 0 -19 -30l-8 -12l4 -3q-23 -18 -46 -88q-41 -87 -53 -87v-4l4 -4l-42 -76l-42 -87l4 -4v-8q-12 0 -19 -30q-32 -36 -57 -110l-4 -4h4l-27 -61l4 -4q-7 0 -15 -30h4l-23 -53l4 -4q-15 0 -38 -76l-8 -11l4 -4q-10 0 -30 -99q-10 -42 -27 -42q-19 -11 -53 -11v-4l-4 4 h-11l-23 -4q-80 20 -80 57z" />
<glyph unicode="0" horiz-adv-x="846" d="M0 722l8 57h-4l4 4v4l-4 19l4 3h-4l7 42l-3 4v4l3 11l-3 4l7 34l-4 15v8l4 4v4h-4l8 19l-4 3h-4l8 19h-4l8 16l-4 3l11 88l-3 4l3 3l-3 4q9 0 11 34h-4l31 88q26 78 64 114q24 29 91 61l4 -4l38 15l4 -4q0 5 57 23l4 -4h4q20 11 79 15l16 -3l3 3v-7l23 4l12 -4l15 4 q0 -8 19 -8v-4l4 4h7v-8l4 4h4l23 -7l-4 -4l4 -4v-11q-16 -2 -16 -12l4 -4l4 4h15l4 -4h4v4q95 -28 114 -57q42 -51 42 -95q15 -42 15 -76v-11l4 -4l-8 -23l8 -11v-50l3 -3v-4h-3l11 -50l-4 -3v-4l4 -4l-8 -42l4 -4v-3l-4 -4v-4h4l-4 -4v-26l8 -8l-8 -23l4 -34v-30l4 -4 l-4 -4v-76l-4 -4q8 -15 8 -42v-26l-4 -4v-4h4l-4 -11l4 -12l-4 -3l4 -4h-4l4 -4q-5 -30 -11 -30l3 -12l-15 -152l4 -15q-6 -65 -11 -65l3 -3v-4l-3 -15l3 -4q-7 -50 -26 -103l4 -4h-8v-11l4 -4v-4q-17 -19 -34 -87l-12 -4l4 -4v-3q0 -11 -57 -50l-4 4l-68 -27v4l-31 -7v3 l-38 -7v4l-3 -4h-19l-4 4l-34 -8l-4 4l-15 -4l-27 4l-19 -4q-10 8 -34 8v3l-4 -3h-4l-4 3h-3l-4 -3v7h-12q-106 29 -106 46q-25 0 -76 72q-23 54 -23 99v7h-7l3 12q-3 48 -11 61l4 15l-15 72l3 4q-3 38 -11 45v8l4 4v4h-4l4 3v4l-8 8l4 11l-8 23v8l4 3l-11 65h4l-4 4v4l4 15 l-4 4l4 19v34l-4 23l4 15l-4 4h4zM194 547l7 -23l-3 -11l3 -4h4l-4 -11l8 -15l-4 -4v-4q7 0 19 -141l4 -11h-4l8 -30l-4 -4l4 -4h4l-4 -4l7 -57h-3l11 -23h-4q5 -33 23 -57q0 -27 68 -68l54 -11q74 23 91 57q52 117 53 174l8 61l-4 4h4l-4 4l11 83h-4l19 126l-3 4l7 76h-4 l4 3v16l-4 3l4 4l-4 38v15l-3 4l3 4v61l-3 4l3 3v4l-3 15l3 4l-3 19v46l3 26l-3 4h3l-3 4v8l3 3v4h-3l7 38l-4 4v8l4 11l-11 87h4l-4 4v38h-8l4 4v11l-4 4v4h4l-23 122l4 3q-39 65 -114 65l-8 8h-3l-69 -31q-24 -16 -68 -80q-11 0 -19 -38l-34 -87l3 -11l-7 -65h-8l-4 -57 v-34l-3 -4l3 -4v-11l-3 -4l3 -11l-3 -4v-4l3 -4v-4l-3 -11l3 -11l-3 -19l3 -16l-3 -3h3l-3 -4v-50l-4 -3l7 -23l-7 -23l4 -4l-4 -4h4l-4 -3l4 -27v-68l3 -4l-3 -4v-8l3 -19h-7l7 -49h-7v-4z" />
<glyph unicode="1" horiz-adv-x="479" d="M-30 1035q15 42 103 209l64 114q0 15 15 27l19 30l-3 4q14 12 38 12v3l30 -7l4 4l11 -4l12 4l-4 -4v-4l4 4h3l42 -15l4 3q38 0 57 -34l-4 -4v-3l12 -38l-4 -4h4l-4 -12l4 -11l-4 -4l4 -4h3l-3 -19v-57l-4 -3l7 -19l-3 -23l7 -12l-4 -3v-4l4 -4v-4l-4 -4h4l-4 -3v-19l4 -4 l-4 -4v-4l4 -4v-3l-4 -4h4l-4 -4v-4l4 -4v-3l-4 -16l4 -11l-4 -4h4l-4 -4v-22l4 -4v-4l-11 -4l7 -15l-3 -4l3 -19v-4l-3 -3l7 -12l-4 -4v-22l4 -16l-4 -3v-4l4 -15l-4 -4h4l-4 -4v-11l4 -4l-4 -12l4 -11h-4l4 -4v-4l-4 -3l4 -4v-4l-4 -4l4 -26v-50l4 -4l-4 -3v-4l4 -4l-4 -4 l4 -19l-4 -4l4 -3v-4l-4 -23l4 -4l-4 -11h-7l3 4v7h-11l4 -11l-4 -19h4l-8 -23l4 -4v-19l-8 -11l4 -15l-4 -4v-4l4 -4v-4l-4 -11l8 -23l-4 -19l4 -11l-4 -4l4 -4h-8l4 -4v-11l-4 -4v-4h4l-4 -3v-8l4 -15l-7 -27l7 -11l-11 -27l4 -4v-3q-9 0 -16 -73q-15 0 -15 -30l4 -4 l-4 -4l4 -3h-4l4 -4l-8 -42l4 -4l-4 -19v-19l4 -4l-4 -3v-12l4 -4l-4 -3v-23l4 -4l-4 -11l4 -4v-4l-4 -15l4 -4l-4 -4h-3l3 -34l12 8l4 -19h-12v-35q-11 0 -19 -11l-11 -4q0 8 -12 8l-49 -23q-38 11 -46 34l-11 15l4 16l-4 3h4l-4 4l4 31l-4 3l4 19v84l4 15l-4 4l7 49h-3 l3 4v53l4 4v4h-4l4 4v11l-4 4l4 11l12 130h-4l4 11l-4 15l4 34v19l-4 19l4 4h-4l7 42l-3 4v72l3 4l-3 4v3l3 4l-3 4v4l3 11h-3l3 4v11l-3 16l3 3l-7 42l4 23v15l-4 4l4 4v23l-4 3l4 12l-4 19h4l-4 4v34l-4 23l4 3v4l-4 42l4 4l-4 19v91h-4q-36 -89 -64 -106l-8 -19l-4 3h-4 l-15 -3l-4 3h-3l-31 -7h-34l-4 -4l-38 27q-6 0 -15 22z" />
<glyph unicode="2" horiz-adv-x="727" d="M0 33v4q68 145 106 266l19 46h-3l114 281l22 38h-3q55 144 95 213q70 124 98 239l8 8l-4 11q31 97 31 141l-4 3h4q-8 15 -8 42h-4q-28 -20 -64 -34l-19 -15q0 -8 -19 -15q0 -8 -23 -27l-27 -46l4 -3q-5 0 -15 -31q-34 -7 -34 -15l-4 4h-4l-8 -8l-19 4l-3 -4v4l-4 -4 l-19 4h-8l-4 -4h-3l-4 4l-12 4v4l-3 -4h-4q-50 22 -50 53q22 79 107 141q9 16 61 38l45 22q0 7 27 8l4 -4h3l4 4v-4l23 8l11 -4l4 4v-4l4 4h4l15 -4v4q61 -10 61 -15v-4h4l3 4h4l4 -4v4q110 -23 110 -50q7 0 19 -30l-4 -4l12 -8l-4 -3v-4l8 -8l-4 -4v-7l4 -19h-4l4 -4v-8 l-4 -19h4q-16 -70 -46 -125q-23 -59 -42 -141l-53 -83l4 -4v-4q-19 -18 -88 -190h4l-34 -68l-19 -34l4 -4q-22 -30 -34 -118l-35 -76h4l-38 -87l-34 -107l4 -4l-50 -102q0 -12 -7 -12v-7l45 4h27l4 -4l4 4h7l19 -4l4 4l4 -4l4 4l3 -4v4l4 -4l19 4h72l4 3l4 -3l46 3h30l19 4 l4 -4v-3q19 4 19 11l23 -8v4q19 -5 19 -11l3 4h12v-12l4 4h3l27 -15l-4 -4v-4l4 -4q-9 0 -19 -15q-12 0 -19 -7l-11 3l-23 -15l-4 4l-4 -4h-7l-4 4l-12 -8l-11 4l-11 -4v4l-4 -4h-4l-30 8l-19 -4v4l-4 -4h-4l-15 8l-4 -4h-19l-4 4l-4 -4h-3l-4 4h-4l-4 -4v4l-4 -4h-3l-4 4 l-4 -4h-11l-16 4l-15 -4v4l-4 -4h-19q-19 0 -19 8q-22 -7 -22 -12l-4 4h-15q-26 -4 -27 -11l-11 3l-4 -3l-19 3h-23l-46 -11v4l-3 -4l-27 8v-8q-47 0 -68 49l-4 4h-4z" />
<glyph unicode="3" horiz-adv-x="607" d="M0 58v12l8 7h3l4 -3l31 7l15 -4l4 4l3 -4l4 4l4 -4v4l42 -11h7v7h8q0 -11 8 -11l11 4l4 -4v4q19 -2 19 -12q96 21 114 46q6 0 30 53l-4 4v4l12 53h-4q11 16 11 84h4l-4 3l12 46h-4l-87 -8l-4 4l-4 -4h-34l-4 4l-4 -4l-45 4h-16l-3 4h-4v-4l-27 8l-4 -4q0 11 -30 11v8 q-15 0 -15 15l-12 12h-3l3 3v8l-3 4v4l22 7l4 -4h4l11 4v-4l31 8l26 -8l209 38l-3 4l7 23l-4 4v4l4 19l-4 3v4l4 12l-4 3l4 4h-4l4 4v148l-4 4v4h4l-4 4v3l4 4v4l-4 4h4l-4 4v11l-3 57l3 4h-3l3 4v15l-3 4l3 3v4l-3 15l3 4v4l-7 34l4 4l-4 19v4l4 4v3h-8v4l4 4v4l-4 4l4 3 h-4l4 4v4l-4 4l4 4l-8 49l4 15l-4 12l4 3h-4l4 4v4l-8 11h4l-4 4v46l-7 7l4 16l-19 117h-4v12l4 4q0 11 -12 11l4 4v4q-6 0 -15 34l-23 7l-15 -3v3l-15 -7v4l-57 -16l-16 8l-3 -4v4l-12 -4l-26 4l-4 -4v4l-4 -4h-4l-11 8l-4 -4v8l-4 -4h-4v7l-3 -3h-4v3l-4 -3h-8l4 3v4 q-18 0 -26 19q0 8 -12 8l8 11l-4 4l15 8l69 22l3 -3l4 3v4l4 -4l19 4h4l4 -4l19 8l3 -4h46q28 -1 38 -11l4 4h4q11 0 11 -12l4 4l30 -8l4 4h4l19 -7l4 3q0 -8 30 -15l4 4l34 -27q17 -16 49 -76h-3l7 -30v-27l-4 -3l4 -4v-27q12 0 12 -7v-4l-4 -4v-4q6 0 23 -99l7 -7v-69 l4 -3l-4 -4v-4l4 -23l-4 -4l8 -22l-4 -4l4 -38v-15l7 -12q-9 -11 -19 -11v-4l4 -23l-4 -19q6 0 19 -53l-3 -4l3 -19v-19l4 -53l-4 -11l4 -38l-4 -4h8l-8 -19l4 -4v-15l-4 -19l4 -4h4l-8 -46l4 -3l-4 -4h4l-4 -4v-19l-3 -57h3l-3 -4v-4l3 -3l-7 -35h4l-8 -34h4l-8 -19l4 -4 l-4 -3h4l-4 -4v-27q-13 0 -23 -53h-3l3 -4v-4l-7 -11l4 -15l-8 -15l4 -12q-8 0 -8 -19h-4l4 -4v-3q-20 -59 -42 -69q0 -7 -22 -7l-4 -12l-4 4h-4q-19 -11 -38 -11l-4 3l-3 -3h-8l-4 3h-4q-3 -11 -22 -11l-4 4l-34 -15l-4 3h-4q-13 -7 -61 -11l-7 8l-4 -4v-4l-34 8v-4l-19 7 l-4 -3q0 11 -61 15v4l-4 -4h-4q-44 18 -68 45z" />
<glyph unicode="4" horiz-adv-x="719" d="M0 627l4 4l-4 4h4l-4 3l4 27v4l-4 4v3l4 4h-4l4 4v61l4 26h-4l4 4v4l-4 4l4 26v27l3 65l-3 3h7l-4 4v4h4l-4 4v11l4 4l-4 4v11l4 4l-4 4l8 57l-4 4l8 45l-4 4v4q8 9 8 49h3l-3 4v4l3 4v3l-3 16l3 3h-3l3 4l-3 19v8l3 4v3h-3l3 4v38l4 4v4h-4l4 4v83l4 19h-4l8 12l-8 34 q3 26 27 26l15 -3l15 3q61 -6 61 -11l4 4h4l7 -8l4 4h8q34 -15 34 -68v-23l-4 -4l4 -4v-15l-4 -4l4 -4v-3l-4 -4v-4l4 -4h-4l4 -4l-4 -19l4 -11l-4 -4h4l-4 -4v-41l-4 -4l4 -4v-27l-4 -3l4 -4v-4l-4 -19h4l-4 -4l4 -19l-4 -11l4 -15h-4l4 -4l-8 -34l4 -4v-27l-4 -4v-3h4 l-4 -4v-8l4 -11q-5 -76 -11 -76l4 -19l-4 -27h4l-8 -45l4 -23v-4l-4 -15l4 -15l-4 -4h4l-4 -4v-4l4 -4l-8 -26l4 -15h-4l4 -4v-12l-8 -11v-4h8l-8 -26h4l-4 -4v-8l4 -4v-3h-4l4 -4v-50q0 -30 12 -49h-4l7 -23h4v-4l-4 -3q0 -12 12 -12l-4 -4v-7l11 -12h8l11 8l4 -4v4l4 -4 l46 8l3 -4h4q27 3 27 8l4 -4h15l19 4v-4l38 7l4 -3l3 3l4 -3l8 15v26l-4 4l4 4v4l-4 4l4 3v12l-4 4l8 41h-4l4 4v15l-4 4l4 4v4l-12 129h4l-4 4l4 19v45l4 4l-4 4v11l4 4l-4 4v8q1 26 8 26l-8 27l4 4v11l-4 19l4 4l-4 4h4l-4 3v4l4 12h-4l8 15l-8 15q11 0 11 11l-7 16l4 3v4 l-4 4v4l7 38l-3 11l3 4h-3l3 4v4l-3 3v4l7 19l-4 4l4 4l-4 4h4l-4 3v19l4 4l-7 12l3 3q-2 31 -7 31l4 4v11l-4 38l4 4l-8 7l8 8h-4l7 23l-3 4h3l-3 3v4l3 27h-3l3 4v3l-3 4v4l11 34h4q38 0 38 8l64 -15h19v-8l4 4h4q0 -12 11 -12q12 -14 12 -34v-26l4 -4l-4 -4v-4l4 -4v-3 h-4l4 -4v-34l3 -27h-3l3 -4v-4l8 -129h-4l4 -4v-15l-4 -15l8 -38l-4 -4v-19l4 -15l-4 -4v-4l4 -19q0 -19 -8 -19l4 -19v-7l-4 -4v-4l4 -4h-4l4 -3l-4 -27v-76l-4 -4v-4l4 -3h-4l4 -4v-4q-2 -38 -7 -38l3 -4v-57l-3 -4l3 -11l-7 -114l4 -34l-4 -12l4 -3h-4l4 -4v-4l-4 -15 l4 -4v-4l-27 -53l4 -11l-4 -4v-4l4 -4v-4q-8 -9 -8 -49l-11 -53h4l-8 -46l4 -15v-4l-4 -4v-3h4l-4 -4v-23q-8 0 -8 -19l-3 -4l3 -4v-3l-3 -16l3 -3l-3 -4v-8l3 -4l-3 -3v-8l3 -4l-3 -4v-34l7 -7l-4 -4v-12h8q0 -20 -30 -26l-19 4l-8 -8q-19 0 -19 8l-11 -4q-54 22 -54 49 l-7 53l4 12l-4 4h4l-8 30l8 27l-4 3v12l4 4l-4 3v61l4 19h-4l4 4v11l-4 4l7 23l-3 4l3 26v31q-11 0 -11 -12h-4l-4 4h-3l-4 -4v4l-4 -4h-4l-15 4q-61 -9 -61 -15l-23 8l-11 -8l-4 4h-4l-3 -4l-46 8v-4l-72 15l-4 4v4l-4 -4h-4q-42 16 -95 83h-3l3 4l-22 72l3 4l-7 46h4z" />
<glyph unicode="5" horiz-adv-x="742" d="M0 695l8 38l-4 4l4 19v15l-4 12l4 19v38l-4 4l4 3v8l-4 15l7 15l-3 4v19l3 15l-7 23h-4v4q11 0 11 19v15l-3 4l7 42l-4 11l4 4v4l-4 4v3l4 4l-7 34l7 16h-4l4 3v27l8 57l-4 4v4q2 15 11 15l-3 26l15 57h-4l15 38l-4 4h8l-4 27q46 48 46 57q0 14 30 23v-4l23 7v-3l23 7v-4 l38 8v-4l11 8l12 -4l11 4v-4q42 4 42 11l4 -3h3l4 3h4v-3l4 3l11 -3l34 7l12 -4l11 12l8 -8l4 4h3l16 -4l41 8l4 -4l4 4v-4q19 2 19 11q37 0 57 -15v4l27 -15v4l57 -23l-16 -19v-4l-3 4l-23 -8l-4 4h-4l-23 -8v4l-83 -15l-4 4l-80 -12l-4 4h-3l-23 -7l-4 3l-4 -3l-4 3 q-3 -11 -22 -11l-4 4v-4l-4 4h-4q-52 -16 -57 -31q-29 0 -42 -167v-80l-3 -3l3 -4v-4l-3 -4l3 -19v-110l4 -4v-4l-4 -3h4l-4 -4v-34q0 -19 -7 -19l4 -4v-31l-4 -3l4 -4l-4 -19l4 -4l-4 -4v-53l-4 -19h4l-12 -38l4 -4l-4 -42l4 -34h-4q13 -133 54 -133v4l22 -8l4 4v-7l4 3h8 l7 -7l4 4h4l11 -8l8 8q0 -8 23 -12v8h3l50 -15l4 -4v4l3 -4h19l4 4l34 -16l4 4v-4l4 4h11v-11l4 4l23 -8l4 4l30 -15q32 -5 76 -61l-4 -15l12 -4l-4 -4v-27h8l-4 -3v-4l7 -12l-3 -3v-4q2 -23 7 -23l-4 -4v-11q1 -19 8 -19l-8 -23l4 -4v-4l-4 -3l4 -4v-4l-7 -30h3l-7 -16 l4 -19v-7l-4 -4l4 -4v-19h-8l4 -4v-3l-4 -4l4 -4v-4q-30 -45 -46 -57l-4 4h-3l-19 -8l-4 4l-4 -4v4l-99 -30l-4 4h-3q-15 -8 -42 -8h-19q-59 0 -76 11l-4 -3l-4 3l-4 -3l-3 3v-3l-4 3h-15l-4 -3l-19 7l-4 -4h-15v8l-31 -11l-7 7l-15 -7l-8 7l-4 -4q-80 19 -80 42l-7 8 q4 15 23 15v-4l22 8v-4l19 8l4 -4l4 4v-4l4 4h4l11 -8l4 4v4l19 -8v4l26 -8l4 4v4q10 -12 91 -19l16 4v-4l19 7v-3l76 22v-3q34 7 34 19l4 -4h3l16 38l-4 4l7 7h-3l7 42l-4 11l4 16l-4 3v4l4 23l-4 30l4 4v4l-4 11h4l-4 4v4l4 4v4l-4 11h4q-9 68 -23 68l-53 27l-4 -4l-3 4 v-4l-23 8v-4l-53 11l-12 -3v3l-4 -3h-11v7l-4 -4q-34 10 -34 16l-19 -8l-23 11l-4 -3h-3l-23 3l-4 -3h-4q0 6 -53 22l-4 -3h-4q-65 33 -87 95l-8 26l4 4h-7l3 4v4h-3l3 3v16l-3 3v4h3l-3 4v38l-4 4v4h4z" />
<glyph unicode="6" horiz-adv-x="757" d="M0 478h4l-4 4v15l4 4v3h-4l4 4v4l-4 19l4 4h-4l8 42l-4 3v16l4 3l-4 4v15l4 4l-4 4l4 27v11l-4 4l7 11l-7 50l4 3v31l-4 4l7 15l-3 4v3l3 4l-3 27v15l3 4l-3 4l11 95h-4l8 45l-4 4h4l-4 4v4l4 3l-4 4l4 27v7l-4 4v4q7 0 11 19l-3 11l7 16l-4 3l38 145h-3q16 45 79 125 q37 39 99 57v4h19l19 11l4 -3h4l19 7v-7l80 15l3 -4l27 4h30l4 4l15 -8l4 4h4l84 -34l19 -16l-42 -19l-4 4l-95 -19l-4 4q-32 -4 -45 -15l-4 4q-50 -11 -114 -95q0 -18 -19 -31l-8 -11h4q-34 -116 -38 -160l-4 -26h4l-8 -35l4 -3v-4l-4 -23l4 -4v-4l-4 -22l4 -4l-7 -23h3 l-3 -4v-4l3 -15l-11 -45l4 -4l-4 -4h4l-8 -38h4l-4 -4v-4l4 -3l-4 -4v-4l4 -4l-4 -19v-57l-4 -15l4 -4l-7 -45l3 -4v-8l-3 -15l3 -15v-12l-3 -3l3 -4v-4l-3 -4v-4l3 -3v-4l-3 -12l7 -11l-4 -27v-26l4 -15l-4 -12l4 -4q19 2 19 12h8l106 30l12 -4v4l3 -4l16 4l76 -11l3 4 q0 -8 35 -8q0 -8 22 -11l4 3l4 -3l4 3q0 -15 53 -19v-7q29 -5 72 -42l4 -4v-4l-11 -3q9 -35 22 -54l-3 -19h3l-3 -3v-8l3 -15l-3 -4v-4q1 -19 11 -19l-8 -23l4 -15l-15 -45h4l-8 -31l-4 4h-3q0 -58 -84 -133l-4 4h-4l-114 -31l-3 4l-31 -7v3l-4 -3h-3l-35 3l-3 -3v-4l-16 7 q0 -7 -26 -7v-4l-4 4l-19 -4h-8l-15 4l-11 -4v4l-4 -4q-23 3 -23 8l-4 -4h-7l-4 4l-4 -4h-4l-11 7l-4 -3h-4l-11 7l-4 -4l-30 16q-35 23 -57 76q-5 0 -15 30l3 4q-19 24 -19 91l-11 49l4 16l-8 22l4 12l-8 45l4 12l-7 19l3 4h-3l3 3v4l-7 42h4l-4 4v4l4 3v4zM186 341 q1 -27 8 -27l-4 -3v-8l4 -4l-4 -4v-3l19 -118h-4l4 -4v-4l-4 -4l23 -79h-4l19 -23v4l4 -4h4q121 8 121 15l4 -4h4q125 43 125 194l-3 4l3 4v11l-3 4v4h3l-11 64v8h-8l4 4v3l-7 12l3 4l-26 22l-23 8l-4 -4h-4l-15 4l-19 -11v3l-76 -30l-4 4q-3 -12 -22 -12l-4 4 q-38 -13 -38 -23h-4l-4 4l-4 -4h-11l-4 4l-19 -11l-4 4l-3 -4l-8 7h-4v-11zM642 349v7l8 -7v-8z" />
<glyph unicode="7" horiz-adv-x="614" d="M0 1341q0 17 15 23l12 -4l15 8v-4l11 8l4 -4h4l110 23v-4l4 4h4l3 -4l27 4h19l4 -4h4l3 4v4q86 -9 118 -23l12 4l3 -4h4l4 4q91 -18 110 -46l15 -27v-11l-3 -4q7 -17 7 -49v-31l4 -3l-4 -4v-8l4 -4v-3l-4 -4h4l-8 -46l8 -7q-19 0 -19 -31h4l-4 -4v-7l11 -4l-11 -91h4 l-23 -34l4 -4v-4l-8 -15h4l-8 -31v-34l4 -4l-42 -133q0 -11 -15 -11v-8l4 4h8l-4 -4v-11l4 -4q-16 -26 -16 -42l4 -3q-5 -1 -38 -103l4 -4h-8l-30 -91l-57 -167l-27 -61l-7 -23h4q-23 -47 -46 -137h-4l4 -3v-4l-15 -42l-15 -11l-4 3v-3l-4 3h-4l-26 -11l-4 11l-27 -11l-4 4 h-11l-15 -4l-27 11q0 8 -15 8q-19 11 -19 30h-8v12l61 148l-4 4h8q0 31 65 186q49 134 64 198l4 3l-4 4q10 0 31 76l7 12l-4 11h4l4 11h4l-4 4v4l8 11l-4 4l23 57h-4q15 40 49 194h-4l16 76l-4 4l7 7h-3l3 4v42l4 4v4h-4l8 34h-4l8 19l-8 23l4 3v42l-4 4l4 4v4l-4 3v4h4 q-4 46 -15 46l-4 4l-57 -12v4l-61 -11v3l-30 -7v4l-23 -8l-57 4l-4 4h-4l-3 -4v-4l-16 8v-4l-22 7v-3q-46 20 -46 41zM490 1056h4l4 19v8h-4l-4 -23v-4z" />
<glyph unicode="8" horiz-adv-x="772" d="M0 730l4 3v31l4 19h-8v4h8v60l3 35l-3 3l7 42h-4q3 31 16 31v7h-8v4q12 0 15 84h-4q31 86 46 205l23 87l34 50l23 15l7 15l4 -4h4q14 14 46 27l3 -4h4l8 8v-4q23 5 23 11l3 -4h19l61 8l4 -4v-4l38 8l4 -4v4l42 -11l3 3h4l15 -7l4 4q0 -8 19 -8v-4l4 4h4q41 -8 91 -30 q34 -10 53 -61q19 -31 19 -42l-7 -8q7 -10 22 -83v-8l-3 -23l3 -3l-7 -46l7 -8v-7l-3 -4l7 -34l-4 -4v-38l-3 -4l3 -4v-7l-3 -19h3l-11 -46l4 -15q0 -19 -8 -19l4 -4l-11 -133l-4 4h-4v-8h-4l4 -3v-19q0 -19 -8 -19l8 -35h-8v-3l4 -4v-4l-7 -19l3 -23l-3 -11l3 -23v-23 q0 -35 -38 -91q-12 -4 -15 -15q-30 -9 -30 -15l4 -4h3l4 4l46 -27q36 -25 45 -76v-8h4l-4 -19l4 -19h-4l4 -3l-4 -19v-27l4 -15l-4 -4v-4l4 -4v-3l-7 -16l3 -11q-30 -118 -53 -118q-2 -17 -57 -49q0 -8 -30 -8l-19 -15l-4 4q0 -11 -72 -27h-23l-4 -4h-4v4l-26 -7v3l-4 -3h-4 l-15 3l-27 -7l-53 4l-7 -8l-8 8h-23l-19 -4q0 11 -42 11h-19v8l-3 -4h-4q0 8 -23 8q0 11 -23 11q0 13 -26 23l-27 42l4 3q-3 31 -8 31l4 4v3l-4 12l4 4l-11 57h3l-3 3v12h7l-4 57v38l8 23l-4 3q6 0 31 73l60 57q-72 36 -72 72q-17 53 -26 53l-4 103v15zM182 262 q4 -50 12 -57h-8v-4l15 -76l-3 -3v-4l11 -42l53 11v-3q153 41 186 91l35 57h-4q11 26 11 49h-4l8 12l-4 3l4 19v23l-8 23l4 4l-4 4l4 3l-7 8l3 4q-13 49 -22 49l-12 12l-4 -4h-3l-4 4h-4l-19 -4l-4 4l-4 -4v4l-3 -4h-4l-4 4l-141 -23v-4l-3 4h-8l-30 -34l-27 -65l-8 -42 l4 -11l-4 -4h4zM186 669q0 -61 27 -126q0 -7 30 -38v-3l19 3h31l3 4h4l4 -4l4 4l4 -4v4l3 -4h4l31 8v-4q110 27 110 69l7 11l-3 11l7 19h-4l4 4v4l-11 198h4l-4 3v4l7 38h-3l3 4v68l4 16l-4 3l8 46l-4 4q3 45 8 45l-4 4v4l4 4l-4 4v7l4 4v4h-4l4 4v60q0 19 -8 19l4 16l-4 22 l4 4v4l-8 46h4l-23 72l4 4h-7l3 3v4l-11 19q0 14 -15 23v4q-100 0 -141 -99l4 -11h-8v-4l4 -4l-11 -46h4q-31 -121 -42 -197h4q-16 0 -31 -190h4l-4 -19h-4v7h-3l-12 -72l4 -11l-4 -4h4l-4 -4v-30l4 -4l-4 -4v-4l4 -3zM198 737v19h7l-4 -19h-3zM201 798v19h4v-19h-4z" />
<glyph unicode="9" horiz-adv-x="779" d="M0 722l4 4v34l4 19h-4l11 54l-4 3v4l27 126l-4 3l8 42l-4 4v4l8 34l-4 4q10 0 26 110q18 32 27 87l23 54l-4 3q23 31 23 61l4 -4h3q3 19 19 19l-3 4v4l49 38q49 27 87 27v-4l19 7l4 -3h4l4 3h4l22 -7l4 4l4 -4v4q76 -13 76 -19l4 3h11l4 -3h4l4 3l3 -3l12 -4v-4l4 4h15 l72 -38q0 -12 11 -12l4 4q0 -15 15 -15q0 -9 35 -53l15 -31h-4l23 -76l-8 -11l8 -61h-4l4 -4v-53l-4 -19h4l-4 -11l4 -4v-4l-4 -11l4 -4v-4l-4 -15v-4l4 -4l-8 -22l8 -16l-4 -3h-4l4 -4l-4 -19v-34l-4 -4v-4h4l-4 -4v-4l4 -3v-4l-4 -12l4 -3v-4l-11 -42l4 -4v-4l-16 -110h4 l-11 -45h4l-12 -42l4 -12l-4 -11l4 -4l-4 -4h-4l4 -11l-4 -11h4l-4 -4v-19l4 -4l-11 -46l4 -3v-4l-4 -19l4 -4l-4 -4h4l-8 -19l4 -4v-3l-4 -4v-4l4 -4v-4l-12 -41h4l-4 -4v-46l-7 -7l7 -16l-7 -7h4l-8 -57l4 -4l-15 -8v-11q11 0 11 -15h-4l4 -4q0 -61 -19 -61v-7l4 -4 l-8 -27l4 -4v-3l-8 -61l4 -4l-4 -4v-4l12 -15q0 -20 -42 -30l-8 7l-34 -11v4l-4 -4h-3q-23 6 -23 11l-19 -7q0 7 -19 7q0 16 -27 46l4 4h-8l19 190h-3l3 4v45l-22 4l-54 -4l-11 4l-4 -4v4l-4 -4h-3l-4 4l-4 -4h-4l-11 8v-4l-23 8l-15 -4h-4l-15 7l-4 -3h-4q-22 11 -45 11 l-4 -4q0 13 -27 15q-44 26 -64 50l-38 57l-12 7l4 4v4l-27 91l4 4h-4l4 4l-7 53v42l-4 102h-4zM190 684q5 -60 11 -60l-3 -4v-46l-4 -4l4 -3v-8l-4 -4l7 -49l-3 -4q11 0 11 -8l-4 -3v-4q17 -89 50 -118q14 -23 30 -23l11 -11v7l8 -7l23 7v-7l4 4h3l4 -4h4l11 4v-4l12 7 l11 -3q42 2 42 7q2 34 8 34l-4 4l11 76h-4l4 4v8l-4 3l12 73h-4l8 38h-4l4 3v27l3 27l-3 3l3 4l-3 4q12 0 19 129l3 4h-3q11 0 19 122h3l-3 3l11 137h-4l8 15l-4 12l4 4v3l-4 4v4l4 23v4l-4 3l4 4v34l-4 16l4 3v4l-4 4v4l4 4l-12 68h4q-15 67 -34 91l4 4q-27 15 -27 23 l-34 -15l-4 3h-4q-73 -47 -102 -152l-12 -26l4 -4q-11 0 -15 -19l4 -4l-4 -4h-4l4 -3v-4l-11 -15l3 -19l-7 -19l4 -4h-4l4 -4v-4q-13 -10 -27 -99h4l-8 -41h4l-11 -38h3l-26 -133l4 -4v-15l-4 -27h4l-4 -4v-15l4 -15z" />
<glyph unicode=":" horiz-adv-x="232" d="M7 -22l5 23l16 3q-32 9 67 176l76 15q103 -62 51 -125l-9 3l4 -9l-5 -7l-14 -3l3 -9l-4 -6l-15 -4l-5 -6l4 -10q-35 -42 -123 -56l-4 10l-21 6l-16 -3zM7 678l5 23l16 3q-32 9 67 176l76 15q103 -62 51 -125l-9 3l4 -9l-5 -7l-14 -3l3 -9l-4 -6l-15 -4l-5 -6l4 -10 q-35 -42 -123 -56l-4 10l-21 6l-16 -3z" />
<glyph unicode=";" horiz-adv-x="232" d="M7 -111l5 35l14 3q-29 15 62 267l70 23q96 -93 48 -190l-9 5l4 -13l-5 -11l-13 -4l4 -15l-5 -8l-13 -6l-5 -9l4 -15q-32 -63 -114 -85l-4 15l-19 9l-15 -5zM7 678l5 23l16 3q-32 9 67 176l76 15q103 -62 51 -125l-9 3l4 -9l-5 -7l-14 -3l3 -9l-4 -6l-15 -4l-5 -6l4 -10 q-35 -42 -123 -56l-4 10l-21 6l-16 -3z" />
<glyph unicode="&#x3c;" horiz-adv-x="577" d="M104 670q80 52 80 72l87 72q11 0 84 80l4 4h11q30 0 80 -19q26 -6 26 -19v-4l4 4h8q8 0 11 -19l-102 -99q-13 0 -61 -53q-17 0 -27 -46h-7v-7q26 -42 72 -88q0 -7 38 -26l45 -42l35 -42h-8v-4l-4 4h-11q-10 -11 -53 -19q0 8 -12 8l-4 -4h-3q-50 23 -50 34l-19 15l-4 -4 q-17 26 -91 69l-64 53l-54 53z" />
<glyph unicode="=" d="M67 650v8l4 19l4 -4q12 8 49 8v4l4 -4h4l3 4h4l4 -4v4l4 -4l80 11l11 -4l11 4v-4l38 12l4 -4h12l3 4h4v-4q19 8 69 8h3l4 3l4 -3h8l3 3l4 -3h4l4 3l34 -7v4l38 -8l4 4l26 -15v7h4q30 -11 42 -34v-15q-11 0 -23 -15l-26 3l-8 -7l-30 7q-23 -2 -23 -7l-4 4h-8l-72 -16v4 l-4 -4h-38l-3 -3h-4l-4 3l-4 -3v-4l-4 4h-3l-16 -4l-3 4h-4l-31 -4v4l-3 -4h-16l-3 4l-4 -4h-31l-3 4l-4 -4h-4l-4 4h-4v-8h-3l-19 11l-4 -3h-4l-23 3l-4 -3q-10 22 -30 22l-11 19v4l-4 -4h-4zM74 470v8l4 19l4 -4q12 8 49 8v4l4 -4h4l3 4h4l4 -4v4l4 -4l80 11l11 -4l11 4 v-4l38 12l4 -4h12l3 4h4v-4q19 8 69 8h3l4 3l4 -3h8l3 3l4 -3h4l4 3l34 -7v4l38 -8l4 4l26 -15v7h4q30 -11 42 -34v-15q-11 0 -23 -15l-26 3l-8 -7l-30 7q-23 -2 -23 -7l-4 4h-8l-72 -16v4l-4 -4h-38l-3 -3h-4l-4 3l-4 -3v-4l-4 4h-3l-16 -4l-3 4h-4l-31 -4v4l-3 -4h-16 l-3 4l-4 -4h-31l-3 4l-4 -4h-4l-4 4h-4v-8h-3l-19 11l-4 -3h-4l-23 3l-4 -3q-10 22 -30 22l-11 19v4l-4 -4h-4z" />
<glyph unicode="&#x3e;" horiz-adv-x="577" d="M75 879v7l11 12h16l15 -4l11 4v-4l19 8l46 -8l4 4h3q40 0 84 -50q88 -72 198 -178q0 -22 -65 -42q0 -7 -57 -57q-33 -20 -72 -76q0 -24 -76 -34v4l-12 -8l-26 8l-12 -4l-38 23l4 3v4l-19 4l4 4v4l-4 15q19 0 42 30l23 15l-4 4v4q13 0 61 57q11 0 61 57q0 15 -103 91 q-9 15 -27 15l4 4v8q-47 24 -91 76z" />
<glyph unicode="?" horiz-adv-x="599" d="M10 1250q8 70 38 114l19 15l-4 4v8h4l4 -4h4q0 22 102 53l4 -4l38 8l34 -8l4 4q33 -5 38 -15l4 4q128 -21 156 -53q9 0 34 -35l-4 -19q12 -1 23 -76l-4 -15l4 -19v-4h-8l8 -64l-4 -19l4 -4q-11 0 -15 -53q-19 -50 -42 -148q-7 0 -8 -19q-7 0 -7 -23q-27 0 -27 -57 l-53 -114q0 -14 -69 -133q-65 -130 -68 -183l-4 -3v-4l4 4h4v-12h-8l4 -19v-11l-4 -12l8 -60q-8 -13 -12 -57l-3 3h-4q0 -19 -19 -19q0 -11 -23 -11l-4 4q0 -8 -30 -8v-4l-31 12l-3 -4v8l-4 -4h-4l-23 26v57q0 145 53 247q33 76 126 232l80 202q57 162 57 228 q-4 135 -69 178l-4 -4h-3l-4 4l-4 -4h-4l-4 4h-3v-7l-4 3q-80 -52 -80 -102q-9 -8 -15 -84l-31 -15h-7l-4 4h-4l-4 -4v4l-3 -4h-4l-4 4l-15 -8l-23 4h-4l-4 -4l-15 8l-4 -4h-7q0 9 -27 15q-15 34 -15 76zM52 49l4 19h22l4 -3h4v3l4 -3h4l3 3h4l4 -3v-4l15 7l15 -7v7h27l4 -3 l4 3h3l19 -7l4 4l4 -4v4l11 -8l4 4h4l27 -12v-11q-30 -34 -76 -34v4l-4 -4h-31l-15 -4l-42 19l-3 -4l-8 8l4 4v3q-8 0 -8 12q-11 0 -11 7z" />
<glyph unicode="@" horiz-adv-x="978" d="M0 523l4 4l-4 11l19 122h-4q15 24 19 61l8 7l-4 4l8 46h7l-4 3l12 35h-4q23 77 42 106v8l-4 3q11 0 11 19q8 0 27 42q44 57 53 57q53 60 103 76l4 4q11 0 11 11l4 -3h4l3 3v4l4 -4h4l57 31l4 -4h15l49 19l4 4v-4l4 4h4l4 -4l19 8v-4l19 7l57 -3l3 3v-7l42 -4l12 4 q0 -6 41 -15v3l23 -11l12 4q3 -9 49 -23q19 -23 38 -23q30 -29 30 -38l8 -23q23 0 23 -49q7 0 7 -19v-4l-3 -15l3 -15v-12l-3 -3l3 -4v-8l-3 -4l3 -3l-7 -73l4 -3h-8v-4l-8 -46l4 -11h-4q-10 -4 -19 -42q-23 -31 -41 -38l-4 4h-4l-11 -12h-4q-29 0 -99 -19l-8 -38l4 -3h-4 l8 -16h-4l4 -3v-4l-4 -23l4 -4v-4h-4l4 -3v-4q-4 -46 -15 -46l4 -4q-3 -22 -8 -22q8 -15 8 -42v-15l-8 -8l-19 4l-4 -12h-19l-11 -7h-4l-19 4v-4l-19 11l-4 -4q0 9 -26 19l-16 31l8 26l-4 4h4l-4 12q9 0 12 102h3l-3 4v4l3 19l-3 23h-23l-12 -8v8h-26l-12 -8l-3 4v-4l-4 4 h-19v-4l4 -4l-4 -4v-19l4 -3l-16 -42l4 -12l-11 -45l4 -31l-4 -3v-4l4 -12l-4 -3h4q0 -38 -27 -38l-61 -16v4l-4 -4h-26l-53 23l3 19l-3 4v4l3 11l-3 4h-4l4 11q0 114 11 114l-4 4v4l4 4v4h-4l12 38h-4l7 22v8l-3 4v4q14 0 19 60l7 8v19h8l-4 4v7l4 4v4l-4 4q6 0 11 23l-3 3 q8 0 22 57q19 16 31 42q52 46 76 46h11l4 -4l68 15l12 -7l4 3h15l4 -3l11 7q95 -27 95 -114q8 0 8 -30l7 -8v-15l-4 -4v-4h4l-4 -3v-4l4 -12l-4 -19v-11l8 -8q25 23 38 54l-4 3q7 0 31 84h-4q5 19 11 19l-4 4l4 23q0 92 -49 148l-42 26h-8l-3 -3l-4 3h-8q-159 -38 -190 -72 q-18 0 -57 -45q-24 -14 -38 -35q-20 -4 -57 -98q-25 -61 -34 -61v-12l-4 -19l4 -3q-8 0 -11 -31h-4l4 -4v-3l-8 -19l4 -4l-4 -4h4l-8 -23h4l-19 -68l8 -8q-7 0 -12 -23l4 -3l-4 -4h4l-8 -15l4 -4l-4 -27v-38l4 -4v-3l-4 -4h4l-4 -4l4 -19l-4 -19q11 0 16 -34l-4 -4v-4 q22 -91 49 -91q55 -53 72 -53l12 4v-4l11 7l4 -3h8l3 3h4l4 -3l4 3v4l4 -4h3q80 18 80 35l4 -4l106 64l4 -3l8 7l4 -4v-3l19 3l34 -11v4q45 -19 53 -38v-8q0 -14 -19 -30l-11 4l-12 -4l4 -4v-4h-23q0 -10 -42 -23q0 -7 -15 -7q-27 -24 -80 -38l-22 -8l-4 4v-4l-4 4h-4 l-68 -8v4l-42 -11v4l-27 -8l-3 4l-4 -4v4l-4 -4h-4l-38 8v-4l-68 30l-4 -4q-7 13 -53 35q-16 17 -42 26q0 10 -53 57l-34 103h3l-7 19l4 11zM418 747h19l4 -4l38 12l23 -4q-8 17 -8 49l4 16l-15 76l-4 11h-8q0 -11 -11 -11l-12 -31q-19 -58 -19 -80v-11h-7l4 -4v-4h-8l4 -3 l-4 -4v-8z" />
<glyph unicode="A" horiz-adv-x="749" d="M0 -25l30 80h-3l15 34l-4 4q11 0 11 34l4 4h-4l16 53l-4 4q6 0 23 49h3l-3 4v4l11 19v4l-4 4q8 10 12 68l-8 8l11 3l-3 4l3 27l-3 15l11 46h-4l4 3v4l-4 4l12 72h-4l7 15l-3 4l7 34h-4l12 50h-4q11 48 11 148l4 4v4h-4l4 3v4q0 109 46 369l-4 11l11 31l-3 3l3 4l-3 4 q7 0 19 65h-4q21 136 42 136q21 35 49 35h4l4 -4h3l4 4v3l4 -3h19l4 3q30 -11 30 -38l-4 -3l8 -42l-8 -8l19 -99l-3 -3v-4l7 -31l-4 -3v-4l12 -42l-4 -4v-4l8 -26h-4q1 -19 11 -19v-4h-7l7 -23h-4l19 -76l4 4h4q34 -51 34 -114l-4 -15q7 0 12 -34h-4l15 -61h-4l31 -110 q0 -12 7 -12v-4l-3 -3l26 -84h4l-4 -4v-4l8 -11l-4 -4v-4l8 -7h-4q4 -36 23 -76v-4l-4 -4l19 -34q12 -108 30 -122l-4 -3v-16h8v-7l27 -110l-4 -4h7l-3 -15l15 -38l-8 -27h4q-1 -13 -49 -38l-4 -11l-4 3h-4q-9 -16 -19 -19l-4 4q-32 -23 -68 -34l-15 4l4 4v3l-8 8h4l-8 30h4 l-27 118h4q-39 199 -45 202l3 3q-8 50 -15 50l4 4l-23 110h4q-5 19 -11 19h-4l-4 -4l-4 4h-7l-27 -4l-4 4l-4 -4v4l-3 -4h-4l-4 4l-4 -4h-4l-22 4l-4 -4l-4 4l-8 -38h4l-7 -42h3q-7 -19 -7 -68v-4l4 -4l-4 -4v-26q0 -30 -53 -183l3 -4v-3q-7 -8 -22 -69q-6 0 -19 -53 q-28 -31 -57 -42l-4 4l-42 -30l-4 3l-38 -22v3q-15 -1 -15 -11q-19 5 -19 11v4zM296 644l38 -4l4 4v-4l23 8l15 -4q-38 175 -49 281h-4l-4 -49h4l-4 -4v-4l4 -4l-8 -15h4l-4 -4v-7l-3 -103h-4l4 -4v-3l-12 -69h4z" />
<glyph unicode="B" horiz-adv-x="652" d="M0 239l4 4v27l-4 15l4 11l-4 27l4 42h-4l11 129h-3l3 4v4l4 87l-4 4q8 0 8 11l-4 12h4l-4 3v4l4 15l-4 4l8 65v15l-4 4l8 23h-4l4 3v4l-4 23l4 11h-4l7 42h-3l3 4v30l4 46h-4l4 4v4l-4 3l4 4v15l-4 4l4 4v30l-4 4l4 4v76l-4 4l8 42h-4l4 3v42l-4 4l8 30l-4 4v4l4 23h-4 l4 4v22l-4 4l8 27h-4l4 4v3l-4 4l4 4v30l15 95h-4l4 4v8l-4 4v3q11 0 27 27l3 -4l42 12l8 -8v4q108 -19 171 -46l4 4h7l8 -8v-3l4 3h7q0 -10 50 -22q75 -45 95 -80l3 4q31 -40 35 -65h-8l8 -27l-4 -11l4 -4h-4l4 -4v-11l-4 -4v-4h4l-16 -53l4 -4q-11 -52 -26 -60 q0 -18 -31 -73q-13 -45 -61 -68h-3l3 -4v-4q-30 -4 -30 -15l-4 4h-4v-8l-3 4h-4l-15 -7l7 -8h19v-8l4 4q99 -50 125 -76l-3 -11l22 -42h-3l22 -46q0 -44 27 -140l-4 -12l4 -19l-4 -30l4 -4l-4 -4v-3l4 -4l-23 -72h4l-11 -23h3q-6 -23 -11 -23l4 -4v-7l-4 -4l4 -4v-4l-12 -30 h4l-7 -42l3 -11l-30 -73h4l-46 -76l4 -3q-30 -51 -87 -69q0 -26 -65 -26h-38l-8 -8l-19 4l-3 -4h-4l-8 8q-20 -19 -30 -19v3l-34 -11l-12 4l-34 -4l-15 4l-15 -4q-51 25 -57 46v38l-4 3l4 4v31l-4 3l4 4v15l-4 16l4 3v4l-4 61v8zM190 232l8 -65l-4 -53v-30q78 22 129 106 q38 59 46 95q8 0 30 133l-4 4l4 4h-4l8 15h-4l11 53l-3 11l3 4v4l-3 11l3 4h-3l3 4v4l-3 4v3h3l-3 4v46l-4 4v3l4 4l-4 4h-4l4 4q-24 121 -42 140l4 4l-12 23l4 4q-19 15 -26 42l-99 41v-3l-15 7l-4 -4l4 -19v-19l-4 -3l4 -4l-8 -72h4l-4 -12l4 -15l-4 -34v-38l-4 -4l4 -4 l-4 -26v-35l4 -3l-4 -4v-38l-4 -4v-4l4 -4h-4l4 -3v-4l-7 -103h3l-7 -42h4l-4 -3v-4l4 -4l-8 -42l4 -4l-4 -19v-7h4l-4 -19v-15l4 -4l-4 -4v-4l4 -4v-3zM217 992l7 -19l61 42l-4 3v8q23 5 72 129h-3q8 0 15 91q0 69 -27 84q-41 35 -72 46q-26 0 -34 -88l-4 -4h4l-12 -72 l8 -34h-8v-15l4 -4l-4 -4v-4l4 -22l-4 -4v-4l4 -27l-4 -15l4 -4l-7 -64l3 -12l-3 -3v-4z" />
<glyph unicode="C" horiz-adv-x="577" d="M-20 749l4 3v69l4 4l-4 3l4 19v122l3 4v4h-3l3 11l4 80l4 4h-4q29 104 46 121h-4q20 56 38 69q32 40 95 72q84 30 141 30q48 -8 79 -30q31 -3 31 -12v-3q0 -10 -34 -19l-4 3h-8l-4 -3h-3l-4 3l-4 -3l-4 3q0 -9 -49 -34q-37 -20 -53 -53q-19 0 -65 -144q-9 0 -11 -107 l-4 -4h4l-4 -3v-8h4l-4 -38v-42h7l-3 -4v-7l3 -4v-4l-7 -7l4 -4v-4l-8 -8l4 -3h4l-8 -19l4 -4l-4 -19v-42l4 -4v-4h-8l4 -3v-12l-4 -4l4 -3v-8l-4 -4v-4l4 -3h4l-4 -4v-8l4 -4l-4 -3v-8l4 -4l-4 -4v-3l4 -4v-4h-4l8 -19l-8 -8v-3l8 -12l-8 -7v-23l4 -4v-4h-4l8 -30l-4 -4v-4 l7 -30l-3 -4l7 -76h-4l8 -27l-4 -3v-4l4 -12h-4l12 -76h-4q7 -11 19 -79h-4l15 -31l-4 -4l4 -3h-4l12 -27h-4q12 -41 46 -65v-3h3l23 7l4 -4l46 27q26 0 26 -8l12 4l19 -7v7l3 -4h4l4 4h4v-7h4l3 3l27 -7l4 4q0 -8 19 -8q0 -9 15 -19l4 -19q-30 -9 -46 -23v4l-26 -15l-4 4 h-4q-10 -8 -49 -12v-7h-4l-4 3l-34 -7l-4 4h-4l-15 -4l-4 4l-15 -8l-46 11l-3 -3h-4l-38 15l-4 -4q-43 30 -57 30q-5 17 -34 27l-34 42l-35 87l-7 8l4 4v3l-8 16l4 3v4l-4 12h4l-8 15l4 4v7l-4 4v4h4l-19 102h4l-8 35h4l-4 3v4l-7 126l3 3l-3 19v46l-4 4l4 11l-4 4v4l4 11 l-4 12h4l-4 3v27l4 4v4h-4l4 3z" />
<glyph unicode="D" horiz-adv-x="577" d="M0 57l4 19v46l-4 3l4 4v12l-4 11l4 19v106l4 4l-4 4l7 80l-3 4v3l7 16l-4 3v12l4 4v3h-4l8 27h-4l4 4v38l4 19h-4l4 4v15l-4 4l4 3v31l4 23l-4 15l4 15h-4l4 4v76l3 4l-3 3v4l3 12h-3l7 57h-4l4 3v12l-4 4l8 30l-4 4v11l4 4l-4 4l8 34h-4l8 30l-4 4v12l4 19l-4 3h4l-4 4 l15 110l-4 4v8l4 4l-4 3v16l4 19h-4l8 22l-4 23l4 4v4l-4 15v4l4 19h-4l8 49l-4 15l4 4h-4l4 4v15l-4 15l4 4v4l-4 4l4 19v26l-4 4l15 38l4 -4l19 4l23 -11l3 4q0 -9 69 -23l4 -4v-4h7q34 0 141 -68q87 -68 87 -91q0 -22 27 -54q26 -89 26 -121l-3 4h-4v-4l7 -12v-79l4 -4 l-4 -4v-8l4 -3l-4 -4v-4q0 -27 8 -27l-4 -3l4 -27v-27l-4 -3l4 -12l4 -57l-4 -23l4 -3l-4 -4l4 -4h-4l4 -4v-19l-8 -11v-27l4 -4l-8 -34h4l-4 -11l4 -12l-4 -3h-3l3 -4l-3 -19v-15l3 -4l-7 -23h-4l4 -4v-4l-4 -3v-4h4l-4 -4v-4l4 -4q-11 -97 -15 -98l3 -4q-2 -27 -7 -27 l4 -4v-3q0 -27 -19 -27l3 -11l-3 -16l3 -11l-3 -15l3 -4l-7 -8l4 -11q0 -11 -16 -11l-11 -46h4l-15 -42l3 -4q-28 -80 -53 -87l-34 -30l4 -4q-14 -12 -65 -23l-11 4l-12 -4l-3 4h-4l-4 -4h-4l-23 4l-11 -12h-4l-19 4l-53 -11l-4 4l-7 -8l-35 8l-3 -4l-23 11l-4 -4zM171 84 l4 -4h4l3 4v3l4 -3h4l34 30q45 25 69 118q1 23 7 23l-4 3v4q50 231 50 388l4 30h-4l4 4v27l3 34l-3 4l3 19v38l4 15l-4 4v3l4 42v15l-4 4l4 4l-4 46v26l-3 4l3 4v4l-3 38h3l-19 106l-22 57q-9 0 -19 30q-26 48 -50 61l-7 8h-4l7 -31l-3 -11l3 -4l-11 -118l8 -15l-16 -95h4 q-7 -14 -11 -57h-4l4 -4v-3l-8 -38h4l-4 -4v-23l-7 -95h3l-3 -4v-4l3 -19l-3 -15h3l-3 -4v-49l-4 -15l4 -15v-42l-4 -15l4 -16h-4l4 -3v-16l-4 -22l4 -4l-4 -19v-34l-4 -38h4l-4 -4v-19l4 -4l-8 -42l4 -4l-8 -41l4 -4l-7 -57h3l-7 -34l4 -4v-27h7l-7 -23l3 -3v-4 q-6 -6 -11 -91z" />
<glyph unicode="E" horiz-adv-x="629" d="M0 1016l4 4v4l-4 15v27l4 4l-4 3v4l4 12h-4q11 90 49 171l46 76l76 41v4l4 -4h4q18 12 76 23v-4l15 8l4 -4h3q10 8 50 8v4l4 -4h3l35 4v-4l3 4h23l4 -4l4 4h4l11 -4v4q39 0 99 -35q25 0 34 -22v-4l-27 -12l-3 4v-7l-19 3v-3l-4 3q-72 -7 -80 -15l-4 4h-4q-12 -12 -76 -19 q-26 -9 -45 -27l-4 4q-42 -36 -76 -118h-4l4 -3v-4q-23 -50 -23 -114l4 -4h4l4 4v-4l3 4h46l19 -4l4 4v-4l23 8l19 -8l3 4q0 -9 111 -38q0 -11 30 -19q0 -18 -49 -31v4l-4 -4h-12l-3 4h-4v-7l-4 3h-4v-3l-4 3h-11l-19 -3l-4 3l-7 -7l-4 4v-4l-4 4h-8l-3 -4l-4 4h-8l-26 -4 l-4 4l-4 -4v4l-4 -4h-4l-3 4l-4 -4h-4l-23 4v-4l-38 7v-26l4 -27h-4l4 -4v-7l-4 -4l4 -4v-4l-4 -3l4 -12l11 -167l-3 -11l7 -31l-4 -15v-11l4 -4l-4 -4v-4l4 -15l-4 -34h4l-4 -4v-72l4 -15l-4 -16v-22l4 -42l-4 -19h4l-4 -4v-4l4 -15l-4 -4v-4l4 -3l-4 -38v-16l-3 -3l3 -4 v-8l-3 -15l3 -11h-7l4 -4v-42l3 -27h-3l3 -3v-4l-3 -4l3 -4l-3 -19l7 -30h-4q32 -67 54 -72q0 -8 19 -8l72 23l61 -8l3 4l4 -4v4q51 -10 57 -19l12 4v-4q12 -11 26 -11v-8l-30 -27v-3l-4 3l-42 -15v4q-15 -11 -53 -15l-4 4l-45 -8l-4 4h-4l-15 -4l-15 4l-4 -4l-4 4v-4l-4 4 h-4l-19 -4l-68 23l-4 -4h-4l-49 23l-4 -4q0 8 -30 23q-41 32 -57 64h-4l4 4v4q-9 0 -19 23l4 4l-4 3v4l4 4v4h-8v4l-4 41l4 4v4l-4 11l4 4l-4 19l4 50l-4 3v4l4 12l-4 3v4l4 12h-4l8 22l-4 4l4 38v23l-4 15l4 4v4l-4 30h4l-4 4v4l4 30l-4 19l4 4v4l-4 4v3l4 12l-4 4v3l4 4 l-4 19v8h4l-4 19v30l-8 72l8 8l-4 11h4l-4 4v15l4 19l-4 4h4l-8 31l4 3v4l-4 12h4l-4 3v4l4 4q-6 42 -11 42l4 4v7l-4 23l4 4z" />
<glyph unicode="F" horiz-adv-x="622" d="M0 117l4 11h-4l4 4v27l-4 3l4 4v4l-4 11l4 12h-4l4 4l-4 45v34l4 16l-4 3l4 38v103l4 15l-4 12h4l-4 3v4l4 19l-4 23l4 4h-4l4 4v7h-4l4 38v42l-4 15l7 50l-3 3l3 19v8h-3l7 49h-4l4 4v53l4 4l-4 4l4 27v11l-4 38l4 4h-4l8 15v8h-4l4 26v19l-4 19q8 34 8 91v8l3 15l-3 12 l3 19l-3 41v42q0 132 53 209q33 18 118 42l3 -4h8v8h4l4 -4l41 8l4 -4h19l4 4l15 -8l4 4h4l15 -4l4 4l7 -8h8l4 4h4l3 -4v4q31 -7 31 -15l4 4l34 -16l4 4q0 -11 34 -23q0 -10 26 -15v-7q25 -10 27 -19v-8l-15 -15h-31l-15 4l-4 -4h-3l-73 7h-3l-8 -7l-4 4h-4l-30 -12v4 l-34 -11v3q-47 -19 -50 -30q-15 -25 -22 -68l-4 -4q0 -52 -8 -84l4 -4h4l38 8l4 -4h3l4 4h4l4 -4l19 4l49 -15q18 0 76 -38l4 4v-12l4 4h4q7 0 7 -19h4q0 -14 -61 -23v-4l-11 4l-12 -7l-3 3h-4l-42 -15l-4 4h-4l-91 -23v-4l-7 -98l3 -4l-7 -61l4 -15l-4 -38v-12l-4 -3l4 -4 v-4l-4 -4v-4h4l-4 -3l4 -12l-12 -114v-11l-3 -4l3 -4l-7 -87h7q-7 -8 -11 -65h4l-4 -30h-4v11h-4v-26l12 -38v-12l-4 -4l4 -3v-4l-4 -4l4 -4v-7l-4 -4l4 -4l-4 -38v-15l-4 -4l4 -4v-26l-4 -27h4l-4 -4v-4l4 -19l-4 -3l4 -19v-38h-4v19h-4l-3 -12l7 -30l-7 -31v-15l3 -4 l-7 -22v-42q-12 0 -12 -15l-15 3q-10 -7 -34 -7v-4q-58 11 -65 23q-26 23 -26 42v49z" />
<glyph unicode="G" horiz-adv-x="637" d="M0 246l4 4v64l-4 4l8 19h-4l4 4v42l-4 4l4 3v4l7 129l-4 4h4l-4 4l4 19l-4 4l4 4v7l-4 4l4 4v4l-4 15l12 64h-4l4 4l-4 19l4 12l-4 3v4l4 12l-4 3v4l4 4v4l-4 11h4l-4 4v4l8 80h-4l7 19l-7 60l4 4h3l-3 4v4l3 15l-3 11h3l-3 4v4l3 4l-3 19v23q0 74 34 212l34 80 q28 66 110 103l15 -4q0 8 61 19v4l15 -4l23 4l12 -4v4l3 -4l16 4l45 -12l4 4l4 -11h11q53 -15 65 -27v4q45 -16 45 -30q-4 -19 -11 -19l-4 3v-7l-4 4h-3l-12 -4l-4 4h-3l-16 -4h-7v7l-4 -3q-19 4 -19 11l-19 -8l-4 4q-34 -4 -49 -15v4q-57 -21 -91 -72q-57 -144 -57 -183 l-4 -4h4l-16 -95l8 -30h-4l4 -4l-4 -11l4 -42l-4 -34l4 -19l-4 -4v-4l4 -4v-3l-4 -16l4 -11h-4l8 -15h-8l8 -12l-8 -7v-8h8l-8 -11l4 -4v-4l-4 -19l4 -4h-4l4 -3v-4l-4 -4v-4l4 -4h-4l4 -3v-4l-4 -4l4 -4l-4 -38l4 -23l-8 -87h4l-4 -4v-7l4 -4l-4 -12l4 -3v-4l-4 -15h4 l-7 -19l7 -8l-7 -8l3 -11l-7 -53l4 -4l-4 -19l4 -19l-8 -8l4 -3q-8 -21 -8 -54h4l-4 -3v-4l8 -19h-8l27 -84v-4l-4 -11l42 -57l30 15l4 -4q80 58 80 95q14 19 26 80l-3 15l3 4l-3 4v68h-4q-10 -7 -38 -7v-4l-12 8l-22 -8l-16 4l-3 -4h-4l-31 15l-3 -4l-38 35v30h7v4l19 -4 q42 0 42 11l11 -3l50 15l4 -4q32 4 45 15l34 -7h8v-8h4l11 4q0 -12 42 -19l4 -4l4 4v-8l3 4h4q23 -6 23 -27v-3l-8 -50l4 -4v-3l-4 -23l4 -4l-4 -4v-4l12 -60l-4 -4v-4l8 -30v-4l-12 -12l4 -3v-4l-11 -19l3 -4h-7l4 -27l-4 -11h7v-8q-29 -63 -117 -98l-27 -12l-4 4h-4 l-26 -11v3l-50 -11l-22 8l-12 -4v7h-4l-3 -3l-4 3h-4l-19 -3q0 6 -19 11l-8 -8l-49 27l-4 -4l-57 53q-21 17 -30 42q-36 42 -53 114q0 23 -8 23z" />
<glyph unicode="H" horiz-adv-x="569" d="M0 224h4l-4 4v27l4 114l4 3h-4l7 38l-3 4v50l3 3v4h-3l3 4v4l-3 4l7 45l-4 4l8 46l-4 3l4 19v65l4 4l-8 23l4 11l-4 15l4 34v23l-4 19l4 4h-4l4 11l-4 16l4 3v4l-4 15l4 4v4l-4 4h4l-4 4l4 19l-4 11l4 27v53l4 4l-4 3v4l4 4v4l-4 11l4 34l-4 16l4 3l-4 19l4 19h-4l8 38 h-4l4 4v69l-4 3l4 4v38l-4 4l4 11l-4 12l7 42l-3 3l3 19v38l8 27h23l114 -34l4 4q34 -25 34 -57l-8 -8v-8l-4 -72l4 -4v-3l-4 -4v-4l4 -11l-4 -16q3 -26 8 -26l-8 -27l4 -4l-4 -19v-3l4 -4v-4l19 4h31l15 7l19 -3v3l4 -3h3q7 0 12 19l-8 45l4 4l-4 19v34l-4 4v4h4l-4 4v3 l4 4l-4 4v4l4 4l-7 15l3 11q0 19 -7 19l4 4v4l-4 11h4q-12 31 -12 53h12v4l30 -15l11 4l38 -19l4 4q0 -12 46 -19q0 -12 19 -12q15 -12 23 -95h-4l7 -11l-3 -4v-4l3 -4l-3 -3l3 -19v-27l4 -4v-4h-4l4 -3v-4l-4 -4l4 -4v-19q1 -38 8 -38l-4 -4v-15l4 -11l-4 -19v-31l4 -3 l-4 -4v-4l4 -4v-4l-4 -15h4l-4 -4v-72l-8 -11v-4l8 -11v-4l-4 4h-4l-3 -4l3 -4l-15 -99h4l-8 -26h8l-4 -19v-12l4 -4v-3h-4l4 -4v-4l-4 -4l4 -4v-3l-4 -27h4l-8 -15l8 -27h-4q5 -30 12 -30l-4 -4v-4q5 -34 15 -34v-8l-11 -19l7 -53l-4 -4h4l-4 -3v-4l4 -4l-4 -4v-26l4 -4v-4 l-7 -8h3l-3 -3v-4l7 -23l-7 -23h-4v-19l-4 -4l4 -3v-8l-4 -4l4 -4v-7l-8 -12v-38l4 -3v-4l-4 -4h-4l4 -19v-27q0 -49 12 -49l-4 -4l4 -19v-7l-4 -4l4 -4l-8 -38l4 -4v-19q-10 -16 -27 -23l-4 4l-15 -11l-23 4v-8h-3q-19 0 -19 8l-12 -4q-42 14 -42 64h-3l7 31h-4l4 4l-4 26 v126l4 3v4h-4l4 12l-4 3l4 19v42l-4 4l4 4v91h-7v4h7v7l-4 16l4 3l-7 73h3l-7 41l4 4l-4 19v4l4 4l-8 11l4 4v4l-4 15l4 4l-4 4h4l-4 3v35l4 3l-4 4v4l4 15l-4 27l4 15h-4l4 4v4l-4 11l4 19v30l-4 4l4 4v38l-4 4l4 4v15l-4 4v3l4 4h-4l4 4v4l-4 4v3l4 27l-4 4v4l4 3l-4 19 v12l4 4l-8 19l-15 -8l-11 4q0 -12 -73 -19v-27l-3 -26h3l-3 -4v-19l3 -4l-3 -4v-11l3 -4l-7 -23l4 -4v-3l-4 -35v-7l4 -4l-8 -49l4 -4v-4l-4 -11l4 -4l-12 -53l4 -4l-4 -19v-15l4 -4l-4 -4v-8l4 -3l-4 -4l4 -19l-4 -34l4 -12q-2 -26 -7 -26l3 -4l-3 -53h-4q0 15 -8 15v4h8 v15l-4 4v3l4 4h-8l-4 -23h4l-4 -3v-16h4v8h4v-19l4 4h4v-4l-4 -4l4 -11l-8 -15l4 -4h-4l8 -19l-4 -72h-4q0 41 -8 41h-3v-3h7q-15 -41 -15 -84l4 -11h-8l8 -35l-4 -34v-26l-4 -4l4 -4v-15q0 -19 -8 -19l4 -4l-11 -68l4 -4v-15l-4 -19l4 -4l-12 -15h4q0 -15 -23 -23v4l-4 -4 h-3l-19 4v-4l-4 4h-12l-3 -4l-27 11v-4q-30 20 -30 27l3 4v4l-3 11h3l-3 4v49l-4 4l4 4v23l-4 19l4 19zM160 407l7 7l-4 4h-3v-11zM163 205v65h4l4 -31l-4 -3h4l-4 -4l4 -19l-4 -4l4 -4v-7zM167 156v11h8l-4 -11h-4zM167 175v15h4v-15h-4zM167 532h4v19h-4v-19zM167 559h8 l-4 19h-4v-19z" />
<glyph unicode="I" horiz-adv-x="322" d="M0 53l8 31l-4 3l7 31l-3 4l7 49h-4l8 53h-4l4 4v19l-4 4l4 4v19l-4 15l4 11l-4 4h4l-4 11l4 4v4l-4 15h4l-4 4v11l4 16l-4 11l4 4h-4l4 4v15l-4 4v3l4 4h4l-4 4v4l4 4l-4 3v4l4 34l-4 4h4l-4 4l4 19l-4 4l4 11l-4 12l4 3h-4l4 4v8l-4 4l4 3v23l-4 4l4 4v23l-4 3l4 4v42 l4 15l-4 15v4l4 19h-4l4 4v38l3 4v4h-3q7 19 11 79l-4 4l4 4h4l-4 4v4l4 3l-4 4l11 88h-3l3 3v23l-3 4l7 19l-4 4v19l4 23l-4 15l4 26h-4l8 42h-4l4 4v4l-4 4l8 60h-4l4 4v53l-4 4l11 69l-3 3h3l-7 31l4 4v3l-8 16l4 22h19q55 -24 118 -38l3 -11h19l27 -30v-4h-8v-4l4 -4 l-4 -19v-42l4 -3l-7 -16l3 -3v-69l-3 -4l3 -11l-3 -4v-4l3 -3l-11 -73l4 -3l-4 -19v-38l-4 -4l4 -4v-4l-4 -11l4 -4h-4l4 -4v-34l-4 -4l4 -4v-19l-4 -19h4l-15 -152h4l-12 -22l4 -4l-8 -27l4 -4v-3l-7 -73h3l-3 -3v-84l-4 -4l4 -4v-38l-4 -3l4 -4v-61q0 -38 -8 -38l4 -4v-4 l-8 -60h4l-4 -4v-15l4 -4l-4 -4v-4l4 -4l-4 -3v-4l4 -15h-4l4 -4v-84l-4 -4v-3h4l-4 -4v-15l-4 -65h4q-4 -34 -11 -34l-12 4v-4l-15 -15v3l-49 -11l-4 4h-4l-4 -4v8l-3 -4l-23 7l-4 -3h-4q-19 2 -53 45z" />
<glyph unicode="J" horiz-adv-x="592" d="M-20 306q8 23 19 23l19 -8l4 4q0 -8 23 -8v-4l11 4q19 0 19 -7l4 3h4l3 -3h4v3l4 -3h4l11 3q7 -12 61 -19q0 -11 8 -11v-15l-8 -34h4l-4 -12q1 -68 8 -68l-4 -4v-4l7 -49h-3q7 -30 30 -65h4q65 43 102 133l27 110h-4l12 69h-4l4 4v49l3 4v4h-3l3 3v4l-3 4l3 4v19l-3 15 l3 15l-3 4l3 4v4l-3 11l3 4h-3l3 4l-3 26v46l-4 4l4 3v23l-4 4l4 4v4l-4 19h4l-4 3v4l4 4v4l-4 15l4 11l-4 4l4 4h-4l4 4v15l-4 4l4 4v41l-4 4l7 31l-3 3v46l-4 15l4 15l-4 12l4 15l-4 4l4 4v3l-4 16h4l-4 3v4l4 34l-4 4v4l4 4v4l-4 3l7 50l-3 4l3 26v42l-3 4l7 34 q-2 27 -7 27l3 11l-3 103h-4l4 3l-12 80l-23 -7l-3 3q-27 -2 -27 -7l-4 4h-7l-4 -4l-4 4l-42 -8l-57 15v-4l-38 16v-4q-28 10 -38 30q-11 0 -19 38l31 8h45l4 4l4 -4h7l4 4h4v-4l19 7l4 -3l83 11v-4l54 12l87 -38l11 3q27 -22 42 -22q0 -9 19 -23l4 -15l-4 -4h4l-4 -4v-4 l4 -4v-3l-4 -12l4 -4v-3l-4 -12l4 -4l-11 -11h3l-3 -4v-7l3 -4l-3 -4v-4l3 -15l-3 -4v-4l7 -22v-31l-4 -4l8 -34l-8 -11l8 -27h-4l8 -15l-4 -4v-4l4 -3l-4 -4v-42l-15 -15l7 -19l-7 -53l4 -4l-4 -4h4l-16 -57v-34l-3 -4l7 -15l-4 -4h4l-4 -4v-15l4 -4l-4 -11l4 -4v-4l-7 -15 l7 -38h-4l4 -4v-11l-4 -4l4 -4v-15l-4 -4v-4h4l-4 -3v-8l4 -4l-4 -4v-19h8l-8 -11v-23l4 -4l-4 -3v-4l4 -12l-4 -3h4l-4 -4v-4l4 -15h-4l4 -4v-4l-4 -11h8v-4l-4 -4v-4h4l-8 -22l4 -4h4l-4 -12l4 -11h-4l4 -4v-4l-4 -15l4 -4v-3l-4 -4l4 -19l-4 -23l4 -11l-4 -4v-4l4 -4 l-8 -49l4 -12l-7 -26l3 -4l-3 -4h3l-3 -4v-3l3 -4v-4l-7 -8v-3l4 -4l-4 -4v-23l4 -4l-16 -38l4 -22l-4 -4h4l-15 -34h4q-5 -53 -84 -156q-41 -31 -80 -34l-15 -8v4l-4 -4h-26l-34 4l-12 -4l-68 19v-4l-38 27q0 6 -23 19l-34 57l-19 53l4 4q-4 34 -12 45l4 16l-8 11l4 4v4 l-4 15l8 42q-6 34 -19 34z" />
<glyph unicode="K" horiz-adv-x="719" d="M0 269v4l4 3h-4l4 4v4l-4 19l4 4h-4l4 4v3l-4 12l4 4l-4 3l4 4l-4 4h4l-4 11l4 4l-4 15l11 354v15l4 4v4h-4l4 11l-4 4l4 19v11l-4 4v4l4 4l-4 3h4l-4 4l4 19l-4 4l8 38l-4 4v4l8 49l-4 4v4l4 19l-4 3v4l8 12l-4 3v42l4 4v4h-4l7 15l-3 4v15l3 19h-3l3 4v4l-3 3l3 4v4 l-3 4l3 4v15l-3 4l7 30l-4 4l8 76h-4l4 4v7l-4 4v4l4 4h-4l4 3v23l-4 15l8 27l-4 4v83l4 4v4l-4 4l4 4h-4l4 3v57l7 8l35 -8l3 4q0 -6 65 -30l4 4q0 -11 38 -19q0 -12 11 -12l12 -26l-12 -99l4 -15h-4l8 -31l-8 -30h4l-4 -4v-8l4 -3l-4 -4v-15l4 -4l-4 -12l4 -3l-8 -46l4 -4 l-11 -125v-4h4l30 42q12 26 42 49l57 61q58 81 72 91l80 114v4l-4 4q14 0 30 34l16 11l30 -11v4q106 -54 106 -76q-56 -99 -144 -209l4 -4q-12 0 -12 -15q-15 -2 -72 -91q-10 0 -26 -27l-35 -34l-49 -80q-38 -30 -38 -53q68 -123 68 -156l35 -61l-4 -4q16 -22 30 -22 q0 -12 15 -12q0 -10 19 -34l-3 -4q11 -12 72 -167q26 -48 49 -122l19 -53h-4l8 -19h-4l27 -80h-4q0 -38 19 -60v-12q-23 -19 -84 -30l-15 4l-11 -8q-46 20 -46 27q-12 11 -30 49h4l-27 65l-4 3h4l-23 50l4 4l-30 60l3 4q-12 0 -30 69h-8v3l4 4l-26 57q-4 39 -23 80l4 4 q-7 3 -38 99l-12 7l4 4v4l-11 23h3q-22 67 -53 125h-4l-3 -4v-4l3 -3l-3 -4v-4l3 -4l-3 -4v-7l-4 -57h-4l-4 4h-4l-3 -4v-4h3l-3 -11l3 -12h-7l7 -11l-7 -12h7l-7 -34h4l-8 -15l4 -4v-42l-4 -19h8q-7 -38 -16 -38l12 -22l-4 -4v-12l4 -15l-4 -15v-8l4 -15l-4 -11l4 -4h-4 l4 -4v-7l-4 -4l8 -27h-4l4 -4l-12 -49l4 -23v-7l-4 -4l4 -4l-4 -11l8 -54h-4l4 -3v-16l-4 -3l4 -4v-4l-12 -38l4 -19v-15q0 -34 -49 -42l-4 4h-38q-31 0 -38 23l-11 15l3 4l-3 3h-4l4 27v122l-4 3l4 4v8l-4 15l4 4l-4 26v27z" />
<glyph unicode="L" horiz-adv-x="644" d="M0 1385l4 4v4l-4 19l8 7l26 -7v3l4 -3h4l4 3h3l4 -3q0 -8 34 -8q0 -8 69 -34q14 -6 30 -95l-4 -4l8 -46h-4l4 -3v-4l-4 -4l8 -30l-4 -4v-4l4 -4v-4l-8 -38l4 -15v-4l-4 -15l4 -4v-3l-4 -35l4 -15l-4 -11h4l-4 -4v-53l-4 -23l4 -15l-4 -4l8 -57l-4 -23v-80l4 -3l-4 -12 l4 -11l-4 -15l8 -80v-31l4 -19l-4 -3h-4l11 -99h4l-4 -4l8 -91v-15l4 -16l-4 -3v-4l4 -4v-11h-4l8 -141h-19q0 -57 -8 -57l8 -11l-4 -19v-8l4 -23l-4 -4q0 -34 23 -34l64 -4v4l15 -7l16 3l3 -3l4 3v-3l4 3h4l30 -7l4 4h4l4 -4l19 4h7q14 -12 50 -19l15 -4l4 -4v-4l3 4h8 q13 0 23 -34q-5 -19 -12 -19h-3l-4 4l-23 -8h-4l-57 8l-4 -4l-7 7h-4l-4 -3h-4v3l-3 -3l-27 3h-11l-4 -3h-4v3l-4 -3h-4l-3 3h-4l-4 -3h-4l-68 15l-4 -4l-49 11v-3l-42 7v-4q-47 0 -95 65l4 4v4l-4 3l4 4v12l-4 3v4h4l-4 4v11l4 4l-4 4v99l4 4l-4 3l4 42l-4 84h-4l4 4v3 q-4 202 -12 202v7h4l-7 130l3 3v4l-11 114l4 12h-4l4 3v88l-4 26h4l-8 50h4l-4 4v3l4 4v4l-4 4l8 76h-4l4 4v11l-4 15l4 15v12l-4 4l8 34l-8 45l4 4l-8 38l4 4l-15 95l4 4v4z" />
<glyph unicode="M" horiz-adv-x="704" d="M0 41l15 209h-4l4 4v19l-4 11l4 19l8 141l-4 3l4 19v76l4 27l-4 4h4l-4 4l4 45v27l3 4l-3 3l7 88l-4 4v3l12 107h-4l8 68l-4 4v4l7 38l-3 11l3 27l-3 11q5 0 11 15l-4 4l4 19v34l4 35l-4 3l11 149l-3 3l3 19v46l-3 15l3 15v27l4 4v4l-4 3h-3l3 4v12l-3 3v4l19 8l72 -23h4 l3 4h4q0 -13 76 -31q80 -92 80 -110h8l41 80l-3 4q8 0 45 57q0 14 15 26q21 0 42 -11v4q18 -4 50 -27q27 -14 38 -30l11 -4l-4 -46q0 -34 19 -49l4 -34h-4l8 -34l-4 -23l4 -15l-4 -4v-4l4 -11h-4l8 -31h-4l4 -4v-3l-4 -23l4 -4l-12 -198h4l-4 -3v-12l4 -23l-4 -3l4 -27v-27 l4 -3l-4 -4v-57l-4 -4l4 -11l-4 -12l4 -38v-61l4 -15l-8 -38l8 -19l-4 -4v-34l4 -4l-4 -3v-111l4 -15l-4 -11l8 -46l-4 -15v-19l4 -4v-4l-4 -3h-4l4 -4v-34l11 -42h4v7h4l7 -38h-3l3 -3v-4l-3 -12h3l-3 -11l3 -19l-7 -84l4 -19q-17 -26 -38 -26l-19 4l-23 -8h-8l-23 4 l-11 -4l-8 8l-3 -4h-4q0 7 -31 30q-7 23 -15 23l8 27h-4l4 3v54l4 3v4h-4l4 4v4l-4 23l4 15l-4 11l4 15h-4l4 4v34l-4 16l4 15v4l-4 15l4 15v4l-4 15l4 27v72l3 15l-3 15v38l3 4l-3 4v4l3 125l-3 11l3 23v42l-3 4l3 4v3l-3 38l3 54v136l-3 16q11 94 11 163h4l-4 19h-4 q-11 -46 -19 -46h-11l-4 4l-4 -4h-4l-3 4l-4 -4h-4l-30 4v-4l-16 8l-3 -4q0 8 -23 8v7l-4 -3h-4l-45 38q-10 0 -16 30l-11 8l-4 -27v-4l4 -4l-4 -3l4 -19v-8h-8v-8h4l-4 -26v-27l-3 -4l3 -3l-3 -19v-8l3 -23q-7 -15 -7 -42v-15l-4 -4l4 -3v-19l-4 -4v-4h4l-4 -11l4 -16 l-8 -60l4 -12l-4 -4v-3l4 -4l-8 -50l4 -3v-4l-7 -31h3l-3 -3v-38l-4 -4l4 -4l-8 -87l4 -4v-4l-8 -46l4 -11h-4l4 -11l-4 -19h4l-4 -4v-27l4 -4q-10 0 -19 -296l-4 -27h-4l4 -3q-5 -111 -19 -111v4l-19 -7l-4 3q0 -11 -7 -11h-34l-4 -4l-4 4h-4l-4 -4q-63 0 -87 46z" />
<glyph unicode="N" horiz-adv-x="682" d="M-30 53l15 198l-4 4l4 3h-4l4 4v38l4 19h-4l8 19l-4 4l11 118h-3l11 76l-4 4l15 114l-3 3l11 92l-4 3l15 130h-3l19 125l-4 4v4l4 3v12h-4l23 224h-4l4 4v53l3 4l-3 4v3l11 99l8 8l11 -8l4 4h11q12 -11 34 -11v-8q27 0 27 -11l4 3l64 -30q19 -15 42 -110h-4l8 -15h-4 l27 -137h-4l15 -84h-4l8 -23l-4 -3v-4q12 -79 19 -88l-4 -3v-4l4 -4l-4 -19v-15l4 -4l-4 -11l8 -65h-4l4 -30h4l4 45v23l3 4v4h-3l3 3v16l-3 3v4h3l-3 4v4l3 26h-3l7 46l-4 11q8 0 8 12l4 80h-4l19 140h-4l15 133l4 4h-4l8 38l-4 11l4 12l-4 19l4 34l-4 11l4 4h-4 q5 27 12 27q116 -45 117 -57l4 4h4q0 -13 19 -19l4 3q0 -8 15 -15l-11 -64l3 -4l-3 -4h3q0 -11 -11 -11v-8h8v-4q-12 -16 -12 -38h-7v-4q0 -130 -23 -220l-12 -53l4 -4v-4l-4 -4v-3l4 -19l-4 -4h4l-7 -12l3 -3v-4l-3 -12l3 -3v-4l-7 -23l4 -4v-4l-4 -3v-4l4 -15l-4 -16h4 l-12 -45l4 -19l-8 -42q3 -23 8 -23q-10 -64 -19 -64l4 -23l-4 -31l4 -3v-4l-8 -23v-4l4 -34l-8 -23h4l-7 -34h3l-3 -11q0 -60 -12 -80l4 -4v-4l-4 -19l4 -4l-4 -19v-19q-11 0 -11 -45h-4l4 -12l-4 -3v-4l4 -4l-4 -27v-15l4 -15l-8 -34h4l-4 -4v-4l4 -23l-8 -22l8 -12l-4 -11 l4 -12q-8 0 -8 -19h-3l-4 4q-46 -6 -46 -11l-4 4h-7l-4 -4h-4l-7 7l-4 -3q-46 14 -46 38q-12 2 -26 68l3 4l-38 186l4 4l-7 26h3l-11 42h4l-8 23l4 4v4l-11 45l3 4q-7 0 -22 103h3l-7 22l4 16l-4 22h-4q0 -64 -8 -64l4 -4q-2 -27 -7 -27l3 -3v-4l-3 -4v-4h3l-7 -34l4 -4h-4 l4 -4v-3l-4 -4l4 -4l-12 -57l8 -15l-12 -42l4 -11l-7 -16l3 -3l-11 -76l4 -4v-4l-8 -19l4 -4h4l-4 -4l4 -22l-12 -65l4 -4l-11 -57l4 -15v-8l-4 -3l7 -16q-22 -26 -45 -26l-19 4l-27 -8q-8 6 -61 11q0 12 -11 12z" />
<glyph unicode="O" horiz-adv-x="637" d="M-10 757l4 3v4l-4 4l4 4l-4 19v140l4 16l-4 3v4l4 12v7h-4l4 27v57l4 4l-4 3l7 65h-3l19 72l-4 4q9 0 38 95q38 72 91 106v-3l122 26l19 -11l11 4v-4q19 -18 46 -27l3 4l12 -19l4 4h11q0 -12 11 -12q0 -31 42 -49q2 -8 31 -15q0 -11 26 -31l38 -38q34 -70 34 -87v-4l-3 4 h-4l-4 -4v-11l4 -34l-4 -4l4 -19v-12q0 -42 -15 -114h7v-3h-7l-4 -12l4 -4v-45l3 -4l-3 -4v-4l3 -3v-4h-3l3 -4v-4l-3 -4v-3l3 -4l-3 -4l3 -4h-3l3 -4v-19q-10 -87 -19 -87l4 -4v-7l-4 -4l4 -4l-4 -38v-15l4 -4l-4 -4v-26l4 -12l-4 -19v-34l-3 -4v-4h3l-3 -3v-42l-4 -4l4 -4 v-4l-4 -3l4 -4v-15l-4 -4l4 -4v-4l-4 -15l4 -4v-4l-4 -15l4 -4v-3l-4 -12l4 -4v-3l-4 -12h4l-4 -4v-15l4 -4l-4 -3v-8l4 -4v-4h-8v-11q0 -27 -8 -27l4 -3l-15 -80l4 -4l-15 -19l3 -11l-7 -16l4 -11q-6 0 -23 -49l-23 -42l-4 -4h-4l4 -4v-11q-26 -14 -26 -38q-9 0 -23 -15 l-46 -23l-11 4l-12 -4v4l-19 -8l-3 4h-4l-4 -4h-4v4l-4 -4h-3l-16 4v-4l-3 4h-4l-4 -4l-23 8v-4q-72 16 -102 53q0 8 -12 8q0 12 -19 30q-20 46 -30 49l4 4v4l-16 19l4 11q-10 0 -38 168h4l-8 30l4 4v4l-7 34l3 4h-3l3 3l-3 46v65l-4 3l4 4v61l-4 23l4 4v3l-4 12h4l-4 4v11 l4 15l-4 4v4l4 4v3l-4 12h4l-4 4v72zM161 806h8l-4 -19h4l-4 -4v-38q0 -27 7 -42l-3 -15l3 -11h-3l3 -4v-15l-3 -4l7 -15l-7 -15l3 -12l-3 -4l3 -19v-19l-3 -3l7 -19l-4 -4v-19l4 -4l-4 -4v-4l4 -3l-4 -4v-4l4 -15h-4l4 -4v-11l-4 -4v-4l8 -8l-8 -22l4 -4v-4l-4 -19l4 -27 l-4 -15l4 -4h4l-4 -15l4 -19h-4l27 -140q14 -57 23 -57l-4 -4q12 -53 23 -53q55 23 95 117v4l-4 4q7 0 34 91l19 88h-4l4 3l4 103v53l4 4l-4 4v4l4 3l-4 4v4l4 19h-4l4 4v11l-4 4l7 11l-3 4l3 38v42l-3 4l3 4v60l-3 4l3 4v15l-3 4l3 4v30l4 12l-4 19v114l4 102h-4l4 4v4 l-4 4v3l4 4h-4l4 4l-7 84l3 3v4l-11 38l4 4l-31 61l-45 34h-8q-22 0 -45 -34l-4 4q-22 -29 -57 -114l4 -4v-8q-12 -1 -27 -83l-11 -73l3 -3l-3 -4h3l-7 -23l4 -4h-4l4 -4l-4 -38v-22l4 -4l-4 -4v-8l4 -11l-8 -42l4 -4v-22l-4 -4v-4z" />
<glyph unicode="P" horiz-adv-x="682" d="M0 353l8 16v7h-4l4 27v91l3 38h-3l3 4v15l-3 4l3 4v19l-3 3l3 4v23l-3 15l3 4v4l-3 11l3 12h-3l3 3l-3 19v175l-4 19l4 4h-4l4 4v57q0 84 11 171h-4l4 4v26l-4 4l8 19l-4 4l8 72h-4l4 4v15l-4 4l7 45l-3 4v4q0 54 60 68l4 4h31l3 -4h4v4l4 -4l19 4h42l4 4l3 -4h16l3 4 l4 -4h19l4 4l4 -4h38l26 -4l4 4l4 -4v4l34 -11l4 4h4q114 -35 121 -42l4 4h8q0 -13 49 -31l31 -19q0 -15 15 -15v-4l-4 -4v-3q19 0 38 -35l11 -19l-3 -3v-4l11 -23l-4 -4q12 0 12 -38v-26q-54 -73 -69 -73l-61 -22q-17 0 -45 -31q-15 -1 -15 -15l3 -4q-34 -23 -64 -23l-12 4 l-15 -4v4l-26 -11l-8 7l-19 -3l-4 3l-7 -7l-4 4h-4l-4 -4l-4 4l-3 -4v4l-4 -4h-19l-4 4l-4 -4h-4q-41 7 -41 15l-4 -4l-27 8l-4 -15l4 -4v-23l-7 -42v-61l-4 -3l4 -4v-4l-4 -4v-4l4 -11h-4l4 -4v-4l-4 -3l4 -4v-4l-4 -4v-4l4 -15h-4l4 -4v-3l-4 -35h-4l-4 12l4 4l-4 3l4 4 l-4 4h4l-8 23h-3v-23l3 -4l-7 -34h4l-4 -4v-4l4 -3l-4 -4v-4l4 -4v-4l-4 -11h4l-4 -4l4 -26v-4l-4 -4l4 -4v-19l-4 -4v-3h4l-4 -4v-8l4 -4v-3h-4l4 -4v-4l-8 -46h4q-12 -25 -12 -53v-19l4 -15l-4 -11l4 -4h4l-4 -4v-8l4 -3l-4 -4v-8l8 -34l-4 -11h4l-4 -4v-31l4 -3l-4 -4 v-23l4 -4l-4 -4v-3l4 -38l-4 -4v-4l8 -11l-8 -23l8 -8l-4 -4v-3l4 -4v-4l-4 -4l4 -19v-7l-4 -19h4l-12 -46l4 -4v-4l-4 -15h4q-3 -30 -34 -30h-31l-3 -4h-4l-4 4v-4q-34 5 -65 27h-3v3l3 4l-3 4l3 57v8l4 3l-4 4l4 38v12l-4 19l4 -4h4l-8 49h4l-4 4v8q0 64 -7 64l4 12l-4 26 h4zM190 1018l4 -3h19l4 3l3 -3h4l12 3l3 -3v3l4 -3h38l4 3h4v-3l23 7v4l3 -4q54 36 122 69l27 19l3 -4q0 7 27 26l19 50q-14 95 -68 95v7l-4 -3l-27 3l-19 -3l-53 7v-4l-42 8l-4 -4h-7l-4 4l-19 -8l-4 4h-7q-28 0 -46 -19l4 -4v-3l-8 -23h4l-8 -27l8 -7h-8v-23l4 -4l-4 -4 v-4l4 -3q-7 -9 -11 -69l4 -4l-4 -3h-4l4 -4v-19l-4 -15l4 -16v-3l-4 -4v-4l4 -4z" />
<glyph unicode="Q" horiz-adv-x="689" d="M0 325l4 4l-4 19v83l4 53l-4 12l4 11l-4 4l4 19v68l4 4l-4 4l4 19v106l3 4v4h-3l7 38l-7 19l7 30l-4 12l4 4h-4l4 3v8l-4 4l4 4v45l4 4l-4 4l8 42h-4l8 34h-4l11 45h-4l23 84l-4 4q7 0 23 68l-4 4q5 0 42 129q48 136 65 160l49 15l42 -11l4 3q0 -6 57 -22q53 -23 53 -50 q69 -17 110 -53q29 -3 69 -76l22 -30l-3 -4v-8q12 0 19 -19q3 -33 11 -42v-11h-8l4 -34h4l4 4h4l7 -27h-4q12 -33 16 -76h-4l4 -4v-7l-4 3h-4l-4 -3l-4 19h-3q0 -23 -8 -23l4 -4v-4l-4 -15l4 -11l-4 -4h4l-4 -4v-4l4 -4v-3l-4 -4h4l-4 -4q3 -27 8 -27l-4 -3v-8l4 -4l-4 -4 v-11l4 -4v-4h-4l4 -3l-8 -50h8v-4h-8v-11l4 -4l-4 -4l4 -38l-8 -57l4 -3h4l-12 -42h4l-4 -4l8 -61l-4 -15l8 -15l-4 -4l4 -4q-10 0 -19 -118q-14 -17 -38 -133l4 -3l-12 -46l4 -11q-5 0 -19 -61q-5 0 -11 -34h7v-4l-15 -42h4q71 -64 148 -110l4 -19l-4 -4l8 -8 q-30 0 -35 -15l-19 8l-3 -4h-4l-46 19l4 4v4l-91 68l-4 -11l15 -4q-27 -51 -83 -88l-69 -11l-4 4v-4l-3 4l-19 -4h-19q-19 0 -19 8l-4 -4h-15l-4 4h-4v-4l-19 7l-4 -3h-4q-7 7 -30 7l-49 27l-4 4q-8 0 -8 11l-4 -4h-3q-2 13 -35 38q0 11 -30 34l-23 42h4l-23 57l4 4l-11 65 h3l-3 3v4q0 65 -8 65zM186 317l8 -11l-4 -4v-8l4 -3l-4 -4v-4q3 -46 8 -46l-4 -3q3 -23 7 -23l-3 -4q20 -118 41 -118q0 -13 23 -34l8 -15q38 31 83 110v8q0 7 -15 7q0 11 -42 31q0 7 -11 7q-23 30 -23 50v11l8 8l7 -8v4l80 -38l23 -8v4q38 101 61 213h-4q15 47 30 182h-3 l3 4v72l4 4l-4 4v4l4 3l-4 4v8l4 4l-4 3l4 46v8l-4 3l4 4v103l-4 23l4 19v41l-4 4v4l4 4h-4l4 4l-4 19v26l-3 4l3 4v7l-3 4v4l3 4h-3l3 11l-3 19h3l-3 4v4l3 4l-19 106h4l-23 61h4q-44 102 -102 102h-8q-7 0 -11 -19h3l-15 -60h4l-23 -65l4 -4q-11 0 -11 -30q-6 0 -12 -38 h-4l4 -4v-8h-7l3 -3l-11 -23h4q-2 -15 -12 -15v-4q0 -22 -26 -122l4 -4l-4 -3h-4l4 -4v-4l-4 -11h4l-8 -31l4 -4l-8 -83h4l-7 -12l3 -3v-4l-3 -4l3 -19v-8l-3 -3l3 -4v-4l-3 -19h3l-3 -4v-15l7 -11h-7l3 -4l-7 -65v-34l4 -4l-4 -4v-19l-4 -45l4 -4h-4l4 -4v-4l-4 -22h4 l-8 -16l4 -11l-4 -27l4 -26h-4l8 -27l-4 -4v-53l-4 -4l4 -3v-27z" />
<glyph unicode="R" horiz-adv-x="667" d="M0 692l4 12l-4 4l4 19v7l-4 19l8 8l-4 4v3l4 4v4l-8 19l4 4v49l-4 19l4 23v57l4 4l-4 4v15l4 15l-4 11h4l-4 4v46l-4 4l8 34l-4 4v3l4 16h-4l7 45l-7 61l4 19v23l-4 45h4l-4 4v12l4 3l-8 38q0 56 42 73q62 38 118 38h30l15 -4l4 4h4l19 -4v4l30 -8v4l15 -8l4 4h4l122 -49 l15 -4q0 -12 42 -27l3 4q0 -8 19 -8q0 -12 27 -19q0 -8 30 -30l27 -57v-15l-4 -4l4 -4v-4l-8 -53h4l-11 -23h4q-19 -45 -27 -45q-10 0 -23 -34l-30 -23l4 -4v-4q-29 -36 -92 -87l4 -4v-4l-4 -4q15 0 57 -167l-3 -4v-3l11 -23l-4 -4v-4l23 -125h-4l15 -57l-3 -4v-4l7 -11 l-4 -4q13 -71 23 -84l-4 -3v-4l12 -38h-4l8 -19l-4 -4l7 -8v-3l-3 -4v-4l11 -8l-4 -3v-4l46 -190l-4 -4h-4l-4 19h-7q1 -27 7 -27l-7 -11l19 -57l-4 -11l4 -4l-4 -19q0 -30 23 -91v-4q-3 -18 -72 -23q-76 22 -76 103l-4 3q0 12 -8 12l4 11q-12 65 -23 65l4 4v3l-23 88h-4 l4 4v3l-4 4v4l4 4q-5 0 -11 15h4q-13 71 -27 91l4 4v4l-34 129l3 4l-3 4h3l-19 79l4 4v4l-7 30h3l-15 42l4 4v4q-19 135 -42 201l4 4v4q-18 64 -27 64q-28 6 -38 16l-11 -4v-46l-4 -4l4 -3v-8l-4 -4l4 -4v-3l-4 -19h4l-4 -4v-72l-4 -16l4 -15v-34l4 -4l-4 -4v-114l4 -3 l-4 -4v-4l4 -4l-4 -4v-3l4 -4l-4 -4v-4l8 -42l-4 -3v-31l4 -4l-4 -11l4 -11h-4l8 -23h-8v-4l8 -11l-4 -4v-4l4 -4v-4h-8v-3l8 -16l-4 -3v-4l11 -57h-4l4 -12l-4 -19h4l-4 -3l4 -19v-8l-4 -4v-4h4l-4 -3v-4q2 -57 8 -57l-4 -4q12 -40 12 -68v-54l-4 -3l7 -35h-3l7 -19h-7v-7 l-8 -8l-11 -4l-4 4h-15l-16 -4l-26 8l-12 -8q-19 2 -19 12l-3 -4h-16q-25 0 -57 42v102l-3 4l3 4v4l-3 4v3h3l-3 4v4l3 4l-11 45l4 4l-4 76v15l-4 4l4 4v4l-8 64h4l-4 4v31l-3 15l3 15v4l-3 15l3 4l-3 19v64l-4 4l4 4v57l-4 4l4 4zM186 1053l4 -11h8l49 23v-4q39 20 53 42 q16 6 65 76q46 67 49 121l-7 27h3q0 12 -38 27v-4l-3 4h-27l-27 3v-3l-3 3h-23q-56 0 -103 -60v-8l4 -4l-4 -4v-98l4 -4l-4 -4v-8q1 -38 8 -38l-4 -3v-38l4 -4z" />
<glyph unicode="S" horiz-adv-x="697" d="M0 40v4l11 3l8 -7l4 4v3l4 -3l41 7q0 -7 19 -7v-4l4 4h12q0 -12 64 -23l61 26l91 54v7h4l4 -4h4l34 38q0 8 11 8q27 44 53 209h-3l3 4v125l-3 38h3l-15 72h4l-8 27h4l-15 65h4l-31 95q-41 104 -83 125q-26 24 -133 53q-46 13 -46 23l-4 -4h-7v8q-12 0 -12 11 q-19 0 -30 27q-40 46 -53 121v19l4 35l-4 3v4q11 19 11 50q9 0 23 41h-4q20 58 84 99l26 12q31 3 31 15l7 -8q28 12 76 12v-4l42 7v-3l19 7l4 -4h19l4 4l4 -4h26v-7l4 4h4l4 -4v4q91 -30 91 -50q-53 -12 -53 -23q-27 4 -27 12l-4 -4l-19 4h-7q-20 0 -35 -12h-22v-7l-4 4h-4 q0 -7 -42 -23q-55 -36 -83 -171v-27l3 -4l-3 -11q29 -122 98 -122l35 -15l3 4l8 -8l4 4q0 -6 26 -11v-4l4 4h4q76 -33 133 -91l23 -42q23 -51 30 -88l12 -30l-4 -4h-4l23 -57l15 -76l-4 -26l4 -16h-4l4 -3v-4l-11 -57l7 -38l-4 -4v-4l4 -11h-4l4 -4v-23l-4 -4l4 -3v-4 l-7 -34l3 -4v-4l-7 -30h4l-8 -31h4q-31 -152 -46 -152q0 -13 -26 -34q-41 -46 -114 -76v-8h-4l-4 4h-4q0 -9 -45 -26l-4 3q0 -7 -19 -15l-4 4h-4l-61 -19h-53q-27 0 -42 8v-4q-26 15 -45 15l-4 -4l-23 8l-4 -4v8h-3l-4 -4q-18 0 -53 38v19h-8z" />
<glyph unicode="T" horiz-adv-x="622" d="M-20 1451l4 -4l23 7l30 -3v3l4 -3h87l4 3l4 -3h11l4 3l4 -3h11l15 3l16 -3l15 3l15 -3v3l4 -3h53l4 3l26 -7l4 4h31l3 -4h4v4l4 -4h4l4 4h3v-4l4 4h23l87 -12l4 4q0 -15 69 -42l19 -23q-6 -15 -12 -15l-4 4q0 -9 -45 -11v3l-31 -7l-41 7l-4 -3l-19 3h-15l-4 -3l-4 3h-8 l-15 -3l-15 3h-4v-3q8 0 8 -19l4 -4l-4 -4v-4l7 -11l-11 -103v-19l-4 -4v-3h4l-4 -4v-4l4 -4l-4 -4v-53l-4 -4l8 -38l-4 -30l4 -38l-4 -19l4 -11l-4 -12h4l-4 -4v-91l-4 -4l4 -3v-4l-4 -4l4 -19v-38l-4 -27h4l-4 -3v-8l4 -15l-4 -4v-11h4l-4 -27v-38l4 -15l-4 -15h4l-4 -4 v-27l4 -4l-4 -3v-50l4 -15l-4 -4v-4l4 -3v-4l-4 -15l4 -4h-4l4 -4v-15l-7 -8l3 -19v-106l4 -4l-4 -4v-4l8 -45h-4l4 -4v-46l-4 -15l4 -15v-15h-4l-4 4h-3l-4 -4l11 -53v-19l-4 -4l4 -4v-11q-15 0 -15 -31l4 -4v-3l-4 -12l8 -7v-19l-12 -27l-11 4l-19 -12l-4 4l-11 -11v4 l-12 -8l-15 8l-15 -4q-44 13 -61 45l-11 46l3 11l-3 4l3 4h-3l3 4v49l-3 12l3 19v68l-3 15l3 15v38l-3 16l3 15v7l-3 16l3 11l-3 19h3l-3 4v118l-4 3l4 4v23l-4 15l4 15l-4 16l4 3v4l-4 4v4l4 11l-4 4l4 19v53l3 4l-3 4v34l3 4l-3 4v11l3 4v4l-3 3l3 4l-3 4h3l-3 4v57l3 4 l-3 3v4l3 4v4l-3 19h3l-3 11l3 4v4l-3 4v3l3 42v8l-3 4v3h3l-3 4v4l3 23h-3l3 4v49l-3 4l3 4v79l4 4l-4 4l16 213l-4 4l-4 -4l-72 11l-4 -4h-4l-30 12v-4l-46 15l-4 -4l-26 23q-8 23 -19 23l4 4v4z" />
<glyph unicode="U" horiz-adv-x="697" d="M0 454l4 4v4l-4 15v4l4 3l-4 4v31l4 3l-4 4l8 46l-4 4v3l4 4v4l-4 4l4 19v11l-4 4l4 4v30l-4 15l4 16v26l3 4l-3 4l11 129h-4l4 4v7l-4 4l8 27l-4 19l4 4h-4l15 121l-4 4q3 27 8 27l-4 3l4 19v4l-4 4l12 49l-4 12h4l-4 4l11 60l-4 4l4 4h-4l4 4v42l4 15l-4 4l4 19v11 l-4 15l4 15v27l-4 4l4 4v15l-4 15l8 15q30 0 76 -30q16 0 53 -23q27 -3 46 -27l-4 -19v-57l-4 -3l4 -4v-12l-4 -22l4 -19l-4 -4v-4l4 -4v-4l-4 -15l4 -4l-4 -19l4 -15l-8 -11l4 -4v-4l-4 -4v-3h4l-4 -4v-15q0 -68 -7 -88l3 -4v-3l-7 -38h4l-12 -76l4 -4l-4 -4h4l-8 -27l4 -3 l-11 -118h4l-4 -4v-49l-4 -4l4 -4l-8 -57h4l-4 -4v-4l4 -3l-4 -4v-4l4 -4v-4l-4 -15l4 -4v-3l-4 -12h4l-4 -4l4 -19l-4 -15l4 -4l-4 -26v-50l-4 -3l4 -4v-4l4 -141l4 -15h-4l11 -83l-3 -4l7 -61q13 -1 27 -53q15 -4 15 -15h4q15 0 83 125l35 57q33 81 45 251l4 76l-4 4l4 19 v60l4 16l-4 3l4 19v54l4 45h-4l4 4v38l-4 4l7 45l-3 16l3 11l-3 4h3l-3 4l3 26v38l4 4l-4 4v4l4 11h-4l8 34h-4l8 23l-4 4v4l4 3v4l-4 4l4 19v30l4 4l-4 4v4l4 4v3l-4 4l7 65l-3 4v3l3 16l-3 3l3 12l-3 4l7 45l-4 12l4 3h-4l4 4v19l-4 4l8 38l-8 30l12 16h4q31 -7 76 -31 l3 4q0 -8 16 -8q0 -8 38 -19v-11l19 4l15 -53l-4 -4v-53l-4 -4v-4h4l-4 -4v-26l4 -4l-4 -4v-46l-4 -3l4 -4v-15l-4 -4v-4h4l-7 -42l3 -4v-49l4 -4l-7 -11l3 -4v-11l-3 -4l3 -4v-4l-3 -11h3l-3 -4v-4l3 -4l-3 -3v-35q0 -26 -8 -26l4 -4q-5 -76 -12 -76l4 -4v-30l4 -15l-8 -23 h4l-4 -4v-23l4 -15l-4 -15h4l-4 -4l4 -19v-4l-7 -11l3 -4l-15 -68l4 -4v-19l-4 -4l4 -4l-4 -19v-11l8 -8l-4 -11l4 -27l-23 -175q-8 0 -15 -79l-61 -118l-23 -61q-50 -91 -114 -91v-4l-4 4h-7l-4 -4h-4v4l-4 -4h-3l-38 4v-4l-57 11l-4 -3l-4 3l-11 4v4l-4 -4h-4l-65 27 q0 10 -19 19l-3 -4q-4 16 -38 42q-65 85 -65 133q-11 91 -11 156v7l-4 4v4h4l-4 4v15l4 4z" />
<glyph unicode="V" horiz-adv-x="704" d="M-50 1438v4q0 7 19 11q0 -9 15 -11v4l42 -23l4 4l42 -31v4q50 -22 60 -53l35 -106l3 -4l-3 -4q41 -122 53 -186v-23l4 -4l-4 -4v-7q1 -65 7 -65l-3 -4v-3q2 -35 7 -35l-4 -3v-4q3 -31 8 -31l-4 -3v-4l8 -19h-4l11 -34l-3 -4v-4q3 -38 11 -38l-4 -4l12 -72h-4l4 -4v-4 l3 -98v-4l4 -4v-4h-4l8 -11l-4 -4v-4l4 -4l-4 -3l4 -50h4q11 104 53 304h-4l19 61h-4l8 27h-4l23 110h-4l15 53h-3l45 205h-4l27 118h-4l8 30l-4 4l8 8l-4 4l11 3q34 -8 76 -34v4l23 -19l4 4q0 -17 45 -34l8 -16h-4l8 -26l-15 -38l3 -15h-7l4 -4l-27 -110v-8h-8v-11l4 -4v-4 q-13 0 -34 -133q-11 0 -11 -19h-4l4 -4v-7q-19 -41 -23 -76l4 -4l-4 -4h-4l4 -4v-4l-8 -11l4 -4l-27 -80l-3 -3l3 -4v-8q-15 0 -15 -53l-4 -11q-11 -8 -11 -38l-4 -4l-4 -12l4 -3v-4l-15 -57h4l-12 -38l4 -12q-15 -114 -38 -114l-4 4l-19 -76h4l-7 -23h7v-3h-7l-4 -16l4 -3 v-4l-8 -27h4l-8 -11l4 -4l-8 -30l4 -12l-7 -26l3 -4v-4l-19 -103l4 -3h4l-8 -38l4 -4v-4q0 -22 -26 -38l-4 4h-19l-4 -4h-4l-4 4v4l-3 -4h-8q-38 0 -72 68l-19 103h4q-12 61 -19 68l3 4l-3 4h3l-11 38h4q-46 267 -46 376l-4 4h4l-4 4v3q0 101 -11 149h4l-12 49h4l-7 34h3 l-7 15l4 4v4l-12 65l4 3v4l-4 4v4h4l-11 45l3 16l-3 26l3 4l-11 4l8 11q-4 61 -12 61l4 4v7l-11 23h3l-26 53l4 4v4l-16 49h4l-11 38h-4l4 4v4l-15 30h3z" />
<glyph unicode="W" horiz-adv-x="906" d="M-50 1375l4 3h19q22 0 68 -26q53 -12 53 -23l4 4h8q0 -10 19 -19q0 -13 11 -27l-4 -4v-3q5 -23 12 -23l-4 -4v-4q15 -34 15 -53h-4l35 -118l3 -4h-3l15 -41l-4 -4q8 0 30 -129l16 -84h-4l4 -4v-4l-4 -3v-4l23 -76h-4q17 -91 23 -91l-4 -4v-4l38 -137l-4 -4v-3l11 -31h-3 l7 -19h-4q12 -12 12 -45q6 0 11 -46l4 -4h4l42 107l-4 3v4l11 19l4 -4h4v4l23 -7v-4l3 4h4l34 -16l4 4q0 -16 61 -23l-4 -3v-4l4 4h4q13 0 45 -46h4l-4 -4v-4q12 0 12 -19h4l3 38l-3 4q2 31 7 31l-4 3l27 240h-4l19 201h-4l8 38h-4l8 12l-4 3v4l4 12h-4l8 34l-4 4v11l4 4v4 h-4l4 3v4l-4 4l4 4v7l-4 4l7 31h-3l3 3v61l16 122l-4 23l4 3v4l-4 12l4 3l-4 4h4l-4 12l4 11l-4 4h4l-4 4v3l4 12h-4l4 4v11l-4 4l4 4v3l-4 4l11 15q89 -45 141 -87l15 -23q-11 -12 -11 -34h-4l4 -4v-4l-8 -15l4 -11l-4 -4l8 -8v-57l-4 -3l4 -4v-4q-19 -36 -23 -72l4 -4 l-4 -19v-53l-4 -4l4 -4v-19l-4 -4l4 -3l-8 -31l4 -4h4l-23 -76h4q-8 -19 -8 -68v-23l-4 -4v-3h4l-7 -16l3 -3l-7 -42h4l-4 -4v-38l-4 -4l4 -4v-3l-4 -23l4 -4l-8 -30h4l-8 -57l4 -4l-4 -4h-3l3 -4v-11l-3 -4l3 -4v-4l-7 -11l4 -11l-8 -23l4 -4h-4l4 -4v-4q0 -27 -19 -60 l4 -12h-8l4 -4l-4 -3v-4l4 -27q-8 0 -8 -26h-4l4 -4v-4l-4 -4l4 -4v-3l-4 -12v-4h4v8h8l-4 -4l4 -4v-19l-12 -45l4 -4v-4l-7 -15l3 -4v-4l-3 -3v-4l3 -4v-4l-7 -19l4 -4v-3l-4 -12h4q7 0 7 -15h-4l8 -23v-4q-6 -15 -30 -15l-12 -4v-3l-23 7l-11 -4l-4 4v-4q-61 25 -61 35 q-6 24 -15 30l4 4v4q-42 79 -53 79l4 4v4q-35 54 -35 65h-3q-14 -65 -23 -65l4 -4v-4l-23 -49l4 -4v-4l-8 -7l4 -4h4l-8 -15l4 -12l-27 -68l4 -4v-4q-1 -11 -19 -26v-4l-4 4h-4l-3 -4l-16 8l-3 -4h-4l-4 4h-4l-26 -8l-19 8v-8l-4 4h-4l-4 -4h-4q-22 0 -22 15h-23l4 4v4 l-23 23l4 3q-8 0 -12 31h4l-8 19l4 4h-7l3 3q-7 45 -15 54v3q0 51 -23 164h4l-26 102v4l3 4h-7l4 11l-16 42l4 4v4q-26 86 -38 152l-4 4h4l-15 53h4l-4 4v22h-8l4 4v4q0 37 -11 53l4 4l-8 15h4l-8 27h4l-8 15h4q-38 217 -49 243h4q-22 75 -31 80l4 4v11l-8 12h4z" />
<glyph unicode="X" horiz-adv-x="876" d="M-20 74v4q32 33 49 64q22 19 65 99q17 55 152 247q42 75 42 91v4l-50 118q-34 72 -87 243h4q-17 58 -27 65l4 4v11h-8l4 4q-26 69 -34 118q-9 0 -19 49h-4l4 4v4l-15 30h4l-31 68l12 8h38l22 -4l12 4l4 -4h3l12 4q0 -9 19 -11l4 3h3l12 -3l4 3q0 -9 34 -15l45 -114l-3 -4 l26 -60h-4q42 -111 76 -240l16 -34h-4l23 -49q15 17 68 129h4l-4 4v3q37 57 122 236q36 51 87 152q11 0 11 19h4l-4 4v7h23l4 -3h4l4 3l3 -3v7h4v-7l4 3l114 -38l4 4l7 -7l4 3l15 -19q0 -17 -95 -163l4 -4l-53 -99l4 -3v-4q-14 0 -27 -46l-118 -224q-9 -9 -34 -80 q-9 -4 -26 -45l-8 -23l-8 -8h-3l3 -4v-3q-15 -21 -15 -38q80 -176 80 -198l-4 -4l8 -7v-4h-8v-23l19 -30l-4 -4l16 -12l-4 -3v-8l7 -8q8 0 8 -15q65 -109 84 -167l30 -49l-8 -8l-3 4q0 -9 -35 -27v4q-17 -7 -19 -15l-19 4l-15 -8q-21 0 -57 27l-4 -4q0 13 -68 152l-76 144 h-4l4 4l-34 84h-12l-38 -65q-26 -57 -57 -99l-34 -53l4 -4q-15 -2 -15 -11l4 -4q-11 0 -42 -68l-4 -12l-15 -11l-4 4h-4l-30 -12l-4 4v-4l-4 4h-7l-12 -8l-11 4l-8 -7l-15 3v-3q-71 0 -91 49h-4z" />
<glyph unicode="Y" horiz-adv-x="644" d="M-30 1431v3q2 23 11 23l4 -4v4q34 -5 34 -11l4 4h4l87 -42q0 -12 16 -12v4q16 -8 26 -23l-4 -3v-4q11 0 23 -46q12 0 12 -7h-4l64 -130l4 -3q8 -7 8 -19q6 0 23 -35h7v-3l-4 -4v-4l4 -4h4q30 71 53 160q41 75 69 167q13 11 30 53h8v4q91 -28 91 -53l19 4q1 -27 23 -27 l3 -34l-7 -15h4l-16 -42l4 -4v-4l-15 -4l4 -3v-4l-8 -12v-7l4 -4v-4q-23 0 -76 -175h4l-46 -87q0 -15 -26 -68h7v-4l-4 -4v-4l8 -7h-4l4 -4v-31l-4 -3v-4h4l-4 -4v-4l8 -7l-4 -4v-4l4 -15h-4l4 -4v-4l-4 -15h4l-4 -11l4 -4v-4l-4 -4q5 -45 11 -45l-3 -16l7 -41h-4l12 -42 l-4 -4v-4l4 -4v-3h-4l4 -4v-4l-4 -15l4 -4l-4 -4l4 -4h-4l4 -3v-4l-4 -12h4l-4 -11l8 -57h-4l4 -4v-15l-4 -4l4 -4v-3l-4 -92h-4l4 -3v-4l-8 -8l4 -4v-7l-4 -4v-4l4 -4h-4l4 -3v-4l-4 -4l4 -19v-11l-4 -12l4 -19v-38l-4 -4l4 -3v-46l4 -4l-4 -4v-19l4 -34l-4 -4v-3l4 -4v-4 q-3 -23 -8 -23l4 -4v-7l-4 -4v-4l4 -4l-4 -3l4 -4h-4l12 -61l-23 -8l4 -11q0 -34 -31 -34l-4 4h-3l-16 -4l-3 4l-19 -8l-16 4v-4l-30 11l-4 -3l-34 38l-4 205l-4 4h8l-4 19v3l4 27h-4l4 4v7l-4 16l4 11l-4 19l4 23l-4 42h4l-4 11l4 27l-4 3l8 38l-4 19v69l4 15l-8 11l4 4v27 l-4 4l4 11v8h-4l4 26v46l-4 19l4 4q-8 0 -8 11l4 4v4l-4 15l4 4l-7 30l3 4l-11 61l4 15l-4 4v3l4 12l-8 26l4 4v4q-5 27 -15 27v7l4 -4h3q-12 32 -53 76l-61 99l4 4q-14 13 -42 65q-7 0 -7 19q-25 20 -76 152l-15 19l3 3v4l-3 -4h-8v8q-8 0 -19 27z" />
<glyph unicode="Z" horiz-adv-x="794" d="M-20 63v11q20 13 53 114l34 68l16 23h-4l19 34l-4 4l8 8l-4 4q45 51 68 144h-4q15 39 35 61l83 201l8 12h-4l110 220l34 61l-3 4q24 27 49 91q21 34 84 209v4h-46l-4 -4l-4 4h-3l-4 -4l-4 4h-15l-4 -4l-4 4h-38l-4 -4l-11 7l-19 -3h-11l-4 3l-4 -3h-11l-4 3h-4v-3l-4 3 h-11l-15 -3l-19 7v-4l-35 8l-3 -4q0 8 -31 8q0 11 -23 11q0 9 -26 38v19l19 4h7l4 -4l4 4h4l15 -4v4l4 -4l49 8l15 -4h19l4 4l4 -4h11l19 4l4 -4v4l12 -4l30 4l4 -4h4l15 4v-4l38 11l4 -3v3l15 -7l4 4h11l4 -4l4 4h15l4 -4h3v4l16 -8l3 4h4l19 -4l8 8l15 -8l4 4h11l53 -27v4 q64 -25 73 -42v-11l-31 -50l4 -3v-8q-12 -11 -27 -76l-3 -4q0 -19 -12 -19l4 -4l-23 -60h4l-38 -76l-49 -107h3l-68 -129l-49 -114l3 -4q-7 0 -7 -19q-8 0 -27 -45h4q-15 -25 -15 -46q-40 -61 -88 -186l-11 -12l4 -3v-4q-18 -50 -61 -110q0 -19 -8 -19l4 -4v-4l-11 -19h4 q-45 -80 -61 -141l-23 -41l19 -4l4 4h4l3 -4v-4l12 8l4 -4h19l3 4h4v-4l23 7l4 -3l72 7v-4l4 4h7q50 0 69 8v-4l4 4h3l4 -4h4l4 4l4 -4l3 4v4l50 -8l4 4v-8h3q38 0 38 -11l4 4q33 0 61 -35v-3l-11 -19l-19 3l-12 -7h-4l-3 4h-4l-4 -4v4q-25 -10 -152 -19v-4l-4 4l-38 -4h-19 l-4 -4h-3v4l-4 -4h-15l-4 4h-4v-4l-4 4h-4l-3 -4l-4 4h-31l-3 -4q-95 11 -95 19l-4 -4h-4l-68 19h-16q0 12 -15 12l-4 -4q0 15 -26 15q0 14 -42 46z" />
<glyph unicode="[" horiz-adv-x="547" d="M0 75l4 12h-4l8 42l-4 3v4l4 15h-4l4 4v12l-4 3v4h4l-8 12l4 3v12l-4 4l8 22l-4 4l4 4v46l3 3l-3 4v31l3 3l-3 4v12l3 3v4h-3l3 4v4q-2 23 -7 23l4 3v46l-4 4l4 4v102l3 4l-7 15l4 4v27l-4 3v4l4 4h-8l8 8l-4 11l4 11h-4l4 4v72l3 19h-3l3 4l-3 19l7 27l-4 4q6 49 12 49 l-4 4v7l4 19l-4 4h4l-4 4v15l4 15l-4 16h4l-4 3v19l4 23l-4 4v4l4 34h-4l4 4v19l-4 4l8 19l-4 11h4l-4 4v26l4 4v4h-4l4 4v23l-4 3l15 149v7q9 0 19 38h-4q0 30 65 76q10 19 95 57l4 -4q0 8 26 12l8 7v4l4 -4h3q12 22 57 35l95 -16l4 4v-7l4 3q34 -2 34 -30h-7v-4l3 -4v-3 l-38 -23l-3 4h-4q-109 -43 -164 -103q-30 -88 -30 -141l4 -3h-4l4 -4l-8 -46v-68l-4 -4l4 -4v-4l-4 -22h4l-4 -4v-8l4 -4l-4 -3l8 -38l-8 -27h4l-4 -4v-4l4 -11l-7 -38l3 -4v-34l-3 -4l3 -4v-79l4 -4l-7 -23v-72l-4 -23l4 -19l-4 -4v-4l4 -11l-4 -11h4l-4 -4v-19l4 -4l-4 -4 v-30l4 -15l-8 -23l8 -15h-8l4 -4l-4 -4l4 -19v-30l4 -4l-4 -12l4 -11l-8 -38l4 -4v-4l-4 -26l4 -34v-4l-4 -12l4 -19v-144l-8 -8l4 -11l-4 -11l12 -42l-4 -4l4 -4q85 6 87 12l4 -4h4l11 4l38 -8l4 4h45l50 -15l4 3h3l23 -15v-7q-40 -10 -57 -23v4l-15 -8l-4 4l-7 -8h-8 l-19 4v-4l-4 4h-11l-23 -8l-4 4v-4l-11 4l-12 -4v4l-3 -4h-31l-30 -7v4l-23 -8l-4 4h-4l-15 -4l-23 4l-11 -4v4l-4 -4h-11l-4 4l-4 -4q-85 0 -118 57z" />
<glyph unicode="\" horiz-adv-x="697" d="M-50 1320l23 15v4l4 -4h3l4 4h4l11 -4l50 12l19 -8l4 4v-4l3 4h4l27 -4l4 4v-4l11 4q17 -3 46 -57q15 -69 34 -69l-4 -3v-4q2 -15 11 -15l-3 -4v-4q30 -79 76 -167q11 -48 30 -80l-4 -4v-4l4 -3h4l-4 -4v-4l19 -72q30 -61 46 -122l3 -4h-3l15 -34l-4 -4q8 -45 19 -64h-4 l19 -53q8 0 15 -38q14 -38 23 -38l-4 -4l8 -19l-8 -8v-15l23 -57h-4l35 -76l-4 -4q15 -9 57 -133q7 0 7 -19v-4l-3 -3v-4q7 0 7 -12q9 0 31 -57q6 0 15 -53q0 -20 -69 -34l-19 4v-4q-38 0 -76 99l-117 247q-28 28 -88 205l-38 87h4q-30 79 -61 198l-11 27h4l-19 49h3 l-49 118q-8 0 -8 19h-7l4 4v3l-54 122q-39 113 -68 152z" />
<glyph unicode="]" horiz-adv-x="524" d="M0 1414l8 15h22l4 -4q15 8 42 8h30l4 4l4 -4h4q19 0 19 11l11 -7l4 4l4 -4l57 11v-4l4 4h3l4 -4l50 8q15 -2 15 -11h19q73 -19 87 -31q0 -5 27 -7l4 -12q0 -32 -8 -53h4q-5 -23 -12 -23l4 -4v-3l-7 -23v-15l3 -4v-4h-7v-4l4 -23l-4 -15h4l-4 -4v-3l4 -12l-4 -4h-4l8 -30 v-8l-8 -7l4 -19v-12l-4 -3l4 -12q0 -36 -12 -57l4 -19l-4 -4v-3l4 -4v-4l-4 -11l4 -19l-4 -4v-4l8 -23l-4 -15h4l-11 -95h3l-11 -19l4 -4l-4 -4h-4l4 -19l-4 -15h4q-4 -45 -11 -45l3 -4q0 -76 -19 -76v-8l-3 -23l3 -3l-7 -65h4l-8 -27l4 -3l-4 -4h-4l4 -27l-15 -99h4l-4 -11 l4 -11l-8 -31l4 -15l-4 -4l4 -4l-4 -45v-12l4 -3v-4l-4 -4h4l-4 -4v-64l-4 -4v-4h4l-4 -4v-4l4 -26l-4 -46h4l-4 -4v-11l4 -4l-4 -4v-41l4 -19l-46 -19l-15 3l-11 -7l-19 15q-69 -17 -69 -23v-4h-26l-12 -7l-3 4l-27 -8l-8 8l-7 -8v8h-4v-8h-4l-30 38l-8 19v4l4 -4l118 27 l4 -4h3q35 5 35 26v4l-4 27h4l-4 4v3l4 23h-4l4 4v4l-4 19h4l-4 4v3l11 350h4l-4 4l8 30h-4l4 4v27l-4 3l8 38h-4l7 46h-3l15 133l-4 4h4l-4 4l11 53l-3 4v3l7 23h-4l8 31l-4 3v4l4 12h-4l4 3v141l4 23l-4 4l8 106v11l3 27h-3l3 4v4l-3 26h3l-3 4l3 19v4l-3 4v3h3l-3 4l3 19 l-7 8h-8l-4 -4l-3 4l-19 -4h-35l-3 -4l-12 4l-23 -4l-38 4v-4q-60 0 -106 61z" />
<glyph unicode="^" horiz-adv-x="584" d="M38 1345q51 64 144 152l38 65l103 -38v-4l4 4h7q0 -11 35 -23q0 -15 34 -53q19 -31 45 -118l42 -76l-38 -19q-83 19 -83 49q-8 0 -16 19l4 4q-18 5 -34 61q-8 0 -19 38h-8q0 -15 -15 -15q-26 -23 -26 -34q-20 0 -38 -50q-11 -23 -23 -23q0 -15 -8 -15v4l-23 -8l-7 8h-15 l-4 -4l-4 4h-11l-4 -4h-4q0 7 -38 15l-27 27z" />
<glyph unicode="_" horiz-adv-x="1116" d="M-8 -56q0 13 80 23l4 -4h3v8l4 -4h31l19 4v-4l3 4h4l4 -4h4l34 8l4 -4l4 4v-4l3 4h4l12 -4l57 7v-3l76 11l3 -4v4l4 -4l53 12l4 -4h4l76 15v-4l23 8v-4l30 8l4 -4v7h4l4 -3h3l4 3v-3l12 7l3 -4h4l42 8v-4l19 8l4 -4l4 4v-4l79 11v-3l99 15v-4l4 4h8l3 -4l27 8v-4l4 4h4 l87 -16v4l15 -7l27 7q0 -10 23 -19l3 4l23 -27q0 -19 -61 -30v4l-3 -4h-4l-31 4l-38 -8l-3 4h-4l-4 -4l-4 4h-4l-3 -4h-4v4q-44 -5 -50 -11l-3 3v4l-27 -7l-4 3l-87 -11l-4 4h-4l-11 -4v4l-65 -12l-4 4l-3 -4v-3l-4 3h-4q-34 -2 -34 -7l-4 4l-38 -8l-4 4h-4l-79 -8l-16 4 l-3 -4v4l-4 -4h-4l-129 -7v3l-50 -7l-3 4l-19 -4h-107l-4 -4l-11 4l-11 -4l-4 4v-4l-4 4h-8l-3 -4l-4 4h-4l-4 -4l-4 4h-30q-20 0 -38 23v7z" />
<glyph unicode="`" horiz-adv-x="464" d="M146 1586q-7 51 52 58q88 -19 100 -115l1 -7l-9 -1l11 -8l1 -8l-8 -10l38 -88q-29 -30 -56 -33q-75 -10 -130 212z" />
<glyph unicode="a" horiz-adv-x="749" d="M0 -25l30 80h-3l15 34l-4 4q11 0 11 34l4 4h-4l16 53l-4 4q6 0 23 49h3l-3 4v4l11 19v4l-4 4q8 10 12 68l-8 8l11 3l-3 4l3 27l-3 15l11 46h-4l4 3v4l-4 4l12 72h-4l7 15l-3 4l7 34h-4l12 50h-4q11 48 11 148l4 4v4h-4l4 3v4q0 109 46 369l-4 11l11 31l-3 3l3 4l-3 4 q7 0 19 65h-4q21 136 42 136q21 35 49 35h4l4 -4h3l4 4v3l4 -3h19l4 3q30 -11 30 -38l-4 -3l8 -42l-8 -8l19 -99l-3 -3v-4l7 -31l-4 -3v-4l12 -42l-4 -4v-4l8 -26h-4q1 -19 11 -19v-4h-7l7 -23h-4l19 -76l4 4h4q34 -51 34 -114l-4 -15q7 0 12 -34h-4l15 -61h-4l31 -110 q0 -12 7 -12v-4l-3 -3l26 -84h4l-4 -4v-4l8 -11l-4 -4v-4l8 -7h-4q4 -36 23 -76v-4l-4 -4l19 -34q12 -108 30 -122l-4 -3v-16h8v-7l27 -110l-4 -4h7l-3 -15l15 -38l-8 -27h4q-1 -13 -49 -38l-4 -11l-4 3h-4q-9 -16 -19 -19l-4 4q-32 -23 -68 -34l-15 4l4 4v3l-8 8h4l-8 30h4 l-27 118h4q-39 199 -45 202l3 3q-8 50 -15 50l4 4l-23 110h4q-5 19 -11 19h-4l-4 -4l-4 4h-7l-27 -4l-4 4l-4 -4v4l-3 -4h-4l-4 4l-4 -4h-4l-22 4l-4 -4l-4 4l-8 -38h4l-7 -42h3q-7 -19 -7 -68v-4l4 -4l-4 -4v-26q0 -30 -53 -183l3 -4v-3q-7 -8 -22 -69q-6 0 -19 -53 q-28 -31 -57 -42l-4 4l-42 -30l-4 3l-38 -22v3q-15 -1 -15 -11q-19 5 -19 11v4zM296 644l38 -4l4 4v-4l23 8l15 -4q-38 175 -49 281h-4l-4 -49h4l-4 -4v-4l4 -4l-8 -15h4l-4 -4v-7l-3 -103h-4l4 -4v-3l-12 -69h4z" />
<glyph unicode="b" horiz-adv-x="652" d="M0 239l4 4v27l-4 15l4 11l-4 27l4 42h-4l11 129h-3l3 4v4l4 87l-4 4q8 0 8 11l-4 12h4l-4 3v4l4 15l-4 4l8 65v15l-4 4l8 23h-4l4 3v4l-4 23l4 11h-4l7 42h-3l3 4v30l4 46h-4l4 4v4l-4 3l4 4v15l-4 4l4 4v30l-4 4l4 4v76l-4 4l8 42h-4l4 3v42l-4 4l8 30l-4 4v4l4 23h-4 l4 4v22l-4 4l8 27h-4l4 4v3l-4 4l4 4v30l15 95h-4l4 4v8l-4 4v3q11 0 27 27l3 -4l42 12l8 -8v4q108 -19 171 -46l4 4h7l8 -8v-3l4 3h7q0 -10 50 -22q75 -45 95 -80l3 4q31 -40 35 -65h-8l8 -27l-4 -11l4 -4h-4l4 -4v-11l-4 -4v-4h4l-16 -53l4 -4q-11 -52 -26 -60 q0 -18 -31 -73q-13 -45 -61 -68h-3l3 -4v-4q-30 -4 -30 -15l-4 4h-4v-8l-3 4h-4l-15 -7l7 -8h19v-8l4 4q99 -50 125 -76l-3 -11l22 -42h-3l22 -46q0 -44 27 -140l-4 -12l4 -19l-4 -30l4 -4l-4 -4v-3l4 -4l-23 -72h4l-11 -23h3q-6 -23 -11 -23l4 -4v-7l-4 -4l4 -4v-4l-12 -30 h4l-7 -42l3 -11l-30 -73h4l-46 -76l4 -3q-30 -51 -87 -69q0 -26 -65 -26h-38l-8 -8l-19 4l-3 -4h-4l-8 8q-20 -19 -30 -19v3l-34 -11l-12 4l-34 -4l-15 4l-15 -4q-51 25 -57 46v38l-4 3l4 4v31l-4 3l4 4v15l-4 16l4 3v4l-4 61v8zM190 232l8 -65l-4 -53v-30q78 22 129 106 q38 59 46 95q8 0 30 133l-4 4l4 4h-4l8 15h-4l11 53l-3 11l3 4v4l-3 11l3 4h-3l3 4v4l-3 4v3h3l-3 4v46l-4 4v3l4 4l-4 4h-4l4 4q-24 121 -42 140l4 4l-12 23l4 4q-19 15 -26 42l-99 41v-3l-15 7l-4 -4l4 -19v-19l-4 -3l4 -4l-8 -72h4l-4 -12l4 -15l-4 -34v-38l-4 -4l4 -4 l-4 -26v-35l4 -3l-4 -4v-38l-4 -4v-4l4 -4h-4l4 -3v-4l-7 -103h3l-7 -42h4l-4 -3v-4l4 -4l-8 -42l4 -4l-4 -19v-7h4l-4 -19v-15l4 -4l-4 -4v-4l4 -4v-3zM217 992l7 -19l61 42l-4 3v8q23 5 72 129h-3q8 0 15 91q0 69 -27 84q-41 35 -72 46q-26 0 -34 -88l-4 -4h4l-12 -72 l8 -34h-8v-15l4 -4l-4 -4v-4l4 -22l-4 -4v-4l4 -27l-4 -15l4 -4l-7 -64l3 -12l-3 -3v-4z" />
<glyph unicode="c" horiz-adv-x="577" d="M-20 749l4 3v69l4 4l-4 3l4 19v122l3 4v4h-3l3 11l4 80l4 4h-4q29 104 46 121h-4q20 56 38 69q32 40 95 72q84 30 141 30q48 -8 79 -30q31 -3 31 -12v-3q0 -10 -34 -19l-4 3h-8l-4 -3h-3l-4 3l-4 -3l-4 3q0 -9 -49 -34q-37 -20 -53 -53q-19 0 -65 -144q-9 0 -11 -107 l-4 -4h4l-4 -3v-8h4l-4 -38v-42h7l-3 -4v-7l3 -4v-4l-7 -7l4 -4v-4l-8 -8l4 -3h4l-8 -19l4 -4l-4 -19v-42l4 -4v-4h-8l4 -3v-12l-4 -4l4 -3v-8l-4 -4v-4l4 -3h4l-4 -4v-8l4 -4l-4 -3v-8l4 -4l-4 -4v-3l4 -4v-4h-4l8 -19l-8 -8v-3l8 -12l-8 -7v-23l4 -4v-4h-4l8 -30l-4 -4v-4 l7 -30l-3 -4l7 -76h-4l8 -27l-4 -3v-4l4 -12h-4l12 -76h-4q7 -11 19 -79h-4l15 -31l-4 -4l4 -3h-4l12 -27h-4q12 -41 46 -65v-3h3l23 7l4 -4l46 27q26 0 26 -8l12 4l19 -7v7l3 -4h4l4 4h4v-7h4l3 3l27 -7l4 4q0 -8 19 -8q0 -9 15 -19l4 -19q-30 -9 -46 -23v4l-26 -15l-4 4 h-4q-10 -8 -49 -12v-7h-4l-4 3l-34 -7l-4 4h-4l-15 -4l-4 4l-15 -8l-46 11l-3 -3h-4l-38 15l-4 -4q-43 30 -57 30q-5 17 -34 27l-34 42l-35 87l-7 8l4 4v3l-8 16l4 3v4l-4 12h4l-8 15l4 4v7l-4 4v4h4l-19 102h4l-8 35h4l-4 3v4l-7 126l3 3l-3 19v46l-4 4l4 11l-4 4v4l4 11 l-4 12h4l-4 3v27l4 4v4h-4l4 3z" />
<glyph unicode="d" horiz-adv-x="577" d="M0 57l4 19v46l-4 3l4 4v12l-4 11l4 19v106l4 4l-4 4l7 80l-3 4v3l7 16l-4 3v12l4 4v3h-4l8 27h-4l4 4v38l4 19h-4l4 4v15l-4 4l4 3v31l4 23l-4 15l4 15h-4l4 4v76l3 4l-3 3v4l3 12h-3l7 57h-4l4 3v12l-4 4l8 30l-4 4v11l4 4l-4 4l8 34h-4l8 30l-4 4v12l4 19l-4 3h4l-4 4 l15 110l-4 4v8l4 4l-4 3v16l4 19h-4l8 22l-4 23l4 4v4l-4 15v4l4 19h-4l8 49l-4 15l4 4h-4l4 4v15l-4 15l4 4v4l-4 4l4 19v26l-4 4l15 38l4 -4l19 4l23 -11l3 4q0 -9 69 -23l4 -4v-4h7q34 0 141 -68q87 -68 87 -91q0 -22 27 -54q26 -89 26 -121l-3 4h-4v-4l7 -12v-79l4 -4 l-4 -4v-8l4 -3l-4 -4v-4q0 -27 8 -27l-4 -3l4 -27v-27l-4 -3l4 -12l4 -57l-4 -23l4 -3l-4 -4l4 -4h-4l4 -4v-19l-8 -11v-27l4 -4l-8 -34h4l-4 -11l4 -12l-4 -3h-3l3 -4l-3 -19v-15l3 -4l-7 -23h-4l4 -4v-4l-4 -3v-4h4l-4 -4v-4l4 -4q-11 -97 -15 -98l3 -4q-2 -27 -7 -27 l4 -4v-3q0 -27 -19 -27l3 -11l-3 -16l3 -11l-3 -15l3 -4l-7 -8l4 -11q0 -11 -16 -11l-11 -46h4l-15 -42l3 -4q-28 -80 -53 -87l-34 -30l4 -4q-14 -12 -65 -23l-11 4l-12 -4l-3 4h-4l-4 -4h-4l-23 4l-11 -12h-4l-19 4l-53 -11l-4 4l-7 -8l-35 8l-3 -4l-23 11l-4 -4zM171 84 l4 -4h4l3 4v3l4 -3h4l34 30q45 25 69 118q1 23 7 23l-4 3v4q50 231 50 388l4 30h-4l4 4v27l3 34l-3 4l3 19v38l4 15l-4 4v3l4 42v15l-4 4l4 4l-4 46v26l-3 4l3 4v4l-3 38h3l-19 106l-22 57q-9 0 -19 30q-26 48 -50 61l-7 8h-4l7 -31l-3 -11l3 -4l-11 -118l8 -15l-16 -95h4 q-7 -14 -11 -57h-4l4 -4v-3l-8 -38h4l-4 -4v-23l-7 -95h3l-3 -4v-4l3 -19l-3 -15h3l-3 -4v-49l-4 -15l4 -15v-42l-4 -15l4 -16h-4l4 -3v-16l-4 -22l4 -4l-4 -19v-34l-4 -38h4l-4 -4v-19l4 -4l-8 -42l4 -4l-8 -41l4 -4l-7 -57h3l-7 -34l4 -4v-27h7l-7 -23l3 -3v-4 q-6 -6 -11 -91z" />
<glyph unicode="e" horiz-adv-x="629" d="M0 1016l4 4v4l-4 15v27l4 4l-4 3v4l4 12h-4q11 90 49 171l46 76l76 41v4l4 -4h4q18 12 76 23v-4l15 8l4 -4h3q10 8 50 8v4l4 -4h3l35 4v-4l3 4h23l4 -4l4 4h4l11 -4v4q39 0 99 -35q25 0 34 -22v-4l-27 -12l-3 4v-7l-19 3v-3l-4 3q-72 -7 -80 -15l-4 4h-4q-12 -12 -76 -19 q-26 -9 -45 -27l-4 4q-42 -36 -76 -118h-4l4 -3v-4q-23 -50 -23 -114l4 -4h4l4 4v-4l3 4h46l19 -4l4 4v-4l23 8l19 -8l3 4q0 -9 111 -38q0 -11 30 -19q0 -18 -49 -31v4l-4 -4h-12l-3 4h-4v-7l-4 3h-4v-3l-4 3h-11l-19 -3l-4 3l-7 -7l-4 4v-4l-4 4h-8l-3 -4l-4 4h-8l-26 -4 l-4 4l-4 -4v4l-4 -4h-4l-3 4l-4 -4h-4l-23 4v-4l-38 7v-26l4 -27h-4l4 -4v-7l-4 -4l4 -4v-4l-4 -3l4 -12l11 -167l-3 -11l7 -31l-4 -15v-11l4 -4l-4 -4v-4l4 -15l-4 -34h4l-4 -4v-72l4 -15l-4 -16v-22l4 -42l-4 -19h4l-4 -4v-4l4 -15l-4 -4v-4l4 -3l-4 -38v-16l-3 -3l3 -4 v-8l-3 -15l3 -11h-7l4 -4v-42l3 -27h-3l3 -3v-4l-3 -4l3 -4l-3 -19l7 -30h-4q32 -67 54 -72q0 -8 19 -8l72 23l61 -8l3 4l4 -4v4q51 -10 57 -19l12 4v-4q12 -11 26 -11v-8l-30 -27v-3l-4 3l-42 -15v4q-15 -11 -53 -15l-4 4l-45 -8l-4 4h-4l-15 -4l-15 4l-4 -4l-4 4v-4l-4 4 h-4l-19 -4l-68 23l-4 -4h-4l-49 23l-4 -4q0 8 -30 23q-41 32 -57 64h-4l4 4v4q-9 0 -19 23l4 4l-4 3v4l4 4v4h-8v4l-4 41l4 4v4l-4 11l4 4l-4 19l4 50l-4 3v4l4 12l-4 3v4l4 12h-4l8 22l-4 4l4 38v23l-4 15l4 4v4l-4 30h4l-4 4v4l4 30l-4 19l4 4v4l-4 4v3l4 12l-4 4v3l4 4 l-4 19v8h4l-4 19v30l-8 72l8 8l-4 11h4l-4 4v15l4 19l-4 4h4l-8 31l4 3v4l-4 12h4l-4 3v4l4 4q-6 42 -11 42l4 4v7l-4 23l4 4z" />
<glyph unicode="f" horiz-adv-x="622" d="M0 117l4 11h-4l4 4v27l-4 3l4 4v4l-4 11l4 12h-4l4 4l-4 45v34l4 16l-4 3l4 38v103l4 15l-4 12h4l-4 3v4l4 19l-4 23l4 4h-4l4 4v7h-4l4 38v42l-4 15l7 50l-3 3l3 19v8h-3l7 49h-4l4 4v53l4 4l-4 4l4 27v11l-4 38l4 4h-4l8 15v8h-4l4 26v19l-4 19q8 34 8 91v8l3 15l-3 12 l3 19l-3 41v42q0 132 53 209q33 18 118 42l3 -4h8v8h4l4 -4l41 8l4 -4h19l4 4l15 -8l4 4h4l15 -4l4 4l7 -8h8l4 4h4l3 -4v4q31 -7 31 -15l4 4l34 -16l4 4q0 -11 34 -23q0 -10 26 -15v-7q25 -10 27 -19v-8l-15 -15h-31l-15 4l-4 -4h-3l-73 7h-3l-8 -7l-4 4h-4l-30 -12v4 l-34 -11v3q-47 -19 -50 -30q-15 -25 -22 -68l-4 -4q0 -52 -8 -84l4 -4h4l38 8l4 -4h3l4 4h4l4 -4l19 4l49 -15q18 0 76 -38l4 4v-12l4 4h4q7 0 7 -19h4q0 -14 -61 -23v-4l-11 4l-12 -7l-3 3h-4l-42 -15l-4 4h-4l-91 -23v-4l-7 -98l3 -4l-7 -61l4 -15l-4 -38v-12l-4 -3l4 -4 v-4l-4 -4v-4h4l-4 -3l4 -12l-12 -114v-11l-3 -4l3 -4l-7 -87h7q-7 -8 -11 -65h4l-4 -30h-4v11h-4v-26l12 -38v-12l-4 -4l4 -3v-4l-4 -4l4 -4v-7l-4 -4l4 -4l-4 -38v-15l-4 -4l4 -4v-26l-4 -27h4l-4 -4v-4l4 -19l-4 -3l4 -19v-38h-4v19h-4l-3 -12l7 -30l-7 -31v-15l3 -4 l-7 -22v-42q-12 0 -12 -15l-15 3q-10 -7 -34 -7v-4q-58 11 -65 23q-26 23 -26 42v49z" />
<glyph unicode="g" horiz-adv-x="637" d="M0 246l4 4v64l-4 4l8 19h-4l4 4v42l-4 4l4 3v4l7 129l-4 4h4l-4 4l4 19l-4 4l4 4v7l-4 4l4 4v4l-4 15l12 64h-4l4 4l-4 19l4 12l-4 3v4l4 12l-4 3v4l4 4v4l-4 11h4l-4 4v4l8 80h-4l7 19l-7 60l4 4h3l-3 4v4l3 15l-3 11h3l-3 4v4l3 4l-3 19v23q0 74 34 212l34 80 q28 66 110 103l15 -4q0 8 61 19v4l15 -4l23 4l12 -4v4l3 -4l16 4l45 -12l4 4l4 -11h11q53 -15 65 -27v4q45 -16 45 -30q-4 -19 -11 -19l-4 3v-7l-4 4h-3l-12 -4l-4 4h-3l-16 -4h-7v7l-4 -3q-19 4 -19 11l-19 -8l-4 4q-34 -4 -49 -15v4q-57 -21 -91 -72q-57 -144 -57 -183 l-4 -4h4l-16 -95l8 -30h-4l4 -4l-4 -11l4 -42l-4 -34l4 -19l-4 -4v-4l4 -4v-3l-4 -16l4 -11h-4l8 -15h-8l8 -12l-8 -7v-8h8l-8 -11l4 -4v-4l-4 -19l4 -4h-4l4 -3v-4l-4 -4v-4l4 -4h-4l4 -3v-4l-4 -4l4 -4l-4 -38l4 -23l-8 -87h4l-4 -4v-7l4 -4l-4 -12l4 -3v-4l-4 -15h4 l-7 -19l7 -8l-7 -8l3 -11l-7 -53l4 -4l-4 -19l4 -19l-8 -8l4 -3q-8 -21 -8 -54h4l-4 -3v-4l8 -19h-8l27 -84v-4l-4 -11l42 -57l30 15l4 -4q80 58 80 95q14 19 26 80l-3 15l3 4l-3 4v68h-4q-10 -7 -38 -7v-4l-12 8l-22 -8l-16 4l-3 -4h-4l-31 15l-3 -4l-38 35v30h7v4l19 -4 q42 0 42 11l11 -3l50 15l4 -4q32 4 45 15l34 -7h8v-8h4l11 4q0 -12 42 -19l4 -4l4 4v-8l3 4h4q23 -6 23 -27v-3l-8 -50l4 -4v-3l-4 -23l4 -4l-4 -4v-4l12 -60l-4 -4v-4l8 -30v-4l-12 -12l4 -3v-4l-11 -19l3 -4h-7l4 -27l-4 -11h7v-8q-29 -63 -117 -98l-27 -12l-4 4h-4 l-26 -11v3l-50 -11l-22 8l-12 -4v7h-4l-3 -3l-4 3h-4l-19 -3q0 6 -19 11l-8 -8l-49 27l-4 -4l-57 53q-21 17 -30 42q-36 42 -53 114q0 23 -8 23z" />
<glyph unicode="h" horiz-adv-x="569" d="M0 224h4l-4 4v27l4 114l4 3h-4l7 38l-3 4v50l3 3v4h-3l3 4v4l-3 4l7 45l-4 4l8 46l-4 3l4 19v65l4 4l-8 23l4 11l-4 15l4 34v23l-4 19l4 4h-4l4 11l-4 16l4 3v4l-4 15l4 4v4l-4 4h4l-4 4l4 19l-4 11l4 27v53l4 4l-4 3v4l4 4v4l-4 11l4 34l-4 16l4 3l-4 19l4 19h-4l8 38 h-4l4 4v69l-4 3l4 4v38l-4 4l4 11l-4 12l7 42l-3 3l3 19v38l8 27h23l114 -34l4 4q34 -25 34 -57l-8 -8v-8l-4 -72l4 -4v-3l-4 -4v-4l4 -11l-4 -16q3 -26 8 -26l-8 -27l4 -4l-4 -19v-3l4 -4v-4l19 4h31l15 7l19 -3v3l4 -3h3q7 0 12 19l-8 45l4 4l-4 19v34l-4 4v4h4l-4 4v3 l4 4l-4 4v4l4 4l-7 15l3 11q0 19 -7 19l4 4v4l-4 11h4q-12 31 -12 53h12v4l30 -15l11 4l38 -19l4 4q0 -12 46 -19q0 -12 19 -12q15 -12 23 -95h-4l7 -11l-3 -4v-4l3 -4l-3 -3l3 -19v-27l4 -4v-4h-4l4 -3v-4l-4 -4l4 -4v-19q1 -38 8 -38l-4 -4v-15l4 -11l-4 -19v-31l4 -3 l-4 -4v-4l4 -4v-4l-4 -15h4l-4 -4v-72l-8 -11v-4l8 -11v-4l-4 4h-4l-3 -4l3 -4l-15 -99h4l-8 -26h8l-4 -19v-12l4 -4v-3h-4l4 -4v-4l-4 -4l4 -4v-3l-4 -27h4l-8 -15l8 -27h-4q5 -30 12 -30l-4 -4v-4q5 -34 15 -34v-8l-11 -19l7 -53l-4 -4h4l-4 -3v-4l4 -4l-4 -4v-26l4 -4v-4 l-7 -8h3l-3 -3v-4l7 -23l-7 -23h-4v-19l-4 -4l4 -3v-8l-4 -4l4 -4v-7l-8 -12v-38l4 -3v-4l-4 -4h-4l4 -19v-27q0 -49 12 -49l-4 -4l4 -19v-7l-4 -4l4 -4l-8 -38l4 -4v-19q-10 -16 -27 -23l-4 4l-15 -11l-23 4v-8h-3q-19 0 -19 8l-12 -4q-42 14 -42 64h-3l7 31h-4l4 4l-4 26 v126l4 3v4h-4l4 12l-4 3l4 19v42l-4 4l4 4v91h-7v4h7v7l-4 16l4 3l-7 73h3l-7 41l4 4l-4 19v4l4 4l-8 11l4 4v4l-4 15l4 4l-4 4h4l-4 3v35l4 3l-4 4v4l4 15l-4 27l4 15h-4l4 4v4l-4 11l4 19v30l-4 4l4 4v38l-4 4l4 4v15l-4 4v3l4 4h-4l4 4v4l-4 4v3l4 27l-4 4v4l4 3l-4 19 v12l4 4l-8 19l-15 -8l-11 4q0 -12 -73 -19v-27l-3 -26h3l-3 -4v-19l3 -4l-3 -4v-11l3 -4l-7 -23l4 -4v-3l-4 -35v-7l4 -4l-8 -49l4 -4v-4l-4 -11l4 -4l-12 -53l4 -4l-4 -19v-15l4 -4l-4 -4v-8l4 -3l-4 -4l4 -19l-4 -34l4 -12q-2 -26 -7 -26l3 -4l-3 -53h-4q0 15 -8 15v4h8 v15l-4 4v3l4 4h-8l-4 -23h4l-4 -3v-16h4v8h4v-19l4 4h4v-4l-4 -4l4 -11l-8 -15l4 -4h-4l8 -19l-4 -72h-4q0 41 -8 41h-3v-3h7q-15 -41 -15 -84l4 -11h-8l8 -35l-4 -34v-26l-4 -4l4 -4v-15q0 -19 -8 -19l4 -4l-11 -68l4 -4v-15l-4 -19l4 -4l-12 -15h4q0 -15 -23 -23v4l-4 -4 h-3l-19 4v-4l-4 4h-12l-3 -4l-27 11v-4q-30 20 -30 27l3 4v4l-3 11h3l-3 4v49l-4 4l4 4v23l-4 19l4 19zM160 407l7 7l-4 4h-3v-11zM163 205v65h4l4 -31l-4 -3h4l-4 -4l4 -19l-4 -4l4 -4v-7zM167 156v11h8l-4 -11h-4zM167 175v15h4v-15h-4zM167 532h4v19h-4v-19zM167 559h8 l-4 19h-4v-19z" />
<glyph unicode="i" horiz-adv-x="322" d="M0 53l8 31l-4 3l7 31l-3 4l7 49h-4l8 53h-4l4 4v19l-4 4l4 4v19l-4 15l4 11l-4 4h4l-4 11l4 4v4l-4 15h4l-4 4v11l4 16l-4 11l4 4h-4l4 4v15l-4 4v3l4 4h4l-4 4v4l4 4l-4 3v4l4 34l-4 4h4l-4 4l4 19l-4 4l4 11l-4 12l4 3h-4l4 4v8l-4 4l4 3v23l-4 4l4 4v23l-4 3l4 4v42 l4 15l-4 15v4l4 19h-4l4 4v38l3 4v4h-3q7 19 11 79l-4 4l4 4h4l-4 4v4l4 3l-4 4l11 88h-3l3 3v23l-3 4l7 19l-4 4v19l4 23l-4 15l4 26h-4l8 42h-4l4 4v4l-4 4l8 60h-4l4 4v53l-4 4l11 69l-3 3h3l-7 31l4 4v3l-8 16l4 22h19q55 -24 118 -38l3 -11h19l27 -30v-4h-8v-4l4 -4 l-4 -19v-42l4 -3l-7 -16l3 -3v-69l-3 -4l3 -11l-3 -4v-4l3 -3l-11 -73l4 -3l-4 -19v-38l-4 -4l4 -4v-4l-4 -11l4 -4h-4l4 -4v-34l-4 -4l4 -4v-19l-4 -19h4l-15 -152h4l-12 -22l4 -4l-8 -27l4 -4v-3l-7 -73h3l-3 -3v-84l-4 -4l4 -4v-38l-4 -3l4 -4v-61q0 -38 -8 -38l4 -4v-4 l-8 -60h4l-4 -4v-15l4 -4l-4 -4v-4l4 -4l-4 -3v-4l4 -15h-4l4 -4v-84l-4 -4v-3h4l-4 -4v-15l-4 -65h4q-4 -34 -11 -34l-12 4v-4l-15 -15v3l-49 -11l-4 4h-4l-4 -4v8l-3 -4l-23 7l-4 -3h-4q-19 2 -53 45z" />
<glyph unicode="j" horiz-adv-x="592" d="M-20 306q8 23 19 23l19 -8l4 4q0 -8 23 -8v-4l11 4q19 0 19 -7l4 3h4l3 -3h4v3l4 -3h4l11 3q7 -12 61 -19q0 -11 8 -11v-15l-8 -34h4l-4 -12q1 -68 8 -68l-4 -4v-4l7 -49h-3q7 -30 30 -65h4q65 43 102 133l27 110h-4l12 69h-4l4 4v49l3 4v4h-3l3 3v4l-3 4l3 4v19l-3 15 l3 15l-3 4l3 4v4l-3 11l3 4h-3l3 4l-3 26v46l-4 4l4 3v23l-4 4l4 4v4l-4 19h4l-4 3v4l4 4v4l-4 15l4 11l-4 4l4 4h-4l4 4v15l-4 4l4 4v41l-4 4l7 31l-3 3v46l-4 15l4 15l-4 12l4 15l-4 4l4 4v3l-4 16h4l-4 3v4l4 34l-4 4v4l4 4v4l-4 3l7 50l-3 4l3 26v42l-3 4l7 34 q-2 27 -7 27l3 11l-3 103h-4l4 3l-12 80l-23 -7l-3 3q-27 -2 -27 -7l-4 4h-7l-4 -4l-4 4l-42 -8l-57 15v-4l-38 16v-4q-28 10 -38 30q-11 0 -19 38l31 8h45l4 4l4 -4h7l4 4h4v-4l19 7l4 -3l83 11v-4l54 12l87 -38l11 3q27 -22 42 -22q0 -9 19 -23l4 -15l-4 -4h4l-4 -4v-4 l4 -4v-3l-4 -12l4 -4v-3l-4 -12l4 -4l-11 -11h3l-3 -4v-7l3 -4l-3 -4v-4l3 -15l-3 -4v-4l7 -22v-31l-4 -4l8 -34l-8 -11l8 -27h-4l8 -15l-4 -4v-4l4 -3l-4 -4v-42l-15 -15l7 -19l-7 -53l4 -4l-4 -4h4l-16 -57v-34l-3 -4l7 -15l-4 -4h4l-4 -4v-15l4 -4l-4 -11l4 -4v-4l-7 -15 l7 -38h-4l4 -4v-11l-4 -4l4 -4v-15l-4 -4v-4h4l-4 -3v-8l4 -4l-4 -4v-19h8l-8 -11v-23l4 -4l-4 -3v-4l4 -12l-4 -3h4l-4 -4v-4l4 -15h-4l4 -4v-4l-4 -11h8v-4l-4 -4v-4h4l-8 -22l4 -4h4l-4 -12l4 -11h-4l4 -4v-4l-4 -15l4 -4v-3l-4 -4l4 -19l-4 -23l4 -11l-4 -4v-4l4 -4 l-8 -49l4 -12l-7 -26l3 -4l-3 -4h3l-3 -4v-3l3 -4v-4l-7 -8v-3l4 -4l-4 -4v-23l4 -4l-16 -38l4 -22l-4 -4h4l-15 -34h4q-5 -53 -84 -156q-41 -31 -80 -34l-15 -8v4l-4 -4h-26l-34 4l-12 -4l-68 19v-4l-38 27q0 6 -23 19l-34 57l-19 53l4 4q-4 34 -12 45l4 16l-8 11l4 4v4 l-4 15l8 42q-6 34 -19 34z" />
<glyph unicode="k" horiz-adv-x="719" d="M0 269v4l4 3h-4l4 4v4l-4 19l4 4h-4l4 4v3l-4 12l4 4l-4 3l4 4l-4 4h4l-4 11l4 4l-4 15l11 354v15l4 4v4h-4l4 11l-4 4l4 19v11l-4 4v4l4 4l-4 3h4l-4 4l4 19l-4 4l8 38l-4 4v4l8 49l-4 4v4l4 19l-4 3v4l8 12l-4 3v42l4 4v4h-4l7 15l-3 4v15l3 19h-3l3 4v4l-3 3l3 4v4 l-3 4l3 4v15l-3 4l7 30l-4 4l8 76h-4l4 4v7l-4 4v4l4 4h-4l4 3v23l-4 15l8 27l-4 4v83l4 4v4l-4 4l4 4h-4l4 3v57l7 8l35 -8l3 4q0 -6 65 -30l4 4q0 -11 38 -19q0 -12 11 -12l12 -26l-12 -99l4 -15h-4l8 -31l-8 -30h4l-4 -4v-8l4 -3l-4 -4v-15l4 -4l-4 -12l4 -3l-8 -46l4 -4 l-11 -125v-4h4l30 42q12 26 42 49l57 61q58 81 72 91l80 114v4l-4 4q14 0 30 34l16 11l30 -11v4q106 -54 106 -76q-56 -99 -144 -209l4 -4q-12 0 -12 -15q-15 -2 -72 -91q-10 0 -26 -27l-35 -34l-49 -80q-38 -30 -38 -53q68 -123 68 -156l35 -61l-4 -4q16 -22 30 -22 q0 -12 15 -12q0 -10 19 -34l-3 -4q11 -12 72 -167q26 -48 49 -122l19 -53h-4l8 -19h-4l27 -80h-4q0 -38 19 -60v-12q-23 -19 -84 -30l-15 4l-11 -8q-46 20 -46 27q-12 11 -30 49h4l-27 65l-4 3h4l-23 50l4 4l-30 60l3 4q-12 0 -30 69h-8v3l4 4l-26 57q-4 39 -23 80l4 4 q-7 3 -38 99l-12 7l4 4v4l-11 23h3q-22 67 -53 125h-4l-3 -4v-4l3 -3l-3 -4v-4l3 -4l-3 -4v-7l-4 -57h-4l-4 4h-4l-3 -4v-4h3l-3 -11l3 -12h-7l7 -11l-7 -12h7l-7 -34h4l-8 -15l4 -4v-42l-4 -19h8q-7 -38 -16 -38l12 -22l-4 -4v-12l4 -15l-4 -15v-8l4 -15l-4 -11l4 -4h-4 l4 -4v-7l-4 -4l8 -27h-4l4 -4l-12 -49l4 -23v-7l-4 -4l4 -4l-4 -11l8 -54h-4l4 -3v-16l-4 -3l4 -4v-4l-12 -38l4 -19v-15q0 -34 -49 -42l-4 4h-38q-31 0 -38 23l-11 15l3 4l-3 3h-4l4 27v122l-4 3l4 4v8l-4 15l4 4l-4 26v27z" />
<glyph unicode="l" horiz-adv-x="644" d="M0 1385l4 4v4l-4 19l8 7l26 -7v3l4 -3h4l4 3h3l4 -3q0 -8 34 -8q0 -8 69 -34q14 -6 30 -95l-4 -4l8 -46h-4l4 -3v-4l-4 -4l8 -30l-4 -4v-4l4 -4v-4l-8 -38l4 -15v-4l-4 -15l4 -4v-3l-4 -35l4 -15l-4 -11h4l-4 -4v-53l-4 -23l4 -15l-4 -4l8 -57l-4 -23v-80l4 -3l-4 -12 l4 -11l-4 -15l8 -80v-31l4 -19l-4 -3h-4l11 -99h4l-4 -4l8 -91v-15l4 -16l-4 -3v-4l4 -4v-11h-4l8 -141h-19q0 -57 -8 -57l8 -11l-4 -19v-8l4 -23l-4 -4q0 -34 23 -34l64 -4v4l15 -7l16 3l3 -3l4 3v-3l4 3h4l30 -7l4 4h4l4 -4l19 4h7q14 -12 50 -19l15 -4l4 -4v-4l3 4h8 q13 0 23 -34q-5 -19 -12 -19h-3l-4 4l-23 -8h-4l-57 8l-4 -4l-7 7h-4l-4 -3h-4v3l-3 -3l-27 3h-11l-4 -3h-4v3l-4 -3h-4l-3 3h-4l-4 -3h-4l-68 15l-4 -4l-49 11v-3l-42 7v-4q-47 0 -95 65l4 4v4l-4 3l4 4v12l-4 3v4h4l-4 4v11l4 4l-4 4v99l4 4l-4 3l4 42l-4 84h-4l4 4v3 q-4 202 -12 202v7h4l-7 130l3 3v4l-11 114l4 12h-4l4 3v88l-4 26h4l-8 50h4l-4 4v3l4 4v4l-4 4l8 76h-4l4 4v11l-4 15l4 15v12l-4 4l8 34l-8 45l4 4l-8 38l4 4l-15 95l4 4v4z" />
<glyph unicode="m" horiz-adv-x="704" d="M0 41l15 209h-4l4 4v19l-4 11l4 19l8 141l-4 3l4 19v76l4 27l-4 4h4l-4 4l4 45v27l3 4l-3 3l7 88l-4 4v3l12 107h-4l8 68l-4 4v4l7 38l-3 11l3 27l-3 11q5 0 11 15l-4 4l4 19v34l4 35l-4 3l11 149l-3 3l3 19v46l-3 15l3 15v27l4 4v4l-4 3h-3l3 4v12l-3 3v4l19 8l72 -23h4 l3 4h4q0 -13 76 -31q80 -92 80 -110h8l41 80l-3 4q8 0 45 57q0 14 15 26q21 0 42 -11v4q18 -4 50 -27q27 -14 38 -30l11 -4l-4 -46q0 -34 19 -49l4 -34h-4l8 -34l-4 -23l4 -15l-4 -4v-4l4 -11h-4l8 -31h-4l4 -4v-3l-4 -23l4 -4l-12 -198h4l-4 -3v-12l4 -23l-4 -3l4 -27v-27 l4 -3l-4 -4v-57l-4 -4l4 -11l-4 -12l4 -38v-61l4 -15l-8 -38l8 -19l-4 -4v-34l4 -4l-4 -3v-111l4 -15l-4 -11l8 -46l-4 -15v-19l4 -4v-4l-4 -3h-4l4 -4v-34l11 -42h4v7h4l7 -38h-3l3 -3v-4l-3 -12h3l-3 -11l3 -19l-7 -84l4 -19q-17 -26 -38 -26l-19 4l-23 -8h-8l-23 4 l-11 -4l-8 8l-3 -4h-4q0 7 -31 30q-7 23 -15 23l8 27h-4l4 3v54l4 3v4h-4l4 4v4l-4 23l4 15l-4 11l4 15h-4l4 4v34l-4 16l4 15v4l-4 15l4 15v4l-4 15l4 27v72l3 15l-3 15v38l3 4l-3 4v4l3 125l-3 11l3 23v42l-3 4l3 4v3l-3 38l3 54v136l-3 16q11 94 11 163h4l-4 19h-4 q-11 -46 -19 -46h-11l-4 4l-4 -4h-4l-3 4l-4 -4h-4l-30 4v-4l-16 8l-3 -4q0 8 -23 8v7l-4 -3h-4l-45 38q-10 0 -16 30l-11 8l-4 -27v-4l4 -4l-4 -3l4 -19v-8h-8v-8h4l-4 -26v-27l-3 -4l3 -3l-3 -19v-8l3 -23q-7 -15 -7 -42v-15l-4 -4l4 -3v-19l-4 -4v-4h4l-4 -11l4 -16 l-8 -60l4 -12l-4 -4v-3l4 -4l-8 -50l4 -3v-4l-7 -31h3l-3 -3v-38l-4 -4l4 -4l-8 -87l4 -4v-4l-8 -46l4 -11h-4l4 -11l-4 -19h4l-4 -4v-27l4 -4q-10 0 -19 -296l-4 -27h-4l4 -3q-5 -111 -19 -111v4l-19 -7l-4 3q0 -11 -7 -11h-34l-4 -4l-4 4h-4l-4 -4q-63 0 -87 46z" />
<glyph unicode="n" horiz-adv-x="682" d="M-30 53l15 198l-4 4l4 3h-4l4 4v38l4 19h-4l8 19l-4 4l11 118h-3l11 76l-4 4l15 114l-3 3l11 92l-4 3l15 130h-3l19 125l-4 4v4l4 3v12h-4l23 224h-4l4 4v53l3 4l-3 4v3l11 99l8 8l11 -8l4 4h11q12 -11 34 -11v-8q27 0 27 -11l4 3l64 -30q19 -15 42 -110h-4l8 -15h-4 l27 -137h-4l15 -84h-4l8 -23l-4 -3v-4q12 -79 19 -88l-4 -3v-4l4 -4l-4 -19v-15l4 -4l-4 -11l8 -65h-4l4 -30h4l4 45v23l3 4v4h-3l3 3v16l-3 3v4h3l-3 4v4l3 26h-3l7 46l-4 11q8 0 8 12l4 80h-4l19 140h-4l15 133l4 4h-4l8 38l-4 11l4 12l-4 19l4 34l-4 11l4 4h-4 q5 27 12 27q116 -45 117 -57l4 4h4q0 -13 19 -19l4 3q0 -8 15 -15l-11 -64l3 -4l-3 -4h3q0 -11 -11 -11v-8h8v-4q-12 -16 -12 -38h-7v-4q0 -130 -23 -220l-12 -53l4 -4v-4l-4 -4v-3l4 -19l-4 -4h4l-7 -12l3 -3v-4l-3 -12l3 -3v-4l-7 -23l4 -4v-4l-4 -3v-4l4 -15l-4 -16h4 l-12 -45l4 -19l-8 -42q3 -23 8 -23q-10 -64 -19 -64l4 -23l-4 -31l4 -3v-4l-8 -23v-4l4 -34l-8 -23h4l-7 -34h3l-3 -11q0 -60 -12 -80l4 -4v-4l-4 -19l4 -4l-4 -19v-19q-11 0 -11 -45h-4l4 -12l-4 -3v-4l4 -4l-4 -27v-15l4 -15l-8 -34h4l-4 -4v-4l4 -23l-8 -22l8 -12l-4 -11 l4 -12q-8 0 -8 -19h-3l-4 4q-46 -6 -46 -11l-4 4h-7l-4 -4h-4l-7 7l-4 -3q-46 14 -46 38q-12 2 -26 68l3 4l-38 186l4 4l-7 26h3l-11 42h4l-8 23l4 4v4l-11 45l3 4q-7 0 -22 103h3l-7 22l4 16l-4 22h-4q0 -64 -8 -64l4 -4q-2 -27 -7 -27l3 -3v-4l-3 -4v-4h3l-7 -34l4 -4h-4 l4 -4v-3l-4 -4l4 -4l-12 -57l8 -15l-12 -42l4 -11l-7 -16l3 -3l-11 -76l4 -4v-4l-8 -19l4 -4h4l-4 -4l4 -22l-12 -65l4 -4l-11 -57l4 -15v-8l-4 -3l7 -16q-22 -26 -45 -26l-19 4l-27 -8q-8 6 -61 11q0 12 -11 12z" />
<glyph unicode="o" horiz-adv-x="637" d="M-10 757l4 3v4l-4 4l4 4l-4 19v140l4 16l-4 3v4l4 12v7h-4l4 27v57l4 4l-4 3l7 65h-3l19 72l-4 4q9 0 38 95q38 72 91 106v-3l122 26l19 -11l11 4v-4q19 -18 46 -27l3 4l12 -19l4 4h11q0 -12 11 -12q0 -31 42 -49q2 -8 31 -15q0 -11 26 -31l38 -38q34 -70 34 -87v-4l-3 4 h-4l-4 -4v-11l4 -34l-4 -4l4 -19v-12q0 -42 -15 -114h7v-3h-7l-4 -12l4 -4v-45l3 -4l-3 -4v-4l3 -3v-4h-3l3 -4v-4l-3 -4v-3l3 -4l-3 -4l3 -4h-3l3 -4v-19q-10 -87 -19 -87l4 -4v-7l-4 -4l4 -4l-4 -38v-15l4 -4l-4 -4v-26l4 -12l-4 -19v-34l-3 -4v-4h3l-3 -3v-42l-4 -4l4 -4 v-4l-4 -3l4 -4v-15l-4 -4l4 -4v-4l-4 -15l4 -4v-4l-4 -15l4 -4v-3l-4 -12l4 -4v-3l-4 -12h4l-4 -4v-15l4 -4l-4 -3v-8l4 -4v-4h-8v-11q0 -27 -8 -27l4 -3l-15 -80l4 -4l-15 -19l3 -11l-7 -16l4 -11q-6 0 -23 -49l-23 -42l-4 -4h-4l4 -4v-11q-26 -14 -26 -38q-9 0 -23 -15 l-46 -23l-11 4l-12 -4v4l-19 -8l-3 4h-4l-4 -4h-4v4l-4 -4h-3l-16 4v-4l-3 4h-4l-4 -4l-23 8v-4q-72 16 -102 53q0 8 -12 8q0 12 -19 30q-20 46 -30 49l4 4v4l-16 19l4 11q-10 0 -38 168h4l-8 30l4 4v4l-7 34l3 4h-3l3 3l-3 46v65l-4 3l4 4v61l-4 23l4 4v3l-4 12h4l-4 4v11 l4 15l-4 4v4l4 4v3l-4 12h4l-4 4v72zM161 806h8l-4 -19h4l-4 -4v-38q0 -27 7 -42l-3 -15l3 -11h-3l3 -4v-15l-3 -4l7 -15l-7 -15l3 -12l-3 -4l3 -19v-19l-3 -3l7 -19l-4 -4v-19l4 -4l-4 -4v-4l4 -3l-4 -4v-4l4 -15h-4l4 -4v-11l-4 -4v-4l8 -8l-8 -22l4 -4v-4l-4 -19l4 -27 l-4 -15l4 -4h4l-4 -15l4 -19h-4l27 -140q14 -57 23 -57l-4 -4q12 -53 23 -53q55 23 95 117v4l-4 4q7 0 34 91l19 88h-4l4 3l4 103v53l4 4l-4 4v4l4 3l-4 4v4l4 19h-4l4 4v11l-4 4l7 11l-3 4l3 38v42l-3 4l3 4v60l-3 4l3 4v15l-3 4l3 4v30l4 12l-4 19v114l4 102h-4l4 4v4 l-4 4v3l4 4h-4l4 4l-7 84l3 3v4l-11 38l4 4l-31 61l-45 34h-8q-22 0 -45 -34l-4 4q-22 -29 -57 -114l4 -4v-8q-12 -1 -27 -83l-11 -73l3 -3l-3 -4h3l-7 -23l4 -4h-4l4 -4l-4 -38v-22l4 -4l-4 -4v-8l4 -11l-8 -42l4 -4v-22l-4 -4v-4z" />
<glyph unicode="p" horiz-adv-x="682" d="M0 353l8 16v7h-4l4 27v91l3 38h-3l3 4v15l-3 4l3 4v19l-3 3l3 4v23l-3 15l3 4v4l-3 11l3 12h-3l3 3l-3 19v175l-4 19l4 4h-4l4 4v57q0 84 11 171h-4l4 4v26l-4 4l8 19l-4 4l8 72h-4l4 4v15l-4 4l7 45l-3 4v4q0 54 60 68l4 4h31l3 -4h4v4l4 -4l19 4h42l4 4l3 -4h16l3 4 l4 -4h19l4 4l4 -4h38l26 -4l4 4l4 -4v4l34 -11l4 4h4q114 -35 121 -42l4 4h8q0 -13 49 -31l31 -19q0 -15 15 -15v-4l-4 -4v-3q19 0 38 -35l11 -19l-3 -3v-4l11 -23l-4 -4q12 0 12 -38v-26q-54 -73 -69 -73l-61 -22q-17 0 -45 -31q-15 -1 -15 -15l3 -4q-34 -23 -64 -23l-12 4 l-15 -4v4l-26 -11l-8 7l-19 -3l-4 3l-7 -7l-4 4h-4l-4 -4l-4 4l-3 -4v4l-4 -4h-19l-4 4l-4 -4h-4q-41 7 -41 15l-4 -4l-27 8l-4 -15l4 -4v-23l-7 -42v-61l-4 -3l4 -4v-4l-4 -4v-4l4 -11h-4l4 -4v-4l-4 -3l4 -4v-4l-4 -4v-4l4 -15h-4l4 -4v-3l-4 -35h-4l-4 12l4 4l-4 3l4 4 l-4 4h4l-8 23h-3v-23l3 -4l-7 -34h4l-4 -4v-4l4 -3l-4 -4v-4l4 -4v-4l-4 -11h4l-4 -4l4 -26v-4l-4 -4l4 -4v-19l-4 -4v-3h4l-4 -4v-8l4 -4v-3h-4l4 -4v-4l-8 -46h4q-12 -25 -12 -53v-19l4 -15l-4 -11l4 -4h4l-4 -4v-8l4 -3l-4 -4v-8l8 -34l-4 -11h4l-4 -4v-31l4 -3l-4 -4 v-23l4 -4l-4 -4v-3l4 -38l-4 -4v-4l8 -11l-8 -23l8 -8l-4 -4v-3l4 -4v-4l-4 -4l4 -19v-7l-4 -19h4l-12 -46l4 -4v-4l-4 -15h4q-3 -30 -34 -30h-31l-3 -4h-4l-4 4v-4q-34 5 -65 27h-3v3l3 4l-3 4l3 57v8l4 3l-4 4l4 38v12l-4 19l4 -4h4l-8 49h4l-4 4v8q0 64 -7 64l4 12l-4 26 h4zM190 1018l4 -3h19l4 3l3 -3h4l12 3l3 -3v3l4 -3h38l4 3h4v-3l23 7v4l3 -4q54 36 122 69l27 19l3 -4q0 7 27 26l19 50q-14 95 -68 95v7l-4 -3l-27 3l-19 -3l-53 7v-4l-42 8l-4 -4h-7l-4 4l-19 -8l-4 4h-7q-28 0 -46 -19l4 -4v-3l-8 -23h4l-8 -27l8 -7h-8v-23l4 -4l-4 -4 v-4l4 -3q-7 -9 -11 -69l4 -4l-4 -3h-4l4 -4v-19l-4 -15l4 -16v-3l-4 -4v-4l4 -4z" />
<glyph unicode="q" horiz-adv-x="689" d="M0 325l4 4l-4 19v83l4 53l-4 12l4 11l-4 4l4 19v68l4 4l-4 4l4 19v106l3 4v4h-3l7 38l-7 19l7 30l-4 12l4 4h-4l4 3v8l-4 4l4 4v45l4 4l-4 4l8 42h-4l8 34h-4l11 45h-4l23 84l-4 4q7 0 23 68l-4 4q5 0 42 129q48 136 65 160l49 15l42 -11l4 3q0 -6 57 -22q53 -23 53 -50 q69 -17 110 -53q29 -3 69 -76l22 -30l-3 -4v-8q12 0 19 -19q3 -33 11 -42v-11h-8l4 -34h4l4 4h4l7 -27h-4q12 -33 16 -76h-4l4 -4v-7l-4 3h-4l-4 -3l-4 19h-3q0 -23 -8 -23l4 -4v-4l-4 -15l4 -11l-4 -4h4l-4 -4v-4l4 -4v-3l-4 -4h4l-4 -4q3 -27 8 -27l-4 -3v-8l4 -4l-4 -4 v-11l4 -4v-4h-4l4 -3l-8 -50h8v-4h-8v-11l4 -4l-4 -4l4 -38l-8 -57l4 -3h4l-12 -42h4l-4 -4l8 -61l-4 -15l8 -15l-4 -4l4 -4q-10 0 -19 -118q-14 -17 -38 -133l4 -3l-12 -46l4 -11q-5 0 -19 -61q-5 0 -11 -34h7v-4l-15 -42h4q71 -64 148 -110l4 -19l-4 -4l8 -8 q-30 0 -35 -15l-19 8l-3 -4h-4l-46 19l4 4v4l-91 68l-4 -11l15 -4q-27 -51 -83 -88l-69 -11l-4 4v-4l-3 4l-19 -4h-19q-19 0 -19 8l-4 -4h-15l-4 4h-4v-4l-19 7l-4 -3h-4q-7 7 -30 7l-49 27l-4 4q-8 0 -8 11l-4 -4h-3q-2 13 -35 38q0 11 -30 34l-23 42h4l-23 57l4 4l-11 65 h3l-3 3v4q0 65 -8 65zM186 317l8 -11l-4 -4v-8l4 -3l-4 -4v-4q3 -46 8 -46l-4 -3q3 -23 7 -23l-3 -4q20 -118 41 -118q0 -13 23 -34l8 -15q38 31 83 110v8q0 7 -15 7q0 11 -42 31q0 7 -11 7q-23 30 -23 50v11l8 8l7 -8v4l80 -38l23 -8v4q38 101 61 213h-4q15 47 30 182h-3 l3 4v72l4 4l-4 4v4l4 3l-4 4v8l4 4l-4 3l4 46v8l-4 3l4 4v103l-4 23l4 19v41l-4 4v4l4 4h-4l4 4l-4 19v26l-3 4l3 4v7l-3 4v4l3 4h-3l3 11l-3 19h3l-3 4v4l3 4l-19 106h4l-23 61h4q-44 102 -102 102h-8q-7 0 -11 -19h3l-15 -60h4l-23 -65l4 -4q-11 0 -11 -30q-6 0 -12 -38 h-4l4 -4v-8h-7l3 -3l-11 -23h4q-2 -15 -12 -15v-4q0 -22 -26 -122l4 -4l-4 -3h-4l4 -4v-4l-4 -11h4l-8 -31l4 -4l-8 -83h4l-7 -12l3 -3v-4l-3 -4l3 -19v-8l-3 -3l3 -4v-4l-3 -19h3l-3 -4v-15l7 -11h-7l3 -4l-7 -65v-34l4 -4l-4 -4v-19l-4 -45l4 -4h-4l4 -4v-4l-4 -22h4 l-8 -16l4 -11l-4 -27l4 -26h-4l8 -27l-4 -4v-53l-4 -4l4 -3v-27z" />
<glyph unicode="r" horiz-adv-x="667" d="M0 692l4 12l-4 4l4 19v7l-4 19l8 8l-4 4v3l4 4v4l-8 19l4 4v49l-4 19l4 23v57l4 4l-4 4v15l4 15l-4 11h4l-4 4v46l-4 4l8 34l-4 4v3l4 16h-4l7 45l-7 61l4 19v23l-4 45h4l-4 4v12l4 3l-8 38q0 56 42 73q62 38 118 38h30l15 -4l4 4h4l19 -4v4l30 -8v4l15 -8l4 4h4l122 -49 l15 -4q0 -12 42 -27l3 4q0 -8 19 -8q0 -12 27 -19q0 -8 30 -30l27 -57v-15l-4 -4l4 -4v-4l-8 -53h4l-11 -23h4q-19 -45 -27 -45q-10 0 -23 -34l-30 -23l4 -4v-4q-29 -36 -92 -87l4 -4v-4l-4 -4q15 0 57 -167l-3 -4v-3l11 -23l-4 -4v-4l23 -125h-4l15 -57l-3 -4v-4l7 -11 l-4 -4q13 -71 23 -84l-4 -3v-4l12 -38h-4l8 -19l-4 -4l7 -8v-3l-3 -4v-4l11 -8l-4 -3v-4l46 -190l-4 -4h-4l-4 19h-7q1 -27 7 -27l-7 -11l19 -57l-4 -11l4 -4l-4 -19q0 -30 23 -91v-4q-3 -18 -72 -23q-76 22 -76 103l-4 3q0 12 -8 12l4 11q-12 65 -23 65l4 4v3l-23 88h-4 l4 4v3l-4 4v4l4 4q-5 0 -11 15h4q-13 71 -27 91l4 4v4l-34 129l3 4l-3 4h3l-19 79l4 4v4l-7 30h3l-15 42l4 4v4q-19 135 -42 201l4 4v4q-18 64 -27 64q-28 6 -38 16l-11 -4v-46l-4 -4l4 -3v-8l-4 -4l4 -4v-3l-4 -19h4l-4 -4v-72l-4 -16l4 -15v-34l4 -4l-4 -4v-114l4 -3 l-4 -4v-4l4 -4l-4 -4v-3l4 -4l-4 -4v-4l8 -42l-4 -3v-31l4 -4l-4 -11l4 -11h-4l8 -23h-8v-4l8 -11l-4 -4v-4l4 -4v-4h-8v-3l8 -16l-4 -3v-4l11 -57h-4l4 -12l-4 -19h4l-4 -3l4 -19v-8l-4 -4v-4h4l-4 -3v-4q2 -57 8 -57l-4 -4q12 -40 12 -68v-54l-4 -3l7 -35h-3l7 -19h-7v-7 l-8 -8l-11 -4l-4 4h-15l-16 -4l-26 8l-12 -8q-19 2 -19 12l-3 -4h-16q-25 0 -57 42v102l-3 4l3 4v4l-3 4v3h3l-3 4v4l3 4l-11 45l4 4l-4 76v15l-4 4l4 4v4l-8 64h4l-4 4v31l-3 15l3 15v4l-3 15l3 4l-3 19v64l-4 4l4 4v57l-4 4l4 4zM186 1053l4 -11h8l49 23v-4q39 20 53 42 q16 6 65 76q46 67 49 121l-7 27h3q0 12 -38 27v-4l-3 4h-27l-27 3v-3l-3 3h-23q-56 0 -103 -60v-8l4 -4l-4 -4v-98l4 -4l-4 -4v-8q1 -38 8 -38l-4 -3v-38l4 -4z" />
<glyph unicode="s" horiz-adv-x="697" d="M0 40v4l11 3l8 -7l4 4v3l4 -3l41 7q0 -7 19 -7v-4l4 4h12q0 -12 64 -23l61 26l91 54v7h4l4 -4h4l34 38q0 8 11 8q27 44 53 209h-3l3 4v125l-3 38h3l-15 72h4l-8 27h4l-15 65h4l-31 95q-41 104 -83 125q-26 24 -133 53q-46 13 -46 23l-4 -4h-7v8q-12 0 -12 11 q-19 0 -30 27q-40 46 -53 121v19l4 35l-4 3v4q11 19 11 50q9 0 23 41h-4q20 58 84 99l26 12q31 3 31 15l7 -8q28 12 76 12v-4l42 7v-3l19 7l4 -4h19l4 4l4 -4h26v-7l4 4h4l4 -4v4q91 -30 91 -50q-53 -12 -53 -23q-27 4 -27 12l-4 -4l-19 4h-7q-20 0 -35 -12h-22v-7l-4 4h-4 q0 -7 -42 -23q-55 -36 -83 -171v-27l3 -4l-3 -11q29 -122 98 -122l35 -15l3 4l8 -8l4 4q0 -6 26 -11v-4l4 4h4q76 -33 133 -91l23 -42q23 -51 30 -88l12 -30l-4 -4h-4l23 -57l15 -76l-4 -26l4 -16h-4l4 -3v-4l-11 -57l7 -38l-4 -4v-4l4 -11h-4l4 -4v-23l-4 -4l4 -3v-4 l-7 -34l3 -4v-4l-7 -30h4l-8 -31h4q-31 -152 -46 -152q0 -13 -26 -34q-41 -46 -114 -76v-8h-4l-4 4h-4q0 -9 -45 -26l-4 3q0 -7 -19 -15l-4 4h-4l-61 -19h-53q-27 0 -42 8v-4q-26 15 -45 15l-4 -4l-23 8l-4 -4v8h-3l-4 -4q-18 0 -53 38v19h-8z" />
<glyph unicode="t" horiz-adv-x="622" d="M-20 1451l4 -4l23 7l30 -3v3l4 -3h87l4 3l4 -3h11l4 3l4 -3h11l15 3l16 -3l15 3l15 -3v3l4 -3h53l4 3l26 -7l4 4h31l3 -4h4v4l4 -4h4l4 4h3v-4l4 4h23l87 -12l4 4q0 -15 69 -42l19 -23q-6 -15 -12 -15l-4 4q0 -9 -45 -11v3l-31 -7l-41 7l-4 -3l-19 3h-15l-4 -3l-4 3h-8 l-15 -3l-15 3h-4v-3q8 0 8 -19l4 -4l-4 -4v-4l7 -11l-11 -103v-19l-4 -4v-3h4l-4 -4v-4l4 -4l-4 -4v-53l-4 -4l8 -38l-4 -30l4 -38l-4 -19l4 -11l-4 -12h4l-4 -4v-91l-4 -4l4 -3v-4l-4 -4l4 -19v-38l-4 -27h4l-4 -3v-8l4 -15l-4 -4v-11h4l-4 -27v-38l4 -15l-4 -15h4l-4 -4 v-27l4 -4l-4 -3v-50l4 -15l-4 -4v-4l4 -3v-4l-4 -15l4 -4h-4l4 -4v-15l-7 -8l3 -19v-106l4 -4l-4 -4v-4l8 -45h-4l4 -4v-46l-4 -15l4 -15v-15h-4l-4 4h-3l-4 -4l11 -53v-19l-4 -4l4 -4v-11q-15 0 -15 -31l4 -4v-3l-4 -12l8 -7v-19l-12 -27l-11 4l-19 -12l-4 4l-11 -11v4 l-12 -8l-15 8l-15 -4q-44 13 -61 45l-11 46l3 11l-3 4l3 4h-3l3 4v49l-3 12l3 19v68l-3 15l3 15v38l-3 16l3 15v7l-3 16l3 11l-3 19h3l-3 4v118l-4 3l4 4v23l-4 15l4 15l-4 16l4 3v4l-4 4v4l4 11l-4 4l4 19v53l3 4l-3 4v34l3 4l-3 4v11l3 4v4l-3 3l3 4l-3 4h3l-3 4v57l3 4 l-3 3v4l3 4v4l-3 19h3l-3 11l3 4v4l-3 4v3l3 42v8l-3 4v3h3l-3 4v4l3 23h-3l3 4v49l-3 4l3 4v79l4 4l-4 4l16 213l-4 4l-4 -4l-72 11l-4 -4h-4l-30 12v-4l-46 15l-4 -4l-26 23q-8 23 -19 23l4 4v4z" />
<glyph unicode="u" horiz-adv-x="697" d="M0 454l4 4v4l-4 15v4l4 3l-4 4v31l4 3l-4 4l8 46l-4 4v3l4 4v4l-4 4l4 19v11l-4 4l4 4v30l-4 15l4 16v26l3 4l-3 4l11 129h-4l4 4v7l-4 4l8 27l-4 19l4 4h-4l15 121l-4 4q3 27 8 27l-4 3l4 19v4l-4 4l12 49l-4 12h4l-4 4l11 60l-4 4l4 4h-4l4 4v42l4 15l-4 4l4 19v11 l-4 15l4 15v27l-4 4l4 4v15l-4 15l8 15q30 0 76 -30q16 0 53 -23q27 -3 46 -27l-4 -19v-57l-4 -3l4 -4v-12l-4 -22l4 -19l-4 -4v-4l4 -4v-4l-4 -15l4 -4l-4 -19l4 -15l-8 -11l4 -4v-4l-4 -4v-3h4l-4 -4v-15q0 -68 -7 -88l3 -4v-3l-7 -38h4l-12 -76l4 -4l-4 -4h4l-8 -27l4 -3 l-11 -118h4l-4 -4v-49l-4 -4l4 -4l-8 -57h4l-4 -4v-4l4 -3l-4 -4v-4l4 -4v-4l-4 -15l4 -4v-3l-4 -12h4l-4 -4l4 -19l-4 -15l4 -4l-4 -26v-50l-4 -3l4 -4v-4l4 -141l4 -15h-4l11 -83l-3 -4l7 -61q13 -1 27 -53q15 -4 15 -15h4q15 0 83 125l35 57q33 81 45 251l4 76l-4 4l4 19 v60l4 16l-4 3l4 19v54l4 45h-4l4 4v38l-4 4l7 45l-3 16l3 11l-3 4h3l-3 4l3 26v38l4 4l-4 4v4l4 11h-4l8 34h-4l8 23l-4 4v4l4 3v4l-4 4l4 19v30l4 4l-4 4v4l4 4v3l-4 4l7 65l-3 4v3l3 16l-3 3l3 12l-3 4l7 45l-4 12l4 3h-4l4 4v19l-4 4l8 38l-8 30l12 16h4q31 -7 76 -31 l3 4q0 -8 16 -8q0 -8 38 -19v-11l19 4l15 -53l-4 -4v-53l-4 -4v-4h4l-4 -4v-26l4 -4l-4 -4v-46l-4 -3l4 -4v-15l-4 -4v-4h4l-7 -42l3 -4v-49l4 -4l-7 -11l3 -4v-11l-3 -4l3 -4v-4l-3 -11h3l-3 -4v-4l3 -4l-3 -3v-35q0 -26 -8 -26l4 -4q-5 -76 -12 -76l4 -4v-30l4 -15l-8 -23 h4l-4 -4v-23l4 -15l-4 -15h4l-4 -4l4 -19v-4l-7 -11l3 -4l-15 -68l4 -4v-19l-4 -4l4 -4l-4 -19v-11l8 -8l-4 -11l4 -27l-23 -175q-8 0 -15 -79l-61 -118l-23 -61q-50 -91 -114 -91v-4l-4 4h-7l-4 -4h-4v4l-4 -4h-3l-38 4v-4l-57 11l-4 -3l-4 3l-11 4v4l-4 -4h-4l-65 27 q0 10 -19 19l-3 -4q-4 16 -38 42q-65 85 -65 133q-11 91 -11 156v7l-4 4v4h4l-4 4v15l4 4z" />
<glyph unicode="v" horiz-adv-x="704" d="M-50 1438v4q0 7 19 11q0 -9 15 -11v4l42 -23l4 4l42 -31v4q50 -22 60 -53l35 -106l3 -4l-3 -4q41 -122 53 -186v-23l4 -4l-4 -4v-7q1 -65 7 -65l-3 -4v-3q2 -35 7 -35l-4 -3v-4q3 -31 8 -31l-4 -3v-4l8 -19h-4l11 -34l-3 -4v-4q3 -38 11 -38l-4 -4l12 -72h-4l4 -4v-4 l3 -98v-4l4 -4v-4h-4l8 -11l-4 -4v-4l4 -4l-4 -3l4 -50h4q11 104 53 304h-4l19 61h-4l8 27h-4l23 110h-4l15 53h-3l45 205h-4l27 118h-4l8 30l-4 4l8 8l-4 4l11 3q34 -8 76 -34v4l23 -19l4 4q0 -17 45 -34l8 -16h-4l8 -26l-15 -38l3 -15h-7l4 -4l-27 -110v-8h-8v-11l4 -4v-4 q-13 0 -34 -133q-11 0 -11 -19h-4l4 -4v-7q-19 -41 -23 -76l4 -4l-4 -4h-4l4 -4v-4l-8 -11l4 -4l-27 -80l-3 -3l3 -4v-8q-15 0 -15 -53l-4 -11q-11 -8 -11 -38l-4 -4l-4 -12l4 -3v-4l-15 -57h4l-12 -38l4 -12q-15 -114 -38 -114l-4 4l-19 -76h4l-7 -23h7v-3h-7l-4 -16l4 -3 v-4l-8 -27h4l-8 -11l4 -4l-8 -30l4 -12l-7 -26l3 -4v-4l-19 -103l4 -3h4l-8 -38l4 -4v-4q0 -22 -26 -38l-4 4h-19l-4 -4h-4l-4 4v4l-3 -4h-8q-38 0 -72 68l-19 103h4q-12 61 -19 68l3 4l-3 4h3l-11 38h4q-46 267 -46 376l-4 4h4l-4 4v3q0 101 -11 149h4l-12 49h4l-7 34h3 l-7 15l4 4v4l-12 65l4 3v4l-4 4v4h4l-11 45l3 16l-3 26l3 4l-11 4l8 11q-4 61 -12 61l4 4v7l-11 23h3l-26 53l4 4v4l-16 49h4l-11 38h-4l4 4v4l-15 30h3z" />
<glyph unicode="w" horiz-adv-x="906" d="M-50 1375l4 3h19q22 0 68 -26q53 -12 53 -23l4 4h8q0 -10 19 -19q0 -13 11 -27l-4 -4v-3q5 -23 12 -23l-4 -4v-4q15 -34 15 -53h-4l35 -118l3 -4h-3l15 -41l-4 -4q8 0 30 -129l16 -84h-4l4 -4v-4l-4 -3v-4l23 -76h-4q17 -91 23 -91l-4 -4v-4l38 -137l-4 -4v-3l11 -31h-3 l7 -19h-4q12 -12 12 -45q6 0 11 -46l4 -4h4l42 107l-4 3v4l11 19l4 -4h4v4l23 -7v-4l3 4h4l34 -16l4 4q0 -16 61 -23l-4 -3v-4l4 4h4q13 0 45 -46h4l-4 -4v-4q12 0 12 -19h4l3 38l-3 4q2 31 7 31l-4 3l27 240h-4l19 201h-4l8 38h-4l8 12l-4 3v4l4 12h-4l8 34l-4 4v11l4 4v4 h-4l4 3v4l-4 4l4 4v7l-4 4l7 31h-3l3 3v61l16 122l-4 23l4 3v4l-4 12l4 3l-4 4h4l-4 12l4 11l-4 4h4l-4 4v3l4 12h-4l4 4v11l-4 4l4 4v3l-4 4l11 15q89 -45 141 -87l15 -23q-11 -12 -11 -34h-4l4 -4v-4l-8 -15l4 -11l-4 -4l8 -8v-57l-4 -3l4 -4v-4q-19 -36 -23 -72l4 -4 l-4 -19v-53l-4 -4l4 -4v-19l-4 -4l4 -3l-8 -31l4 -4h4l-23 -76h4q-8 -19 -8 -68v-23l-4 -4v-3h4l-7 -16l3 -3l-7 -42h4l-4 -4v-38l-4 -4l4 -4v-3l-4 -23l4 -4l-8 -30h4l-8 -57l4 -4l-4 -4h-3l3 -4v-11l-3 -4l3 -4v-4l-7 -11l4 -11l-8 -23l4 -4h-4l4 -4v-4q0 -27 -19 -60 l4 -12h-8l4 -4l-4 -3v-4l4 -27q-8 0 -8 -26h-4l4 -4v-4l-4 -4l4 -4v-3l-4 -12v-4h4v8h8l-4 -4l4 -4v-19l-12 -45l4 -4v-4l-7 -15l3 -4v-4l-3 -3v-4l3 -4v-4l-7 -19l4 -4v-3l-4 -12h4q7 0 7 -15h-4l8 -23v-4q-6 -15 -30 -15l-12 -4v-3l-23 7l-11 -4l-4 4v-4q-61 25 -61 35 q-6 24 -15 30l4 4v4q-42 79 -53 79l4 4v4q-35 54 -35 65h-3q-14 -65 -23 -65l4 -4v-4l-23 -49l4 -4v-4l-8 -7l4 -4h4l-8 -15l4 -12l-27 -68l4 -4v-4q-1 -11 -19 -26v-4l-4 4h-4l-3 -4l-16 8l-3 -4h-4l-4 4h-4l-26 -8l-19 8v-8l-4 4h-4l-4 -4h-4q-22 0 -22 15h-23l4 4v4 l-23 23l4 3q-8 0 -12 31h4l-8 19l4 4h-7l3 3q-7 45 -15 54v3q0 51 -23 164h4l-26 102v4l3 4h-7l4 11l-16 42l4 4v4q-26 86 -38 152l-4 4h4l-15 53h4l-4 4v22h-8l4 4v4q0 37 -11 53l4 4l-8 15h4l-8 27h4l-8 15h4q-38 217 -49 243h4q-22 75 -31 80l4 4v11l-8 12h4z" />
<glyph unicode="x" horiz-adv-x="876" d="M-20 74v4q32 33 49 64q22 19 65 99q17 55 152 247q42 75 42 91v4l-50 118q-34 72 -87 243h4q-17 58 -27 65l4 4v11h-8l4 4q-26 69 -34 118q-9 0 -19 49h-4l4 4v4l-15 30h4l-31 68l12 8h38l22 -4l12 4l4 -4h3l12 4q0 -9 19 -11l4 3h3l12 -3l4 3q0 -9 34 -15l45 -114l-3 -4 l26 -60h-4q42 -111 76 -240l16 -34h-4l23 -49q15 17 68 129h4l-4 4v3q37 57 122 236q36 51 87 152q11 0 11 19h4l-4 4v7h23l4 -3h4l4 3l3 -3v7h4v-7l4 3l114 -38l4 4l7 -7l4 3l15 -19q0 -17 -95 -163l4 -4l-53 -99l4 -3v-4q-14 0 -27 -46l-118 -224q-9 -9 -34 -80 q-9 -4 -26 -45l-8 -23l-8 -8h-3l3 -4v-3q-15 -21 -15 -38q80 -176 80 -198l-4 -4l8 -7v-4h-8v-23l19 -30l-4 -4l16 -12l-4 -3v-8l7 -8q8 0 8 -15q65 -109 84 -167l30 -49l-8 -8l-3 4q0 -9 -35 -27v4q-17 -7 -19 -15l-19 4l-15 -8q-21 0 -57 27l-4 -4q0 13 -68 152l-76 144 h-4l4 4l-34 84h-12l-38 -65q-26 -57 -57 -99l-34 -53l4 -4q-15 -2 -15 -11l4 -4q-11 0 -42 -68l-4 -12l-15 -11l-4 4h-4l-30 -12l-4 4v-4l-4 4h-7l-12 -8l-11 4l-8 -7l-15 3v-3q-71 0 -91 49h-4z" />
<glyph unicode="y" horiz-adv-x="644" d="M-30 1431v3q2 23 11 23l4 -4v4q34 -5 34 -11l4 4h4l87 -42q0 -12 16 -12v4q16 -8 26 -23l-4 -3v-4q11 0 23 -46q12 0 12 -7h-4l64 -130l4 -3q8 -7 8 -19q6 0 23 -35h7v-3l-4 -4v-4l4 -4h4q30 71 53 160q41 75 69 167q13 11 30 53h8v4q91 -28 91 -53l19 4q1 -27 23 -27 l3 -34l-7 -15h4l-16 -42l4 -4v-4l-15 -4l4 -3v-4l-8 -12v-7l4 -4v-4q-23 0 -76 -175h4l-46 -87q0 -15 -26 -68h7v-4l-4 -4v-4l8 -7h-4l4 -4v-31l-4 -3v-4h4l-4 -4v-4l8 -7l-4 -4v-4l4 -15h-4l4 -4v-4l-4 -15h4l-4 -11l4 -4v-4l-4 -4q5 -45 11 -45l-3 -16l7 -41h-4l12 -42 l-4 -4v-4l4 -4v-3h-4l4 -4v-4l-4 -15l4 -4l-4 -4l4 -4h-4l4 -3v-4l-4 -12h4l-4 -11l8 -57h-4l4 -4v-15l-4 -4l4 -4v-3l-4 -92h-4l4 -3v-4l-8 -8l4 -4v-7l-4 -4v-4l4 -4h-4l4 -3v-4l-4 -4l4 -19v-11l-4 -12l4 -19v-38l-4 -4l4 -3v-46l4 -4l-4 -4v-19l4 -34l-4 -4v-3l4 -4v-4 q-3 -23 -8 -23l4 -4v-7l-4 -4v-4l4 -4l-4 -3l4 -4h-4l12 -61l-23 -8l4 -11q0 -34 -31 -34l-4 4h-3l-16 -4l-3 4l-19 -8l-16 4v-4l-30 11l-4 -3l-34 38l-4 205l-4 4h8l-4 19v3l4 27h-4l4 4v7l-4 16l4 11l-4 19l4 23l-4 42h4l-4 11l4 27l-4 3l8 38l-4 19v69l4 15l-8 11l4 4v27 l-4 4l4 11v8h-4l4 26v46l-4 19l4 4q-8 0 -8 11l4 4v4l-4 15l4 4l-7 30l3 4l-11 61l4 15l-4 4v3l4 12l-8 26l4 4v4q-5 27 -15 27v7l4 -4h3q-12 32 -53 76l-61 99l4 4q-14 13 -42 65q-7 0 -7 19q-25 20 -76 152l-15 19l3 3v4l-3 -4h-8v8q-8 0 -19 27z" />
<glyph unicode="z" horiz-adv-x="794" d="M-20 63v11q20 13 53 114l34 68l16 23h-4l19 34l-4 4l8 8l-4 4q45 51 68 144h-4q15 39 35 61l83 201l8 12h-4l110 220l34 61l-3 4q24 27 49 91q21 34 84 209v4h-46l-4 -4l-4 4h-3l-4 -4l-4 4h-15l-4 -4l-4 4h-38l-4 -4l-11 7l-19 -3h-11l-4 3l-4 -3h-11l-4 3h-4v-3l-4 3 h-11l-15 -3l-19 7v-4l-35 8l-3 -4q0 8 -31 8q0 11 -23 11q0 9 -26 38v19l19 4h7l4 -4l4 4h4l15 -4v4l4 -4l49 8l15 -4h19l4 4l4 -4h11l19 4l4 -4v4l12 -4l30 4l4 -4h4l15 4v-4l38 11l4 -3v3l15 -7l4 4h11l4 -4l4 4h15l4 -4h3v4l16 -8l3 4h4l19 -4l8 8l15 -8l4 4h11l53 -27v4 q64 -25 73 -42v-11l-31 -50l4 -3v-8q-12 -11 -27 -76l-3 -4q0 -19 -12 -19l4 -4l-23 -60h4l-38 -76l-49 -107h3l-68 -129l-49 -114l3 -4q-7 0 -7 -19q-8 0 -27 -45h4q-15 -25 -15 -46q-40 -61 -88 -186l-11 -12l4 -3v-4q-18 -50 -61 -110q0 -19 -8 -19l4 -4v-4l-11 -19h4 q-45 -80 -61 -141l-23 -41l19 -4l4 4h4l3 -4v-4l12 8l4 -4h19l3 4h4v-4l23 7l4 -3l72 7v-4l4 4h7q50 0 69 8v-4l4 4h3l4 -4h4l4 4l4 -4l3 4v4l50 -8l4 4v-8h3q38 0 38 -11l4 4q33 0 61 -35v-3l-11 -19l-19 3l-12 -7h-4l-3 4h-4l-4 -4v4q-25 -10 -152 -19v-4l-4 4l-38 -4h-19 l-4 -4h-3v4l-4 -4h-15l-4 4h-4v-4l-4 4h-4l-3 -4l-4 4h-31l-3 -4q-95 11 -95 19l-4 -4h-4l-68 19h-16q0 12 -15 12l-4 -4q0 15 -26 15q0 14 -42 46z" />
<glyph unicode="{" horiz-adv-x="517" d="M0 712v8q0 6 19 11v-4q49 24 49 46q10 0 42 53l15 42l8 46h-4l8 60h-4l4 4v38l-4 4v4h4l-4 4v57l-4 3v4l4 4h-4l4 4l-8 42l4 3l-11 65l4 11l-8 8h4l-8 27l4 3l-4 19v31l-4 4l4 3v57l27 61q42 69 83 69l31 3h19l11 8l12 -11l15 3q11 0 11 -11l4 -4h4l4 4l22 -11l4 3h4 q0 -10 27 -19v-3l-4 -4l-4 -12q-23 -4 -23 -11l-4 4h-11l-15 -4l-15 4h-4q-12 -4 -12 -23l4 -4q-10 -34 -15 -34l4 -4v-4l-4 -3v-4l4 -4q-8 0 -8 -11l4 -4l-4 -19v-23l4 -4l-4 -4v-3l4 -23h-4l4 -4v-23l-4 -4q8 -16 15 -87l4 -4h-4l8 -38l-4 -4v-3l4 -16l-4 -3l4 -4v-12 l-4 -3l12 -54l-4 -3h4l-4 -4v-4l4 -15h-4l4 -12q-12 -73 -27 -106h4q-22 -80 -34 -80q0 -24 -84 -83h-4v-8l4 4h4l61 -76l38 -95l-4 -4v-4l30 -144h-4l4 -4v-4l-7 -15l7 -46l-4 -19l4 -3v-4l-4 -4q4 -33 12 -42h-8v-19l4 -15l-4 -4v-4l4 -3v-4l-11 -57l7 -38h-4l8 -19h-4 l4 -4v-4l-4 -11q8 -45 15 -53l-3 -4q19 -50 26 -50l4 4h4l19 -7v3l49 -11l4 4l8 -8q0 -34 -54 -49v-4l-3 4h-42l-4 -4q-80 22 -80 46q-14 0 -38 57q-8 49 -15 49l4 4v7h-8l4 4l-8 23l4 4l-4 45v57l4 38h-4l4 4v19l-4 23l4 11l-4 12l4 15l-4 4h4l-7 38l3 15v8l-3 3v4h3 l-26 126h4l-12 22l4 4v4l-30 87h-8l4 4v4q-7 0 -19 23q-8 0 -8 11l-4 -4q-20 1 -57 27l-3 -4q0 10 -19 23q0 15 -8 15z" />
<glyph unicode="|" horiz-adv-x="337" d="M0 38l4 19h-4l4 4v4l-4 4v4l4 3h-4l4 12l-4 4v3l4 16v7h-4l4 19v15l-4 4l4 4v42l-4 4l4 3v118l-4 15l4 16v30l4 4l-4 4v3l11 122l-4 4v4l8 41l-4 4l8 42l-4 15l4 4l-4 4l15 121h-4q23 94 23 255h4l-4 4v4l4 11h-4q12 37 12 68v118l-4 4v4l4 4l-4 3h-4l8 12l-4 4v11l4 4 l-4 4l4 38v19l3 3l-7 16l4 11l-4 19l4 19l-4 15q7 0 7 12h19l23 -4l19 4l4 -4v4l4 -4h4l3 4h4q0 -8 53 -16v4q19 0 38 -38l-3 -4v-3q2 -27 7 -27l-4 -19v-15l4 -4l-4 -4l4 -45v-27l-4 -34l4 -4v-4l-4 -15h4l-7 -27h3l-3 -3v-35l-4 -15l4 -15l-4 -4l7 -15l-7 -23h7 q-10 -10 -15 -49l4 -23l-4 -23l4 -4v-3l-8 -57l8 -8l-8 -11v-4l4 -4l-7 -42h3l-19 -125l-7 7l4 16l-4 11h-8l4 -4l-4 -19l4 -4v-3q-8 0 -8 -27h-3l3 -4l-7 -61h4l-8 -26l4 -19l-8 -38l4 -4v-4l-8 -19l4 -4l-4 -19v-3l4 -4l-11 -46l4 -4v-3l-8 -92h4l-4 -3v-31l4 -4l-4 -3 v-179l4 -4v-4h-8l4 -3v-4l-8 -31l4 -22v-16l-34 -22l-11 3q-34 -3 -42 -11l-8 8v-8q-7 0 -30 27l-4 -4q-19 27 -19 45z" />
<glyph unicode="}" horiz-adv-x="532" d="M0 1462v19l15 4l88 -19l7 7l19 -4l4 4v4l68 -15l4 4v-8q31 -5 53 -38q12 0 12 -11l4 -4h3l4 4q0 -13 12 -23q45 -81 45 -141h4l-8 -11l8 -42l-4 -4v-11l4 -4l-8 -11l4 -4l-23 -160l4 -4v-3l-4 -4v-4l4 -4l-4 -19v-7l4 -16l-4 -3v-4l4 -4v-4l-4 -4l27 -110l-4 -4 q14 -11 27 -38l45 -49q19 0 19 -8l-3 -3l3 -4v-12q-13 -20 -41 -30q0 -8 -19 -8v-3l-4 3h-8v-7q-14 -4 -23 -27l4 -4l-4 -3h4l-11 -76h4l-4 -4l7 -76l-3 -4l3 -19v-34l4 -4l-4 -11l8 -80l-4 -4l4 -4h4l-4 -4v-3l4 -4v-4l-4 -11l4 -4h-4l4 -4v-15l-4 -4v-4l4 -4h-4l8 -34 l-4 -4v-3l4 -4v-4q-11 0 -16 -46h4l-19 -72l8 -15l-4 -23v-4l4 -3v-4q-12 0 -12 -19q-31 -27 -41 -46q-23 -19 -92 -45l-15 3q-24 0 -45 -11v8h-8l-4 -4h-4q0 6 -45 23q-12 13 -12 26q0 6 31 15l4 -3l3 3v4l4 -4h8v12l-4 4q2 11 38 30l23 91h-4l8 19l-4 4v4l4 4l-4 3l4 27 v15l-4 4v4l4 4h3l-3 3v4l3 4l-3 15l3 15l-3 35v15l3 15l-7 15l4 4v4l-4 15h4l-4 4v42l-4 3l4 4l-12 72h4l-7 23h3l-3 12l3 11l-3 23l3 4v3h-3l7 31l-4 4v3l4 35v11l-4 4v4h8v3q0 57 15 57l4 -3l34 22l12 12q-54 66 -65 110l4 4q-6 38 -19 38l4 4l-8 22h4l-8 23l4 15l-4 27h4 l-4 4v4l4 68l4 4h-4l4 4v26l4 27l-4 4q11 0 11 68h4l-4 4v34l4 4l-8 45l4 12q-4 49 -15 49l4 4v4q-15 17 -15 42q-11 0 -35 38l-38 11l-3 -4z" />
<glyph unicode="~" horiz-adv-x="727" d="M45 514l4 23l-4 3q11 0 15 50q46 99 80 99l61 15l38 -8l4 4v4l41 -8l4 4q110 -10 110 -30l27 -23h4q0 9 23 26l3 -3l4 3v4l4 -4h8l3 4l23 -7l8 7l30 -4v4q48 -19 65 -19q0 -7 15 -7l4 -4v-12q-31 -24 -31 -38q-38 -49 -49 -49q-10 -11 -91 -11h-8l-4 -4l-3 4h-4l-4 -4 q-38 5 -76 34v-4q-15 0 -15 15q-10 0 -31 19l-30 27q-21 0 -42 -57l-7 -53h3q0 -8 -26 -27l-4 4h-4l-15 -11l-4 3h-4l-38 -7l-3 4l-4 -4l-4 4l-8 -8q-45 13 -45 23l-4 -4h-4q0 11 -15 23z" />
<glyph unicode="&#xa1;" horiz-adv-x="337" d="M0 634l8 30h-4l7 30l-3 4h3l-3 4l3 19v11l-3 4l7 31l-4 3l8 92l-4 19q20 49 38 57h4l23 -4h4l3 4q10 -8 57 -12l4 -4q12 0 12 -7l3 4h8l4 -4l4 4h7l34 -27l-3 -4l3 -4l-7 -68l4 -11q-12 0 -12 -57h4l-4 -4v-19l4 -4v-4l-8 -7v-8l4 -4q-7 -19 -7 -87v-34l3 -19l-3 -4l3 -4 l-3 -4h3l-3 -4v-15l3 -4l-3 -3v-12l3 -4l-3 -3v-57l3 -27h-3l3 -4v-61l4 -3l-4 -4v-4l4 -80l4 -4h-4l4 -3v-31l4 -45h-4l4 -4v-38l4 -4v-4l-4 -4h4l-4 -3v-4l4 -12l-4 -3l4 -19v-50l3 -4l-3 -3v-12l3 -19h-3l3 -4v-3l8 -95h-8l8 -12l-4 -4v-3l4 -4v-4l-4 -4l4 -19v-30l4 -4 v-4l-8 -7l4 -4l-4 -4v-23l4 -19l-4 -23v-26l4 -4l-4 -4v-11l4 -4l-4 -4v-7l4 -16l-15 -38l-4 4h-4l-53 -15l-34 8l-19 -4v7h-8l-4 -3l-15 7l-4 -4q0 8 -11 8l4 4v4l-15 15l3 4v3l-3 12h3l-3 4v49l-4 4l4 4v3l-4 12h4l-4 4v41l4 61l-4 12h4l-4 3v42l-4 4l4 4l-4 19v19h-8 l8 11l-4 4v4l4 4l-8 22l4 4v15l-4 4l4 4l-4 19v4l4 4l-7 57l3 11l-3 15l3 4l-3 19v30l-4 4l4 4v4l-8 49h4l-4 4v8l4 3l-4 4v4l4 4l-4 11l-8 186h-3l3 4l-7 46l4 4h-4l4 3v23l-4 4v4h4l-4 4l4 19l-4 30l4 11zM8 1078v8l26 4h19l12 -8l11 4l4 -4v4l4 -4h3l8 8l30 -8h31l23 -23 v-11q-19 0 -19 -12l-4 4l-4 -4h-4l-4 4h-3l-27 -7l-4 3l-7 -7l-4 4h-4v-4l-72 19v4l4 3q-10 0 -19 23z" />
<glyph unicode="&#xa2;" horiz-adv-x="1139" />
<glyph unicode="&#xa3;" horiz-adv-x="824" d="M-10 573l4 4h45l4 3l53 -11v4l4 -4h19l4 4h4v-4l15 4v15h-8l8 8l-4 3v4l4 12l-4 19v11l4 4v4h-4l4 3v4l-4 4l4 4l-4 19l4 4v3l-4 16h-4l-3 -4l-54 11v-4q-48 16 -72 46h-4v19q0 8 27 8v3l4 -3h42v-8h7l19 4v-4l4 4h4l34 -4v8l-4 3l4 4v4l-4 4l4 4v3l-4 4v4l8 19l-8 19h4 l4 4v7h-4l4 27v53l-4 4v4l4 4h-4l4 3v27l-4 4l4 4v11l-4 4l19 102h-4q7 27 12 27l-4 4v4l7 11v4l-3 4l7 19l-4 3q9 0 27 50l42 49q48 39 110 57l8 8v-4l45 15v-4l61 16l4 -4l110 19v-4l19 8l4 -4h4l11 4l4 -4v-4l4 4l34 -8l4 4l41 -27v4q23 -10 23 -23q23 -3 23 -22l-11 -8 l-4 4l-12 -12l-3 4h-4l-4 -4l-19 4q-43 0 -76 -15l-4 4l-38 -8l-4 4l-91 -23q0 -11 -23 -11q0 -12 -22 -12l-42 -45q-50 -79 -50 -133h-7l4 -4v-4l-8 -42l4 -11l-8 -15h4l-8 -12l4 -3v-46l-4 -4l4 -4v-3l-4 -4l4 -4v-49l-4 -4l4 -4v-8l-4 -22l4 -16h-4l4 -3v-4l-4 -4v-4h4 l-4 -4v-7q0 -10 57 -15l65 -12l4 -4l4 4l7 -19l4 4h4l4 -15q0 -18 -46 -27v4l-4 -4h-4l-76 4l-3 4l-4 -4l-4 4l-8 -12l4 -3v-4h-4l4 -4v-8l-4 -3l4 -4v-8l-4 -4v-3h4l-4 -4v-4l4 -4l-4 -19l4 -19l-4 -11h4l38 4q23 -3 23 -8l4 4l42 -12l3 4v-4l4 4h15l42 -15l8 -27v-3 q0 -10 -61 -27l-23 8l-4 -4v4l-30 -8v4l-65 -12v-19l4 -19h-7v-7l3 -4v-4l-3 -4h3l-7 -49h4l-4 -4v-4l4 -3v-4l-4 -15l4 -12h-4l4 -4v-3l-4 -12l4 -4h-4l4 -3v-16l-4 -3v-4h4q-8 -13 -8 -50h-4l4 -3l-4 -19v-12l4 -4l-4 -3v-16l4 -3l-4 -4v-76l-4 -4v-4l4 -4h-4l4 -3v-35 l167 50v-4l65 11l23 -7h4l3 4h4v-8l4 4h4q0 -8 19 -8q34 -17 34 -26l-30 -23l-46 -12l-4 4h-4l-22 -7v-4l-4 4h-4l-8 -8l-3 4h-4l-91 -34v3l-31 -11v-4l-4 4h-3q-19 -1 -19 -8l-4 4h-4l-42 -11v4l-34 -8l-15 4h-4l-4 -4q-23 5 -23 11l-3 -3h-4q-42 3 -88 49l4 4q-11 0 -11 7 v31l-4 34l4 15l-4 4v4l4 23l-4 3l4 19l7 190h-3l3 4v53l4 16l-4 11h4l-4 4l4 19v11q0 8 -38 15l-11 -3q0 6 -27 11v-4l-4 4h-7l-4 -4h-4q-2 15 -30 15v8q-12 0 -12 11h-7v12z" />
<glyph unicode="&#xa4;" horiz-adv-x="1014" />
<glyph unicode="&#xa5;" horiz-adv-x="1262" />
<glyph unicode="&#xa6;" horiz-adv-x="1014" />
<glyph unicode="&#xa7;" horiz-adv-x="1014" />
<glyph unicode="&#xa8;" horiz-adv-x="674" d="M127 1368l4 20l14 2q-28 9 60 156l67 14q92 -55 46 -111l-9 2l5 -7l-5 -6l-13 -3l3 -9l-4 -5l-13 -3l-4 -5l3 -9q-31 -37 -109 -50l-4 9l-18 5l-15 -3zM359 1368l4 20l14 2q-28 9 60 156l67 14q92 -55 46 -111l-9 2l5 -7l-5 -6l-13 -3l3 -9l-4 -5l-13 -3l-4 -5l3 -9 q-31 -37 -109 -50l-4 9l-18 5l-15 -3z" />
<glyph unicode="&#xa9;" horiz-adv-x="1674" />
<glyph unicode="&#xaa;" horiz-adv-x="648" />
<glyph unicode="&#xab;" horiz-adv-x="674" d="M8 504v19l84 61q0 8 38 34q50 51 136 118l19 31h27v-8l4 4q19 -17 53 -31q8 -11 19 -11v-8l4 4h7l27 -34l4 4v-4q0 -13 -88 -84q-26 -12 -26 -30q-16 0 -57 -38l-57 -46q-13 -22 -27 -22v-8l34 -15v4l35 -16l3 4q2 -15 27 -15v-8h4l4 4h3q0 -6 31 -19l4 4q3 -11 22 -11 l4 3q0 -11 15 -11l4 -11h4v7h11q0 -7 12 -7l49 -50v-7l4 -12h-4q-15 0 -15 -15h-23l-4 4l-3 -4h-4l-42 19l-34 27l-4 -4q0 9 -42 19v-4q-19 5 -19 15l-4 -4h-3l-31 16l-4 -4q0 11 -26 11q-109 50 -152 91zM259 497q5 11 76 42l42 38q0 12 38 30q33 -23 60 -23q0 -7 19 -7 q16 -8 16 -31l3 -4h4q0 -10 -61 -79l16 -8v4q45 -19 45 -27l12 4l34 -15l-4 -4v-4q17 0 23 -15v-15q-10 -20 -23 -23v4l-4 -4h-23l-11 8h-8v-8l-3 4h-4l-4 -4v8l-4 -4h-11q0 14 -34 19l-4 4h-4l-4 -4q0 6 -42 19v-4q-30 11 -30 19l-4 -4l-34 19v-4q-40 22 -57 46 q-15 4 -15 23z" />
<glyph unicode="&#xac;" horiz-adv-x="772" d="M0 704q0 23 19 30l11 -3l16 3l26 -3v3l19 -7l12 7l3 -3h4l4 3l19 -3h34l4 -4l19 7l4 -3h15l4 3l11 -3l4 3l19 -3h11l4 3l31 -7v4l3 -4h4l27 4l4 -4v4l15 -8l11 4v-4l4 4h65l3 4l4 -4h34l84 4v-4l11 4l4 -4h4l11 4v-8h19l4 4h4q0 -8 11 -8l-3 -4v-3l11 -4l4 4l4 -4v-4l3 4 h4q37 -21 42 -38v-4l-8 -23v-19h-7v-23l4 -3v-4q-12 0 -12 -69l4 -3l-4 -4l19 -46q8 0 8 -11l-4 -4v-4l4 -11l-38 -23l-12 4l-3 -4q-44 0 -65 30q-19 9 -30 46h3l-15 42h4l-8 30v34l4 16l-4 11l4 11l-7 8l-4 -4l-46 8v-4l-42 8v-4l-3 4h-4l-12 -4l-3 4v-4l-4 4h-42l-4 3h-4 v-3l-3 3h-4l-4 -3l-4 3h-34l-11 -3l-19 3h-57l-4 4l-4 -4h-15l-4 4l-4 -4h-4l-3 4h-4v-4l-4 4h-4l-4 -4l-64 8l-4 -4l-8 8v-4l-22 8l-4 -4h-12l-38 26l-3 -3q0 11 -8 11z" />
<glyph unicode="&#xad;" d="M67 580v8l4 19l4 -4q12 8 49 8v4l4 -4h4l3 4h4l4 -4v4l4 -4l80 11l11 -4l11 4v-4l38 12l4 -4h12l3 4h4v-4q19 8 69 8h3l4 3l4 -3h8l3 3l4 -3h4l4 3l34 -7v4l38 -8l4 4l26 -15v7h4q30 -11 42 -34v-15q-11 0 -23 -15l-26 3l-8 -7l-30 7q-23 -2 -23 -7l-4 4h-8l-72 -16v4 l-4 -4h-38l-3 -3h-4l-4 3l-4 -3v-4l-4 4h-3l-16 -4l-3 4h-4l-31 -4v4l-3 -4h-16l-3 4l-4 -4h-31l-3 4l-4 -4h-4l-4 4h-4v-8h-3l-19 11l-4 -3h-4l-23 3l-4 -3q-10 22 -30 22l-11 19v4l-4 -4h-4z" />
<glyph unicode="&#xae;" horiz-adv-x="1674" />
<glyph unicode="&#xaf;" horiz-adv-x="959" d="M-10 1395l1 8q1 13 81 16l3 -4h4l1 7l3 -4l31 -2l19 2v-4l4 4l3 -1l4 -4h4l34 5l4 -4l4 3v-4l4 4h4l11 -5l57 3v-4l76 5l4 -4v4l4 -4l54 7l3 -4h4l77 9v-4l23 6v-4l31 5l3 -4l1 8l3 -1l4 -4h4l4 3l-1 -3l12 6l4 -4h4l42 4v-4l19 6l4 -4l4 4v-4l80 5v-4l99 7v-3l4 3l8 -1 l3 -4l27 6v-4l4 4l4 -1l86 -22v4l15 -9l27 5q-1 -9 21 -20l4 3l21 -28q-2 -20 -63 -26v4l-4 -3h-4l-30 6l-38 -4l-4 4h-4l-4 -3l-3 4h-4l-4 -3h-4v4q-44 -2 -50 -8l-3 4v4l-27 -5l-4 4l-88 -5l-3 5h-4l-12 -3l1 4l-66 -6l-3 4l-4 -4v-4l-4 4l-4 1q-34 0 -34 -5l-4 4l-38 -5 l-4 5h-4l-80 -1l-15 5l-4 -4l1 4l-5 -3h-3l-130 3l1 3l-50 -3l-4 4l-19 -2l-106 8l-4 -3l-11 4l-12 -3l-3 5l-1 -4l-3 4l-8 1l-4 -4l-3 4h-4l-4 -3l-4 4l-30 2q-20 2 -36 26z" />
<glyph unicode="&#xb0;" horiz-adv-x="412" d="M67 1383q14 83 29 94l-3 3q8 0 8 6l-2 3q28 72 63 72l8 -6l9 3q17 -12 26 -12l3 3l17 -14v6q19 0 32 -23l43 -26v-3q-1 -6 -15 -12l-11 3q7 -11 69 -60l11 -29l-2 -3v-8l2 -3l-2 -3v-3l2 -3l-2 -3v-3l2 -8q-8 0 -8 -40h-3l-3 -3h-3l3 -3v-15q-32 -33 -32 -43l-5 -11l3 -3 v-3q-15 0 -15 -11h-23q0 -8 -14 -9l-3 3v-3l-3 3h-6l-3 -3l-2 3h-6l-3 -3l-3 3h-3l-3 -3l-20 9l-11 -3l-35 14q0 6 -17 9q-22 17 -55 63q0 14 -5 14l2 3l-8 46v12zM199 1314l6 -6q0 6 17 20q17 19 26 60h-3l6 26l-3 3h3l-3 3v9l3 2v3l-17 18q-6 0 -6 -9l-3 -14h-6l3 -3v-3 q-15 0 -23 -81v-8l3 -3l-3 -3v-14z" />
<glyph unicode="&#xb1;" horiz-adv-x="682" d="M67 380v8l4 19l4 -4q12 8 49 8v4l4 -4h4l3 4h4l4 -4v4l4 -4l80 11l11 -4l11 4v-4l38 12l4 -4h12l3 4h4v-4q19 8 69 8h3l4 3l4 -3h8l3 3l4 -3h4l4 3l34 -7v4l38 -8l4 4l26 -15v7h4q30 -11 42 -34v-15q-11 0 -23 -15l-26 3l-8 -7l-30 7q-23 -2 -23 -7l-4 4h-8l-72 -16v4 l-4 -4h-38l-3 -3h-4l-4 3l-4 -3v-4l-4 4h-3l-16 -4l-3 4h-4l-31 -4v4l-3 -4h-16l-3 4l-4 -4h-31l-3 4l-4 -4h-4l-4 4h-4v-8h-3l-19 11l-4 -3h-4l-23 3l-4 -3q-10 22 -30 22l-11 19v4l-4 -4h-4zM76 767q0 17 61 19v-3l4 3h19l3 -3l27 7l4 -4l19 4h15l4 95h4l-4 4v42l-4 4l4 3 v4l-4 38l4 4h23l3 -11l12 3l11 -3v3l27 -11l4 4q15 0 41 -19l4 4h4l11 -12l4 4h4q15 0 30 -27q-1 -19 -11 -19l4 -3l-4 -4v-4l4 -27l-8 -7v-27h8v-4l-4 -30h8l3 4h4l4 -4v4l30 -12l4 4q23 -2 23 -15l4 4h4q0 -12 7 -12l4 4q53 -15 53 -45h-4q-17 -15 -34 -16v4l-4 -4h-3 l-57 4l-61 -4v-15l4 -4q-8 -10 -12 -57h4l-8 -19l4 -3v-4l-4 -27l4 -4h4l-4 -3v-4l4 -4l-8 -30h8l-23 -23v-4l-23 8q0 -8 -11 -8l-4 4h-4l-11 -4q-30 0 -61 19q-11 0 -11 19l-15 8l3 3l-7 31l11 114l-11 4l-4 -4h-4l-42 11l-3 -4v4l-4 -4h-4l-34 12h-12l-26 34z" />
<glyph unicode="&#xb2;" horiz-adv-x="464" d="M-15 1461l11 61v3q10 0 27 23q22 19 38 19h27q0 -11 15 -11l4 4h3q36 -23 107 -42q83 -43 83 -126q-2 -26 -15 -26l4 -4v-15l-8 -12h4q-12 -45 -26 -45v-15q67 -22 87 -38l4 3v-7h19l11 -12v-19q0 -6 -26 -15l-4 4h-4q-19 0 -19 -8l-4 4l-26 -7v3q-16 -1 -16 -11l-11 8 q0 -8 -23 -12l-4 4v-8l-3 4h-4l-42 -11l-15 4l-4 -4v-4l-15 8v-8l-23 8l-15 -4v4l-4 -4h-4l-19 7l-4 -3l-3 11h-4l-4 -4q-11 0 -11 12l-4 -4h-4v7h-4v-7l-11 4v3h7l-30 50q0 8 76 106l19 42v8l-4 -4h-11l-15 11l-12 -4v4l-4 -4h-7l-4 4l-4 -4h-7q0 9 -27 16q0 13 -27 19 q-9 12 -11 34z" />
<glyph unicode="&#xb3;" horiz-adv-x="292" d="M-23 1564v11l34 19v-4q15 0 15 16l12 -8l4 4h15q22 0 53 -19l4 4q2 -8 57 -27l7 8q0 -8 23 -19v3l15 -3l-3 -4v-4q48 0 83 -76l-4 -4q3 -30 8 -30l-4 -4v-4l4 -4v-3l-11 -46h3l-3 -4v-30l-4 -19h4q-11 -18 -27 -99q-7 0 -27 -27l-22 -11l-4 4l-42 -12v4l-53 -11l-12 4 l-19 -8v8h-11l-27 11l-30 15l-4 -4h-4q0 12 -15 27l4 4v4h-8v15l16 15q0 -8 34 -11v3l4 -3h3l4 3h4v-3q72 20 72 53l-80 26l-3 -3q-32 25 -50 53v4l4 3v4h-4l8 15l11 -3l4 3h4l4 -3l38 7l3 -4h4l19 8v-4q42 10 42 15h4v-7l4 4h3l-11 79l-4 -3h-4l-3 3l-19 -3h-4l-15 11h-8 l-4 -4h-4l-3 4v4l-4 -4h-12q-3 19 -34 19l-26 27z" />
<glyph unicode="&#xb4;" horiz-adv-x="464" d="M115 1447v30q19 37 36 53l36 46l18 27l3 -4h3q0 14 24 30l3 -4h6l21 4l3 -4v-3l3 3h9q22 -13 30 -30h3v-4l-3 -4l3 -3v-19l-6 -12h3q-10 -42 -48 -110q-9 -53 -39 -53l-12 -4l-21 8l-3 -4h-3q-32 0 -69 57z" />
<glyph unicode="&#xb5;" horiz-adv-x="1180" />
<glyph unicode="&#xb6;" horiz-adv-x="839" d="M0 1110v26q0 38 11 38l-3 4l11 23v4l-4 3l12 19q19 35 38 35v3l-4 4v4q15 0 15 15l30 19q50 18 50 31h7l4 -4q8 7 122 42h4l3 -4l35 11v-4l3 4l4 -4l27 4h38l4 4l3 -4h19l4 4l4 -4h15l4 4l4 -4h42l19 -4l3 4v-4h4l4 4h30l4 -4q61 -14 61 -68v-4l-4 -4l8 -45l-4 -4v-15 l4 -4h-4l8 -72l-4 -4l7 -19l-3 -4v-26l3 -4h-3q11 -87 11 -171v-57l4 -4h-4l4 -4l-4 -19v-175l-4 -19l4 -3h-4l4 -12l-4 -11v-4l4 -4l-4 -15v-23l4 -4l-4 -3v-19l4 -4l-4 -4v-15l4 -4h-4l4 -38v-91l4 -27h-4v-7l8 -16l-8 -15h4l-4 -26l4 -12q-8 0 -8 -64v-8l-4 -4h4l-7 -49 h3l4 4l-4 -19v-12l4 -38l-4 -4l4 -3v-8l4 -57l-4 -4l4 -4v-3h-4q-31 -22 -64 -27v4l-4 -4h-4l-4 4h-30q-32 0 -34 30h3l-3 15v4l3 4l-11 46h4l-4 19v7l4 19l-4 4v4l4 4v3l-4 4l8 8l-8 23l8 11v4l-4 4l4 38v3l-4 4l4 4v23l-4 4l4 3v31l-4 4h4l-4 11l7 34v8l-3 4l3 3v8l-3 4h3 l4 4l-4 11l4 15v19q0 28 -11 53h4l-8 46v4l4 4h-4v3l4 4v8l-4 4h4v3l-4 4v19l4 4l-4 4v4l4 26l-4 4h4l-4 11v4l4 4v4l-4 4l4 3v4l-4 4h4l-8 34l4 4v23h-4l-7 -23h3l-3 -4l3 -4l-3 -3l3 -4l-3 -12h-4l-4 35v3l4 4h-4l4 15v4l-4 4v4l4 4l-4 3v4l4 4h-4l4 11v4l-4 4v4l4 4l-4 3 v61l-8 42v23l4 4l-4 15l-26 -8l-4 4q0 -8 -42 -15h-4l-3 4l-4 -4h-19l-4 4v-4l-4 4l-4 -4l-3 4h-4l-4 -4l-8 7l-3 -3l-19 3l-8 -7l-27 11v-4l-15 4l-11 -4q-30 0 -65 23l4 4q0 14 -15 15q-28 31 -46 31l-61 22q-15 0 -68 73zM141 1182l19 -50q26 -19 26 -26l4 4l27 -19 q67 -33 121 -69l4 4v-4l23 -7v3h4l3 -3h38l4 3v-3l4 3l11 -3h4l4 3l4 -3h19l4 3l-4 4l4 4v4l-4 4v3l4 16l-4 15v19l4 4h-4l-4 3l4 4q-4 60 -12 69l4 3v4l-4 4l4 4v23h-7l7 7l-7 27h3l-7 23v3l4 4q-18 19 -46 19h-8l-3 -4l-19 8l-4 -4h-8l-4 4l-41 -8v4l-54 -7l-19 3l-26 -3 l-4 3v-7q-55 0 -68 -95zM256 979q7 1 6 9l17 1h21l17 4l4 -2l-1 2l4 -2h3l4 3l3 1q1 -6 49 -6v2q17 2 37 -22l-3 -3v-3q4 -18 9 -17l-3 -13l1 -11l4 -2l-3 -3l6 -31l2 -18l-1 -24l4 -2v-2l-3 -11h4l-5 -19l3 1l-3 -3l2 -23l-2 -11l4 -10l-3 -3l8 -10l-6 -16l7 1 q-8 -8 -10 -35l5 -16l-2 -16l3 -2l1 -2l-3 -40l7 -4l-6 -9v-2l4 -3l-4 -29h3l-9 -87l-7 5l2 10l-4 8l-7 -1l4 -2l-2 -13l3 -3l1 -2q-7 -1 -6 -19h-3l4 -3l-3 -42l3 1l-5 -19l5 -13l-5 -26l4 -3v-2l-5 -14l3 -2l-2 -13v-3l4 -2l-7 -32l3 -3l1 -2l-1 -63h3l-3 -3l2 -20l4 -3 l-3 -3l11 -121l4 -3v-2l-7 -1l4 -2v-3l-5 -21l5 -15l1 -11l-29 -18l-11 1q-30 -5 -37 -11l-7 4v-5q-7 0 -29 16l-3 -3q-19 17 -20 29l2 14l-4 -1l4 3l-1 3l-3 2l-1 3l4 2h-4l3 8l-4 3v2l2 11v5h-4l3 13l-1 10l-4 3l3 2l-3 29l-3 2l3 3l-8 81l-4 10l2 10l-2 21l3 3l-3 2l-1 3 l3 84l-4 2v3l4 29l-4 2l4 29l-4 10l3 3l-4 2l6 85l-3 -1q14 66 4 176h3l-4 3v2l3 8h-4q8 26 6 48l-7 80l-4 2v3l3 3l-4 2h-3l6 8l-4 2l-1 8l4 3l-4 2l1 27l-1 13l3 2l-8 10l3 8l-5 13l2 13z" />
<glyph unicode="&#xb7;" horiz-adv-x="315" d="M-1 604l4 20l14 2q-28 9 60 156l67 14q92 -55 46 -111l-9 2l5 -7l-5 -6l-13 -3l3 -9l-4 -5l-13 -3l-4 -5l3 -9q-31 -37 -109 -50l-4 9l-18 5l-15 -3z" />
<glyph unicode="&#xb8;" horiz-adv-x="1024" />
<glyph unicode="&#xb9;" horiz-adv-x="412" d="M-23 1367v8q26 67 87 167q8 0 8 15h34q8 -7 46 -11l15 -8l4 4l4 -4v4l26 -11l4 3v-7l4 4h7v-8l4 4q76 -32 76 -69l4 -3h-8v-4q13 0 16 -50h-4l4 -3v-27q0 -27 7 -42l-4 -4h8v-3h-8l4 -4l-4 -4v-11l4 -19l-4 -4l4 -4l-4 -4l4 -4h-4l4 -3v-8l-4 -4v-4l4 -3h-4l4 -4v-12 l-4 -3v-4h4l-4 -4v-4l8 -11v-4l-4 4h-4l-3 -27l3 -4v-3l-3 -19l3 -4l-22 -23l-23 8l-12 -4l-22 7l-4 -3v-4q-31 0 -31 15h-3l-19 -4l-38 31q0 15 -12 15l4 38l-4 4l8 7l-4 12l4 38q0 25 -15 38l-19 -4q-23 0 -23 7l-19 -3h-4l-23 7l-4 -4q0 8 -49 42z" />
<glyph unicode="&#xba;" horiz-adv-x="412" d="M67 1383q14 83 29 94l-3 3q8 0 8 6l-2 3q28 72 63 72l8 -6l9 3q17 -12 26 -12l3 3l17 -14v6q19 0 32 -23l43 -26v-3q-1 -6 -15 -12l-11 3q7 -11 69 -60l11 -29l-2 -3v-8l2 -3l-2 -3v-3l2 -3l-2 -3v-3l2 -8q-8 0 -8 -40h-3l-3 -3h-3l3 -3v-15q-32 -33 -32 -43l-5 -11l3 -3 v-3q-15 0 -15 -11h-23q0 -8 -14 -9l-3 3v-3l-3 3h-6l-3 -3l-2 3h-6l-3 -3l-3 3h-3l-3 -3l-20 9l-11 -3l-35 14q0 6 -17 9q-22 17 -55 63q0 14 -5 14l2 3l-8 46v12zM199 1314l6 -6q0 6 17 20q17 19 26 60h-3l6 26l-3 3h3l-3 3v9l3 2v3l-17 18q-6 0 -6 -9l-3 -14h-6l3 -3v-3 q-15 0 -23 -81v-8l3 -3l-3 -3v-14z" />
<glyph unicode="&#xbb;" horiz-adv-x="577" d="M-23 472q0 18 46 38l45 42v8l4 4l-4 3l-38 23q-14 11 -26 46l-8 7q6 16 27 16l98 -46l4 4q0 -12 12 -12q11 0 11 -7l4 4h4l30 -19l4 3l4 -3l3 3q0 -7 12 -7l7 -15h4l4 3h4q0 -11 38 -38v-11l-76 -61q0 -8 -46 -42q0 -25 -34 -30l-19 -4q0 12 -23 12l-4 11l-3 -4l-35 15 l-3 -3l-4 3v4l4 4q-12 0 -23 15h-4l4 4q0 9 -23 30zM99 738v12q3 11 22 11q16 0 54 -26v3l19 -7l3 4q0 -7 65 -42q21 -27 95 -72q25 -19 42 -19q0 -18 72 -65l19 -27h-4l4 -3q-4 -35 -27 -35q0 -11 -41 -34q-8 -18 -50 -38l-23 -42q-19 -45 -76 -117q0 -8 -19 -8 q-13 11 -26 11l-4 -3l-34 15l-4 -4v8q-23 0 -30 34q-16 16 -16 45q28 13 95 107l19 23q16 0 16 22q11 0 11 16q15 0 46 57l-50 34l-4 -4q-53 43 -79 53l-69 46z" />
<glyph unicode="&#xbc;" horiz-adv-x="1708" />
<glyph unicode="&#xbd;" horiz-adv-x="1964" />
<glyph unicode="&#xbe;" horiz-adv-x="1708" />
<glyph unicode="&#xbf;" horiz-adv-x="599" d="M-1 -10l3 26h-3q4 26 9 26l-3 4v4l3 4l-3 3l8 45l-2 4v3l31 105q37 72 87 149q93 233 93 361v3l3 4l-3 4l3 18v4l-3 15l3 15l-6 18l3 4h3l-6 71l3 4l-14 89q6 0 6 11l2 4h3l3 -4l12 8l26 -12l3 4h3l8 -4v4q20 -7 61 -7q15 0 32 -142l-3 -3v-4l3 -4l-3 -4v-3l6 -8l-3 -18 l3 -49l-3 -15h6l-6 -22h3l-12 -78h3l-8 -37h3l-9 -53l3 -3q-7 0 -15 -30h3l-20 -52l3 -4l-12 -18h-3l3 -4v-4l-14 -26l3 -4q-12 0 -12 -18l-12 -15v-8q-11 0 -11 -22q-7 0 -38 -63q-6 0 -43 -78l-24 -82l3 -4l-3 -4h3l-5 -11l2 -4l-11 -85l3 -4l-3 -37v-4q1 -26 6 -26l-3 -4 v-22l6 -11l-3 -4h3l-3 -4v-3l11 -60l23 -52l3 -15q6 0 24 -30l8 -3q51 25 84 122q32 102 32 146h-3l3 3v45l-3 15l3 4l-6 55l35 12l3 -4h3l12 7q26 -12 26 -22l3 4h2l6 -8l3 4h6q17 -53 17 -127l-5 -14l2 -4l-11 -52l3 -15v-4l-3 -4l3 -3v-8l-3 -3l3 -4v-4q-18 -66 -44 -119 q-27 -45 -43 -45q0 -13 -52 -33v4l-47 -19l-3 4l-3 -4l-2 4v-8h-6l-3 4l-35 -8l-9 4v-4l-3 4h-2l-3 -4h-3l-73 38q-44 41 -61 70q-37 55 -37 138q-5 0 -9 45l3 15h-3l3 3l-3 26v15zM154 1122q2 18 22 18l8 -7l7 7v-3l4 3h4l15 -3l3 3l12 -11l3 4h4l22 -7v3l4 -3h4l3 3h4 l4 -3h4l3 3q60 -12 60 -22l4 -11q-5 -15 -19 -23l-4 4h-3l-30 -15l-4 4h-4l-11 -4v4l-11 -4l-11 8l-4 -4h-4q-38 0 -55 26q-18 0 -23 22l-3 -3h-4z" />
<glyph unicode="&#xc0;" horiz-adv-x="734" d="M0 -25l30 80h-3l15 34l-4 4q11 0 11 34l4 4h-4l16 53l-4 4q6 0 23 49h3l-3 4v4l11 19v4l-4 4q8 10 12 68l-8 8l11 3l-3 4l3 27l-3 15l11 46h-4l4 3v4l-4 4l12 72h-4l7 15l-3 4l7 34h-4l12 50h-4q11 48 11 148l4 4v4h-4l4 3v4q0 109 46 369l-4 11l11 31l-3 3l3 4l-3 4 q7 0 19 65h-4q21 136 42 136q21 35 49 35h4l4 -4h3l4 4v3l4 -3h19l4 3q30 -11 30 -38l-4 -3l8 -42l-8 -8l19 -99l-3 -3v-4l7 -31l-4 -3v-4l12 -42l-4 -4v-4l8 -26h-4q1 -19 11 -19v-4h-7l7 -23h-4l19 -76l4 4h4q34 -51 34 -114l-4 -15q7 0 12 -34h-4l15 -61h-4l31 -110 q0 -12 7 -12v-4l-3 -3l26 -84h4l-4 -4v-4l8 -11l-4 -4v-4l8 -7h-4q4 -36 23 -76v-4l-4 -4l19 -34q12 -108 30 -122l-4 -3v-16h8v-7l27 -110l-4 -4h7l-3 -15l15 -38l-8 -27h4q-1 -13 -49 -38l-4 -11l-4 3h-4q-9 -16 -19 -19l-4 4q-32 -23 -68 -34l-15 4l4 4v3l-8 8h4l-8 30h4 l-27 118h4q-39 199 -45 202l3 3q-8 50 -15 50l4 4l-23 110h4q-5 19 -11 19h-4l-4 -4l-4 4h-7l-27 -4l-4 4l-4 -4v4l-3 -4h-4l-4 4l-4 -4h-4l-22 4l-4 -4l-4 4l-8 -38h4l-7 -42h3q-7 -19 -7 -68v-4l4 -4l-4 -4v-26q0 -30 -53 -183l3 -4v-3q-7 -8 -22 -69q-6 0 -19 -53 q-28 -31 -57 -42l-4 4l-42 -30l-4 3l-38 -22v3q-15 -1 -15 -11q-19 5 -19 11v4zM165 1705v19l3 3l-3 4v4h3q8 17 30 30h9l3 -3v3l3 4l21 -4h6l3 4q24 -16 24 -30h3l3 4l18 -27l36 -46q17 -16 36 -53v-30q-37 -57 -69 -57h-3l-3 4l-21 -8l-12 4q-30 0 -39 53q-38 68 -48 110 h3zM296 644l38 -4l4 4v-4l23 8l15 -4q-38 175 -49 281h-4l-4 -49h4l-4 -4v-4l4 -4l-8 -15h4l-4 -4v-7l-3 -103h-4l4 -4v-3l-12 -69h4z" />
<glyph unicode="&#xc1;" horiz-adv-x="734" d="M0 -25l30 80h-3l15 34l-4 4q11 0 11 34l4 4h-4l16 53l-4 4q6 0 23 49h3l-3 4v4l11 19v4l-4 4q8 10 12 68l-8 8l11 3l-3 4l3 27l-3 15l11 46h-4l4 3v4l-4 4l12 72h-4l7 15l-3 4l7 34h-4l12 50h-4q11 48 11 148l4 4v4h-4l4 3v4q0 109 46 369l-4 11l11 31l-3 3l3 4l-3 4 q7 0 19 65h-4q21 136 42 136q21 35 49 35h4l4 -4h3l4 4v3l4 -3h19l4 3q30 -11 30 -38l-4 -3l8 -42l-8 -8l19 -99l-3 -3v-4l7 -31l-4 -3v-4l12 -42l-4 -4v-4l8 -26h-4q1 -19 11 -19v-4h-7l7 -23h-4l19 -76l4 4h4q34 -51 34 -114l-4 -15q7 0 12 -34h-4l15 -61h-4l31 -110 q0 -12 7 -12v-4l-3 -3l26 -84h4l-4 -4v-4l8 -11l-4 -4v-4l8 -7h-4q4 -36 23 -76v-4l-4 -4l19 -34q12 -108 30 -122l-4 -3v-16h8v-7l27 -110l-4 -4h7l-3 -15l15 -38l-8 -27h4q-1 -13 -49 -38l-4 -11l-4 3h-4q-9 -16 -19 -19l-4 4q-32 -23 -68 -34l-15 4l4 4v3l-8 8h4l-8 30h4 l-27 118h4q-39 199 -45 202l3 3q-8 50 -15 50l4 4l-23 110h4q-5 19 -11 19h-4l-4 -4l-4 4h-7l-27 -4l-4 4l-4 -4v4l-3 -4h-4l-4 4l-4 -4h-4l-22 4l-4 -4l-4 4l-8 -38h4l-7 -42h3q-7 -19 -7 -68v-4l4 -4l-4 -4v-26q0 -30 -53 -183l3 -4v-3q-7 -8 -22 -69q-6 0 -19 -53 q-28 -31 -57 -42l-4 4l-42 -30l-4 3l-38 -22v3q-15 -1 -15 -11q-19 5 -19 11v4zM225 1587v30q19 37 36 53l36 46l18 27l3 -4h3q0 14 24 30l3 -4h6l21 4l3 -4v-3l3 3h9q22 -13 30 -30h3v-4l-3 -4l3 -3v-19l-6 -12h3q-10 -42 -48 -110q-9 -53 -39 -53l-12 -4l-21 8l-3 -4h-3 q-32 0 -69 57zM296 644l38 -4l4 4v-4l23 8l15 -4q-38 175 -49 281h-4l-4 -49h4l-4 -4v-4l4 -4l-8 -15h4l-4 -4v-7l-3 -103h-4l4 -4v-3l-12 -69h4z" />
<glyph unicode="&#xc2;" horiz-adv-x="734" d="M0 -25l30 80h-3l15 34l-4 4q11 0 11 34l4 4h-4l16 53l-4 4q6 0 23 49h3l-3 4v4l11 19v4l-4 4q8 10 12 68l-8 8l11 3l-3 4l3 27l-3 15l11 46h-4l4 3v4l-4 4l12 72h-4l7 15l-3 4l7 34h-4l12 50h-4q11 48 11 148l4 4v4h-4l4 3v4q0 109 46 369l-4 11l11 31l-3 3l3 4l-3 4 q7 0 19 65h-4q21 136 42 136q21 35 49 35h4l4 -4h3l4 4v3l4 -3h19l4 3q30 -11 30 -38l-4 -3l8 -42l-8 -8l19 -99l-3 -3v-4l7 -31l-4 -3v-4l12 -42l-4 -4v-4l8 -26h-4q1 -19 11 -19v-4h-7l7 -23h-4l19 -76l4 4h4q34 -51 34 -114l-4 -15q7 0 12 -34h-4l15 -61h-4l31 -110 q0 -12 7 -12v-4l-3 -3l26 -84h4l-4 -4v-4l8 -11l-4 -4v-4l8 -7h-4q4 -36 23 -76v-4l-4 -4l19 -34q12 -108 30 -122l-4 -3v-16h8v-7l27 -110l-4 -4h7l-3 -15l15 -38l-8 -27h4q-1 -13 -49 -38l-4 -11l-4 3h-4q-9 -16 -19 -19l-4 4q-32 -23 -68 -34l-15 4l4 4v3l-8 8h4l-8 30h4 l-27 118h4q-39 199 -45 202l3 3q-8 50 -15 50l4 4l-23 110h4q-5 19 -11 19h-4l-4 -4l-4 4h-7l-27 -4l-4 4l-4 -4v4l-3 -4h-4l-4 4l-4 -4h-4l-22 4l-4 -4l-4 4l-8 -38h4l-7 -42h3q-7 -19 -7 -68v-4l4 -4l-4 -4v-26q0 -30 -53 -183l3 -4v-3q-7 -8 -22 -69q-6 0 -19 -53 q-28 -31 -57 -42l-4 4l-42 -30l-4 3l-38 -22v3q-15 -1 -15 -11q-19 5 -19 11v4zM68 1545q51 64 144 152l38 65l103 -38v-4l4 4h7q0 -11 35 -23q0 -15 34 -53q19 -31 45 -118l42 -76l-38 -19q-83 19 -83 49q-8 0 -16 19l4 4q-18 5 -34 61q-8 0 -19 38h-8q0 -15 -15 -15 q-26 -23 -26 -34q-20 0 -38 -50q-11 -23 -23 -23q0 -15 -8 -15v4l-23 -8l-7 8h-15l-4 -4l-4 4h-11l-4 -4h-4q0 7 -38 15l-27 27zM296 644l38 -4l4 4v-4l23 8l15 -4q-38 175 -49 281h-4l-4 -49h4l-4 -4v-4l4 -4l-8 -15h4l-4 -4v-7l-3 -103h-4l4 -4v-3l-12 -69h4z" />
<glyph unicode="&#xc3;" horiz-adv-x="734" d="M0 -25l30 80h-3l15 34l-4 4q11 0 11 34l4 4h-4l16 53l-4 4q6 0 23 49h3l-3 4v4l11 19v4l-4 4q8 10 12 68l-8 8l11 3l-3 4l3 27l-3 15l11 46h-4l4 3v4l-4 4l12 72h-4l7 15l-3 4l7 34h-4l12 50h-4q11 48 11 148l4 4v4h-4l4 3v4q0 109 46 369l-4 11l11 31l-3 3l3 4l-3 4 q7 0 19 65h-4q21 136 42 136q21 35 49 35h4l4 -4h3l4 4v3l4 -3h19l4 3q30 -11 30 -38l-4 -3l8 -42l-8 -8l19 -99l-3 -3v-4l7 -31l-4 -3v-4l12 -42l-4 -4v-4l8 -26h-4q1 -19 11 -19v-4h-7l7 -23h-4l19 -76l4 4h4q34 -51 34 -114l-4 -15q7 0 12 -34h-4l15 -61h-4l31 -110 q0 -12 7 -12v-4l-3 -3l26 -84h4l-4 -4v-4l8 -11l-4 -4v-4l8 -7h-4q4 -36 23 -76v-4l-4 -4l19 -34q12 -108 30 -122l-4 -3v-16h8v-7l27 -110l-4 -4h7l-3 -15l15 -38l-8 -27h4q-1 -13 -49 -38l-4 -11l-4 3h-4q-9 -16 -19 -19l-4 4q-32 -23 -68 -34l-15 4l4 4v3l-8 8h4l-8 30h4 l-27 118h4q-39 199 -45 202l3 3q-8 50 -15 50l4 4l-23 110h4q-5 19 -11 19h-4l-4 -4l-4 4h-7l-27 -4l-4 4l-4 -4v4l-3 -4h-4l-4 4l-4 -4h-4l-22 4l-4 -4l-4 4l-8 -38h4l-7 -42h3q-7 -19 -7 -68v-4l4 -4l-4 -4v-26q0 -30 -53 -183l3 -4v-3q-7 -8 -22 -69q-6 0 -19 -53 q-28 -31 -57 -42l-4 4l-42 -30l-4 3l-38 -22v3q-15 -1 -15 -11q-19 5 -19 11v4zM45 1514l4 23l-4 3q11 0 15 50q46 99 80 99l61 15l38 -8l4 4v4l41 -8l4 4q110 -10 110 -30l27 -23h4q0 9 23 26l3 -3l4 3v4l4 -4h8l3 4l23 -7l8 7l30 -4v4q48 -19 65 -19q0 -7 15 -7l4 -4v-12 q-31 -24 -31 -38q-38 -49 -49 -49q-10 -11 -91 -11h-8l-4 -4l-3 4h-4l-4 -4q-38 5 -76 34v-4q-15 0 -15 15q-10 0 -31 19l-30 27q-21 0 -42 -57l-7 -53h3q0 -8 -26 -27l-4 4h-4l-15 -11l-4 3h-4l-38 -7l-3 4l-4 -4l-4 4l-8 -8q-45 13 -45 23l-4 -4h-4q0 11 -15 23zM296 644 l38 -4l4 4v-4l23 8l15 -4q-38 175 -49 281h-4l-4 -49h4l-4 -4v-4l4 -4l-8 -15h4l-4 -4v-7l-3 -103h-4l4 -4v-3l-12 -69h4z" />
<glyph unicode="&#xc4;" horiz-adv-x="742" d="M0 -25l30 80h-3l15 34l-4 4q11 0 11 34l4 4h-4l16 53l-4 4q6 0 23 49h3l-3 4v4l11 19v4l-4 4q8 10 12 68l-8 8l11 3l-3 4l3 27l-3 15l11 46h-4l4 3v4l-4 4l12 72h-4l7 15l-3 4l7 34h-4l12 50h-4q11 48 11 148l4 4v4h-4l4 3v4q0 109 46 369l-4 11l11 31l-3 3l3 4l-3 4 q7 0 19 65h-4q21 136 42 136q21 35 49 35h4l4 -4h3l4 4v3l4 -3h19l4 3q30 -11 30 -38l-4 -3l8 -42l-8 -8l19 -99l-3 -3v-4l7 -31l-4 -3v-4l12 -42l-4 -4v-4l8 -26h-4q1 -19 11 -19v-4h-7l7 -23h-4l19 -76l4 4h4q34 -51 34 -114l-4 -15q7 0 12 -34h-4l15 -61h-4l31 -110 q0 -12 7 -12v-4l-3 -3l26 -84h4l-4 -4v-4l8 -11l-4 -4v-4l8 -7h-4q4 -36 23 -76v-4l-4 -4l19 -34q12 -108 30 -122l-4 -3v-16h8v-7l27 -110l-4 -4h7l-3 -15l15 -38l-8 -27h4q-1 -13 -49 -38l-4 -11l-4 3h-4q-9 -16 -19 -19l-4 4q-32 -23 -68 -34l-15 4l4 4v3l-8 8h4l-8 30h4 l-27 118h4q-39 199 -45 202l3 3q-8 50 -15 50l4 4l-23 110h4q-5 19 -11 19h-4l-4 -4l-4 4h-7l-27 -4l-4 4l-4 -4v4l-3 -4h-4l-4 4l-4 -4h-4l-22 4l-4 -4l-4 4l-8 -38h4l-7 -42h3q-7 -19 -7 -68v-4l4 -4l-4 -4v-26q0 -30 -53 -183l3 -4v-3q-7 -8 -22 -69q-6 0 -19 -53 q-28 -31 -57 -42l-4 4l-42 -30l-4 3l-38 -22v3q-15 -1 -15 -11q-19 5 -19 11v4zM117 1538l4 20l14 2q-28 9 60 156l67 14q92 -55 46 -111l-9 2l5 -7l-5 -6l-13 -3l3 -9l-4 -5l-13 -3l-4 -5l3 -9q-31 -37 -109 -50l-4 9l-18 5l-15 -3zM296 644l38 -4l4 4v-4l23 8l15 -4 q-38 175 -49 281h-4l-4 -49h4l-4 -4v-4l4 -4l-8 -15h4l-4 -4v-7l-3 -103h-4l4 -4v-3l-12 -69h4zM349 1538l4 20l14 2q-28 9 60 156l67 14q92 -55 46 -111l-9 2l5 -7l-5 -6l-13 -3l3 -9l-4 -5l-13 -3l-4 -5l3 -9q-31 -37 -109 -50l-4 9l-18 5l-15 -3z" />
<glyph unicode="&#xc5;" horiz-adv-x="736" d="M0 -25l30 80h-3l15 34l-4 4q11 0 11 34l4 4h-4l16 53l-4 4q6 0 23 49h3l-3 4v4l11 19v4l-4 4q8 10 12 68l-8 8l11 3l-3 4l3 27l-3 15l11 46h-4l4 3v4l-4 4l12 72h-4l7 15l-3 4l7 34h-4l12 50h-4q11 48 11 148l4 4v4h-4l4 3v4q0 109 46 369l-4 11l11 31l-3 3l3 4l-3 4 q7 0 19 65h-4q21 136 42 136q21 35 49 35h4l4 -4h3l4 4v3l4 -3h19l4 3q30 -11 30 -38l-4 -3l8 -42l-8 -8l19 -99l-3 -3v-4l7 -31l-4 -3v-4l12 -42l-4 -4v-4l8 -26h-4q1 -19 11 -19v-4h-7l7 -23h-4l19 -76l4 4h4q34 -51 34 -114l-4 -15q7 0 12 -34h-4l15 -61h-4l31 -110 q0 -12 7 -12v-4l-3 -3l26 -84h4l-4 -4v-4l8 -11l-4 -4v-4l8 -7h-4q4 -36 23 -76v-4l-4 -4l19 -34q12 -108 30 -122l-4 -3v-16h8v-7l27 -110l-4 -4h7l-3 -15l15 -38l-8 -27h4q-1 -13 -49 -38l-4 -11l-4 3h-4q-9 -16 -19 -19l-4 4q-32 -23 -68 -34l-15 4l4 4v3l-8 8h4l-8 30h4 l-27 118h4q-39 199 -45 202l3 3q-8 50 -15 50l4 4l-23 110h4q-5 19 -11 19h-4l-4 -4l-4 4h-7l-27 -4l-4 4l-4 -4v4l-3 -4h-4l-4 4l-4 -4h-4l-22 4l-4 -4l-4 4l-8 -38h4l-7 -42h3q-7 -19 -7 -68v-4l4 -4l-4 -4v-26q0 -30 -53 -183l3 -4v-3q-7 -8 -22 -69q-6 0 -19 -53 q-28 -31 -57 -42l-4 4l-42 -30l-4 3l-38 -22v3q-15 -1 -15 -11q-19 5 -19 11v4zM167 1683q14 83 29 94l-3 3q8 0 8 6l-2 3q28 72 63 72l8 -6l9 3q17 -12 26 -12l3 3l17 -14v6q19 0 32 -23l43 -26v-3q-1 -6 -15 -12l-11 3q7 -11 69 -60l11 -29l-2 -3v-8l2 -3l-2 -3v-3l2 -3 l-2 -3v-3l2 -8q-8 0 -8 -40h-3l-3 -3h-3l3 -3v-15q-32 -33 -32 -43l-5 -11l3 -3v-3q-15 0 -15 -11h-23q0 -8 -14 -9l-3 3v-3l-3 3h-6l-3 -3l-2 3h-6l-3 -3l-3 3h-3l-3 -3l-20 9l-11 -3l-35 14q0 6 -17 9q-22 17 -55 63q0 14 -5 14l2 3l-8 46v12zM296 644l38 -4l4 4v-4l23 8 l15 -4q-38 175 -49 281h-4l-4 -49h4l-4 -4v-4l4 -4l-8 -15h4l-4 -4v-7l-3 -103h-4l4 -4v-3l-12 -69h4zM299 1614l6 -6q0 6 17 20q17 19 26 60h-3l6 26l-3 3h3l-3 3v9l3 2v3l-17 18q-6 0 -6 -9l-3 -14h-6l3 -3v-3q-15 0 -23 -81v-8l3 -3l-3 -3v-14z" />
<glyph unicode="&#xc6;" horiz-adv-x="2118" />
<glyph unicode="&#xc7;" horiz-adv-x="1399" />
<glyph unicode="&#xc8;" horiz-adv-x="652" d="M0 1016l4 4v4l-4 15v27l4 4l-4 3v4l4 12h-4q11 90 49 171l46 76l76 41v4l4 -4h4q18 12 76 23v-4l15 8l4 -4h3q10 8 50 8v4l4 -4h3l35 4v-4l3 4h23l4 -4l4 4h4l11 -4v4q39 0 99 -35q25 0 34 -22v-4l-27 -12l-3 4v-7l-19 3v-3l-4 3q-72 -7 -80 -15l-4 4h-4q-12 -12 -76 -19 q-26 -9 -45 -27l-4 4q-42 -36 -76 -118h-4l4 -3v-4q-23 -50 -23 -114l4 -4h4l4 4v-4l3 4h46l19 -4l4 4v-4l23 8l19 -8l3 4q0 -9 111 -38q0 -11 30 -19q0 -18 -49 -31v4l-4 -4h-12l-3 4h-4v-7l-4 3h-4v-3l-4 3h-11l-19 -3l-4 3l-7 -7l-4 4v-4l-4 4h-8l-3 -4l-4 4h-8l-26 -4 l-4 4l-4 -4v4l-4 -4h-4l-3 4l-4 -4h-4l-23 4v-4l-38 7v-26l4 -27h-4l4 -4v-7l-4 -4l4 -4v-4l-4 -3l4 -12l11 -167l-3 -11l7 -31l-4 -15v-11l4 -4l-4 -4v-4l4 -15l-4 -34h4l-4 -4v-72l4 -15l-4 -16v-22l4 -42l-4 -19h4l-4 -4v-4l4 -15l-4 -4v-4l4 -3l-4 -38v-16l-3 -3l3 -4 v-8l-3 -15l3 -11h-7l4 -4v-42l3 -27h-3l3 -3v-4l-3 -4l3 -4l-3 -19l7 -30h-4q32 -67 54 -72q0 -8 19 -8l72 23l61 -8l3 4l4 -4v4q51 -10 57 -19l12 4v-4q12 -11 26 -11v-8l-30 -27v-3l-4 3l-42 -15v4q-15 -11 -53 -15l-4 4l-45 -8l-4 4h-4l-15 -4l-15 4l-4 -4l-4 4v-4l-4 4 h-4l-19 -4l-68 23l-4 -4h-4l-49 23l-4 -4q0 8 -30 23q-41 32 -57 64h-4l4 4v4q-9 0 -19 23l4 4l-4 3v4l4 4v4h-8v4l-4 41l4 4v4l-4 11l4 4l-4 19l4 50l-4 3v4l4 12l-4 3v4l4 12h-4l8 22l-4 4l4 38v23l-4 15l4 4v4l-4 30h4l-4 4v4l4 30l-4 19l4 4v4l-4 4v3l4 12l-4 4v3l4 4 l-4 19v8h4l-4 19v30l-8 72l8 8l-4 11h4l-4 4v15l4 19l-4 4h4l-8 31l4 3v4l-4 12h4l-4 3v4l4 4q-6 42 -11 42l4 4v7l-4 23l4 4zM165 1705v19l3 3l-3 4v4h3q8 17 30 30h9l3 -3v3l3 4l21 -4h6l3 4q24 -16 24 -30h3l3 4l18 -27l36 -46q17 -16 36 -53v-30q-37 -57 -69 -57h-3 l-3 4l-21 -8l-12 4q-30 0 -39 53q-38 68 -48 110h3z" />
<glyph unicode="&#xc9;" horiz-adv-x="629" d="M0 1016l4 4v4l-4 15v27l4 4l-4 3v4l4 12h-4q11 90 49 171l46 76l76 41v4l4 -4h4q18 12 76 23v-4l15 8l4 -4h3q10 8 50 8v4l4 -4h3l35 4v-4l3 4h23l4 -4l4 4h4l11 -4v4q39 0 99 -35q25 0 34 -22v-4l-27 -12l-3 4v-7l-19 3v-3l-4 3q-72 -7 -80 -15l-4 4h-4q-12 -12 -76 -19 q-26 -9 -45 -27l-4 4q-42 -36 -76 -118h-4l4 -3v-4q-23 -50 -23 -114l4 -4h4l4 4v-4l3 4h46l19 -4l4 4v-4l23 8l19 -8l3 4q0 -9 111 -38q0 -11 30 -19q0 -18 -49 -31v4l-4 -4h-12l-3 4h-4v-7l-4 3h-4v-3l-4 3h-11l-19 -3l-4 3l-7 -7l-4 4v-4l-4 4h-8l-3 -4l-4 4h-8l-26 -4 l-4 4l-4 -4v4l-4 -4h-4l-3 4l-4 -4h-4l-23 4v-4l-38 7v-26l4 -27h-4l4 -4v-7l-4 -4l4 -4v-4l-4 -3l4 -12l11 -167l-3 -11l7 -31l-4 -15v-11l4 -4l-4 -4v-4l4 -15l-4 -34h4l-4 -4v-72l4 -15l-4 -16v-22l4 -42l-4 -19h4l-4 -4v-4l4 -15l-4 -4v-4l4 -3l-4 -38v-16l-3 -3l3 -4 v-8l-3 -15l3 -11h-7l4 -4v-42l3 -27h-3l3 -3v-4l-3 -4l3 -4l-3 -19l7 -30h-4q32 -67 54 -72q0 -8 19 -8l72 23l61 -8l3 4l4 -4v4q51 -10 57 -19l12 4v-4q12 -11 26 -11v-8l-30 -27v-3l-4 3l-42 -15v4q-15 -11 -53 -15l-4 4l-45 -8l-4 4h-4l-15 -4l-15 4l-4 -4l-4 4v-4l-4 4 h-4l-19 -4l-68 23l-4 -4h-4l-49 23l-4 -4q0 8 -30 23q-41 32 -57 64h-4l4 4v4q-9 0 -19 23l4 4l-4 3v4l4 4v4h-8v4l-4 41l4 4v4l-4 11l4 4l-4 19l4 50l-4 3v4l4 12l-4 3v4l4 12h-4l8 22l-4 4l4 38v23l-4 15l4 4v4l-4 30h4l-4 4v4l4 30l-4 19l4 4v4l-4 4v3l4 12l-4 4v3l4 4 l-4 19v8h4l-4 19v30l-8 72l8 8l-4 11h4l-4 4v15l4 19l-4 4h4l-8 31l4 3v4l-4 12h4l-4 3v4l4 4q-6 42 -11 42l4 4v7l-4 23l4 4zM195 1587v30q19 37 36 53l36 46l18 27l3 -4h3q0 14 24 30l3 -4h6l21 4l3 -4v-3l3 3h9q22 -13 30 -30h3v-4l-3 -4l3 -3v-19l-6 -12h3 q-10 -42 -48 -110q-9 -53 -39 -53l-12 -4l-21 8l-3 -4h-3q-32 0 -69 57z" />
<glyph unicode="&#xca;" horiz-adv-x="622" d="M0 1016l4 4v4l-4 15v27l4 4l-4 3v4l4 12h-4q11 90 49 171l46 76l76 41v4l4 -4h4q18 12 76 23v-4l15 8l4 -4h3q10 8 50 8v4l4 -4h3l35 4v-4l3 4h23l4 -4l4 4h4l11 -4v4q39 0 99 -35q25 0 34 -22v-4l-27 -12l-3 4v-7l-19 3v-3l-4 3q-72 -7 -80 -15l-4 4h-4q-12 -12 -76 -19 q-26 -9 -45 -27l-4 4q-42 -36 -76 -118h-4l4 -3v-4q-23 -50 -23 -114l4 -4h4l4 4v-4l3 4h46l19 -4l4 4v-4l23 8l19 -8l3 4q0 -9 111 -38q0 -11 30 -19q0 -18 -49 -31v4l-4 -4h-12l-3 4h-4v-7l-4 3h-4v-3l-4 3h-11l-19 -3l-4 3l-7 -7l-4 4v-4l-4 4h-8l-3 -4l-4 4h-8l-26 -4 l-4 4l-4 -4v4l-4 -4h-4l-3 4l-4 -4h-4l-23 4v-4l-38 7v-26l4 -27h-4l4 -4v-7l-4 -4l4 -4v-4l-4 -3l4 -12l11 -167l-3 -11l7 -31l-4 -15v-11l4 -4l-4 -4v-4l4 -15l-4 -34h4l-4 -4v-72l4 -15l-4 -16v-22l4 -42l-4 -19h4l-4 -4v-4l4 -15l-4 -4v-4l4 -3l-4 -38v-16l-3 -3l3 -4 v-8l-3 -15l3 -11h-7l4 -4v-42l3 -27h-3l3 -3v-4l-3 -4l3 -4l-3 -19l7 -30h-4q32 -67 54 -72q0 -8 19 -8l72 23l61 -8l3 4l4 -4v4q51 -10 57 -19l12 4v-4q12 -11 26 -11v-8l-30 -27v-3l-4 3l-42 -15v4q-15 -11 -53 -15l-4 4l-45 -8l-4 4h-4l-15 -4l-15 4l-4 -4l-4 4v-4l-4 4 h-4l-19 -4l-68 23l-4 -4h-4l-49 23l-4 -4q0 8 -30 23q-41 32 -57 64h-4l4 4v4q-9 0 -19 23l4 4l-4 3v4l4 4v4h-8v4l-4 41l4 4v4l-4 11l4 4l-4 19l4 50l-4 3v4l4 12l-4 3v4l4 12h-4l8 22l-4 4l4 38v23l-4 15l4 4v4l-4 30h4l-4 4v4l4 30l-4 19l4 4v4l-4 4v3l4 12l-4 4v3l4 4 l-4 19v8h4l-4 19v30l-8 72l8 8l-4 11h4l-4 4v15l4 19l-4 4h4l-8 31l4 3v4l-4 12h4l-4 3v4l4 4q-6 42 -11 42l4 4v7l-4 23l4 4zM68 1545q51 64 144 152l38 65l103 -38v-4l4 4h7q0 -11 35 -23q0 -15 34 -53q19 -31 45 -118l42 -76l-38 -19q-83 19 -83 49q-8 0 -16 19l4 4 q-18 5 -34 61q-8 0 -19 38h-8q0 -15 -15 -15q-26 -23 -26 -34q-20 0 -38 -50q-11 -23 -23 -23q0 -15 -8 -15v4l-23 -8l-7 8h-15l-4 -4l-4 4h-11l-4 -4h-4q0 7 -38 15l-27 27z" />
<glyph unicode="&#xcb;" horiz-adv-x="644" d="M0 1016l4 4v4l-4 15v27l4 4l-4 3v4l4 12h-4q11 90 49 171l46 76l76 41v4l4 -4h4q18 12 76 23v-4l15 8l4 -4h3q10 8 50 8v4l4 -4h3l35 4v-4l3 4h23l4 -4l4 4h4l11 -4v4q39 0 99 -35q25 0 34 -22v-4l-27 -12l-3 4v-7l-19 3v-3l-4 3q-72 -7 -80 -15l-4 4h-4q-12 -12 -76 -19 q-26 -9 -45 -27l-4 4q-42 -36 -76 -118h-4l4 -3v-4q-23 -50 -23 -114l4 -4h4l4 4v-4l3 4h46l19 -4l4 4v-4l23 8l19 -8l3 4q0 -9 111 -38q0 -11 30 -19q0 -18 -49 -31v4l-4 -4h-12l-3 4h-4v-7l-4 3h-4v-3l-4 3h-11l-19 -3l-4 3l-7 -7l-4 4v-4l-4 4h-8l-3 -4l-4 4h-8l-26 -4 l-4 4l-4 -4v4l-4 -4h-4l-3 4l-4 -4h-4l-23 4v-4l-38 7v-26l4 -27h-4l4 -4v-7l-4 -4l4 -4v-4l-4 -3l4 -12l11 -167l-3 -11l7 -31l-4 -15v-11l4 -4l-4 -4v-4l4 -15l-4 -34h4l-4 -4v-72l4 -15l-4 -16v-22l4 -42l-4 -19h4l-4 -4v-4l4 -15l-4 -4v-4l4 -3l-4 -38v-16l-3 -3l3 -4 v-8l-3 -15l3 -11h-7l4 -4v-42l3 -27h-3l3 -3v-4l-3 -4l3 -4l-3 -19l7 -30h-4q32 -67 54 -72q0 -8 19 -8l72 23l61 -8l3 4l4 -4v4q51 -10 57 -19l12 4v-4q12 -11 26 -11v-8l-30 -27v-3l-4 3l-42 -15v4q-15 -11 -53 -15l-4 4l-45 -8l-4 4h-4l-15 -4l-15 4l-4 -4l-4 4v-4l-4 4 h-4l-19 -4l-68 23l-4 -4h-4l-49 23l-4 -4q0 8 -30 23q-41 32 -57 64h-4l4 4v4q-9 0 -19 23l4 4l-4 3v4l4 4v4h-8v4l-4 41l4 4v4l-4 11l4 4l-4 19l4 50l-4 3v4l4 12l-4 3v4l4 12h-4l8 22l-4 4l4 38v23l-4 15l4 4v4l-4 30h4l-4 4v4l4 30l-4 19l4 4v4l-4 4v3l4 12l-4 4v3l4 4 l-4 19v8h4l-4 19v30l-8 72l8 8l-4 11h4l-4 4v15l4 19l-4 4h4l-8 31l4 3v4l-4 12h4l-4 3v4l4 4q-6 42 -11 42l4 4v7l-4 23l4 4zM77 1538l4 20l14 2q-28 9 60 156l67 14q92 -55 46 -111l-9 2l5 -7l-5 -6l-13 -3l3 -9l-4 -5l-13 -3l-4 -5l3 -9q-31 -37 -109 -50l-4 9l-18 5 l-15 -3zM309 1538l4 20l14 2q-28 9 60 156l67 14q92 -55 46 -111l-9 2l5 -7l-5 -6l-13 -3l3 -9l-4 -5l-13 -3l-4 -5l3 -9q-31 -37 -109 -50l-4 9l-18 5l-15 -3z" />
<glyph unicode="&#xcc;" horiz-adv-x="322" d="M0 53l8 31l-4 3l7 31l-3 4l7 49h-4l8 53h-4l4 4v19l-4 4l4 4v19l-4 15l4 11l-4 4h4l-4 11l4 4v4l-4 15h4l-4 4v11l4 16l-4 11l4 4h-4l4 4v15l-4 4v3l4 4h4l-4 4v4l4 4l-4 3v4l4 34l-4 4h4l-4 4l4 19l-4 4l4 11l-4 12l4 3h-4l4 4v8l-4 4l4 3v23l-4 4l4 4v23l-4 3l4 4v42 l4 15l-4 15v4l4 19h-4l4 4v38l3 4v4h-3q7 19 11 79l-4 4l4 4h4l-4 4v4l4 3l-4 4l11 88h-3l3 3v23l-3 4l7 19l-4 4v19l4 23l-4 15l4 26h-4l8 42h-4l4 4v4l-4 4l8 60h-4l4 4v53l-4 4l11 69l-3 3h3l-7 31l4 4v3l-8 16l4 22h19q55 -24 118 -38l3 -11h19l27 -30v-4h-8v-4l4 -4 l-4 -19v-42l4 -3l-7 -16l3 -3v-69l-3 -4l3 -11l-3 -4v-4l3 -3l-11 -73l4 -3l-4 -19v-38l-4 -4l4 -4v-4l-4 -11l4 -4h-4l4 -4v-34l-4 -4l4 -4v-19l-4 -19h4l-15 -152h4l-12 -22l4 -4l-8 -27l4 -4v-3l-7 -73h3l-3 -3v-84l-4 -4l4 -4v-38l-4 -3l4 -4v-61q0 -38 -8 -38l4 -4v-4 l-8 -60h4l-4 -4v-15l4 -4l-4 -4v-4l4 -4l-4 -3v-4l4 -15h-4l4 -4v-84l-4 -4v-3h4l-4 -4v-15l-4 -65h4q-4 -34 -11 -34l-12 4v-4l-15 -15v3l-49 -11l-4 4h-4l-4 -4v8l-3 -4l-23 7l-4 -3h-4q-19 2 -53 45zM15 1705v19l3 3l-3 4v4h3q8 17 30 30h9l3 -3v3l3 4l21 -4h6l3 4 q24 -16 24 -30h3l3 4l18 -27l36 -46q17 -16 36 -53v-30q-37 -57 -69 -57h-3l-3 4l-21 -8l-12 4q-30 0 -39 53q-38 68 -48 110h3z" />
<glyph unicode="&#xcd;" horiz-adv-x="337" d="M0 53l8 31l-4 3l7 31l-3 4l7 49h-4l8 53h-4l4 4v19l-4 4l4 4v19l-4 15l4 11l-4 4h4l-4 11l4 4v4l-4 15h4l-4 4v11l4 16l-4 11l4 4h-4l4 4v15l-4 4v3l4 4h4l-4 4v4l4 4l-4 3v4l4 34l-4 4h4l-4 4l4 19l-4 4l4 11l-4 12l4 3h-4l4 4v8l-4 4l4 3v23l-4 4l4 4v23l-4 3l4 4v42 l4 15l-4 15v4l4 19h-4l4 4v38l3 4v4h-3q7 19 11 79l-4 4l4 4h4l-4 4v4l4 3l-4 4l11 88h-3l3 3v23l-3 4l7 19l-4 4v19l4 23l-4 15l4 26h-4l8 42h-4l4 4v4l-4 4l8 60h-4l4 4v53l-4 4l11 69l-3 3h3l-7 31l4 4v3l-8 16l4 22h19q55 -24 118 -38l3 -11h19l27 -30v-4h-8v-4l4 -4 l-4 -19v-42l4 -3l-7 -16l3 -3v-69l-3 -4l3 -11l-3 -4v-4l3 -3l-11 -73l4 -3l-4 -19v-38l-4 -4l4 -4v-4l-4 -11l4 -4h-4l4 -4v-34l-4 -4l4 -4v-19l-4 -19h4l-15 -152h4l-12 -22l4 -4l-8 -27l4 -4v-3l-7 -73h3l-3 -3v-84l-4 -4l4 -4v-38l-4 -3l4 -4v-61q0 -38 -8 -38l4 -4v-4 l-8 -60h4l-4 -4v-15l4 -4l-4 -4v-4l4 -4l-4 -3v-4l4 -15h-4l4 -4v-84l-4 -4v-3h4l-4 -4v-15l-4 -65h4q-4 -34 -11 -34l-12 4v-4l-15 -15v3l-49 -11l-4 4h-4l-4 -4v8l-3 -4l-23 7l-4 -3h-4q-19 2 -53 45zM75 1587v30q19 37 36 53l36 46l18 27l3 -4h3q0 14 24 30l3 -4h6l21 4 l3 -4v-3l3 3h9q22 -13 30 -30h3v-4l-3 -4l3 -3v-19l-6 -12h3q-10 -42 -48 -110q-9 -53 -39 -53l-12 -4l-21 8l-3 -4h-3q-32 0 -69 57z" />
<glyph unicode="&#xce;" horiz-adv-x="390" d="M-102 1545q51 64 144 152l38 65l103 -38v-4l4 4h7q0 -11 35 -23q0 -15 34 -53q19 -31 45 -118l42 -76l-38 -19q-83 19 -83 49q-8 0 -16 19l4 4q-18 5 -34 61q-8 0 -19 38h-8q0 -15 -15 -15q-26 -23 -26 -34q-20 0 -38 -50q-11 -23 -23 -23q0 -15 -8 -15v4l-23 -8l-7 8 h-15l-4 -4l-4 4h-11l-4 -4h-4q0 7 -38 15l-27 27zM0 53l8 31l-4 3l7 31l-3 4l7 49h-4l8 53h-4l4 4v19l-4 4l4 4v19l-4 15l4 11l-4 4h4l-4 11l4 4v4l-4 15h4l-4 4v11l4 16l-4 11l4 4h-4l4 4v15l-4 4v3l4 4h4l-4 4v4l4 4l-4 3v4l4 34l-4 4h4l-4 4l4 19l-4 4l4 11l-4 12l4 3h-4 l4 4v8l-4 4l4 3v23l-4 4l4 4v23l-4 3l4 4v42l4 15l-4 15v4l4 19h-4l4 4v38l3 4v4h-3q7 19 11 79l-4 4l4 4h4l-4 4v4l4 3l-4 4l11 88h-3l3 3v23l-3 4l7 19l-4 4v19l4 23l-4 15l4 26h-4l8 42h-4l4 4v4l-4 4l8 60h-4l4 4v53l-4 4l11 69l-3 3h3l-7 31l4 4v3l-8 16l4 22h19 q55 -24 118 -38l3 -11h19l27 -30v-4h-8v-4l4 -4l-4 -19v-42l4 -3l-7 -16l3 -3v-69l-3 -4l3 -11l-3 -4v-4l3 -3l-11 -73l4 -3l-4 -19v-38l-4 -4l4 -4v-4l-4 -11l4 -4h-4l4 -4v-34l-4 -4l4 -4v-19l-4 -19h4l-15 -152h4l-12 -22l4 -4l-8 -27l4 -4v-3l-7 -73h3l-3 -3v-84l-4 -4 l4 -4v-38l-4 -3l4 -4v-61q0 -38 -8 -38l4 -4v-4l-8 -60h4l-4 -4v-15l4 -4l-4 -4v-4l4 -4l-4 -3v-4l4 -15h-4l4 -4v-84l-4 -4v-3h4l-4 -4v-15l-4 -65h4q-4 -34 -11 -34l-12 4v-4l-15 -15v3l-49 -11l-4 4h-4l-4 -4v8l-3 -4l-23 7l-4 -3h-4q-19 2 -53 45z" />
<glyph unicode="&#xcf;" horiz-adv-x="419" d="M-23 1538l4 20l14 2q-28 9 60 156l67 14q92 -55 46 -111l-9 2l5 -7l-5 -6l-13 -3l3 -9l-4 -5l-13 -3l-4 -5l3 -9q-31 -37 -109 -50l-4 9l-18 5l-15 -3zM40 53l8 31l-4 3l7 31l-3 4l7 49h-4l8 53h-4l4 4v19l-4 4l4 4v19l-4 15l4 11l-4 4h4l-4 11l4 4v4l-4 15h4l-4 4v11 l4 16l-4 11l4 4h-4l4 4v15l-4 4v3l4 4h4l-4 4v4l4 4l-4 3v4l4 34l-4 4h4l-4 4l4 19l-4 4l4 11l-4 12l4 3h-4l4 4v8l-4 4l4 3v23l-4 4l4 4v23l-4 3l4 4v42l4 15l-4 15v4l4 19h-4l4 4v38l3 4v4h-3q7 19 11 79l-4 4l4 4h4l-4 4v4l4 3l-4 4l11 88h-3l3 3v23l-3 4l7 19l-4 4v19 l4 23l-4 15l4 26h-4l8 42h-4l4 4v4l-4 4l8 60h-4l4 4v53l-4 4l11 69l-3 3h3l-7 31l4 4v3l-8 16l4 22h19q55 -24 118 -38l3 -11h19l27 -30v-4h-8v-4l4 -4l-4 -19v-42l4 -3l-7 -16l3 -3v-69l-3 -4l3 -11l-3 -4v-4l3 -3l-11 -73l4 -3l-4 -19v-38l-4 -4l4 -4v-4l-4 -11l4 -4h-4 l4 -4v-34l-4 -4l4 -4v-19l-4 -19h4l-15 -152h4l-12 -22l4 -4l-8 -27l4 -4v-3l-7 -73h3l-3 -3v-84l-4 -4l4 -4v-38l-4 -3l4 -4v-61q0 -38 -8 -38l4 -4v-4l-8 -60h4l-4 -4v-15l4 -4l-4 -4v-4l4 -4l-4 -3v-4l4 -15h-4l4 -4v-84l-4 -4v-3h4l-4 -4v-15l-4 -65h4q-4 -34 -11 -34 l-12 4v-4l-15 -15v3l-49 -11l-4 4h-4l-4 -4v8l-3 -4l-23 7l-4 -3h-4q-19 2 -53 45zM209 1538l4 20l14 2q-28 9 60 156l67 14q92 -55 46 -111l-9 2l5 -7l-5 -6l-13 -3l3 -9l-4 -5l-13 -3l-4 -5l3 -9q-31 -37 -109 -50l-4 9l-18 5l-15 -3z" />
<glyph unicode="&#xd0;" horiz-adv-x="577" d="M-106 665l10 121l6 -9h5l5 9h5l21 -9v9l6 -9h5l5 9h5l6 -9l36 9h110l6 11l5 -11h10l21 11l21 -11l16 20l5 -9h11l5 9l16 -9l26 9v-9l5 9h37l26 -60h-5l5 -10v-40q-5 -31 -31 -31h-5l-16 11l-26 -11h-16l-236 -9l-5 9l-6 -9v9l-5 -9h-47zM0 57l4 19v46l-4 3l4 4v12l-4 11 l4 19v106l4 4l-4 4l7 80l-3 4v3l7 16l-4 3v12l4 4v3h-4l8 27h-4l4 4v38l4 19h-4l4 4v15l-4 4l4 3v31l4 23l-4 15l4 15h-4l4 4v76l3 4l-3 3v4l3 12h-3l7 57h-4l4 3v12l-4 4l8 30l-4 4v11l4 4l-4 4l8 34h-4l8 30l-4 4v12l4 19l-4 3h4l-4 4l15 110l-4 4v8l4 4l-4 3v16l4 19h-4 l8 22l-4 23l4 4v4l-4 15v4l4 19h-4l8 49l-4 15l4 4h-4l4 4v15l-4 15l4 4v4l-4 4l4 19v26l-4 4l15 38l4 -4l19 4l23 -11l3 4q0 -9 69 -23l4 -4v-4h7q34 0 141 -68q87 -68 87 -91q0 -22 27 -54q26 -89 26 -121l-3 4h-4v-4l7 -12v-79l4 -4l-4 -4v-8l4 -3l-4 -4v-4q0 -27 8 -27 l-4 -3l4 -27v-27l-4 -3l4 -12l4 -57l-4 -23l4 -3l-4 -4l4 -4h-4l4 -4v-19l-8 -11v-27l4 -4l-8 -34h4l-4 -11l4 -12l-4 -3h-3l3 -4l-3 -19v-15l3 -4l-7 -23h-4l4 -4v-4l-4 -3v-4h4l-4 -4v-4l4 -4q-11 -97 -15 -98l3 -4q-2 -27 -7 -27l4 -4v-3q0 -27 -19 -27l3 -11l-3 -16 l3 -11l-3 -15l3 -4l-7 -8l4 -11q0 -11 -16 -11l-11 -46h4l-15 -42l3 -4q-28 -80 -53 -87l-34 -30l4 -4q-14 -12 -65 -23l-11 4l-12 -4l-3 4h-4l-4 -4h-4l-23 4l-11 -12h-4l-19 4l-53 -11l-4 4l-7 -8l-35 8l-3 -4l-23 11l-4 -4zM171 84l4 -4h4l3 4v3l4 -3h4l34 30 q45 25 69 118q1 23 7 23l-4 3v4q50 231 50 388l4 30h-4l4 4v27l3 34l-3 4l3 19v38l4 15l-4 4v3l4 42v15l-4 4l4 4l-4 46v26l-3 4l3 4v4l-3 38h3l-19 106l-22 57q-9 0 -19 30q-26 48 -50 61l-7 8h-4l7 -31l-3 -11l3 -4l-11 -118l8 -15l-16 -95h4q-7 -14 -11 -57h-4l4 -4v-3 l-8 -38h4l-4 -4v-23l-7 -95h3l-3 -4v-4l3 -19l-3 -15h3l-3 -4v-49l-4 -15l4 -15v-42l-4 -15l4 -16h-4l4 -3v-16l-4 -22l4 -4l-4 -19v-34l-4 -38h4l-4 -4v-19l4 -4l-8 -42l4 -4l-8 -41l4 -4l-7 -57h3l-7 -34l4 -4v-27h7l-7 -23l3 -3v-4q-6 -6 -11 -91z" />
<glyph unicode="&#xd1;" horiz-adv-x="682" d="M-30 53l15 198l-4 4l4 3h-4l4 4v38l4 19h-4l8 19l-4 4l11 118h-3l11 76l-4 4l15 114l-3 3l11 92l-4 3l15 130h-3l19 125l-4 4v4l4 3v12h-4l23 224h-4l4 4v53l3 4l-3 4v3l11 99l8 8l11 -8l4 4h11q12 -11 34 -11v-8q27 0 27 -11l4 3l64 -30q19 -15 42 -110h-4l8 -15h-4 l27 -137h-4l15 -84h-4l8 -23l-4 -3v-4q12 -79 19 -88l-4 -3v-4l4 -4l-4 -19v-15l4 -4l-4 -11l8 -65h-4l4 -30h4l4 45v23l3 4v4h-3l3 3v16l-3 3v4h3l-3 4v4l3 26h-3l7 46l-4 11q8 0 8 12l4 80h-4l19 140h-4l15 133l4 4h-4l8 38l-4 11l4 12l-4 19l4 34l-4 11l4 4h-4 q5 27 12 27q116 -45 117 -57l4 4h4q0 -13 19 -19l4 3q0 -8 15 -15l-11 -64l3 -4l-3 -4h3q0 -11 -11 -11v-8h8v-4q-12 -16 -12 -38h-7v-4q0 -130 -23 -220l-12 -53l4 -4v-4l-4 -4v-3l4 -19l-4 -4h4l-7 -12l3 -3v-4l-3 -12l3 -3v-4l-7 -23l4 -4v-4l-4 -3v-4l4 -15l-4 -16h4 l-12 -45l4 -19l-8 -42q3 -23 8 -23q-10 -64 -19 -64l4 -23l-4 -31l4 -3v-4l-8 -23v-4l4 -34l-8 -23h4l-7 -34h3l-3 -11q0 -60 -12 -80l4 -4v-4l-4 -19l4 -4l-4 -19v-19q-11 0 -11 -45h-4l4 -12l-4 -3v-4l4 -4l-4 -27v-15l4 -15l-8 -34h4l-4 -4v-4l4 -23l-8 -22l8 -12l-4 -11 l4 -12q-8 0 -8 -19h-3l-4 4q-46 -6 -46 -11l-4 4h-7l-4 -4h-4l-7 7l-4 -3q-46 14 -46 38q-12 2 -26 68l3 4l-38 186l4 4l-7 26h3l-11 42h4l-8 23l4 4v4l-11 45l3 4q-7 0 -22 103h3l-7 22l4 16l-4 22h-4q0 -64 -8 -64l4 -4q-2 -27 -7 -27l3 -3v-4l-3 -4v-4h3l-7 -34l4 -4h-4 l4 -4v-3l-4 -4l4 -4l-12 -57l8 -15l-12 -42l4 -11l-7 -16l3 -3l-11 -76l4 -4v-4l-8 -19l4 -4h4l-4 -4l4 -22l-12 -65l4 -4l-11 -57l4 -15v-8l-4 -3l7 -16q-22 -26 -45 -26l-19 4l-27 -8q-8 6 -61 11q0 12 -11 12zM45 1514l4 23l-4 3q11 0 15 50q46 99 80 99l61 15l38 -8l4 4 v4l41 -8l4 4q110 -10 110 -30l27 -23h4q0 9 23 26l3 -3l4 3v4l4 -4h8l3 4l23 -7l8 7l30 -4v4q48 -19 65 -19q0 -7 15 -7l4 -4v-12q-31 -24 -31 -38q-38 -49 -49 -49q-10 -11 -91 -11h-8l-4 -4l-3 4h-4l-4 -4q-38 5 -76 34v-4q-15 0 -15 15q-10 0 -31 19l-30 27 q-21 0 -42 -57l-7 -53h3q0 -8 -26 -27l-4 4h-4l-15 -11l-4 3h-4l-38 -7l-3 4l-4 -4l-4 4l-8 -8q-45 13 -45 23l-4 -4h-4q0 11 -15 23z" />
<glyph unicode="&#xd2;" horiz-adv-x="644" d="M-10 757l4 3v4l-4 4l4 4l-4 19v140l4 16l-4 3v4l4 12v7h-4l4 27v57l4 4l-4 3l7 65h-3l19 72l-4 4q9 0 38 95q38 72 91 106v-3l122 26l19 -11l11 4v-4q19 -18 46 -27l3 4l12 -19l4 4h11q0 -12 11 -12q0 -31 42 -49q2 -8 31 -15q0 -11 26 -31l38 -38q34 -70 34 -87v-4l-3 4 h-4l-4 -4v-11l4 -34l-4 -4l4 -19v-12q0 -42 -15 -114h7v-3h-7l-4 -12l4 -4v-45l3 -4l-3 -4v-4l3 -3v-4h-3l3 -4v-4l-3 -4v-3l3 -4l-3 -4l3 -4h-3l3 -4v-19q-10 -87 -19 -87l4 -4v-7l-4 -4l4 -4l-4 -38v-15l4 -4l-4 -4v-26l4 -12l-4 -19v-34l-3 -4v-4h3l-3 -3v-42l-4 -4l4 -4 v-4l-4 -3l4 -4v-15l-4 -4l4 -4v-4l-4 -15l4 -4v-4l-4 -15l4 -4v-3l-4 -12l4 -4v-3l-4 -12h4l-4 -4v-15l4 -4l-4 -3v-8l4 -4v-4h-8v-11q0 -27 -8 -27l4 -3l-15 -80l4 -4l-15 -19l3 -11l-7 -16l4 -11q-6 0 -23 -49l-23 -42l-4 -4h-4l4 -4v-11q-26 -14 -26 -38q-9 0 -23 -15 l-46 -23l-11 4l-12 -4v4l-19 -8l-3 4h-4l-4 -4h-4v4l-4 -4h-3l-16 4v-4l-3 4h-4l-4 -4l-23 8v-4q-72 16 -102 53q0 8 -12 8q0 12 -19 30q-20 46 -30 49l4 4v4l-16 19l4 11q-10 0 -38 168h4l-8 30l4 4v4l-7 34l3 4h-3l3 3l-3 46v65l-4 3l4 4v61l-4 23l4 4v3l-4 12h4l-4 4v11 l4 15l-4 4v4l4 4v3l-4 12h4l-4 4v72zM161 806h8l-4 -19h4l-4 -4v-38q0 -27 7 -42l-3 -15l3 -11h-3l3 -4v-15l-3 -4l7 -15l-7 -15l3 -12l-3 -4l3 -19v-19l-3 -3l7 -19l-4 -4v-19l4 -4l-4 -4v-4l4 -3l-4 -4v-4l4 -15h-4l4 -4v-11l-4 -4v-4l8 -8l-8 -22l4 -4v-4l-4 -19l4 -27 l-4 -15l4 -4h4l-4 -15l4 -19h-4l27 -140q14 -57 23 -57l-4 -4q12 -53 23 -53q55 23 95 117v4l-4 4q7 0 34 91l19 88h-4l4 3l4 103v53l4 4l-4 4v4l4 3l-4 4v4l4 19h-4l4 4v11l-4 4l7 11l-3 4l3 38v42l-3 4l3 4v60l-3 4l3 4v15l-3 4l3 4v30l4 12l-4 19v114l4 102h-4l4 4v4 l-4 4v3l4 4h-4l4 4l-7 84l3 3v4l-11 38l4 4l-31 61l-45 34h-8q-22 0 -45 -34l-4 4q-22 -29 -57 -114l4 -4v-8q-12 -1 -27 -83l-11 -73l3 -3l-3 -4h3l-7 -23l4 -4h-4l4 -4l-4 -38v-22l4 -4l-4 -4v-8l4 -11l-8 -42l4 -4v-22l-4 -4v-4zM165 1705v19l3 3l-3 4v4h3q8 17 30 30h9 l3 -3v3l3 4l21 -4h6l3 4q24 -16 24 -30h3l3 4l18 -27l36 -46q17 -16 36 -53v-30q-37 -57 -69 -57h-3l-3 4l-21 -8l-12 4q-30 0 -39 53q-38 68 -48 110h3z" />
<glyph unicode="&#xd3;" d="M-10 757l4 3v4l-4 4l4 4l-4 19v140l4 16l-4 3v4l4 12v7h-4l4 27v57l4 4l-4 3l7 65h-3l19 72l-4 4q9 0 38 95q38 72 91 106v-3l122 26l19 -11l11 4v-4q19 -18 46 -27l3 4l12 -19l4 4h11q0 -12 11 -12q0 -31 42 -49q2 -8 31 -15q0 -11 26 -31l38 -38q34 -70 34 -87v-4l-3 4 h-4l-4 -4v-11l4 -34l-4 -4l4 -19v-12q0 -42 -15 -114h7v-3h-7l-4 -12l4 -4v-45l3 -4l-3 -4v-4l3 -3v-4h-3l3 -4v-4l-3 -4v-3l3 -4l-3 -4l3 -4h-3l3 -4v-19q-10 -87 -19 -87l4 -4v-7l-4 -4l4 -4l-4 -38v-15l4 -4l-4 -4v-26l4 -12l-4 -19v-34l-3 -4v-4h3l-3 -3v-42l-4 -4l4 -4 v-4l-4 -3l4 -4v-15l-4 -4l4 -4v-4l-4 -15l4 -4v-4l-4 -15l4 -4v-3l-4 -12l4 -4v-3l-4 -12h4l-4 -4v-15l4 -4l-4 -3v-8l4 -4v-4h-8v-11q0 -27 -8 -27l4 -3l-15 -80l4 -4l-15 -19l3 -11l-7 -16l4 -11q-6 0 -23 -49l-23 -42l-4 -4h-4l4 -4v-11q-26 -14 -26 -38q-9 0 -23 -15 l-46 -23l-11 4l-12 -4v4l-19 -8l-3 4h-4l-4 -4h-4v4l-4 -4h-3l-16 4v-4l-3 4h-4l-4 -4l-23 8v-4q-72 16 -102 53q0 8 -12 8q0 12 -19 30q-20 46 -30 49l4 4v4l-16 19l4 11q-10 0 -38 168h4l-8 30l4 4v4l-7 34l3 4h-3l3 3l-3 46v65l-4 3l4 4v61l-4 23l4 4v3l-4 12h4l-4 4v11 l4 15l-4 4v4l4 4v3l-4 12h4l-4 4v72zM161 806h8l-4 -19h4l-4 -4v-38q0 -27 7 -42l-3 -15l3 -11h-3l3 -4v-15l-3 -4l7 -15l-7 -15l3 -12l-3 -4l3 -19v-19l-3 -3l7 -19l-4 -4v-19l4 -4l-4 -4v-4l4 -3l-4 -4v-4l4 -15h-4l4 -4v-11l-4 -4v-4l8 -8l-8 -22l4 -4v-4l-4 -19l4 -27 l-4 -15l4 -4h4l-4 -15l4 -19h-4l27 -140q14 -57 23 -57l-4 -4q12 -53 23 -53q55 23 95 117v4l-4 4q7 0 34 91l19 88h-4l4 3l4 103v53l4 4l-4 4v4l4 3l-4 4v4l4 19h-4l4 4v11l-4 4l7 11l-3 4l3 38v42l-3 4l3 4v60l-3 4l3 4v15l-3 4l3 4v30l4 12l-4 19v114l4 102h-4l4 4v4 l-4 4v3l4 4h-4l4 4l-7 84l3 3v4l-11 38l4 4l-31 61l-45 34h-8q-22 0 -45 -34l-4 4q-22 -29 -57 -114l4 -4v-8q-12 -1 -27 -83l-11 -73l3 -3l-3 -4h3l-7 -23l4 -4h-4l4 -4l-4 -38v-22l4 -4l-4 -4v-8l4 -11l-8 -42l4 -4v-22l-4 -4v-4zM255 1587v30q19 37 36 53l36 46l18 27 l3 -4h3q0 14 24 30l3 -4h6l21 4l3 -4v-3l3 3h9q22 -13 30 -30h3v-4l-3 -4l3 -3v-19l-6 -12h3q-10 -42 -48 -110q-9 -53 -39 -53l-12 -4l-21 8l-3 -4h-3q-32 0 -69 57z" />
<glyph unicode="&#xd4;" d="M-10 757l4 3v4l-4 4l4 4l-4 19v140l4 16l-4 3v4l4 12v7h-4l4 27v57l4 4l-4 3l7 65h-3l19 72l-4 4q9 0 38 95q38 72 91 106v-3l122 26l19 -11l11 4v-4q19 -18 46 -27l3 4l12 -19l4 4h11q0 -12 11 -12q0 -31 42 -49q2 -8 31 -15q0 -11 26 -31l38 -38q34 -70 34 -87v-4l-3 4 h-4l-4 -4v-11l4 -34l-4 -4l4 -19v-12q0 -42 -15 -114h7v-3h-7l-4 -12l4 -4v-45l3 -4l-3 -4v-4l3 -3v-4h-3l3 -4v-4l-3 -4v-3l3 -4l-3 -4l3 -4h-3l3 -4v-19q-10 -87 -19 -87l4 -4v-7l-4 -4l4 -4l-4 -38v-15l4 -4l-4 -4v-26l4 -12l-4 -19v-34l-3 -4v-4h3l-3 -3v-42l-4 -4l4 -4 v-4l-4 -3l4 -4v-15l-4 -4l4 -4v-4l-4 -15l4 -4v-4l-4 -15l4 -4v-3l-4 -12l4 -4v-3l-4 -12h4l-4 -4v-15l4 -4l-4 -3v-8l4 -4v-4h-8v-11q0 -27 -8 -27l4 -3l-15 -80l4 -4l-15 -19l3 -11l-7 -16l4 -11q-6 0 -23 -49l-23 -42l-4 -4h-4l4 -4v-11q-26 -14 -26 -38q-9 0 -23 -15 l-46 -23l-11 4l-12 -4v4l-19 -8l-3 4h-4l-4 -4h-4v4l-4 -4h-3l-16 4v-4l-3 4h-4l-4 -4l-23 8v-4q-72 16 -102 53q0 8 -12 8q0 12 -19 30q-20 46 -30 49l4 4v4l-16 19l4 11q-10 0 -38 168h4l-8 30l4 4v4l-7 34l3 4h-3l3 3l-3 46v65l-4 3l4 4v61l-4 23l4 4v3l-4 12h4l-4 4v11 l4 15l-4 4v4l4 4v3l-4 12h4l-4 4v72zM68 1545q51 64 144 152l38 65l103 -38v-4l4 4h7q0 -11 35 -23q0 -15 34 -53q19 -31 45 -118l42 -76l-38 -19q-83 19 -83 49q-8 0 -16 19l4 4q-18 5 -34 61q-8 0 -19 38h-8q0 -15 -15 -15q-26 -23 -26 -34q-20 0 -38 -50q-11 -23 -23 -23 q0 -15 -8 -15v4l-23 -8l-7 8h-15l-4 -4l-4 4h-11l-4 -4h-4q0 7 -38 15l-27 27zM161 806h8l-4 -19h4l-4 -4v-38q0 -27 7 -42l-3 -15l3 -11h-3l3 -4v-15l-3 -4l7 -15l-7 -15l3 -12l-3 -4l3 -19v-19l-3 -3l7 -19l-4 -4v-19l4 -4l-4 -4v-4l4 -3l-4 -4v-4l4 -15h-4l4 -4v-11 l-4 -4v-4l8 -8l-8 -22l4 -4v-4l-4 -19l4 -27l-4 -15l4 -4h4l-4 -15l4 -19h-4l27 -140q14 -57 23 -57l-4 -4q12 -53 23 -53q55 23 95 117v4l-4 4q7 0 34 91l19 88h-4l4 3l4 103v53l4 4l-4 4v4l4 3l-4 4v4l4 19h-4l4 4v11l-4 4l7 11l-3 4l3 38v42l-3 4l3 4v60l-3 4l3 4v15 l-3 4l3 4v30l4 12l-4 19v114l4 102h-4l4 4v4l-4 4v3l4 4h-4l4 4l-7 84l3 3v4l-11 38l4 4l-31 61l-45 34h-8q-22 0 -45 -34l-4 4q-22 -29 -57 -114l4 -4v-8q-12 -1 -27 -83l-11 -73l3 -3l-3 -4h3l-7 -23l4 -4h-4l4 -4l-4 -38v-22l4 -4l-4 -4v-8l4 -11l-8 -42l4 -4v-22l-4 -4 v-4z" />
<glyph unicode="&#xd5;" d="M-10 757l4 3v4l-4 4l4 4l-4 19v140l4 16l-4 3v4l4 12v7h-4l4 27v57l4 4l-4 3l7 65h-3l19 72l-4 4q9 0 38 95q38 72 91 106v-3l122 26l19 -11l11 4v-4q19 -18 46 -27l3 4l12 -19l4 4h11q0 -12 11 -12q0 -31 42 -49q2 -8 31 -15q0 -11 26 -31l38 -38q34 -70 34 -87v-4l-3 4 h-4l-4 -4v-11l4 -34l-4 -4l4 -19v-12q0 -42 -15 -114h7v-3h-7l-4 -12l4 -4v-45l3 -4l-3 -4v-4l3 -3v-4h-3l3 -4v-4l-3 -4v-3l3 -4l-3 -4l3 -4h-3l3 -4v-19q-10 -87 -19 -87l4 -4v-7l-4 -4l4 -4l-4 -38v-15l4 -4l-4 -4v-26l4 -12l-4 -19v-34l-3 -4v-4h3l-3 -3v-42l-4 -4l4 -4 v-4l-4 -3l4 -4v-15l-4 -4l4 -4v-4l-4 -15l4 -4v-4l-4 -15l4 -4v-3l-4 -12l4 -4v-3l-4 -12h4l-4 -4v-15l4 -4l-4 -3v-8l4 -4v-4h-8v-11q0 -27 -8 -27l4 -3l-15 -80l4 -4l-15 -19l3 -11l-7 -16l4 -11q-6 0 -23 -49l-23 -42l-4 -4h-4l4 -4v-11q-26 -14 -26 -38q-9 0 -23 -15 l-46 -23l-11 4l-12 -4v4l-19 -8l-3 4h-4l-4 -4h-4v4l-4 -4h-3l-16 4v-4l-3 4h-4l-4 -4l-23 8v-4q-72 16 -102 53q0 8 -12 8q0 12 -19 30q-20 46 -30 49l4 4v4l-16 19l4 11q-10 0 -38 168h4l-8 30l4 4v4l-7 34l3 4h-3l3 3l-3 46v65l-4 3l4 4v61l-4 23l4 4v3l-4 12h4l-4 4v11 l4 15l-4 4v4l4 4v3l-4 12h4l-4 4v72zM15 1514l4 23l-4 3q11 0 15 50q46 99 80 99l61 15l38 -8l4 4v4l41 -8l4 4q110 -10 110 -30l27 -23h4q0 9 23 26l3 -3l4 3v4l4 -4h8l3 4l23 -7l8 7l30 -4v4q48 -19 65 -19q0 -7 15 -7l4 -4v-12q-31 -24 -31 -38q-38 -49 -49 -49 q-10 -11 -91 -11h-8l-4 -4l-3 4h-4l-4 -4q-38 5 -76 34v-4q-15 0 -15 15q-10 0 -31 19l-30 27q-21 0 -42 -57l-7 -53h3q0 -8 -26 -27l-4 4h-4l-15 -11l-4 3h-4l-38 -7l-3 4l-4 -4l-4 4l-8 -8q-45 13 -45 23l-4 -4h-4q0 11 -15 23zM161 806h8l-4 -19h4l-4 -4v-38q0 -27 7 -42 l-3 -15l3 -11h-3l3 -4v-15l-3 -4l7 -15l-7 -15l3 -12l-3 -4l3 -19v-19l-3 -3l7 -19l-4 -4v-19l4 -4l-4 -4v-4l4 -3l-4 -4v-4l4 -15h-4l4 -4v-11l-4 -4v-4l8 -8l-8 -22l4 -4v-4l-4 -19l4 -27l-4 -15l4 -4h4l-4 -15l4 -19h-4l27 -140q14 -57 23 -57l-4 -4q12 -53 23 -53 q55 23 95 117v4l-4 4q7 0 34 91l19 88h-4l4 3l4 103v53l4 4l-4 4v4l4 3l-4 4v4l4 19h-4l4 4v11l-4 4l7 11l-3 4l3 38v42l-3 4l3 4v60l-3 4l3 4v15l-3 4l3 4v30l4 12l-4 19v114l4 102h-4l4 4v4l-4 4v3l4 4h-4l4 4l-7 84l3 3v4l-11 38l4 4l-31 61l-45 34h-8q-22 0 -45 -34 l-4 4q-22 -29 -57 -114l4 -4v-8q-12 -1 -27 -83l-11 -73l3 -3l-3 -4h3l-7 -23l4 -4h-4l4 -4l-4 -38v-22l4 -4l-4 -4v-8l4 -11l-8 -42l4 -4v-22l-4 -4v-4z" />
<glyph unicode="&#xd6;" horiz-adv-x="652" d="M-10 757l4 3v4l-4 4l4 4l-4 19v140l4 16l-4 3v4l4 12v7h-4l4 27v57l4 4l-4 3l7 65h-3l19 72l-4 4q9 0 38 95q38 72 91 106v-3l122 26l19 -11l11 4v-4q19 -18 46 -27l3 4l12 -19l4 4h11q0 -12 11 -12q0 -31 42 -49q2 -8 31 -15q0 -11 26 -31l38 -38q34 -70 34 -87v-4l-3 4 h-4l-4 -4v-11l4 -34l-4 -4l4 -19v-12q0 -42 -15 -114h7v-3h-7l-4 -12l4 -4v-45l3 -4l-3 -4v-4l3 -3v-4h-3l3 -4v-4l-3 -4v-3l3 -4l-3 -4l3 -4h-3l3 -4v-19q-10 -87 -19 -87l4 -4v-7l-4 -4l4 -4l-4 -38v-15l4 -4l-4 -4v-26l4 -12l-4 -19v-34l-3 -4v-4h3l-3 -3v-42l-4 -4l4 -4 v-4l-4 -3l4 -4v-15l-4 -4l4 -4v-4l-4 -15l4 -4v-4l-4 -15l4 -4v-3l-4 -12l4 -4v-3l-4 -12h4l-4 -4v-15l4 -4l-4 -3v-8l4 -4v-4h-8v-11q0 -27 -8 -27l4 -3l-15 -80l4 -4l-15 -19l3 -11l-7 -16l4 -11q-6 0 -23 -49l-23 -42l-4 -4h-4l4 -4v-11q-26 -14 -26 -38q-9 0 -23 -15 l-46 -23l-11 4l-12 -4v4l-19 -8l-3 4h-4l-4 -4h-4v4l-4 -4h-3l-16 4v-4l-3 4h-4l-4 -4l-23 8v-4q-72 16 -102 53q0 8 -12 8q0 12 -19 30q-20 46 -30 49l4 4v4l-16 19l4 11q-10 0 -38 168h4l-8 30l4 4v4l-7 34l3 4h-3l3 3l-3 46v65l-4 3l4 4v61l-4 23l4 4v3l-4 12h4l-4 4v11 l4 15l-4 4v4l4 4v3l-4 12h4l-4 4v72zM77 1538l4 20l14 2q-28 9 60 156l67 14q92 -55 46 -111l-9 2l5 -7l-5 -6l-13 -3l3 -9l-4 -5l-13 -3l-4 -5l3 -9q-31 -37 -109 -50l-4 9l-18 5l-15 -3zM161 806h8l-4 -19h4l-4 -4v-38q0 -27 7 -42l-3 -15l3 -11h-3l3 -4v-15l-3 -4l7 -15 l-7 -15l3 -12l-3 -4l3 -19v-19l-3 -3l7 -19l-4 -4v-19l4 -4l-4 -4v-4l4 -3l-4 -4v-4l4 -15h-4l4 -4v-11l-4 -4v-4l8 -8l-8 -22l4 -4v-4l-4 -19l4 -27l-4 -15l4 -4h4l-4 -15l4 -19h-4l27 -140q14 -57 23 -57l-4 -4q12 -53 23 -53q55 23 95 117v4l-4 4q7 0 34 91l19 88h-4l4 3 l4 103v53l4 4l-4 4v4l4 3l-4 4v4l4 19h-4l4 4v11l-4 4l7 11l-3 4l3 38v42l-3 4l3 4v60l-3 4l3 4v15l-3 4l3 4v30l4 12l-4 19v114l4 102h-4l4 4v4l-4 4v3l4 4h-4l4 4l-7 84l3 3v4l-11 38l4 4l-31 61l-45 34h-8q-22 0 -45 -34l-4 4q-22 -29 -57 -114l4 -4v-8q-12 -1 -27 -83 l-11 -73l3 -3l-3 -4h3l-7 -23l4 -4h-4l4 -4l-4 -38v-22l4 -4l-4 -4v-8l4 -11l-8 -42l4 -4v-22l-4 -4v-4zM309 1538l4 20l14 2q-28 9 60 156l67 14q92 -55 46 -111l-9 2l5 -7l-5 -6l-13 -3l3 -9l-4 -5l-13 -3l-4 -5l3 -9q-31 -37 -109 -50l-4 9l-18 5l-15 -3z" />
<glyph unicode="&#xd7;" horiz-adv-x="494" d="M-15 556q11 27 65 61l41 38q0 10 -87 91v26h8l22 -3l16 3l3 -3v-4l4 4h4q69 -14 95 -35l15 -11l65 68v4l4 -4h3l19 23l38 -7v3l4 -3h4l4 3h4q0 -6 53 -19q0 -7 11 -7v-34q-13 0 -53 -46l-23 -15l-4 -12q-18 0 -34 -26q-11 -4 -26 -27v-4q15 -1 15 -15h7l-3 -4v-3 q13 0 49 -46l-4 -4l8 -7h4q-12 -31 -23 -31v4l-19 -11q-80 23 -80 49l-19 11h-4v-3l4 -4v-4l-42 -38l-4 4l-22 -15l-4 3q0 -11 -27 -11v4l-4 -4h-3l-12 4l-4 -4l-3 4v-4q-65 28 -65 61z" />
<glyph unicode="&#xd8;" horiz-adv-x="1614" />
<glyph unicode="&#xd9;" horiz-adv-x="704" d="M0 454l4 4v4l-4 15v4l4 3l-4 4v31l4 3l-4 4l8 46l-4 4v3l4 4v4l-4 4l4 19v11l-4 4l4 4v30l-4 15l4 16v26l3 4l-3 4l11 129h-4l4 4v7l-4 4l8 27l-4 19l4 4h-4l15 121l-4 4q3 27 8 27l-4 3l4 19v4l-4 4l12 49l-4 12h4l-4 4l11 60l-4 4l4 4h-4l4 4v42l4 15l-4 4l4 19v11 l-4 15l4 15v27l-4 4l4 4v15l-4 15l8 15q30 0 76 -30q16 0 53 -23q27 -3 46 -27l-4 -19v-57l-4 -3l4 -4v-12l-4 -22l4 -19l-4 -4v-4l4 -4v-4l-4 -15l4 -4l-4 -19l4 -15l-8 -11l4 -4v-4l-4 -4v-3h4l-4 -4v-15q0 -68 -7 -88l3 -4v-3l-7 -38h4l-12 -76l4 -4l-4 -4h4l-8 -27l4 -3 l-11 -118h4l-4 -4v-49l-4 -4l4 -4l-8 -57h4l-4 -4v-4l4 -3l-4 -4v-4l4 -4v-4l-4 -15l4 -4v-3l-4 -12h4l-4 -4l4 -19l-4 -15l4 -4l-4 -26v-50l-4 -3l4 -4v-4l4 -141l4 -15h-4l11 -83l-3 -4l7 -61q13 -1 27 -53q15 -4 15 -15h4q15 0 83 125l35 57q33 81 45 251l4 76l-4 4l4 19 v60l4 16l-4 3l4 19v54l4 45h-4l4 4v38l-4 4l7 45l-3 16l3 11l-3 4h3l-3 4l3 26v38l4 4l-4 4v4l4 11h-4l8 34h-4l8 23l-4 4v4l4 3v4l-4 4l4 19v30l4 4l-4 4v4l4 4v3l-4 4l7 65l-3 4v3l3 16l-3 3l3 12l-3 4l7 45l-4 12l4 3h-4l4 4v19l-4 4l8 38l-8 30l12 16h4q31 -7 76 -31 l3 4q0 -8 16 -8q0 -8 38 -19v-11l19 4l15 -53l-4 -4v-53l-4 -4v-4h4l-4 -4v-26l4 -4l-4 -4v-46l-4 -3l4 -4v-15l-4 -4v-4h4l-7 -42l3 -4v-49l4 -4l-7 -11l3 -4v-11l-3 -4l3 -4v-4l-3 -11h3l-3 -4v-4l3 -4l-3 -3v-35q0 -26 -8 -26l4 -4q-5 -76 -12 -76l4 -4v-30l4 -15l-8 -23 h4l-4 -4v-23l4 -15l-4 -15h4l-4 -4l4 -19v-4l-7 -11l3 -4l-15 -68l4 -4v-19l-4 -4l4 -4l-4 -19v-11l8 -8l-4 -11l4 -27l-23 -175q-8 0 -15 -79l-61 -118l-23 -61q-50 -91 -114 -91v-4l-4 4h-7l-4 -4h-4v4l-4 -4h-3l-38 4v-4l-57 11l-4 -3l-4 3l-11 4v4l-4 -4h-4l-65 27 q0 10 -19 19l-3 -4q-4 16 -38 42q-65 85 -65 133q-11 91 -11 156v7l-4 4v4h4l-4 4v15l4 4zM165 1705v19l3 3l-3 4v4h3q8 17 30 30h9l3 -3v3l3 4l21 -4h6l3 4q24 -16 24 -30h3l3 4l18 -27l36 -46q17 -16 36 -53v-30q-37 -57 -69 -57h-3l-3 4l-21 -8l-12 4q-30 0 -39 53 q-38 68 -48 110h3z" />
<glyph unicode="&#xda;" horiz-adv-x="719" d="M0 454l4 4v4l-4 15v4l4 3l-4 4v31l4 3l-4 4l8 46l-4 4v3l4 4v4l-4 4l4 19v11l-4 4l4 4v30l-4 15l4 16v26l3 4l-3 4l11 129h-4l4 4v7l-4 4l8 27l-4 19l4 4h-4l15 121l-4 4q3 27 8 27l-4 3l4 19v4l-4 4l12 49l-4 12h4l-4 4l11 60l-4 4l4 4h-4l4 4v42l4 15l-4 4l4 19v11 l-4 15l4 15v27l-4 4l4 4v15l-4 15l8 15q30 0 76 -30q16 0 53 -23q27 -3 46 -27l-4 -19v-57l-4 -3l4 -4v-12l-4 -22l4 -19l-4 -4v-4l4 -4v-4l-4 -15l4 -4l-4 -19l4 -15l-8 -11l4 -4v-4l-4 -4v-3h4l-4 -4v-15q0 -68 -7 -88l3 -4v-3l-7 -38h4l-12 -76l4 -4l-4 -4h4l-8 -27l4 -3 l-11 -118h4l-4 -4v-49l-4 -4l4 -4l-8 -57h4l-4 -4v-4l4 -3l-4 -4v-4l4 -4v-4l-4 -15l4 -4v-3l-4 -12h4l-4 -4l4 -19l-4 -15l4 -4l-4 -26v-50l-4 -3l4 -4v-4l4 -141l4 -15h-4l11 -83l-3 -4l7 -61q13 -1 27 -53q15 -4 15 -15h4q15 0 83 125l35 57q33 81 45 251l4 76l-4 4l4 19 v60l4 16l-4 3l4 19v54l4 45h-4l4 4v38l-4 4l7 45l-3 16l3 11l-3 4h3l-3 4l3 26v38l4 4l-4 4v4l4 11h-4l8 34h-4l8 23l-4 4v4l4 3v4l-4 4l4 19v30l4 4l-4 4v4l4 4v3l-4 4l7 65l-3 4v3l3 16l-3 3l3 12l-3 4l7 45l-4 12l4 3h-4l4 4v19l-4 4l8 38l-8 30l12 16h4q31 -7 76 -31 l3 4q0 -8 16 -8q0 -8 38 -19v-11l19 4l15 -53l-4 -4v-53l-4 -4v-4h4l-4 -4v-26l4 -4l-4 -4v-46l-4 -3l4 -4v-15l-4 -4v-4h4l-7 -42l3 -4v-49l4 -4l-7 -11l3 -4v-11l-3 -4l3 -4v-4l-3 -11h3l-3 -4v-4l3 -4l-3 -3v-35q0 -26 -8 -26l4 -4q-5 -76 -12 -76l4 -4v-30l4 -15l-8 -23 h4l-4 -4v-23l4 -15l-4 -15h4l-4 -4l4 -19v-4l-7 -11l3 -4l-15 -68l4 -4v-19l-4 -4l4 -4l-4 -19v-11l8 -8l-4 -11l4 -27l-23 -175q-8 0 -15 -79l-61 -118l-23 -61q-50 -91 -114 -91v-4l-4 4h-7l-4 -4h-4v4l-4 -4h-3l-38 4v-4l-57 11l-4 -3l-4 3l-11 4v4l-4 -4h-4l-65 27 q0 10 -19 19l-3 -4q-4 16 -38 42q-65 85 -65 133q-11 91 -11 156v7l-4 4v4h4l-4 4v15l4 4zM255 1587v30q19 37 36 53l36 46l18 27l3 -4h3q0 14 24 30l3 -4h6l21 4l3 -4v-3l3 3h9q22 -13 30 -30h3v-4l-3 -4l3 -3v-19l-6 -12h3q-10 -42 -48 -110q-9 -53 -39 -53l-12 -4l-21 8 l-3 -4h-3q-32 0 -69 57z" />
<glyph unicode="&#xdb;" horiz-adv-x="719" d="M0 454l4 4v4l-4 15v4l4 3l-4 4v31l4 3l-4 4l8 46l-4 4v3l4 4v4l-4 4l4 19v11l-4 4l4 4v30l-4 15l4 16v26l3 4l-3 4l11 129h-4l4 4v7l-4 4l8 27l-4 19l4 4h-4l15 121l-4 4q3 27 8 27l-4 3l4 19v4l-4 4l12 49l-4 12h4l-4 4l11 60l-4 4l4 4h-4l4 4v42l4 15l-4 4l4 19v11 l-4 15l4 15v27l-4 4l4 4v15l-4 15l8 15q30 0 76 -30q16 0 53 -23q27 -3 46 -27l-4 -19v-57l-4 -3l4 -4v-12l-4 -22l4 -19l-4 -4v-4l4 -4v-4l-4 -15l4 -4l-4 -19l4 -15l-8 -11l4 -4v-4l-4 -4v-3h4l-4 -4v-15q0 -68 -7 -88l3 -4v-3l-7 -38h4l-12 -76l4 -4l-4 -4h4l-8 -27l4 -3 l-11 -118h4l-4 -4v-49l-4 -4l4 -4l-8 -57h4l-4 -4v-4l4 -3l-4 -4v-4l4 -4v-4l-4 -15l4 -4v-3l-4 -12h4l-4 -4l4 -19l-4 -15l4 -4l-4 -26v-50l-4 -3l4 -4v-4l4 -141l4 -15h-4l11 -83l-3 -4l7 -61q13 -1 27 -53q15 -4 15 -15h4q15 0 83 125l35 57q33 81 45 251l4 76l-4 4l4 19 v60l4 16l-4 3l4 19v54l4 45h-4l4 4v38l-4 4l7 45l-3 16l3 11l-3 4h3l-3 4l3 26v38l4 4l-4 4v4l4 11h-4l8 34h-4l8 23l-4 4v4l4 3v4l-4 4l4 19v30l4 4l-4 4v4l4 4v3l-4 4l7 65l-3 4v3l3 16l-3 3l3 12l-3 4l7 45l-4 12l4 3h-4l4 4v19l-4 4l8 38l-8 30l12 16h4q31 -7 76 -31 l3 4q0 -8 16 -8q0 -8 38 -19v-11l19 4l15 -53l-4 -4v-53l-4 -4v-4h4l-4 -4v-26l4 -4l-4 -4v-46l-4 -3l4 -4v-15l-4 -4v-4h4l-7 -42l3 -4v-49l4 -4l-7 -11l3 -4v-11l-3 -4l3 -4v-4l-3 -11h3l-3 -4v-4l3 -4l-3 -3v-35q0 -26 -8 -26l4 -4q-5 -76 -12 -76l4 -4v-30l4 -15l-8 -23 h4l-4 -4v-23l4 -15l-4 -15h4l-4 -4l4 -19v-4l-7 -11l3 -4l-15 -68l4 -4v-19l-4 -4l4 -4l-4 -19v-11l8 -8l-4 -11l4 -27l-23 -175q-8 0 -15 -79l-61 -118l-23 -61q-50 -91 -114 -91v-4l-4 4h-7l-4 -4h-4v4l-4 -4h-3l-38 4v-4l-57 11l-4 -3l-4 3l-11 4v4l-4 -4h-4l-65 27 q0 10 -19 19l-3 -4q-4 16 -38 42q-65 85 -65 133q-11 91 -11 156v7l-4 4v4h4l-4 4v15l4 4zM128 1545q51 64 144 152l38 65l103 -38v-4l4 4h7q0 -11 35 -23q0 -15 34 -53q19 -31 45 -118l42 -76l-38 -19q-83 19 -83 49q-8 0 -16 19l4 4q-18 5 -34 61q-8 0 -19 38h-8 q0 -15 -15 -15q-26 -23 -26 -34q-20 0 -38 -50q-11 -23 -23 -23q0 -15 -8 -15v4l-23 -8l-7 8h-15l-4 -4l-4 4h-11l-4 -4h-4q0 7 -38 15l-27 27z" />
<glyph unicode="&#xdc;" horiz-adv-x="727" d="M0 454l4 4v4l-4 15v4l4 3l-4 4v31l4 3l-4 4l8 46l-4 4v3l4 4v4l-4 4l4 19v11l-4 4l4 4v30l-4 15l4 16v26l3 4l-3 4l11 129h-4l4 4v7l-4 4l8 27l-4 19l4 4h-4l15 121l-4 4q3 27 8 27l-4 3l4 19v4l-4 4l12 49l-4 12h4l-4 4l11 60l-4 4l4 4h-4l4 4v42l4 15l-4 4l4 19v11 l-4 15l4 15v27l-4 4l4 4v15l-4 15l8 15q30 0 76 -30q16 0 53 -23q27 -3 46 -27l-4 -19v-57l-4 -3l4 -4v-12l-4 -22l4 -19l-4 -4v-4l4 -4v-4l-4 -15l4 -4l-4 -19l4 -15l-8 -11l4 -4v-4l-4 -4v-3h4l-4 -4v-15q0 -68 -7 -88l3 -4v-3l-7 -38h4l-12 -76l4 -4l-4 -4h4l-8 -27l4 -3 l-11 -118h4l-4 -4v-49l-4 -4l4 -4l-8 -57h4l-4 -4v-4l4 -3l-4 -4v-4l4 -4v-4l-4 -15l4 -4v-3l-4 -12h4l-4 -4l4 -19l-4 -15l4 -4l-4 -26v-50l-4 -3l4 -4v-4l4 -141l4 -15h-4l11 -83l-3 -4l7 -61q13 -1 27 -53q15 -4 15 -15h4q15 0 83 125l35 57q33 81 45 251l4 76l-4 4l4 19 v60l4 16l-4 3l4 19v54l4 45h-4l4 4v38l-4 4l7 45l-3 16l3 11l-3 4h3l-3 4l3 26v38l4 4l-4 4v4l4 11h-4l8 34h-4l8 23l-4 4v4l4 3v4l-4 4l4 19v30l4 4l-4 4v4l4 4v3l-4 4l7 65l-3 4v3l3 16l-3 3l3 12l-3 4l7 45l-4 12l4 3h-4l4 4v19l-4 4l8 38l-8 30l12 16h4q31 -7 76 -31 l3 4q0 -8 16 -8q0 -8 38 -19v-11l19 4l15 -53l-4 -4v-53l-4 -4v-4h4l-4 -4v-26l4 -4l-4 -4v-46l-4 -3l4 -4v-15l-4 -4v-4h4l-7 -42l3 -4v-49l4 -4l-7 -11l3 -4v-11l-3 -4l3 -4v-4l-3 -11h3l-3 -4v-4l3 -4l-3 -3v-35q0 -26 -8 -26l4 -4q-5 -76 -12 -76l4 -4v-30l4 -15l-8 -23 h4l-4 -4v-23l4 -15l-4 -15h4l-4 -4l4 -19v-4l-7 -11l3 -4l-15 -68l4 -4v-19l-4 -4l4 -4l-4 -19v-11l8 -8l-4 -11l4 -27l-23 -175q-8 0 -15 -79l-61 -118l-23 -61q-50 -91 -114 -91v-4l-4 4h-7l-4 -4h-4v4l-4 -4h-3l-38 4v-4l-57 11l-4 -3l-4 3l-11 4v4l-4 -4h-4l-65 27 q0 10 -19 19l-3 -4q-4 16 -38 42q-65 85 -65 133q-11 91 -11 156v7l-4 4v4h4l-4 4v15l4 4zM117 1538l4 20l14 2q-28 9 60 156l67 14q92 -55 46 -111l-9 2l5 -7l-5 -6l-13 -3l3 -9l-4 -5l-13 -3l-4 -5l3 -9q-31 -37 -109 -50l-4 9l-18 5l-15 -3zM349 1538l4 20l14 2 q-28 9 60 156l67 14q92 -55 46 -111l-9 2l5 -7l-5 -6l-13 -3l3 -9l-4 -5l-13 -3l-4 -5l3 -9q-31 -37 -109 -50l-4 9l-18 5l-15 -3z" />
<glyph unicode="&#xdd;" horiz-adv-x="682" d="M-30 1431v3q2 23 11 23l4 -4v4q34 -5 34 -11l4 4h4l87 -42q0 -12 16 -12v4q16 -8 26 -23l-4 -3v-4q11 0 23 -46q12 0 12 -7h-4l64 -130l4 -3q8 -7 8 -19q6 0 23 -35h7v-3l-4 -4v-4l4 -4h4q30 71 53 160q41 75 69 167q13 11 30 53h8v4q91 -28 91 -53l19 4q1 -27 23 -27 l3 -34l-7 -15h4l-16 -42l4 -4v-4l-15 -4l4 -3v-4l-8 -12v-7l4 -4v-4q-23 0 -76 -175h4l-46 -87q0 -15 -26 -68h7v-4l-4 -4v-4l8 -7h-4l4 -4v-31l-4 -3v-4h4l-4 -4v-4l8 -7l-4 -4v-4l4 -15h-4l4 -4v-4l-4 -15h4l-4 -11l4 -4v-4l-4 -4q5 -45 11 -45l-3 -16l7 -41h-4l12 -42 l-4 -4v-4l4 -4v-3h-4l4 -4v-4l-4 -15l4 -4l-4 -4l4 -4h-4l4 -3v-4l-4 -12h4l-4 -11l8 -57h-4l4 -4v-15l-4 -4l4 -4v-3l-4 -92h-4l4 -3v-4l-8 -8l4 -4v-7l-4 -4v-4l4 -4h-4l4 -3v-4l-4 -4l4 -19v-11l-4 -12l4 -19v-38l-4 -4l4 -3v-46l4 -4l-4 -4v-19l4 -34l-4 -4v-3l4 -4v-4 q-3 -23 -8 -23l4 -4v-7l-4 -4v-4l4 -4l-4 -3l4 -4h-4l12 -61l-23 -8l4 -11q0 -34 -31 -34l-4 4h-3l-16 -4l-3 4l-19 -8l-16 4v-4l-30 11l-4 -3l-34 38l-4 205l-4 4h8l-4 19v3l4 27h-4l4 4v7l-4 16l4 11l-4 19l4 23l-4 42h4l-4 11l4 27l-4 3l8 38l-4 19v69l4 15l-8 11l4 4v27 l-4 4l4 11v8h-4l4 26v46l-4 19l4 4q-8 0 -8 11l4 4v4l-4 15l4 4l-7 30l3 4l-11 61l4 15l-4 4v3l4 12l-8 26l4 4v4q-5 27 -15 27v7l4 -4h3q-12 32 -53 76l-61 99l4 4q-14 13 -42 65q-7 0 -7 19q-25 20 -76 152l-15 19l3 3v4l-3 -4h-8v8q-8 0 -19 27zM165 1587v30q19 37 36 53 l36 46l18 27l3 -4h3q0 14 24 30l3 -4h6l21 4l3 -4v-3l3 3h9q22 -13 30 -30h3v-4l-3 -4l3 -3v-19l-6 -12h3q-10 -42 -48 -110q-9 -53 -39 -53l-12 -4l-21 8l-3 -4h-3q-32 0 -69 57z" />
<glyph unicode="&#xde;" horiz-adv-x="1120" />
<glyph unicode="&#xdf;" horiz-adv-x="1251" />
<glyph unicode="&#xe0;" horiz-adv-x="734" d="M0 -25l30 80h-3l15 34l-4 4q11 0 11 34l4 4h-4l16 53l-4 4q6 0 23 49h3l-3 4v4l11 19v4l-4 4q8 10 12 68l-8 8l11 3l-3 4l3 27l-3 15l11 46h-4l4 3v4l-4 4l12 72h-4l7 15l-3 4l7 34h-4l12 50h-4q11 48 11 148l4 4v4h-4l4 3v4q0 109 46 369l-4 11l11 31l-3 3l3 4l-3 4 q7 0 19 65h-4q21 136 42 136q21 35 49 35h4l4 -4h3l4 4v3l4 -3h19l4 3q30 -11 30 -38l-4 -3l8 -42l-8 -8l19 -99l-3 -3v-4l7 -31l-4 -3v-4l12 -42l-4 -4v-4l8 -26h-4q1 -19 11 -19v-4h-7l7 -23h-4l19 -76l4 4h4q34 -51 34 -114l-4 -15q7 0 12 -34h-4l15 -61h-4l31 -110 q0 -12 7 -12v-4l-3 -3l26 -84h4l-4 -4v-4l8 -11l-4 -4v-4l8 -7h-4q4 -36 23 -76v-4l-4 -4l19 -34q12 -108 30 -122l-4 -3v-16h8v-7l27 -110l-4 -4h7l-3 -15l15 -38l-8 -27h4q-1 -13 -49 -38l-4 -11l-4 3h-4q-9 -16 -19 -19l-4 4q-32 -23 -68 -34l-15 4l4 4v3l-8 8h4l-8 30h4 l-27 118h4q-39 199 -45 202l3 3q-8 50 -15 50l4 4l-23 110h4q-5 19 -11 19h-4l-4 -4l-4 4h-7l-27 -4l-4 4l-4 -4v4l-3 -4h-4l-4 4l-4 -4h-4l-22 4l-4 -4l-4 4l-8 -38h4l-7 -42h3q-7 -19 -7 -68v-4l4 -4l-4 -4v-26q0 -30 -53 -183l3 -4v-3q-7 -8 -22 -69q-6 0 -19 -53 q-28 -31 -57 -42l-4 4l-42 -30l-4 3l-38 -22v3q-15 -1 -15 -11q-19 5 -19 11v4zM165 1705v19l3 3l-3 4v4h3q8 17 30 30h9l3 -3v3l3 4l21 -4h6l3 4q24 -16 24 -30h3l3 4l18 -27l36 -46q17 -16 36 -53v-30q-37 -57 -69 -57h-3l-3 4l-21 -8l-12 4q-30 0 -39 53q-38 68 -48 110 h3zM296 644l38 -4l4 4v-4l23 8l15 -4q-38 175 -49 281h-4l-4 -49h4l-4 -4v-4l4 -4l-8 -15h4l-4 -4v-7l-3 -103h-4l4 -4v-3l-12 -69h4z" />
<glyph unicode="&#xe1;" horiz-adv-x="734" d="M0 -25l30 80h-3l15 34l-4 4q11 0 11 34l4 4h-4l16 53l-4 4q6 0 23 49h3l-3 4v4l11 19v4l-4 4q8 10 12 68l-8 8l11 3l-3 4l3 27l-3 15l11 46h-4l4 3v4l-4 4l12 72h-4l7 15l-3 4l7 34h-4l12 50h-4q11 48 11 148l4 4v4h-4l4 3v4q0 109 46 369l-4 11l11 31l-3 3l3 4l-3 4 q7 0 19 65h-4q21 136 42 136q21 35 49 35h4l4 -4h3l4 4v3l4 -3h19l4 3q30 -11 30 -38l-4 -3l8 -42l-8 -8l19 -99l-3 -3v-4l7 -31l-4 -3v-4l12 -42l-4 -4v-4l8 -26h-4q1 -19 11 -19v-4h-7l7 -23h-4l19 -76l4 4h4q34 -51 34 -114l-4 -15q7 0 12 -34h-4l15 -61h-4l31 -110 q0 -12 7 -12v-4l-3 -3l26 -84h4l-4 -4v-4l8 -11l-4 -4v-4l8 -7h-4q4 -36 23 -76v-4l-4 -4l19 -34q12 -108 30 -122l-4 -3v-16h8v-7l27 -110l-4 -4h7l-3 -15l15 -38l-8 -27h4q-1 -13 -49 -38l-4 -11l-4 3h-4q-9 -16 -19 -19l-4 4q-32 -23 -68 -34l-15 4l4 4v3l-8 8h4l-8 30h4 l-27 118h4q-39 199 -45 202l3 3q-8 50 -15 50l4 4l-23 110h4q-5 19 -11 19h-4l-4 -4l-4 4h-7l-27 -4l-4 4l-4 -4v4l-3 -4h-4l-4 4l-4 -4h-4l-22 4l-4 -4l-4 4l-8 -38h4l-7 -42h3q-7 -19 -7 -68v-4l4 -4l-4 -4v-26q0 -30 -53 -183l3 -4v-3q-7 -8 -22 -69q-6 0 -19 -53 q-28 -31 -57 -42l-4 4l-42 -30l-4 3l-38 -22v3q-15 -1 -15 -11q-19 5 -19 11v4zM225 1587v30q19 37 36 53l36 46l18 27l3 -4h3q0 14 24 30l3 -4h6l21 4l3 -4v-3l3 3h9q22 -13 30 -30h3v-4l-3 -4l3 -3v-19l-6 -12h3q-10 -42 -48 -110q-9 -53 -39 -53l-12 -4l-21 8l-3 -4h-3 q-32 0 -69 57zM296 644l38 -4l4 4v-4l23 8l15 -4q-38 175 -49 281h-4l-4 -49h4l-4 -4v-4l4 -4l-8 -15h4l-4 -4v-7l-3 -103h-4l4 -4v-3l-12 -69h4z" />
<glyph unicode="&#xe2;" horiz-adv-x="734" d="M0 -25l30 80h-3l15 34l-4 4q11 0 11 34l4 4h-4l16 53l-4 4q6 0 23 49h3l-3 4v4l11 19v4l-4 4q8 10 12 68l-8 8l11 3l-3 4l3 27l-3 15l11 46h-4l4 3v4l-4 4l12 72h-4l7 15l-3 4l7 34h-4l12 50h-4q11 48 11 148l4 4v4h-4l4 3v4q0 109 46 369l-4 11l11 31l-3 3l3 4l-3 4 q7 0 19 65h-4q21 136 42 136q21 35 49 35h4l4 -4h3l4 4v3l4 -3h19l4 3q30 -11 30 -38l-4 -3l8 -42l-8 -8l19 -99l-3 -3v-4l7 -31l-4 -3v-4l12 -42l-4 -4v-4l8 -26h-4q1 -19 11 -19v-4h-7l7 -23h-4l19 -76l4 4h4q34 -51 34 -114l-4 -15q7 0 12 -34h-4l15 -61h-4l31 -110 q0 -12 7 -12v-4l-3 -3l26 -84h4l-4 -4v-4l8 -11l-4 -4v-4l8 -7h-4q4 -36 23 -76v-4l-4 -4l19 -34q12 -108 30 -122l-4 -3v-16h8v-7l27 -110l-4 -4h7l-3 -15l15 -38l-8 -27h4q-1 -13 -49 -38l-4 -11l-4 3h-4q-9 -16 -19 -19l-4 4q-32 -23 -68 -34l-15 4l4 4v3l-8 8h4l-8 30h4 l-27 118h4q-39 199 -45 202l3 3q-8 50 -15 50l4 4l-23 110h4q-5 19 -11 19h-4l-4 -4l-4 4h-7l-27 -4l-4 4l-4 -4v4l-3 -4h-4l-4 4l-4 -4h-4l-22 4l-4 -4l-4 4l-8 -38h4l-7 -42h3q-7 -19 -7 -68v-4l4 -4l-4 -4v-26q0 -30 -53 -183l3 -4v-3q-7 -8 -22 -69q-6 0 -19 -53 q-28 -31 -57 -42l-4 4l-42 -30l-4 3l-38 -22v3q-15 -1 -15 -11q-19 5 -19 11v4zM68 1545q51 64 144 152l38 65l103 -38v-4l4 4h7q0 -11 35 -23q0 -15 34 -53q19 -31 45 -118l42 -76l-38 -19q-83 19 -83 49q-8 0 -16 19l4 4q-18 5 -34 61q-8 0 -19 38h-8q0 -15 -15 -15 q-26 -23 -26 -34q-20 0 -38 -50q-11 -23 -23 -23q0 -15 -8 -15v4l-23 -8l-7 8h-15l-4 -4l-4 4h-11l-4 -4h-4q0 7 -38 15l-27 27zM296 644l38 -4l4 4v-4l23 8l15 -4q-38 175 -49 281h-4l-4 -49h4l-4 -4v-4l4 -4l-8 -15h4l-4 -4v-7l-3 -103h-4l4 -4v-3l-12 -69h4z" />
<glyph unicode="&#xe3;" horiz-adv-x="734" d="M0 -25l30 80h-3l15 34l-4 4q11 0 11 34l4 4h-4l16 53l-4 4q6 0 23 49h3l-3 4v4l11 19v4l-4 4q8 10 12 68l-8 8l11 3l-3 4l3 27l-3 15l11 46h-4l4 3v4l-4 4l12 72h-4l7 15l-3 4l7 34h-4l12 50h-4q11 48 11 148l4 4v4h-4l4 3v4q0 109 46 369l-4 11l11 31l-3 3l3 4l-3 4 q7 0 19 65h-4q21 136 42 136q21 35 49 35h4l4 -4h3l4 4v3l4 -3h19l4 3q30 -11 30 -38l-4 -3l8 -42l-8 -8l19 -99l-3 -3v-4l7 -31l-4 -3v-4l12 -42l-4 -4v-4l8 -26h-4q1 -19 11 -19v-4h-7l7 -23h-4l19 -76l4 4h4q34 -51 34 -114l-4 -15q7 0 12 -34h-4l15 -61h-4l31 -110 q0 -12 7 -12v-4l-3 -3l26 -84h4l-4 -4v-4l8 -11l-4 -4v-4l8 -7h-4q4 -36 23 -76v-4l-4 -4l19 -34q12 -108 30 -122l-4 -3v-16h8v-7l27 -110l-4 -4h7l-3 -15l15 -38l-8 -27h4q-1 -13 -49 -38l-4 -11l-4 3h-4q-9 -16 -19 -19l-4 4q-32 -23 -68 -34l-15 4l4 4v3l-8 8h4l-8 30h4 l-27 118h4q-39 199 -45 202l3 3q-8 50 -15 50l4 4l-23 110h4q-5 19 -11 19h-4l-4 -4l-4 4h-7l-27 -4l-4 4l-4 -4v4l-3 -4h-4l-4 4l-4 -4h-4l-22 4l-4 -4l-4 4l-8 -38h4l-7 -42h3q-7 -19 -7 -68v-4l4 -4l-4 -4v-26q0 -30 -53 -183l3 -4v-3q-7 -8 -22 -69q-6 0 -19 -53 q-28 -31 -57 -42l-4 4l-42 -30l-4 3l-38 -22v3q-15 -1 -15 -11q-19 5 -19 11v4zM45 1514l4 23l-4 3q11 0 15 50q46 99 80 99l61 15l38 -8l4 4v4l41 -8l4 4q110 -10 110 -30l27 -23h4q0 9 23 26l3 -3l4 3v4l4 -4h8l3 4l23 -7l8 7l30 -4v4q48 -19 65 -19q0 -7 15 -7l4 -4v-12 q-31 -24 -31 -38q-38 -49 -49 -49q-10 -11 -91 -11h-8l-4 -4l-3 4h-4l-4 -4q-38 5 -76 34v-4q-15 0 -15 15q-10 0 -31 19l-30 27q-21 0 -42 -57l-7 -53h3q0 -8 -26 -27l-4 4h-4l-15 -11l-4 3h-4l-38 -7l-3 4l-4 -4l-4 4l-8 -8q-45 13 -45 23l-4 -4h-4q0 11 -15 23zM296 644 l38 -4l4 4v-4l23 8l15 -4q-38 175 -49 281h-4l-4 -49h4l-4 -4v-4l4 -4l-8 -15h4l-4 -4v-7l-3 -103h-4l4 -4v-3l-12 -69h4z" />
<glyph unicode="&#xe4;" horiz-adv-x="742" d="M0 -25l30 80h-3l15 34l-4 4q11 0 11 34l4 4h-4l16 53l-4 4q6 0 23 49h3l-3 4v4l11 19v4l-4 4q8 10 12 68l-8 8l11 3l-3 4l3 27l-3 15l11 46h-4l4 3v4l-4 4l12 72h-4l7 15l-3 4l7 34h-4l12 50h-4q11 48 11 148l4 4v4h-4l4 3v4q0 109 46 369l-4 11l11 31l-3 3l3 4l-3 4 q7 0 19 65h-4q21 136 42 136q21 35 49 35h4l4 -4h3l4 4v3l4 -3h19l4 3q30 -11 30 -38l-4 -3l8 -42l-8 -8l19 -99l-3 -3v-4l7 -31l-4 -3v-4l12 -42l-4 -4v-4l8 -26h-4q1 -19 11 -19v-4h-7l7 -23h-4l19 -76l4 4h4q34 -51 34 -114l-4 -15q7 0 12 -34h-4l15 -61h-4l31 -110 q0 -12 7 -12v-4l-3 -3l26 -84h4l-4 -4v-4l8 -11l-4 -4v-4l8 -7h-4q4 -36 23 -76v-4l-4 -4l19 -34q12 -108 30 -122l-4 -3v-16h8v-7l27 -110l-4 -4h7l-3 -15l15 -38l-8 -27h4q-1 -13 -49 -38l-4 -11l-4 3h-4q-9 -16 -19 -19l-4 4q-32 -23 -68 -34l-15 4l4 4v3l-8 8h4l-8 30h4 l-27 118h4q-39 199 -45 202l3 3q-8 50 -15 50l4 4l-23 110h4q-5 19 -11 19h-4l-4 -4l-4 4h-7l-27 -4l-4 4l-4 -4v4l-3 -4h-4l-4 4l-4 -4h-4l-22 4l-4 -4l-4 4l-8 -38h4l-7 -42h3q-7 -19 -7 -68v-4l4 -4l-4 -4v-26q0 -30 -53 -183l3 -4v-3q-7 -8 -22 -69q-6 0 -19 -53 q-28 -31 -57 -42l-4 4l-42 -30l-4 3l-38 -22v3q-15 -1 -15 -11q-19 5 -19 11v4zM117 1538l4 20l14 2q-28 9 60 156l67 14q92 -55 46 -111l-9 2l5 -7l-5 -6l-13 -3l3 -9l-4 -5l-13 -3l-4 -5l3 -9q-31 -37 -109 -50l-4 9l-18 5l-15 -3zM296 644l38 -4l4 4v-4l23 8l15 -4 q-38 175 -49 281h-4l-4 -49h4l-4 -4v-4l4 -4l-8 -15h4l-4 -4v-7l-3 -103h-4l4 -4v-3l-12 -69h4zM349 1538l4 20l14 2q-28 9 60 156l67 14q92 -55 46 -111l-9 2l5 -7l-5 -6l-13 -3l3 -9l-4 -5l-13 -3l-4 -5l3 -9q-31 -37 -109 -50l-4 9l-18 5l-15 -3z" />
<glyph unicode="&#xe5;" horiz-adv-x="736" d="M0 -25l30 80h-3l15 34l-4 4q11 0 11 34l4 4h-4l16 53l-4 4q6 0 23 49h3l-3 4v4l11 19v4l-4 4q8 10 12 68l-8 8l11 3l-3 4l3 27l-3 15l11 46h-4l4 3v4l-4 4l12 72h-4l7 15l-3 4l7 34h-4l12 50h-4q11 48 11 148l4 4v4h-4l4 3v4q0 109 46 369l-4 11l11 31l-3 3l3 4l-3 4 q7 0 19 65h-4q21 136 42 136q21 35 49 35h4l4 -4h3l4 4v3l4 -3h19l4 3q30 -11 30 -38l-4 -3l8 -42l-8 -8l19 -99l-3 -3v-4l7 -31l-4 -3v-4l12 -42l-4 -4v-4l8 -26h-4q1 -19 11 -19v-4h-7l7 -23h-4l19 -76l4 4h4q34 -51 34 -114l-4 -15q7 0 12 -34h-4l15 -61h-4l31 -110 q0 -12 7 -12v-4l-3 -3l26 -84h4l-4 -4v-4l8 -11l-4 -4v-4l8 -7h-4q4 -36 23 -76v-4l-4 -4l19 -34q12 -108 30 -122l-4 -3v-16h8v-7l27 -110l-4 -4h7l-3 -15l15 -38l-8 -27h4q-1 -13 -49 -38l-4 -11l-4 3h-4q-9 -16 -19 -19l-4 4q-32 -23 -68 -34l-15 4l4 4v3l-8 8h4l-8 30h4 l-27 118h4q-39 199 -45 202l3 3q-8 50 -15 50l4 4l-23 110h4q-5 19 -11 19h-4l-4 -4l-4 4h-7l-27 -4l-4 4l-4 -4v4l-3 -4h-4l-4 4l-4 -4h-4l-22 4l-4 -4l-4 4l-8 -38h4l-7 -42h3q-7 -19 -7 -68v-4l4 -4l-4 -4v-26q0 -30 -53 -183l3 -4v-3q-7 -8 -22 -69q-6 0 -19 -53 q-28 -31 -57 -42l-4 4l-42 -30l-4 3l-38 -22v3q-15 -1 -15 -11q-19 5 -19 11v4zM167 1683q14 83 29 94l-3 3q8 0 8 6l-2 3q28 72 63 72l8 -6l9 3q17 -12 26 -12l3 3l17 -14v6q19 0 32 -23l43 -26v-3q-1 -6 -15 -12l-11 3q7 -11 69 -60l11 -29l-2 -3v-8l2 -3l-2 -3v-3l2 -3 l-2 -3v-3l2 -8q-8 0 -8 -40h-3l-3 -3h-3l3 -3v-15q-32 -33 -32 -43l-5 -11l3 -3v-3q-15 0 -15 -11h-23q0 -8 -14 -9l-3 3v-3l-3 3h-6l-3 -3l-2 3h-6l-3 -3l-3 3h-3l-3 -3l-20 9l-11 -3l-35 14q0 6 -17 9q-22 17 -55 63q0 14 -5 14l2 3l-8 46v12zM296 644l38 -4l4 4v-4l23 8 l15 -4q-38 175 -49 281h-4l-4 -49h4l-4 -4v-4l4 -4l-8 -15h4l-4 -4v-7l-3 -103h-4l4 -4v-3l-12 -69h4zM299 1614l6 -6q0 6 17 20q17 19 26 60h-3l6 26l-3 3h3l-3 3v9l3 2v3l-17 18q-6 0 -6 -9l-3 -14h-6l3 -3v-3q-15 0 -23 -81v-8l3 -3l-3 -3v-14z" />
<glyph unicode="&#xe6;" horiz-adv-x="1454" />
<glyph unicode="&#xe7;" horiz-adv-x="905" />
<glyph unicode="&#xe8;" horiz-adv-x="652" d="M0 1016l4 4v4l-4 15v27l4 4l-4 3v4l4 12h-4q11 90 49 171l46 76l76 41v4l4 -4h4q18 12 76 23v-4l15 8l4 -4h3q10 8 50 8v4l4 -4h3l35 4v-4l3 4h23l4 -4l4 4h4l11 -4v4q39 0 99 -35q25 0 34 -22v-4l-27 -12l-3 4v-7l-19 3v-3l-4 3q-72 -7 -80 -15l-4 4h-4q-12 -12 -76 -19 q-26 -9 -45 -27l-4 4q-42 -36 -76 -118h-4l4 -3v-4q-23 -50 -23 -114l4 -4h4l4 4v-4l3 4h46l19 -4l4 4v-4l23 8l19 -8l3 4q0 -9 111 -38q0 -11 30 -19q0 -18 -49 -31v4l-4 -4h-12l-3 4h-4v-7l-4 3h-4v-3l-4 3h-11l-19 -3l-4 3l-7 -7l-4 4v-4l-4 4h-8l-3 -4l-4 4h-8l-26 -4 l-4 4l-4 -4v4l-4 -4h-4l-3 4l-4 -4h-4l-23 4v-4l-38 7v-26l4 -27h-4l4 -4v-7l-4 -4l4 -4v-4l-4 -3l4 -12l11 -167l-3 -11l7 -31l-4 -15v-11l4 -4l-4 -4v-4l4 -15l-4 -34h4l-4 -4v-72l4 -15l-4 -16v-22l4 -42l-4 -19h4l-4 -4v-4l4 -15l-4 -4v-4l4 -3l-4 -38v-16l-3 -3l3 -4 v-8l-3 -15l3 -11h-7l4 -4v-42l3 -27h-3l3 -3v-4l-3 -4l3 -4l-3 -19l7 -30h-4q32 -67 54 -72q0 -8 19 -8l72 23l61 -8l3 4l4 -4v4q51 -10 57 -19l12 4v-4q12 -11 26 -11v-8l-30 -27v-3l-4 3l-42 -15v4q-15 -11 -53 -15l-4 4l-45 -8l-4 4h-4l-15 -4l-15 4l-4 -4l-4 4v-4l-4 4 h-4l-19 -4l-68 23l-4 -4h-4l-49 23l-4 -4q0 8 -30 23q-41 32 -57 64h-4l4 4v4q-9 0 -19 23l4 4l-4 3v4l4 4v4h-8v4l-4 41l4 4v4l-4 11l4 4l-4 19l4 50l-4 3v4l4 12l-4 3v4l4 12h-4l8 22l-4 4l4 38v23l-4 15l4 4v4l-4 30h4l-4 4v4l4 30l-4 19l4 4v4l-4 4v3l4 12l-4 4v3l4 4 l-4 19v8h4l-4 19v30l-8 72l8 8l-4 11h4l-4 4v15l4 19l-4 4h4l-8 31l4 3v4l-4 12h4l-4 3v4l4 4q-6 42 -11 42l4 4v7l-4 23l4 4zM165 1705v19l3 3l-3 4v4h3q8 17 30 30h9l3 -3v3l3 4l21 -4h6l3 4q24 -16 24 -30h3l3 4l18 -27l36 -46q17 -16 36 -53v-30q-37 -57 -69 -57h-3 l-3 4l-21 -8l-12 4q-30 0 -39 53q-38 68 -48 110h3z" />
<glyph unicode="&#xe9;" horiz-adv-x="629" d="M0 1016l4 4v4l-4 15v27l4 4l-4 3v4l4 12h-4q11 90 49 171l46 76l76 41v4l4 -4h4q18 12 76 23v-4l15 8l4 -4h3q10 8 50 8v4l4 -4h3l35 4v-4l3 4h23l4 -4l4 4h4l11 -4v4q39 0 99 -35q25 0 34 -22v-4l-27 -12l-3 4v-7l-19 3v-3l-4 3q-72 -7 -80 -15l-4 4h-4q-12 -12 -76 -19 q-26 -9 -45 -27l-4 4q-42 -36 -76 -118h-4l4 -3v-4q-23 -50 -23 -114l4 -4h4l4 4v-4l3 4h46l19 -4l4 4v-4l23 8l19 -8l3 4q0 -9 111 -38q0 -11 30 -19q0 -18 -49 -31v4l-4 -4h-12l-3 4h-4v-7l-4 3h-4v-3l-4 3h-11l-19 -3l-4 3l-7 -7l-4 4v-4l-4 4h-8l-3 -4l-4 4h-8l-26 -4 l-4 4l-4 -4v4l-4 -4h-4l-3 4l-4 -4h-4l-23 4v-4l-38 7v-26l4 -27h-4l4 -4v-7l-4 -4l4 -4v-4l-4 -3l4 -12l11 -167l-3 -11l7 -31l-4 -15v-11l4 -4l-4 -4v-4l4 -15l-4 -34h4l-4 -4v-72l4 -15l-4 -16v-22l4 -42l-4 -19h4l-4 -4v-4l4 -15l-4 -4v-4l4 -3l-4 -38v-16l-3 -3l3 -4 v-8l-3 -15l3 -11h-7l4 -4v-42l3 -27h-3l3 -3v-4l-3 -4l3 -4l-3 -19l7 -30h-4q32 -67 54 -72q0 -8 19 -8l72 23l61 -8l3 4l4 -4v4q51 -10 57 -19l12 4v-4q12 -11 26 -11v-8l-30 -27v-3l-4 3l-42 -15v4q-15 -11 -53 -15l-4 4l-45 -8l-4 4h-4l-15 -4l-15 4l-4 -4l-4 4v-4l-4 4 h-4l-19 -4l-68 23l-4 -4h-4l-49 23l-4 -4q0 8 -30 23q-41 32 -57 64h-4l4 4v4q-9 0 -19 23l4 4l-4 3v4l4 4v4h-8v4l-4 41l4 4v4l-4 11l4 4l-4 19l4 50l-4 3v4l4 12l-4 3v4l4 12h-4l8 22l-4 4l4 38v23l-4 15l4 4v4l-4 30h4l-4 4v4l4 30l-4 19l4 4v4l-4 4v3l4 12l-4 4v3l4 4 l-4 19v8h4l-4 19v30l-8 72l8 8l-4 11h4l-4 4v15l4 19l-4 4h4l-8 31l4 3v4l-4 12h4l-4 3v4l4 4q-6 42 -11 42l4 4v7l-4 23l4 4zM195 1587v30q19 37 36 53l36 46l18 27l3 -4h3q0 14 24 30l3 -4h6l21 4l3 -4v-3l3 3h9q22 -13 30 -30h3v-4l-3 -4l3 -3v-19l-6 -12h3 q-10 -42 -48 -110q-9 -53 -39 -53l-12 -4l-21 8l-3 -4h-3q-32 0 -69 57z" />
<glyph unicode="&#xea;" horiz-adv-x="622" d="M0 1016l4 4v4l-4 15v27l4 4l-4 3v4l4 12h-4q11 90 49 171l46 76l76 41v4l4 -4h4q18 12 76 23v-4l15 8l4 -4h3q10 8 50 8v4l4 -4h3l35 4v-4l3 4h23l4 -4l4 4h4l11 -4v4q39 0 99 -35q25 0 34 -22v-4l-27 -12l-3 4v-7l-19 3v-3l-4 3q-72 -7 -80 -15l-4 4h-4q-12 -12 -76 -19 q-26 -9 -45 -27l-4 4q-42 -36 -76 -118h-4l4 -3v-4q-23 -50 -23 -114l4 -4h4l4 4v-4l3 4h46l19 -4l4 4v-4l23 8l19 -8l3 4q0 -9 111 -38q0 -11 30 -19q0 -18 -49 -31v4l-4 -4h-12l-3 4h-4v-7l-4 3h-4v-3l-4 3h-11l-19 -3l-4 3l-7 -7l-4 4v-4l-4 4h-8l-3 -4l-4 4h-8l-26 -4 l-4 4l-4 -4v4l-4 -4h-4l-3 4l-4 -4h-4l-23 4v-4l-38 7v-26l4 -27h-4l4 -4v-7l-4 -4l4 -4v-4l-4 -3l4 -12l11 -167l-3 -11l7 -31l-4 -15v-11l4 -4l-4 -4v-4l4 -15l-4 -34h4l-4 -4v-72l4 -15l-4 -16v-22l4 -42l-4 -19h4l-4 -4v-4l4 -15l-4 -4v-4l4 -3l-4 -38v-16l-3 -3l3 -4 v-8l-3 -15l3 -11h-7l4 -4v-42l3 -27h-3l3 -3v-4l-3 -4l3 -4l-3 -19l7 -30h-4q32 -67 54 -72q0 -8 19 -8l72 23l61 -8l3 4l4 -4v4q51 -10 57 -19l12 4v-4q12 -11 26 -11v-8l-30 -27v-3l-4 3l-42 -15v4q-15 -11 -53 -15l-4 4l-45 -8l-4 4h-4l-15 -4l-15 4l-4 -4l-4 4v-4l-4 4 h-4l-19 -4l-68 23l-4 -4h-4l-49 23l-4 -4q0 8 -30 23q-41 32 -57 64h-4l4 4v4q-9 0 -19 23l4 4l-4 3v4l4 4v4h-8v4l-4 41l4 4v4l-4 11l4 4l-4 19l4 50l-4 3v4l4 12l-4 3v4l4 12h-4l8 22l-4 4l4 38v23l-4 15l4 4v4l-4 30h4l-4 4v4l4 30l-4 19l4 4v4l-4 4v3l4 12l-4 4v3l4 4 l-4 19v8h4l-4 19v30l-8 72l8 8l-4 11h4l-4 4v15l4 19l-4 4h4l-8 31l4 3v4l-4 12h4l-4 3v4l4 4q-6 42 -11 42l4 4v7l-4 23l4 4zM68 1545q51 64 144 152l38 65l103 -38v-4l4 4h7q0 -11 35 -23q0 -15 34 -53q19 -31 45 -118l42 -76l-38 -19q-83 19 -83 49q-8 0 -16 19l4 4 q-18 5 -34 61q-8 0 -19 38h-8q0 -15 -15 -15q-26 -23 -26 -34q-20 0 -38 -50q-11 -23 -23 -23q0 -15 -8 -15v4l-23 -8l-7 8h-15l-4 -4l-4 4h-11l-4 -4h-4q0 7 -38 15l-27 27z" />
<glyph unicode="&#xeb;" horiz-adv-x="644" d="M0 1016l4 4v4l-4 15v27l4 4l-4 3v4l4 12h-4q11 90 49 171l46 76l76 41v4l4 -4h4q18 12 76 23v-4l15 8l4 -4h3q10 8 50 8v4l4 -4h3l35 4v-4l3 4h23l4 -4l4 4h4l11 -4v4q39 0 99 -35q25 0 34 -22v-4l-27 -12l-3 4v-7l-19 3v-3l-4 3q-72 -7 -80 -15l-4 4h-4q-12 -12 -76 -19 q-26 -9 -45 -27l-4 4q-42 -36 -76 -118h-4l4 -3v-4q-23 -50 -23 -114l4 -4h4l4 4v-4l3 4h46l19 -4l4 4v-4l23 8l19 -8l3 4q0 -9 111 -38q0 -11 30 -19q0 -18 -49 -31v4l-4 -4h-12l-3 4h-4v-7l-4 3h-4v-3l-4 3h-11l-19 -3l-4 3l-7 -7l-4 4v-4l-4 4h-8l-3 -4l-4 4h-8l-26 -4 l-4 4l-4 -4v4l-4 -4h-4l-3 4l-4 -4h-4l-23 4v-4l-38 7v-26l4 -27h-4l4 -4v-7l-4 -4l4 -4v-4l-4 -3l4 -12l11 -167l-3 -11l7 -31l-4 -15v-11l4 -4l-4 -4v-4l4 -15l-4 -34h4l-4 -4v-72l4 -15l-4 -16v-22l4 -42l-4 -19h4l-4 -4v-4l4 -15l-4 -4v-4l4 -3l-4 -38v-16l-3 -3l3 -4 v-8l-3 -15l3 -11h-7l4 -4v-42l3 -27h-3l3 -3v-4l-3 -4l3 -4l-3 -19l7 -30h-4q32 -67 54 -72q0 -8 19 -8l72 23l61 -8l3 4l4 -4v4q51 -10 57 -19l12 4v-4q12 -11 26 -11v-8l-30 -27v-3l-4 3l-42 -15v4q-15 -11 -53 -15l-4 4l-45 -8l-4 4h-4l-15 -4l-15 4l-4 -4l-4 4v-4l-4 4 h-4l-19 -4l-68 23l-4 -4h-4l-49 23l-4 -4q0 8 -30 23q-41 32 -57 64h-4l4 4v4q-9 0 -19 23l4 4l-4 3v4l4 4v4h-8v4l-4 41l4 4v4l-4 11l4 4l-4 19l4 50l-4 3v4l4 12l-4 3v4l4 12h-4l8 22l-4 4l4 38v23l-4 15l4 4v4l-4 30h4l-4 4v4l4 30l-4 19l4 4v4l-4 4v3l4 12l-4 4v3l4 4 l-4 19v8h4l-4 19v30l-8 72l8 8l-4 11h4l-4 4v15l4 19l-4 4h4l-8 31l4 3v4l-4 12h4l-4 3v4l4 4q-6 42 -11 42l4 4v7l-4 23l4 4zM77 1538l4 20l14 2q-28 9 60 156l67 14q92 -55 46 -111l-9 2l5 -7l-5 -6l-13 -3l3 -9l-4 -5l-13 -3l-4 -5l3 -9q-31 -37 -109 -50l-4 9l-18 5 l-15 -3zM309 1538l4 20l14 2q-28 9 60 156l67 14q92 -55 46 -111l-9 2l5 -7l-5 -6l-13 -3l3 -9l-4 -5l-13 -3l-4 -5l3 -9q-31 -37 -109 -50l-4 9l-18 5l-15 -3z" />
<glyph unicode="&#xec;" horiz-adv-x="322" d="M0 53l8 31l-4 3l7 31l-3 4l7 49h-4l8 53h-4l4 4v19l-4 4l4 4v19l-4 15l4 11l-4 4h4l-4 11l4 4v4l-4 15h4l-4 4v11l4 16l-4 11l4 4h-4l4 4v15l-4 4v3l4 4h4l-4 4v4l4 4l-4 3v4l4 34l-4 4h4l-4 4l4 19l-4 4l4 11l-4 12l4 3h-4l4 4v8l-4 4l4 3v23l-4 4l4 4v23l-4 3l4 4v42 l4 15l-4 15v4l4 19h-4l4 4v38l3 4v4h-3q7 19 11 79l-4 4l4 4h4l-4 4v4l4 3l-4 4l11 88h-3l3 3v23l-3 4l7 19l-4 4v19l4 23l-4 15l4 26h-4l8 42h-4l4 4v4l-4 4l8 60h-4l4 4v53l-4 4l11 69l-3 3h3l-7 31l4 4v3l-8 16l4 22h19q55 -24 118 -38l3 -11h19l27 -30v-4h-8v-4l4 -4 l-4 -19v-42l4 -3l-7 -16l3 -3v-69l-3 -4l3 -11l-3 -4v-4l3 -3l-11 -73l4 -3l-4 -19v-38l-4 -4l4 -4v-4l-4 -11l4 -4h-4l4 -4v-34l-4 -4l4 -4v-19l-4 -19h4l-15 -152h4l-12 -22l4 -4l-8 -27l4 -4v-3l-7 -73h3l-3 -3v-84l-4 -4l4 -4v-38l-4 -3l4 -4v-61q0 -38 -8 -38l4 -4v-4 l-8 -60h4l-4 -4v-15l4 -4l-4 -4v-4l4 -4l-4 -3v-4l4 -15h-4l4 -4v-84l-4 -4v-3h4l-4 -4v-15l-4 -65h4q-4 -34 -11 -34l-12 4v-4l-15 -15v3l-49 -11l-4 4h-4l-4 -4v8l-3 -4l-23 7l-4 -3h-4q-19 2 -53 45zM15 1705v19l3 3l-3 4v4h3q8 17 30 30h9l3 -3v3l3 4l21 -4h6l3 4 q24 -16 24 -30h3l3 4l18 -27l36 -46q17 -16 36 -53v-30q-37 -57 -69 -57h-3l-3 4l-21 -8l-12 4q-30 0 -39 53q-38 68 -48 110h3z" />
<glyph unicode="&#xed;" horiz-adv-x="337" d="M0 53l8 31l-4 3l7 31l-3 4l7 49h-4l8 53h-4l4 4v19l-4 4l4 4v19l-4 15l4 11l-4 4h4l-4 11l4 4v4l-4 15h4l-4 4v11l4 16l-4 11l4 4h-4l4 4v15l-4 4v3l4 4h4l-4 4v4l4 4l-4 3v4l4 34l-4 4h4l-4 4l4 19l-4 4l4 11l-4 12l4 3h-4l4 4v8l-4 4l4 3v23l-4 4l4 4v23l-4 3l4 4v42 l4 15l-4 15v4l4 19h-4l4 4v38l3 4v4h-3q7 19 11 79l-4 4l4 4h4l-4 4v4l4 3l-4 4l11 88h-3l3 3v23l-3 4l7 19l-4 4v19l4 23l-4 15l4 26h-4l8 42h-4l4 4v4l-4 4l8 60h-4l4 4v53l-4 4l11 69l-3 3h3l-7 31l4 4v3l-8 16l4 22h19q55 -24 118 -38l3 -11h19l27 -30v-4h-8v-4l4 -4 l-4 -19v-42l4 -3l-7 -16l3 -3v-69l-3 -4l3 -11l-3 -4v-4l3 -3l-11 -73l4 -3l-4 -19v-38l-4 -4l4 -4v-4l-4 -11l4 -4h-4l4 -4v-34l-4 -4l4 -4v-19l-4 -19h4l-15 -152h4l-12 -22l4 -4l-8 -27l4 -4v-3l-7 -73h3l-3 -3v-84l-4 -4l4 -4v-38l-4 -3l4 -4v-61q0 -38 -8 -38l4 -4v-4 l-8 -60h4l-4 -4v-15l4 -4l-4 -4v-4l4 -4l-4 -3v-4l4 -15h-4l4 -4v-84l-4 -4v-3h4l-4 -4v-15l-4 -65h4q-4 -34 -11 -34l-12 4v-4l-15 -15v3l-49 -11l-4 4h-4l-4 -4v8l-3 -4l-23 7l-4 -3h-4q-19 2 -53 45zM75 1587v30q19 37 36 53l36 46l18 27l3 -4h3q0 14 24 30l3 -4h6l21 4 l3 -4v-3l3 3h9q22 -13 30 -30h3v-4l-3 -4l3 -3v-19l-6 -12h3q-10 -42 -48 -110q-9 -53 -39 -53l-12 -4l-21 8l-3 -4h-3q-32 0 -69 57z" />
<glyph unicode="&#xee;" horiz-adv-x="390" d="M-102 1545q51 64 144 152l38 65l103 -38v-4l4 4h7q0 -11 35 -23q0 -15 34 -53q19 -31 45 -118l42 -76l-38 -19q-83 19 -83 49q-8 0 -16 19l4 4q-18 5 -34 61q-8 0 -19 38h-8q0 -15 -15 -15q-26 -23 -26 -34q-20 0 -38 -50q-11 -23 -23 -23q0 -15 -8 -15v4l-23 -8l-7 8 h-15l-4 -4l-4 4h-11l-4 -4h-4q0 7 -38 15l-27 27zM0 53l8 31l-4 3l7 31l-3 4l7 49h-4l8 53h-4l4 4v19l-4 4l4 4v19l-4 15l4 11l-4 4h4l-4 11l4 4v4l-4 15h4l-4 4v11l4 16l-4 11l4 4h-4l4 4v15l-4 4v3l4 4h4l-4 4v4l4 4l-4 3v4l4 34l-4 4h4l-4 4l4 19l-4 4l4 11l-4 12l4 3h-4 l4 4v8l-4 4l4 3v23l-4 4l4 4v23l-4 3l4 4v42l4 15l-4 15v4l4 19h-4l4 4v38l3 4v4h-3q7 19 11 79l-4 4l4 4h4l-4 4v4l4 3l-4 4l11 88h-3l3 3v23l-3 4l7 19l-4 4v19l4 23l-4 15l4 26h-4l8 42h-4l4 4v4l-4 4l8 60h-4l4 4v53l-4 4l11 69l-3 3h3l-7 31l4 4v3l-8 16l4 22h19 q55 -24 118 -38l3 -11h19l27 -30v-4h-8v-4l4 -4l-4 -19v-42l4 -3l-7 -16l3 -3v-69l-3 -4l3 -11l-3 -4v-4l3 -3l-11 -73l4 -3l-4 -19v-38l-4 -4l4 -4v-4l-4 -11l4 -4h-4l4 -4v-34l-4 -4l4 -4v-19l-4 -19h4l-15 -152h4l-12 -22l4 -4l-8 -27l4 -4v-3l-7 -73h3l-3 -3v-84l-4 -4 l4 -4v-38l-4 -3l4 -4v-61q0 -38 -8 -38l4 -4v-4l-8 -60h4l-4 -4v-15l4 -4l-4 -4v-4l4 -4l-4 -3v-4l4 -15h-4l4 -4v-84l-4 -4v-3h4l-4 -4v-15l-4 -65h4q-4 -34 -11 -34l-12 4v-4l-15 -15v3l-49 -11l-4 4h-4l-4 -4v8l-3 -4l-23 7l-4 -3h-4q-19 2 -53 45z" />
<glyph unicode="&#xef;" horiz-adv-x="419" d="M-23 1538l4 20l14 2q-28 9 60 156l67 14q92 -55 46 -111l-9 2l5 -7l-5 -6l-13 -3l3 -9l-4 -5l-13 -3l-4 -5l3 -9q-31 -37 -109 -50l-4 9l-18 5l-15 -3zM40 53l8 31l-4 3l7 31l-3 4l7 49h-4l8 53h-4l4 4v19l-4 4l4 4v19l-4 15l4 11l-4 4h4l-4 11l4 4v4l-4 15h4l-4 4v11 l4 16l-4 11l4 4h-4l4 4v15l-4 4v3l4 4h4l-4 4v4l4 4l-4 3v4l4 34l-4 4h4l-4 4l4 19l-4 4l4 11l-4 12l4 3h-4l4 4v8l-4 4l4 3v23l-4 4l4 4v23l-4 3l4 4v42l4 15l-4 15v4l4 19h-4l4 4v38l3 4v4h-3q7 19 11 79l-4 4l4 4h4l-4 4v4l4 3l-4 4l11 88h-3l3 3v23l-3 4l7 19l-4 4v19 l4 23l-4 15l4 26h-4l8 42h-4l4 4v4l-4 4l8 60h-4l4 4v53l-4 4l11 69l-3 3h3l-7 31l4 4v3l-8 16l4 22h19q55 -24 118 -38l3 -11h19l27 -30v-4h-8v-4l4 -4l-4 -19v-42l4 -3l-7 -16l3 -3v-69l-3 -4l3 -11l-3 -4v-4l3 -3l-11 -73l4 -3l-4 -19v-38l-4 -4l4 -4v-4l-4 -11l4 -4h-4 l4 -4v-34l-4 -4l4 -4v-19l-4 -19h4l-15 -152h4l-12 -22l4 -4l-8 -27l4 -4v-3l-7 -73h3l-3 -3v-84l-4 -4l4 -4v-38l-4 -3l4 -4v-61q0 -38 -8 -38l4 -4v-4l-8 -60h4l-4 -4v-15l4 -4l-4 -4v-4l4 -4l-4 -3v-4l4 -15h-4l4 -4v-84l-4 -4v-3h4l-4 -4v-15l-4 -65h4q-4 -34 -11 -34 l-12 4v-4l-15 -15v3l-49 -11l-4 4h-4l-4 -4v8l-3 -4l-23 7l-4 -3h-4q-19 2 -53 45zM209 1538l4 20l14 2q-28 9 60 156l67 14q92 -55 46 -111l-9 2l5 -7l-5 -6l-13 -3l3 -9l-4 -5l-13 -3l-4 -5l3 -9q-31 -37 -109 -50l-4 9l-18 5l-15 -3z" />
<glyph unicode="&#xf0;" horiz-adv-x="1139" />
<glyph unicode="&#xf1;" horiz-adv-x="682" d="M-30 53l15 198l-4 4l4 3h-4l4 4v38l4 19h-4l8 19l-4 4l11 118h-3l11 76l-4 4l15 114l-3 3l11 92l-4 3l15 130h-3l19 125l-4 4v4l4 3v12h-4l23 224h-4l4 4v53l3 4l-3 4v3l11 99l8 8l11 -8l4 4h11q12 -11 34 -11v-8q27 0 27 -11l4 3l64 -30q19 -15 42 -110h-4l8 -15h-4 l27 -137h-4l15 -84h-4l8 -23l-4 -3v-4q12 -79 19 -88l-4 -3v-4l4 -4l-4 -19v-15l4 -4l-4 -11l8 -65h-4l4 -30h4l4 45v23l3 4v4h-3l3 3v16l-3 3v4h3l-3 4v4l3 26h-3l7 46l-4 11q8 0 8 12l4 80h-4l19 140h-4l15 133l4 4h-4l8 38l-4 11l4 12l-4 19l4 34l-4 11l4 4h-4 q5 27 12 27q116 -45 117 -57l4 4h4q0 -13 19 -19l4 3q0 -8 15 -15l-11 -64l3 -4l-3 -4h3q0 -11 -11 -11v-8h8v-4q-12 -16 -12 -38h-7v-4q0 -130 -23 -220l-12 -53l4 -4v-4l-4 -4v-3l4 -19l-4 -4h4l-7 -12l3 -3v-4l-3 -12l3 -3v-4l-7 -23l4 -4v-4l-4 -3v-4l4 -15l-4 -16h4 l-12 -45l4 -19l-8 -42q3 -23 8 -23q-10 -64 -19 -64l4 -23l-4 -31l4 -3v-4l-8 -23v-4l4 -34l-8 -23h4l-7 -34h3l-3 -11q0 -60 -12 -80l4 -4v-4l-4 -19l4 -4l-4 -19v-19q-11 0 -11 -45h-4l4 -12l-4 -3v-4l4 -4l-4 -27v-15l4 -15l-8 -34h4l-4 -4v-4l4 -23l-8 -22l8 -12l-4 -11 l4 -12q-8 0 -8 -19h-3l-4 4q-46 -6 -46 -11l-4 4h-7l-4 -4h-4l-7 7l-4 -3q-46 14 -46 38q-12 2 -26 68l3 4l-38 186l4 4l-7 26h3l-11 42h4l-8 23l4 4v4l-11 45l3 4q-7 0 -22 103h3l-7 22l4 16l-4 22h-4q0 -64 -8 -64l4 -4q-2 -27 -7 -27l3 -3v-4l-3 -4v-4h3l-7 -34l4 -4h-4 l4 -4v-3l-4 -4l4 -4l-12 -57l8 -15l-12 -42l4 -11l-7 -16l3 -3l-11 -76l4 -4v-4l-8 -19l4 -4h4l-4 -4l4 -22l-12 -65l4 -4l-11 -57l4 -15v-8l-4 -3l7 -16q-22 -26 -45 -26l-19 4l-27 -8q-8 6 -61 11q0 12 -11 12zM45 1514l4 23l-4 3q11 0 15 50q46 99 80 99l61 15l38 -8l4 4 v4l41 -8l4 4q110 -10 110 -30l27 -23h4q0 9 23 26l3 -3l4 3v4l4 -4h8l3 4l23 -7l8 7l30 -4v4q48 -19 65 -19q0 -7 15 -7l4 -4v-12q-31 -24 -31 -38q-38 -49 -49 -49q-10 -11 -91 -11h-8l-4 -4l-3 4h-4l-4 -4q-38 5 -76 34v-4q-15 0 -15 15q-10 0 -31 19l-30 27 q-21 0 -42 -57l-7 -53h3q0 -8 -26 -27l-4 4h-4l-15 -11l-4 3h-4l-38 -7l-3 4l-4 -4l-4 4l-8 -8q-45 13 -45 23l-4 -4h-4q0 11 -15 23z" />
</font>
</defs>
</svg>
