<svg xmlns="http://www.w3.org/2000/svg" viewBox="0 0 100 100" height="100" width="100"><path fill-rule="evenodd" clip-rule="evenodd" d="M68.9 48.8c.2-.4-.3-.8-.5-1.1-.2-.2-.5-.4-.7-.6v-.2l-.4-.4c0-.1-.1-.1-.1-.2-.2-.3-.5-.6-.6-1l-.3-.6v-.3s-.1 0-.1-.1c-.1-.5 0-1.1.2-1.5.1-.2 0-.2.1-.4s.3-.5.5-.6c.7-.2 1.4.3 2.1.6.4.2 1 .1 1.2.4.2.2.6.5.8.7.3.3.6.7 1 1.1l.5.5c.1.1.3.1.4.2.1.1.1.2.2.3.1.1.3.1.4.2.2.2.4.5.7.8l.3.3c.1.1.3.1.4.2.2.1.3.4.4.5l.3.3c.1.1.3.1.4.2.2.2.3.4.4.5.5.5 1 1 1.6 1.5l.3.3c.1.1.2.1.3.2.2.2.3.4.4.6.1.2.4.3.5.4.1.2 0 .5.1.7.1.2.2.3.3.4 0 0 .1 0 .1.1s.1.2.2.4c.1.5 0 1-.3 1.3-.1.1-.3.2-.4.4L78.5 56l-.1.2h-.2c-.4.3-.7.8-1.2 1.2-.1.1-.2.1-.3.2l-.1.2h-.2c-.1.1-.1.2-.2.3-.1.1-.2 0-.3.1-.2.1-.3.3-.4.4-.3.3-.5.5-.9.8-.3.2-.5.5-.8.8h-.2c-.1.1-.1.3-.3.4-.1.1-.4.1-.5.2-.1 0-.1.1-.2.2h-.2v.1c-.1 0-.2 0-.3.1 0 0-.1.2-.2.2h-.4c-.1 0-.2.1-.5.1-.1 0-.2-.1-.3-.1h-.6s0-.1-.1-.1c-.2 0-.3-.1-.4-.2-.1-.1-.2-.1-.3-.2-.1-.1-.2-.1-.3-.2-.2-.1-.4-.3-.6-.5l-.2-.1c-.1-.1 0-.2-.1-.4 0 0-.1 0-.1-.1v-.2c-.2-.1-.1-.6 0-1.1 0-.4.1-.9.2-1.1.1-.3.2-.4.4-.6 0-.1.1-.1.2-.2v-.2c.1-.1.3-.1.3-.3 0-.1.1-.2.3-.3l.1-.2h.2c.2-.1.3-.3.4-.4.3-.3.6-.6.7-1-.1-.2-.4-.2-.6-.2-.5-.1-1.2-.1-1.7-.2-.3-.1-.8 0-1.2 0-.5 0-.9-.1-1.4-.1-1.3 0-2.7-.1-4.2-.1-1.8 0-3.6-.1-5.5-.2-1.9 0-3.7.1-5.6.2-.9 0-1.8-.1-2.7-.1-.9 0-1.9.1-2.7.1-.8 0-2-.3-2.4.2-.1.1-.1.3-.2.4-.1.1-.2.3-.3.4l-.2.2v.2c-.1.1-.2.3-.4.4l-.2.2v.2h-.1c-.1.2-.1.4-.3.7 0 0-.1 0-.1.1s-.1.2-.2.3c0 .1 0 .1-.1.2l-.3.3c-.1.1-.1.3-.2.4-.1.1-.2.1-.3.3-.3.4-.5.9-.8 1.4-.2.3-.3.6-.5.9 0 0-.1 0-.1.1s-.1.3-.2.4c-.1.2-.2.5-.4.7-.2.3-.3.5-.4.6-.1.1-.5.1-.9.2h-.2c-.1.2-.8.3-1.1.3-.2 0-.4-.1-.7-.2-.2-.1-.5-.1-.6-.2 0 0 0-.1-.1-.1s-.1-.2-.3-.2c-.1 0-.2-.2-.4-.4 0 0-.2-.1-.2-.2-.1-.3 0-.6-.1-1 0-.1-.1-.2-.1-.3-.1-.8-.1-1.3.1-2 0 0 .1 0 .1-.1v-.3c.1-.1.3-.5.4-.7l.3-.6c.1-.2.1-.3.2-.5 0 0 .1 0 .1-.1s.2-.4.3-.5c.1-.1.1-.2.2-.3 0 0 .1-.2.1-.3h.1v-.2s.3-.3.3-.4c0-.1.2-.2.2-.5-.5-.3-.9-.2-1.3 0-.1 0-.1.2-.2.3-.1.1-.2 0-.3.1l-.1.2c-.1 0-.2 0-.4.2-.1.1-.2.3-.3.4-.1.1-.2.3-.3.4 0 .1-.2.1-.2.2-.1.2-.1.3-.2.5 0 0-.1 0-.1.1 0 .2-.3.2-.3.4 0 .1-.2.2-.3.4 0 .1-.1.1-.2.2v.2c-.1.1-.3.1-.3.3 0 .1-.3.2-.3.4v.1l-.3.3v.2c-.1.1-.1.2-.3.4 0 0-.1 0-.1.1s-.1.2-.2.3c-.1.1-.2.3-.4.4-.1.1-.1.3-.2.4l-.3.3c-.2.2-.4.4-.5.6l-.3.3c-.1.1-.1.3-.2.4-.1.1-.3.2-.4.3-.2.1-.2.2-.4.4-.3.3-.5.6-.7.7-.1.1-.4.1-.7.2 0 0 0 .1-.1.1h-.1c-.1 0-.3.1-.4.2-.2.2-.6-.3-.9-.3 0-.1-.1-.1-.2-.1s-.2-.1-.4-.2l-.2-.2c-.1-.1-.4-.2-.5-.3-.2-.1-.4-.3-.4-.6-.1-.2 0-.4 0-.7 0 0 .1 0 .1-.1 0-.4 0-.9.1-1.3 0 0 .1 0 .1-.1 0-.2 0-.5.1-.7.1-.1.2-.4.4-.5l.2-.2c.1-.1.2-.3.3-.4.1-.1.3-.2.4-.4.1-.1.2-.3.3-.4l.4-.4.2-.2c.1-.1 0-.2.1-.3.1-.1.3-.2.4-.4.2-.3.3-.6.5-.9l.4-.4c.1-.1 0-.2.1-.3l.2-.2c.1-.1.2-.3.3-.4.1-.1.3-.2.4-.4.1-.1 0-.2.1-.3 0-.1.1-.1.2-.2.1-.2.2-.4.2-.5 0-.3-.2-.4-.4-.6-.1-.1-.3-.1-.4-.3-.1 0-.1-.1-.2-.2-.1 0-.2 0-.3-.1 0 0 0-.2-.1-.2-.1-.1-.2 0-.3-.1l-.2-.2c-.1 0-.2 0-.3-.1-.1 0-.1-.1-.2-.2-.3-.2-.6-.3-.8-.5-.4-.3-.6-.7-1.1-1.1-.1 0-.1-.1-.2-.2H23c-.1-.1-.1-.2-.2-.3-.1-.1-.3-.2-.4-.3-.1-.1-.3-.2-.4-.3-.1-.1-.3-.2-.4-.3-.3-.2-.7-.6-1-1-.4-.5-.8-1.2-.4-2 0 0 .1 0 .1-.1s.2-.2.2-.4c0-.1.2-.3.3-.4h.2c.2-.2 1.1-.3 1.6-.2 0 0 0 .1.1.1s.2.1.3.1c.4.1.7.1 1.1.3h.2v.1h.2v.1h.2v.1c.3.1.5.3.7.4.3.1.6.1.8.3 0 0 0 .1.1.1s.1.1.2.2h.2l.2.2c.2.1.5.2.7.4.4.3.9.6 1.3.9l.3.3c.1.1.3.1.4.2.2.1.3.3.5.5.6.6 1.5 1.8 2.7 1.2.1-.3-.2-.5-.4-.7-.3-.4-.7-.6-1.1-1-.2-.2-.3-.3-.5-.4.2-.1.2-.3.1-.3-.1-.1-.2-.1-.4-.2l-.3-.3c-.3-.2-1-.8-1.2-1.2-.1-.4 0-1.3.2-1.5.1-.1.2-.1.3-.3.2-.2.2-.3.5-.4h.2c.1-.1.2-.1.5-.1h.2c.1-.1 0 0 .1 0 .2 0 .4-.1.7 0 0 0 0 .1.1.1.3 0 .7.3 1 .4.2.1.3.2.5.3.2.1.4.1.5.2.1 0 .1.2.2.3.1.1.2 0 .3.1.1.1.1.2.2.3.1.1.2 0 .3.1.1.1.1.2.2.3.1.1.2 0 .3.1 0 0 0 .1.1.1s.2.2.4.3c.1.1.2.1.3.2.1 0 .1.1.2.2h.2l.1.2c.1.1.2 0 .3.1 0 0 0 .1.1.1s.2.2.4.3c.1.1.2.1.3.2l.2.2h.2c.1.2.3.3.5.5.1.1.3.2.4.4.2.1.4.3.6.5.1.1.3.2.4.4l.1.2c.1.1.2.1.4.2s.2.4.4.4h.2c.1.1.1.1.3.2.1 0 .5.1 1 .1h.4c.9.1 2.5.1 3.6.1h2.7c.9 0 2.1.1 3.1 0 .1 0 .3-.1.4-.1 1.6-.1 3.2-.1 4.7-.1s3 .2 4.5.3h3.6c.4 0 .7.1 1.1.1.3 0 .6-.1.9-.1.3 0 .6.1.9.1 0-.5.2-.5.6-.5z"/></svg>