<svg xmlns="http://www.w3.org/2000/svg" viewBox="0 0 100 100" height="100" width="100"><path fill-rule="evenodd" clip-rule="evenodd" d="M43.2 29.8c.7 0 1.1-.4 1.6-.7.1-.1.3-.1.4-.2h.2v-.1h.2c0-.1.2-.1.5-.2l.3-.1c.1-.2 1.1-.3 1.6-.4 0 0 0-.1.1-.1h.3c.3-.1.6-.2 1-.3.4-.1.8-.1 1.2-.2.4-.1 1.2-.2 1.8-.4.4-.1 1.1-.3 1.7-.3.7 0 2-.2 2.8-.1h.4c.2 0 .4 0 .6.1h.2v.1c.3 0 .5 0 .9.1.5.1 1 .2 1.6.3.3.1.5.1.8.1 0 0 0 .1.1.1s.2.1.4.1c.1 0 .2.1.4.1.1 0 .2.1.4.1s.2.1.4.2h.2v.1c.1.1.3.1.4.1.1 0 0 .1.1.1.2 0 .2.1.4.2h.2v.1h.2v.1h.2c.2.2.8.3 1.2.5.1 0 0 .1.1.1s.2.1.4.1c.1 0 .2.1.4.1.1 0 .2.1.4.2l.6.3.6.3c.2.1.4.3.6.4.5.4 1.1.8 1.7 1.2.4.3.8.6 1.1.9.2.2.4.3.6.4.1.1.5.3.5.4v.1c.1.1.2.1.3.2.2.2.3.5.5.8 0 0 .1 0 .1.1s.1.1.2.1v.2h.1v.2h.1v.2h.1v.2h.1v.2c.1.1.1.1.2.1.2.2.3.8.6 1.1l.1.2c.1.1.2.1.2.2v.2c.1.1 0 .1.1.4 0 0 .1 0 .1.1v.1c.1.1.2.4.3.7.1.4.4.7.5 1.1.2.6.3 1.3.5 2.1 0 .2.2.4.2.7v.4c0 .2.1.6.1 1 0 .1 0 .4-.1.7 0 0-.1 0-.1.1v.2c0 .1-.1.1-.1.2-.1.6-.4 1.1.1 1.3.1 0 0 .1.1.1s.2.1.4.1c.1 0 .1.1.2.1h.2v.1h.2c.1.1.3.2.5.2h.4s0 .1.1.1.2.1.4.1c.1 0 .3.1.5.2.1 0 .1 0 .2.1s.2.2.3.2h.3c.1.1.2.3.4.4h.3s.1.1.1.2h.2c.2.2.6.4.8.6.1.1.2.2.3.4.1.1.1.1.2.1l.3.3s.1.1.1.2.1.1.2.1c0 0 .1.1.1.2.1.1.1.1.2.1v.2c.1 0 .2.1.3.1v.2h.1c.1.1.1.3.2.4 0 .1.2.1.2.1v.2c.1 0 .2.3.3.5.1.3.1.5.3.7 0 0 .1 0 .1.1s.2.3.2.5c.2.4.2.8.5 1l.1.2c.1.1.2.1.2.2v.2c.1.1.1.2.2.6 0 .1.1.2.1.2v.2c.1.1.1.3.2.6.1.5.4 1.3.6 1.9 0 .1 0 .4.1.4.2.1 0 .1.1.4 0 .2.1.3.1.4v.8c.1.7.2 1.3.2 1.8s-.1 1-.2 1.5v.2H88v.2h-.1v.2s-.1.1-.2.1v.3s-.1.1-.2.1v.3s-.1 0-.1.1-.1.4-.2.5l-.1.1v.3c0 .1-.2.1-.2.2v.3c-.1.1-.2.3-.3.4-.1.2-.2.3-.3.5-.1.1-.2.2-.3.4-.2.3-.3.6-.6.8-.1.1-.3.2-.4.3-.1.1-.2.3-.3.4h-.2c-.1.1 0 .1-.1.2-.2.1-.4.2-.5.3l-.6.3s0 .2-.1.2H83s0 .2-.1.2c-.1.1-.2.1-.3.1l-.1.1c-.4.2-1 .3-1.5.4-.1 0-.4 0-.4.1-.1.1-.8.4-1.1.5-.1 0-.3 0-.5.1-1 .4-3.3.5-4.5.6-.4 0-1 .3-1.5.2h-.8c-.5 0-1.1.1-1.6.1 0 0 0-.1-.1-.1s-.3.1-.5.1h-1.7c-.2 0-.9-.1-1.2-.1h-.3c-.6-.1-1.3 0-2.2.2-.2 0-.4 0-.7.1-.2 0-.4.1-.6.2h-1.7c-.1 0-.1-.1-.2-.1-.6 0-1.5.1-2 0-.2 0-.6.1-.9.1-.9.1-2 .1-3 .2h-1c-.1-.1-.4.1-.5 0-.1-.1-.3-.1-.4-.1-.7 0-1.5.1-2 0h-3.1c-.3 0-.6 0-1 .1s-.6.2-1.2.2h-2.1c-.1 0-.1-.1-.3 0h-1.8c-.2 0-.4.1-.7.1-.1 0-.1-.1-.2-.1h-1.4s0-.1-.1-.1c-.4 0-1.1.1-1.5 0H38c-.1-.1-.1-.1-.3 0h-.2v-.1h-1.3c-.6-.1-1.5-.1-2.3-.1 0 0 0-.1-.1-.1h-.3s0-.1-.1-.1h-.6s0-.1-.1-.1h-1s0-.1-.1-.1c-.7.1-1.3-.1-2-.2-.3 0-.5 0-.7-.1h-.2c-.1-.1-.3-.1-.5-.1-.1 0-.2-.1-.4-.1-.5-.1-1-.3-1.6-.4-.1 0-.3-.1-.4-.1h-.4l-.2-.1c-.1 0-.2.1-.3 0 0 0 0-.1-.1-.1h-.3c-.1 0-.1-.1-.2-.1h-.2v-.1h-.2v-.1h-.2v-.1h-.2c-.1-.1-.2-.1-.4-.2-.1 0 0-.1-.1-.1s-.2-.1-.3-.1c-.1 0-.1 0-.2-.1-.1 0-.2-.2-.3-.2H22c-.1-.1-.1-.1-.2-.1-.1-.1-.2-.2-.3-.2h-.3s-.1-.1-.1-.2h-.2c-.1-.1-.1-.1-.2-.1s-.4-.4-.6-.3c-.2 0-.1-.1-.3-.3-.1-.1-.2-.1-.3-.1-.5-.5-.5-.7-.6-.7-.1-.1-.2-.1-.3-.1v-.2c-.1 0-.3-.1-.3-.2 0-.2-.7-.6-.9-.7v-.2c-.2-.1-.5-.3-.7-.5-.3-.3-.6-.7-.8-1-.2-.3-.4-.5-.5-.8v-.2c-.3-.2-.6-1.5-.7-2-.1-.5-.2-.9-.2-1.3s-.2-.5-.3-.8c-.2-.7-.3-1.6-.4-2.3 0-.2-.1-.4-.1-.6 0-.1.1-.2 0-.3 0 0-.1 0-.1-.1v-.6c0-.2-.1-.4-.1-.6 0 0 .1 0 .1-.1v-.6s.1 0 .1-.1v-.4c0-.1.1-.1.1-.1 0-.1-.1-.3-.1-.4 0 0 .1 0 .1-.1v-.1l.1-.1c0-.3 0-.6.1-.8v-.3h.1c0-.1.1-.3.1-.4 0-.1.1-.1.1-.2v-.2c.1-.1 0-.1.1-.2v-.3h.1c0-.1.1-.3.1-.4 0-.1.1-.1.1-.2v-.2h.1c.1-.1.1-.3.1-.4 0-.1.1-.1.1-.2v-.2s.2-.3.2-.4c0-.1.1-.2.1-.3 0-.1 0-.1.1-.2 0-.1.1-.1.1-.2s0-.1.1-.2.1-.3.1-.4c0-.1.1-.1.1-.2v-.2h.1v-.3s.1-.1.2-.1v-.3s.1-.1.2-.1c.1-.1.1-.2.1-.4 0-.1.1-.1.1-.2s0-.1.1-.2c0-.1.1-.1.1-.2.1-.1.1-.2.2-.4 0-.1.3-.3.3-.5 0-.1.1-.2.1-.3.1-.1.2-.3.4-.5v-.3h.2c.2-.3.5-.7.7-1 .2-.2.3-.4.5-.7.3-.5.6-.9 1-1.2.3-.3.7-.5 1.1-.7.1-.1.3-.1.4-.2.1 0 .1-.2.1-.2h.2c0-.1.2-.2.4-.3.1 0 .1-.2.1-.2h.2c0-.1.1-.1.2-.1l.2-.1c.1-.2 1-.5 1.4-.6.3-.1.4-.2.7-.3.2-.1.5-.2.7-.3 1.3-.5 2.5-.9 3.9-.9.4 0 .9-.1 1.2.1.1 0 .4.2.5.2h.6c.1 0 .3.1.4.1.7.2.9-.4 1.2-.9.3-.4.6-.7.8-1 .3-.4.5-.7.8-1 .1-.2.3-.3.4-.5.1-.2.2-.3.4-.5.1-.1.2-.1.3-.2.1-.1.1-.2.1-.3h.2c.1-.1.1-.1.1-.2 0 0 0-.2.1-.2h.2c.1-.1.1-.2.2-.3.1 0 .1-.1.2-.1.1-.1.4-.3.5-.5.1-.1.1-.2.2-.3 0 0 .1-.1.2-.1.1-.1.4-.3.5-.4.1-.1.4-.3.5-.4.1-.1.2-.1.2-.2l.2-.2c.1-.1.1-.1.2-.1l.2-.1c.1-.1.4-.2.6-.3h.2v-.1h.2v-.1h.2c.7.2 1.5.1 1.9-.4zM70 46.1c0-.3-.1-.4 0-.5v-.3c0-.1.1-.1.1-.1v-.5c0-.1.1-.2 0-.3 0-.2.1-.2.1-.4 0-.1.1-.1.1-.1v-.3c0-.1.1-.1.1-.2 0-.6-.1-.9-.2-1.4-.1-.4-.1-1-.2-1.1 0 0 0-.4-.1-.4-.2-.8-.5-1.5-.8-2-.1-.3-.3-.7-.4-.8v-.2c-.2-.4-.7-1.1-.9-1.2v-.2c-.1-.1-.4-.2-.5-.3v-.2c-.2-.2-.4-.2-.6-.3-.1-.1-.1-.2-.2-.3l-.6-.3c-.3-.2-.7-.6-1-.8h-.2s-.1-.1-.1-.2c-.1-.1-.2-.1-.3-.2-.7-.5-1.7-.9-2.5-1.3l-.4-.2h-.3c-.2-.1-.5-.2-.6-.3-.2-.1-.5-.2-.6-.3-.2-.1-.5-.2-.6-.3-.1-.1-.4-.1-.4-.1-.1 0-.1-.1-.1-.1-.3-.1-.8 0-1-.1h-.5c-.1-.1-.4.1-.5 0h-.3c-.1 0-.1-.1-.1-.1h-1.5c-.2 0-.2.1-.3.1-.5.1-1 .1-1.3.2-.1 0-.1.1-.1.1-.4.1-.9.2-1.2.3-.1 0-.1.1-.1.1-.3.1-.5 0-.8.1-.2 0-.4.2-.6.2-.2.1-.5.1-.7.2-.2.1-.5.1-.7.2v.1h-.2c-.2.1-.5.3-.6.3-.1 0 0 .1-.1.1-.2.1-.3.1-.5.2l-.1.2c-.1.1-.3.1-.4.1v.1l-.2.1c-.2.1-.5.2-.5.3h-.2c-.3.1-.4.1-.6.3-.1.1-.3.1-.4.2-.9.5-1.8 1.1-2.5 1.6-.1.1-.2.3-.4.3s-.2.3-.3.3c-.1 0-.3.2-.3.3h-.2v.1h-.2s0 .1-.1.2-.2.1-.2.1l-.6.6c-.1.1-.2.3-.3.3-.1 0-.3.3-.4.4-.1 0-.2.2-.2.2-.1 0 0 .1-.1.1-.2.2-.3.2-.5.4l-.3.3c-.1.1-.3.1-.4.2 0 0 0 .1-.1.2s-.2 0-.2.1l-.1.2c0 .2-.2.2-.2.3v.2c0 .1-.2.2-.2.3v.3c0 .1 0 0-.1.1l-.3.6c-.1.2-.3.4-.5.5-.5.3-1.5.5-2.2.5-.4 0-.7-.1-1.1-.2-.4-.1-.8-.1-1.2-.2-.6-.1-1.2-.2-1.7-.3h-.3c-.1 0-.2-.1-.3 0-.1 0-.1.1-.2.1-.2.1-.3.1-.4.1-.2.1-.2.1-.4.1-.3.1-.6.4-.8.4-.1 0-.1 0-.2.1l-.2.1c-.1 0-.2.1-.2.1-.1 0-.2.1-.2.1H27l-.1.2c-.1.1-.2.1-.2.1-.2.1-.4.2-.5.2l-.1.2c-.1.1-.2.1-.2.1-.1.1-.2.3-.3.4-.1.1-.2.1-.2.1s-.1.1-.1.2c-.2.1-.2.2-.3.3h-.2c-.1.1-.2.3-.3.4-.1.1-.2.1-.2.1s0 .1-.1.2H24c-.1 0-.1.1-.1.2-.2.1-.3.2-.4.3-.2.2-.3.4-.5.7-.1.2-.3.3-.4.4-.1.1 0 .2 0 .3 0 .1-.2.1-.2.2-.1.2-.2.3-.3.4v.2l-.3.3v.2c-.1.2-.3.3-.4.5v.3c0 .1-.2.1-.2.2v.2s-.1.1-.2.1v.2s-.1.1-.2.1v.3l-.1.1c-.1.1-.1.2-.1.3 0 .1-.1.2-.1.3-.1.3-.1.4-.3.5v.2s-.1.1-.2.1v.2s-.1.1-.2.1v.2c0 .1-.1.1-.1.2v.3l-.1.1c-.1.1-.1.3-.1.4 0 .1-.1.3-.1.4 0 0-.1.1-.1.2s-.1.1-.1.1v.3s-.1 0-.1.1v.1c0 .1-.1.1-.1.1v.5c0 .2-.1.3-.1.5v.6c0 .9.2 2.1.3 3.1.1.8.2 1.6.5 2.2.1.2.2.3.2.4v.1c0 .1.1 0 .1.1.1.2.2.4.2.5 0 .1.1 0 .1.1l.2.4s.2 0 .2.1c.1.1.1.2.1.3 0 .1.2 0 .2.1s.1 0 .1.1c.3.3.6.5.9.8.1.1.3.2.5.4s.3.4.5.4c.1.1.2 0 .3 0 0 0 .1.1.1.2h.2s.1.1.1.2h.2s.1.1.1.2h.2c.1 0 .1.1.2.1l.2.1c.1 0 .2.1.3.1.1 0 .2.1.3.1.1 0 .3.1.4.1l.1.1c.1 0 .1 0 .2.1.2.1.3.2.5.2.1 0 0 .1.1.1h.3l.1.1c.2.1.5.1.6.2.1 0 .1 0 .2.1l1.2.3c.2 0 .6.1.7.2h.4c.1 0 .1.1.1.1h.5c.1 0 .1.1.1.1h.6c.1 0 .1.1.1.1.3 0 .7.1.9 0 .1 0 .1.1.1.1.8.1 1.9 0 2.5.2h.4c.1 0 .1.1.1.1h.3c.4 0 1 .1 1.2.1h.3c.4 0 1.1.1 1.4.1h.8c.3 0 .9.1 1.1.1h.3c.7-.1 1.3-.1 1.9-.1.5 0 1 .1 1.5.1 1.3-.1 2.5-.3 3.8-.3h3.6c1.2.1 2.3.1 3.5 0 .7-.1 1.3-.1 1.9-.2 1.8-.1 3.7-.1 5.6-.3 1-.1 2-.2 2.9-.2h.8c.1 0 .1.1.1.1.5 0 1.7-.3 1.9-.1H72c.6 0 1.2.1 1.7.1.8 0 2-.2 2.7-.4.1 0 .1-.1.1-.1.5-.1.9-.1 1.3-.3.4-.1.8-.3 1.1-.5.1 0 .2-.1.2-.1l.1-.2c.2-.1.5-.2.6-.2 0 0 .1-.1.1-.2.2-.2.3-.4.4-.6.1-.1.2-.2.3-.4 0-.1.1-.1.1-.2V65c.1-.2.2-.2.3-.4.3-.6.5-1.3.6-2 0-.6 0-1.1-.1-1.7-.1-.8-.4-1.5-.6-2.2-.2-.6-.3-1.3-.5-1.7 0-.1-.1-.1-.1-.1-.1-.3-.2-.5-.3-.7-.1-.3-.3-.7-.4-1-.2-.5-.4-.8-.7-1.2-.1-.2-.5-.5-.5-.7 0-.1-.3-.5-.4-.6l-.3-.3-.3-.3c-.1-.1-.3-.1-.5-.2-.1 0-.1-.1-.2-.1h-.3c-.1 0-.1-.1-.2-.1h-.3c-.2-.1-.3-.1-.4-.2h-.2c-.1 0-.1-.1-.2-.1h-.3c-.1 0-.1-.1-.2-.1h-.2s-.1-.1-.1-.2H74c-.1 0-.1-.1-.2-.1-.2-.1-.4-.1-.5-.2-.2-.1-.4 0-.5-.1 0 0-.1-.1-.2-.1s-.1-.1-.2-.1c-.3-.1-.7-.2-1-.4-.1-.1-.2-.2-.4-.3h-.3s-.1-.1-.1-.2-.1 0-.1-.1c-.1-.1-.1-.3-.2-.5 0 0-.1 0-.1-.1s-.1-.2-.1-.2c-.3-.4-.2-.8-.1-1.3.1-1 0-1.2 0-1.3z"/></svg>