<svg xmlns="http://www.w3.org/2000/svg" viewBox="0 0 100 100" height="100" width="100"><style type="text/css">.st0{fill-rule:evenodd;clip-rule:evenodd;}</style><path class="st0" d="M76.085 41.93c-.25-.53-.25-1.032-.704-1.474-.22-.218-.342-.375-.52-.56-.5-.54-.9-1.11-1.26-1.744-.36-.625-1.012-1.085-1.303-1.743-.354-.81-1.03-1.44-1.478-2.118-.31-.466-.625-.965-1.018-1.365-.3-.304-.747-.608-.917-1.01-.1-.24-.157-.527-.24-.73-.075-.188-.415-.546-.4-.74.05-.696-1.344-1.874-1.687-2.44-.13-.213-.194-.525-.293-.682-.144-.226-.684-.608-.914-.795-.56-.452-1.056-1.124-1.57-1.5-1.356-1-3.42-.662-5.102-.77-.365-.024-.692.042-1.087.032-.35-.01-1.62-.27-1.853-.034-.172.172-1.084.06-1.302.037-.428-.04-1.034.063-1.392-.024-.5-.12-1.18.03-1.7.016-.623-.02-1.247-.033-1.87-.022-1.26.022-2.53.148-3.786.04-2.352-.2-4.796-.02-7.22.035-1.273.03-2.423.002-3.663.243-.23.045-.63.17-.78.253-.187.105-.765.673-.804.886-.037.2-.338.32-.45.438-.22.23-.398.67-.585.935-.27.38-.6.853-.966 1.146-.12.097-.385.396-.467.535-.66 1.11-1.32 2.315-2.157 3.237-.572.63-1.1 1.42-1.625 2.176-.29.417-.856 1-.95 1.51-.07.39-.733.72-.736 1.09-.006.84-1.51 1.38-1.654 2.17-.014.087-.432.647-.487.73-.236.38-.532.754-.744 1.168-.217.42-.57 1.016-.414 1.508.11.34.333.7.387 1.038.074.47.56.965.834 1.33.47.63.983 1.23 1.434 1.878 1.39 1.992 2.973 3.983 4.28 6.082.88 1.395 1.597 2.966 2.623 4.29.78 1.005 1.563 2.007 2.35 3.005.725.92 1.462 2.19 2.34 2.93.47.397.714.968 1.107 1.428.396.463.773.823 1.12 1.337.157.23.367.262.53.456.17.195.257.442.415.645.425.55.835 1.11 1.27 1.65.892 1.097 1.715 2.248 2.656 3.3.647.726 1.3 1.56 1.776 2.42.21.38.736.878.825 1.276.07.317.384.622.62.832.18.165.524.372.61.606.15.423.944.558 1.297.74.654.335 1.32-.17 1.957-.073.34.053 1.274-.177 1.607-.365.94-.528 1.558-1.47 2.468-2.03.5-.304.745-.625 1.113-1.062.167-.2.448-.794.7-.85.34-.076.503-1.018.83-1.08.224-.044.44-.87.566-1.068.245-.383.566-.983.92-1.272.42-.34.582-1.028.88-1.472.13-.196.33-.365.462-.534.63-.81 1.1-1.83 1.805-2.543.26-.26.45-.818.717-.997.24-.16.373-.71.59-.77.31-.09.9-1.4 1.12-1.732.25-.39.505-.776.774-1.154.166-.23.724-.694.774-.977.07-.4.654-1.08.867-1.43.292-.48.663-1.046.89-1.515.264-.545.46-.97.835-1.45.42-.536 1.003-1.107 1.253-1.75.19-.48.572-1 .88-1.473.204-.318.743-.83.74-1.194 0-.21.574-.866.735-1.093.17-.24.325-.462.488-.73.015-.022.3-.423.304-.424.17-.067.223-.53.33-.682.16-.23.43-.457.67-.608.01-.066.02-.13.024-.196.106-.052.212-.104.317-.16.27-.262.578-.562.82-.85.783-.934 1.776-2.92 1.2-4.14-.117-.243.313.665 0 0zm-18.99-3.193c.06-.342.51-.73.61-.913.28-.5.677-.845 1.023-1.33.108-.152.507-.38.5-.56-.014-.273.577-.203.56-.52-.002-.038.45-.53.42-.538.065.016 1.105-1.377 1.23-1.528.38-.46.768-.924 1.252-.316.945 1.188 1.557 2.452 2.37 3.742.333.528.698.965 1.094 1.503.478.65.926 1.28 1.42 1.907.737.94-1.05.754-1.524.735-.77-.04-1.544.12-2.324.06-.73-.055-1.43.12-2.177.05-.98-.09-1.97 0-2.958-.06-.616-.036-1.926.04-2.31-.56.062-.69.702-1.096.806-1.68zM30.4 39.32c-.038-.99.872-1.7 1.4-2.462.22-.318.998-1.84 1.384-1.864.08-.005.51-.574.508-.605-.005-.15.337-.41.464-.6.27-.41.34-.867.605-1.246.22-.31.51-.59.77-.867.52-.548 1.21.563 1.47.85.088.093.42.31.45.354.08.13.306.58.416.647.376.23.613.91.95 1.11.3.188.662.507.912.84.178.24.408.33.596.54.05.108.103.213.158.317.066.005.13.013.196.025.156.25.79.977 1.058 1.024.35.064.715.717.974.914.33.26.606.44.9.71.246.23.668.26.694.78-2.396.184-4.902-.077-7.305-.13-1.07-.03-2.133-.085-3.205-.06-.855.016-2.704.36-3.382-.28-.014-.393.436.41 0 0zm18.77 29.982c-.43.014-.733-.61-.91-.918-.142-.25-.323-.255-.5-.448-.138-.153-.212-.383-.355-.548-.698-.81-1.284-1.675-1.82-2.597-.468-.79-1.37-1.39-1.94-2.152-.71-.947-1.568-1.765-2.303-2.632-.407-.484-.736-1.027-1.144-1.51-.353-.42-.786-.76-1.045-1.255-.215-.41-.427-.83-.8-1.113-.51-.387-.746-1.036-1.185-1.515-.347-.38-.49-.895-.824-1.273-.298-.336-.247-.83-.54-1.154-.517-.575-.74-1.46-1.206-2.115-.25-.35-.608-.52-.85-.89-.325-.49-.593-1.016-.977-1.464-.4-.466-.67-.882-.98-1.385-.17-.29-.99-.85-.84-1.23.246-.634 2.187-.414 2.692-.33 1.358.22 2.78.184 4.158.24.46.02.883-.127 1.35-.01.696.18 1.32.21 2.035.18 1.407-.06 2.764.248 4.178.16.445-.027 1.26-.097 1.33.46.04.32 0 1.107.24 1.356.474.5.245 1.783.255 2.422.016.957.367 1.888.4 2.867.013.382.12.625.08 1.032-.057.547.245 1.154.132 1.66-.055.243.125 2.132.084 2.132.07 0 .377 1.28.446 1.54.38 1.41.836 2.912.794 4.393-.01.24.05.565.124.792.153.462 0 1.037-.015 1.51-.048 1.254.51 2.587-.06 3.8-.316.01.287-.608 0 0zm2.947-34.26c-.274.38-.805 1.676-1.408 1.54-.3-.065-.57-.35-.848-.48-.062-.03-.62-.503-.62-.49-.01-.096-1.036-.76-1.16-.784-.067-.012-.577-.426-.586-.473-.014-.065-.77-.7-.853-.696-.186.002-.537-.58-.7-.69-.19-.135-.546-.315-.743-.39-.62-.24-1.165-.84-1.66-1.337-.313-.32-.95-.935-.642-1.466.374-.65 1.276-.29 1.84-.11 1.65.52 3.36-.235 5.03-.21.7.01 1.28.01 1.956.104.47.065.913-.345 1.336-.243.3.074.57-.06.965-.026.363.03 2.83-.05 2.586.514-.28.648-1.103 1.226-1.536 1.793-.91 1.19-2.07 2.185-2.96 3.437-.126.174.034-.05 0 0zm15.02 12.683c-.484.582-.816 1.312-1.232 1.923-.28.41-.6.853-.89 1.283-.064.1-.24.24-.306.35-.05.13-.1.257-.15.38-.07.026-.14.05-.21.074-.676 1.1-1.367 2.34-2.046 3.528-.38.664-.85 1.35-1.29 1.97-.488.684-.835 1.398-1.29 2.13-.336.534-.77 1.034-1.184 1.534-.403.49-.653 1.043-1.086 1.545-.177.203-.757 1.366-1.028 1.38-.336.02-.467.927-1.01.64-.005-.828-.068-1.654-.18-2.47-.187-1.35-.575-2.665-.708-4.018-.07-.68-.415-1.31-.59-1.964-.135-.49-.39-1.47-.27-1.962.015-.063-.186-.61-.178-.61-.114-.007.01-1.548.017-1.755.032-.947-.308-1.83-.307-2.74 0-.702-.12-2.845.6-3.067.62-.192 1.245.09 1.87.12.334.015.66-.074.997-.07.366 0 .7.173 1.07.133.83-.088 1.694-.005 2.523.026 1.11.04 2.254-.123 3.354-.036 1.003.08 2.016-.003 3.023.046.43.02.888-.13 1.266.16-.074.56-.43 1.062-.78 1.484-.09.11.337-.407 0 0z"/></svg>