<svg width="526" height="174" viewBox="0 0 526 174" xmlns="http://www.w3.org/2000/svg"><title>Pattern</title><path d="M338.532 113.373c-27.615 16.076-62.385 5.746-74.264-12.3-11.879-18.048 25.733-35.706 47.192-34.38 21.458 1.326 54.687 30.604 27.072 46.68zm59.864-32.51c-8.64 1.88-14.666-1.974-23.973-6.597-9.307-4.623-3.584-29.601 7.372-33.094 10.957-3.492 32.974.773 35.427 13.415 2.453 12.643-10.185 24.396-18.826 26.276zm-20.616 223.72c-17.906 10.123-15.678-27.031-24.547-42.34-8.87-15.309-28.78-11.22-31.656-29.365-2.877-18.145 17.043-29.346 31.656-31.57 14.613-2.225 29.958 10.22 32.723 31.57 2.765 21.35 9.73 61.582-8.176 71.705zm24.752-138.11c-5.076 16.926-25.838 12.073-37.752 10.58-11.914-1.492-26.639 12.524-37.75 18.772-11.112 6.248-23.612 9.545-40.229 0s-15.466-28.783-2.191-36.74c13.275-7.957 31.373 11.027 47.488 2.802 16.115-8.224 13.752-28.619 36.065-31.355 22.312-2.736 39.445 19.016 34.369 35.941zm96.664 60.112c-14.242-8.817-4.457-41.961-25.64-54.82-21.184-12.86-45.391-16.106-53.106-30.95-7.715-14.843-3.211-57.847 37.383-54.394 40.593 3.453 67.484 64.218 68.714 93.906 1.23 29.687-13.109 55.074-27.351 46.258zm-72.088-35.756c30.203-18.906 31.139 45.09 34.547 58.191 3.408 13.102 39.994 25.375 24.344 36.59-15.65 11.215-55.278-3.76-72.51-25.795-17.233-22.035-16.584-50.08 13.619-68.986zm-239.018 2.103c27.615-16.076 62.384-5.746 74.263 12.301 11.88 18.047-25.732 35.705-47.191 34.379-21.46-1.326-54.688-30.604-27.072-46.68zm-59.865 32.51c8.64-1.88 14.666 1.974 23.973 6.597 9.307 4.623 3.584 29.602-7.372 33.094-10.956 3.492-32.973-.773-35.426-13.415-2.453-12.642 10.184-24.395 18.825-26.276zm20.617-223.72c17.906-10.123 15.677 27.032 24.546 42.34 8.87 15.309 28.78 11.22 31.657 29.365 2.877 18.145-17.043 29.346-31.657 31.57-14.613 2.225-29.957-10.22-32.722-31.57-2.765-21.35-9.73-61.582 8.176-71.705zm-24.752 138.11c5.076-16.926 25.837-12.073 37.752-10.58 11.914 1.492 26.638-12.524 37.75-18.772 11.11-6.248 23.61-9.545 40.228 0 16.617 9.545 15.467 28.783 2.191 36.74-13.275 7.957-31.373-11.027-47.488-2.802-16.115 8.224-13.752 28.619-36.064 31.355-22.313 2.737-39.446-19.015-34.37-35.941zM27.425 79.72c14.243 8.817 4.458 41.961 25.641 54.82 21.184 12.86 45.39 16.106 53.106 30.95 7.714 14.844 3.21 57.848-37.383 54.394-40.594-3.453-67.485-64.218-68.715-93.906-1.23-29.687 13.11-55.074 27.351-46.258zm72.088 35.756c-30.203 18.907-31.138-45.09-34.546-58.191-3.409-13.102-39.995-25.375-24.344-36.59 15.65-11.215 55.277 3.76 72.51 25.795 17.232 22.035 16.584 50.08-13.62 68.986z" fill="#0CB" fill-rule="evenodd" opacity=".1"/></svg>