<?xml version="1.0" encoding="UTF-8"?>
<svg width="394px" height="207px" viewBox="0 0 394 207" version="1.1" xmlns="http://www.w3.org/2000/svg" xmlns:xlink="http://www.w3.org/1999/xlink">
    <!-- Generator: Sketch 46 (44423) - http://www.bohemiancoding.com/sketch -->
    <title>Galaxy</title>
    <desc>Created with Sketch.</desc>
    <defs></defs>
    <g id="Page-1" stroke="none" stroke-width="1" fill="none" fill-rule="evenodd">
        <g id="Homepage-Desktop-HD-Sliders-1" transform="translate(-285.000000, -2040.000000)">
            <g id="Block-3" transform="translate(0.000000, 1720.000000)">
                <g id="BG">
                    <g id="Galaxy" transform="translate(483.000000, 423.500000) rotate(-345.000000) translate(-483.000000, -423.500000) translate(283.000000, 304.000000)">
                        <ellipse id="Oval" stroke="#007CFF" stroke-width="2" cx="204.081633" cy="117.367347" rx="74.829932" ry="46.2585034"></ellipse>
                        <path d="M0,120.088435 C0,154.555362 22.2276527,185.80353 58.2803476,208.62332" id="Oval-Copy-10" stroke="#007CFF" stroke-width="2" stroke-linecap="round" stroke-linejoin="round"></path>
                        <path d="M399.194303,31.0638242 C362.683709,53.9252477 340.136054,85.3742926 340.136054,120.088435" id="Oval-Copy-11" stroke="#007CFF" stroke-width="2" stroke-linecap="round" stroke-linejoin="round" transform="translate(369.665179, 75.576130) scale(-1, 1) translate(-369.665179, -75.576130) "></path>
                        <path d="M179.591837,22.6733365 C175.43753,22.6733365 171.32671,22.7887754 167.267268,23.0147615" id="Oval-Copy-8" stroke="#007CFF" stroke-width="2" stroke-linecap="round" stroke-linejoin="round"></path>
                        <path d="M208.22617,214.992996 C212.239282,215.213779 216.302485,215.326531 220.408163,215.326531 L220.408163,215.326531" id="Oval-Copy-7" stroke="#007CFF" stroke-width="2" stroke-linecap="round" stroke-linejoin="round"></path>
                        <path d="M99.6071052,92.1270961 C89.8612888,103.753484 84.3537415,116.964366 84.3537415,130.972789 C84.3537415,168.44838 123.770119,200.216133 178.301294,211.20907" id="Oval-Copy-5" stroke="#007CFF" stroke-width="2" stroke-linecap="round" stroke-linejoin="round"></path>
                        <path d="M194.8452,22.739341 C185.099384,34.3657293 179.591837,47.5766111 179.591837,61.585034 C179.591837,99.0606244 219.008215,130.828378 273.539389,141.821315" id="Oval-Copy-6" stroke="#007CFF" stroke-width="2" stroke-linecap="round" stroke-linejoin="round" transform="translate(247.619048, 84.339058) scale(-1, -1) translate(-247.619048, -84.339058) "></path>
                        <ellipse id="Oval-Copy-3" stroke="#007CFF" stroke-width="2" cx="204" cy="117" rx="41" ry="23"></ellipse>
                        <ellipse id="Oval-Copy-9" stroke="#007CFF" stroke-width="2" fill-opacity="0.1" fill="#007CFF" cx="204" cy="117" rx="18" ry="7"></ellipse>
                        <path d="M74.4255998,217.644048 C83.9453115,222.456506 94.1841029,226.730719 105.02479,230.393098 M121.469042,235.351101 C125.454685,236.414064 129.506782,237.397883 133.620333,238.299417 M317.263853,19.1742625 C310.176107,15.9018824 302.731042,12.9169031 294.972228,10.2466851 M280.374713,5.7013753 C277.04455,4.76936195 273.666183,3.89301616 270.24261,3.0742206 M261.362289,1.10107211 C260.055988,0.832624094 258.743742,0.572423219 257.425708,0.320567474" id="Oval-Copy-13" stroke="#007CFF" stroke-width="2" stroke-linecap="round" stroke-linejoin="round"></path>
                        <path d="M278.911565,117.367347 C278.911565,79.7969558 229.266948,49.3401361 168.027211,49.3401361 C106.787473,49.3401361 57.1428571,79.7969558 57.1428571,117.367347" id="Oval-Copy" stroke="#007CFF" stroke-width="2" stroke-linecap="round" stroke-linejoin="round"></path>
                        <path d="M351.020408,185.394558 C351.020408,147.824167 301.375792,117.367347 240.136054,117.367347 C178.896317,117.367347 129.251701,147.824167 129.251701,185.394558" id="Oval-Copy-2" stroke="#007CFF" stroke-width="2" stroke-linecap="round" stroke-linejoin="round" transform="translate(240.136054, 151.380952) scale(1, -1) translate(-240.136054, -151.380952) "></path>
                        <circle id="Oval-2" fill="#007CFF" cx="242.176871" cy="213.965986" r="1.36054422"></circle>
                        <circle id="Oval-2-Copy" fill="#007CFF" cx="198.639456" cy="23.4897959" r="1.36054422"></circle>
                    </g>
                </g>
            </g>
        </g>
    </g>
</svg>