<?xml version="1.0" encoding="UTF-8"?>
<svg width="668px" height="700px" viewBox="0 0 668 700" version="1.1" xmlns="http://www.w3.org/2000/svg" xmlns:xlink="http://www.w3.org/1999/xlink">
    <!-- Generator: Sketch 46 (44423) - http://www.bohemiancoding.com/sketch -->
    <title>Graphic</title>
    <desc>Created with Sketch.</desc>
    <defs>
        <path d="M5,10 C7.7614,10 10,7.7614 10,5 C10,2.2386 7.7614,0 5,0 C2.2386,0 0,2.2386 0,5 C0,7.7614 2.2386,10 5,10 Z" id="path-1"></path>
        <path d="M5,10 C7.7614,10 10,7.7614 10,5 C10,2.2386 7.7614,0 5,0 C2.2386,0 0,2.2386 0,5 C0,7.7614 2.2386,10 5,10 Z" id="path-3"></path>
    </defs>
    <g id="Page-1" stroke="none" stroke-width="1" fill="none" fill-rule="evenodd">
        <g id="Homepage-Desktop-HD-Sliders-1-Copy" transform="translate(-181.000000, -160.000000)">
            <g id="Block-1">
                <g id="BG">
                    <g id="Graphic" transform="translate(181.000000, 159.000000)">
                        <g transform="translate(0.000000, 2.000000)">
                            <path d="M591,329.977526 C618.615234,313.901354 653.384766,324.231432 665.263672,342.278307 C677.142578,360.325182 639.53125,377.983385 618.072266,376.657213 C596.613281,375.331041 563.384766,346.053698 591,329.977526 Z M531.135361,362.487139 C539.775969,360.606484 545.80172,364.461041 555.108802,369.084154 C564.415884,373.707267 558.692451,398.685818 547.736361,402.178183 C536.78027,405.670547 514.763063,401.405701 512.310163,388.763303 C509.857263,376.120905 522.494753,364.367794 531.135361,362.487139 Z M551.751953,138.767578 C569.658203,128.644531 567.429688,165.798828 576.298828,181.107422 C585.167969,196.416016 605.078125,192.328125 607.955078,210.472656 C610.832031,228.617187 590.912109,239.818359 576.298828,242.042969 C561.685547,244.267578 546.341165,231.822266 543.576172,210.472656 C540.811179,189.123047 533.845703,148.890625 551.751953,138.767578 Z M527,276.877019 C532.076172,259.951172 552.837891,264.804688 564.751953,266.296875 C576.666016,267.789063 591.390625,253.773503 602.501953,247.525456 C613.613281,241.277409 626.113281,237.980534 642.730469,247.525456 C659.347656,257.070378 658.197266,276.308594 644.921875,284.265625 C631.646484,292.222656 613.548828,273.238281 597.433594,281.462956 C581.318359,289.687631 583.681641,310.082097 561.369141,312.818425 C539.056641,315.554753 521.923828,293.802866 527,276.877019 Z M430.335938,216.765625 C444.578125,225.582031 434.792969,258.726563 455.976563,271.585938 C477.160156,284.445313 501.367188,287.691406 509.082031,302.535156 C516.796875,317.378906 512.292969,360.382812 471.699219,356.929688 C431.105469,353.476562 404.214844,292.710938 402.984375,263.023438 C401.753906,233.335938 416.09375,207.949219 430.335938,216.765625 Z M502.423828,252.521484 C472.220703,271.427734 471.285156,207.431641 467.876953,194.330078 C464.46875,181.228516 427.882812,168.955078 443.533203,157.740234 C459.183594,146.525391 498.810547,161.5 516.042969,183.535156 C533.275391,205.570312 532.626953,233.615234 502.423828,252.521484 Z" id="Path-52" fill="#00CCBB" opacity="0.100000001"></path>
                            <path d="M188.557777,272.581887 C216.173011,256.505715 250.942542,266.835793 262.821449,284.882668 C274.700355,302.929543 237.089027,320.587747 215.630042,319.261575 C194.171058,317.935403 160.942542,288.658059 188.557777,272.581887 Z M128.693138,305.091501 C137.333746,303.210846 143.359497,307.065403 152.666579,311.688516 C161.973661,316.311629 156.250228,341.29018 145.294137,344.782544 C134.338047,348.274908 112.32084,344.010062 109.86794,331.367664 C107.41504,318.725267 120.05253,306.972155 128.693138,305.091501 Z M149.30973,81.3719395 C167.21598,71.2488926 164.987464,108.40319 173.856605,123.711783 C182.725746,139.020377 202.635902,134.932486 205.512855,153.077018 C208.389808,171.221549 188.469886,182.422721 173.856605,184.64733 C159.243324,186.87194 143.898942,174.426627 141.133949,153.077018 C138.368956,131.727408 131.40348,91.4949864 149.30973,81.3719395 Z M124.557777,219.48138 C129.633949,202.555533 150.395667,207.409049 162.30973,208.901236 C174.223792,210.393424 188.948402,196.377865 200.05973,190.129818 C211.171058,183.881771 223.671058,180.584896 240.288246,190.129818 C256.905433,199.67474 255.755042,218.912955 242.479652,226.869986 C229.204261,234.827018 211.106605,215.842643 194.991371,224.067318 C178.876136,232.291993 181.239417,252.686458 158.926917,255.422786 C136.614417,258.159115 119.481605,236.407227 124.557777,219.48138 Z M27.8937143,159.369986 C42.1359018,168.186393 32.3507456,201.330924 53.5343393,214.190299 C74.7179331,227.049674 98.9249643,230.295768 106.639808,245.139518 C114.354652,259.983268 109.850746,302.987174 69.2569956,299.534049 C28.6632456,296.080924 1.77262055,235.315299 0.542151805,205.627799 C-0.688316945,175.940299 13.6515268,150.55358 27.8937143,159.369986 Z M99.9816049,195.125846 C69.7784799,214.032096 68.8429331,150.036002 65.4347299,136.93444 C62.0265268,123.832877 25.4405893,111.55944 41.0909799,100.344596 C56.7413706,89.129752 96.3683237,104.104361 113.600746,126.139518 C130.833167,148.174674 130.18473,176.219596 99.9816049,195.125846 Z" id="Path-52" fill="#00CCBB" opacity="0.100000001" transform="translate(132.778888, 212.802181) scale(-1, -1) translate(-132.778888, -212.802181) "></path>
                            <g id="Person" transform="translate(83.000000, 0.000000)">
                                <ellipse id="Oval-2" fill="#FDE9E4" cx="258.967616" cy="140.353516" rx="11" ry="7"></ellipse>
                                <ellipse id="Oval-2-Copy" fill="#FDE9E4" cx="187" cy="138.182617" rx="11" ry="7"></ellipse>
                                <path d="M173.808594,113.207031 C173.181818,119.406701 172.290043,129.824828 173.808594,140.736328 C175.796474,155.020174 180.789143,170.130881 184.556641,177.542969 C191.202148,190.617188 207.978516,217.699219 225.513672,217.699219 C243.048828,217.699219 270.495117,195.800781 281.21582,179.756836 C288.606625,168.696212 293.98776,148.060644 296.617539,136.308721" id="Path" stroke="#007CFF" stroke-width="2" stroke-linecap="round" stroke-linejoin="round"></path>
                                <path d="M237.022461,100.273437 C237.022461,100.273437 251.948242,96.6552734 260.15918,97.7929687 C268.370117,98.9306641 272.895508,103.291016 272.895508,103.291016" id="Path-2" stroke="#007CFF" stroke-width="2" stroke-linecap="round" stroke-linejoin="round"></path>
                                <path d="M206.55957,99.6650391 C206.55957,99.6650391 195.515625,94.640625 183.416016,95.6484375 C178.761564,96.0361206 174.578125,100.5 174.578125,100.5" id="Path-3" stroke="#007CFF" stroke-width="2" stroke-linecap="round" stroke-linejoin="round"></path>
                                <path d="M206.80127,178.999512 C208.314294,180.227078 214.42627,183.772949 221.726562,183.737793 C229.026855,183.702637 235.048828,180.996523 237.500977,178.999512 C238.523265,178.706472 229.98291,179.744629 221.726562,179.765137 C213.293978,179.786082 206.484088,178.742172 206.80127,178.999512 Z" id="Path-4" stroke="#007CFF" stroke-width="2" stroke-linecap="round" stroke-linejoin="round"></path>
                                <path d="M215.381836,191.401367 C215.381836,191.401367 218.152344,192.33252 221.067871,192.33252 C223.983398,192.33252 226.753906,191.401367 226.753906,191.401367" id="Path-5" stroke="#007CFF" stroke-width="2" stroke-linecap="round" stroke-linejoin="round"></path>
                                <path d="M217.189118,126.743847 C216.697777,131.887181 215.721104,137.18115 214.6875,140.460937 C212.555664,147.225586 209.880859,152.34375 210.630371,155.625488 C211.379883,158.907227 217.792969,161.410156 217.792969,161.410156" id="Path-6" stroke="#007CFF" stroke-width="2" stroke-linecap="round" stroke-linejoin="round"></path>
                                <path d="M257.526367,36.8359375 C257.526367,36.8359375 221.77832,27.6650391 199.435547,60.1337891 C177.092773,92.6025391 169.648438,124.757453 167.121094,151.503906 C164.59375,178.25036 166.082031,202.327148 181.386719,213.874023" id="Path-7" stroke="#007CFF" stroke-width="2" stroke-linecap="round" stroke-linejoin="round"></path>
                                <path d="M252.633789,23.8847656 C226.384766,17.6591797 200.077148,38.8222656 183.299805,65.8134766 C166.522461,92.8046875 160.894531,118.15918 144.679688,126.246094" id="Path-8" stroke="#007CFF" stroke-width="2" stroke-linecap="round" stroke-linejoin="round"></path>
                                <path d="M190.379883,36.8193359 C168.709961,60.8378906 147.476563,87.1933594 130.119141,102.900391 C112.761719,118.607422 96.1679688,124.669922 96.1679688,124.669922" id="Path-9" stroke="#007CFF" stroke-width="2" stroke-linecap="round" stroke-linejoin="round"></path>
                                <path d="M153.49707,101.5625 C153.49707,101.5625 123.310547,129.362305 120.155273,157.450684 C117,185.539062 130.912109,206.753906 141.415039,213.338867" id="Path-10" stroke="#007CFF" stroke-width="2" stroke-linecap="round" stroke-linejoin="round"></path>
                                <path d="M135.519531,150.275391 C129.396484,178.923828 133.259766,214.3125 159.357422,232.638672" id="Path-11" stroke="#007CFF" stroke-width="2" stroke-linecap="round" stroke-linejoin="round"></path>
                                <path d="M271.6875,9.7109375 C255.857422,-4.18164063 225.5,-1.8203125 201.484375,12.0195312 C177.46875,25.859375 161.847042,47.6197098 140.154297,76.1992187 C118.461552,104.778728 109.585937,133.464844 109.585938,141.986328 C109.585938,150.507813 113.150391,158.316406 113.150391,158.316406" id="Path-12" stroke="#007CFF" stroke-width="2" stroke-linecap="round" stroke-linejoin="round"></path>
                                <path d="M278.875,39.7402344 C295.365234,57.5253906 310.785156,77.5488281 320.4375,89.4863281 C330.089844,101.423828 345.396484,124.386719 344.003906,140.736328" id="Path-13" stroke="#007CFF" stroke-width="2" stroke-linecap="round" stroke-linejoin="round"></path>
                                <path d="M292.511719,160.984375 C292.511719,160.984375 295.863281,172.316406 295.863281,191.951172 C295.863281,211.585938 286.22929,230.201172 271.681641,233.212891" id="Path-14" stroke="#007CFF" stroke-width="2" stroke-linecap="round" stroke-linejoin="round"></path>
                                <path d="M312.863281,188.951172 C312.863281,208.585938 303.22929,227.201172 288.681641,230.212891" id="Path-14-Copy" stroke="#007CFF" stroke-width="2" stroke-linecap="round" stroke-linejoin="round"></path>
                                <path d="M324.136719,141 C326.945312,168.347656 343.769531,188.179688 352.832031,200.472656" id="Path-15" stroke="#007CFF" stroke-width="2" stroke-linecap="round" stroke-linejoin="round"></path>
                                <path d="M324.371094,126.162109 C327.404297,151.742188 354.945312,156.404297 360.966797,178.355469" id="Path-16" stroke="#007CFF" stroke-width="2" stroke-linecap="round" stroke-linejoin="round"></path>
                                <path d="M275.470703,15.2636719 C288.888672,13.1269531 296.822266,20.9140625 306.873047,34.9433594 C316.923828,48.9726562 323.136719,82.9550781 323.136719,82.9550781" id="Path-17" stroke="#007CFF" stroke-width="2" stroke-linecap="round" stroke-linejoin="round"></path>
                                <path d="M271.314453,24.96875 C280.582031,27.8417969 292.126953,33.6542969 299.408203,48.59375" id="Path-18" stroke="#007CFF" stroke-width="2" stroke-linecap="round" stroke-linejoin="round"></path>
                                <path d="M294.088867,152.381836 C304.045898,153.483398 310.749023,136.579102 312.90918,127.667969 C315.069336,118.756836 318.652344,103.185547 310.749023,102.411133 C302.845703,101.636719 299.056641,118.891602 299.056641,118.891602" id="Path-19" stroke="#007CFF" stroke-width="2" stroke-linecap="round" stroke-linejoin="round"></path>
                                <path d="M217.682617,219.461914 C221.050781,227.317383 223.373047,238.395508 213.509766,251.286133" id="Path-20" stroke="#007CFF" stroke-width="2" stroke-linecap="round" stroke-linejoin="round"></path>
                                <path d="M280.992187,186.213867 C280.992187,186.213867 278.661133,193.762695 282.945312,212.542969 C287.229492,231.323242 301.925781,243.338867 301.925781,243.338867" id="Path-21" stroke="#007CFF" stroke-width="2" stroke-linecap="round" stroke-linejoin="round"></path>
                                <path d="M314.518555,132.976562 C311.487305,159.535156 331.800781,201.623047 315.813944,219.990234" id="Path-22" stroke="#007CFF" stroke-width="2" stroke-linecap="round" stroke-linejoin="round"></path>
                                <path d="M189.8125,244.246094 C177.816406,247.827148 158.394531,252.450195 147.396484,257.339844 C136.398438,262.229492 113.78418,276.410156 112.742188,308.598633 C111.700195,340.787109 108.900391,395.6875 104.580078,413.962891 C100.259766,432.238281 95.3769531,443.384766 95.4589844,448.855469 C95.5410156,454.326172 94.0019531,466.157227 90.9521484,473.807617 C87.9023438,481.458008 89.9111328,486.532227 89.8417969,491.21582 C89.7724609,495.899414 84.6396484,501.452148 84.8574219,506.480469 C85.0751953,511.508789 87.4306641,515.016602 86.6630859,519.453125 C85.8955078,523.889648 78.9013672,554.432617 80.2929688,560.779297 C81.6845703,567.125977 91.5830078,652.149414 91.5830078,652.149414" id="Path-23" stroke="#007CFF" stroke-width="2" stroke-linecap="round" stroke-linejoin="round"></path>
                                <path d="M187.606445,245.356445 C187.606445,245.356445 178.150391,267.880859 174.761719,277.538086 C171.373047,287.195312 144.696289,373.894531 144.696289,413.293945 C144.696289,452.693359 154.580078,512.246094 157.291992,526.698242 C160.003906,541.150391 174.217773,625.582031 174.217773,625.582031" id="Path-24" stroke="#007CFF" stroke-width="2" stroke-linecap="round" stroke-linejoin="round"></path>
                                <path d="M316.005859,248.509766 C309.335938,253.978516 249.536133,324.970703 228.855469,357.633789 C208.174805,390.296875 192.943359,408.177734 189.507813,449.642578 C186.072266,491.107422 177.192383,541.295898 180.758789,576.074219 C184.325195,610.852539 189.507813,621.166992 189.507813,621.166992" id="Path-25" stroke="#007CFF" stroke-width="2" stroke-linecap="round" stroke-linejoin="round"></path>
                                <path d="M307.681641,248.230469 C322.583984,256.168945 357.554687,270.222656 372.692383,282.667969 C387.830078,295.113281 397.511719,324.864258 400.804687,372.498047 C404.097656,420.131836 390.792969,505.724609 389.623047,524.962891 C388.453125,544.201172 384.045898,593.22168 372.692383,612.021484 C361.338867,630.821289 319.974609,661.455078 276.738281,673.599609 C233.501953,685.744141 145.046875,707.916016 145.046875,707.916016 C145.046875,707.916016 136.18457,695.50293 130.639648,671.266602 C125.094727,647.030273 127.084961,642.25293 127.084961,642.25293" id="Path-26" stroke="#007CFF" stroke-width="2" stroke-linecap="round" stroke-linejoin="round"></path>
                                <path d="M128.845703,642.12793 C139.647461,638.956055 239.254883,606.525391 255.367188,597.380859 C271.479492,588.236328 267.367188,583.578125 273.791992,580.206055 C280.216797,576.833984 287.34668,582.287109 292.106445,578.699219 C296.866211,575.111328 291.074219,568.536133 295.993164,564.942383 C300.912109,561.348633 307.805664,566.216797 309.225586,564.863281 C310.645508,563.509766 303.540039,556.137695 305.402344,551.238281 C307.264648,546.338867 311.757812,544.75293 311.757812,544.75293 C311.757812,544.75293 303.59668,541.355469 303.547852,534.349609 C303.499023,527.34375 312.385742,524.786133 312.385742,524.786133 C312.385742,524.786133 306.395508,520.861328 304.97168,512.347656 C303.547852,503.833984 310.911133,492.712891 310.068359,487.755859 C309.225586,482.798828 311.423828,458.874023 313.758789,447.367188 C316.09375,435.860352 328.53125,350.358398 328.53125,350.358398 L326.597656,346.910156" id="Path-27" stroke="#007CFF" stroke-width="2" stroke-linecap="round" stroke-linejoin="round"></path>
                                <path d="M210.673828,300.75 C203.869141,321.244141 180.030273,388.017578 174.811523,405.181641 C169.592773,422.345703 169.592773,489.231445 169.592773,532.90918 C169.592773,576.586914 182.414062,622.136719 182.414062,622.136719" id="Path-28" stroke="#007CFF" stroke-width="2" stroke-linecap="round" stroke-linejoin="round"></path>
                                <path d="M216.734375,286.389648 C216.734375,286.389648 238.929688,285.360352 267.039062,275.055664 C295.148438,264.750977 314.888672,247.027344 314.888672,247.027344" id="Path-30" stroke="#007CFF" stroke-width="2" stroke-linecap="round" stroke-linejoin="round"></path>
                                <path d="M211.101562,241.055664 C205.34082,244.544922 194.914062,243.204102 193.694336,246.213867 C192.474609,249.223633 191.041992,252.158203 196.181641,265.12207 C201.321289,278.085938 212.274414,285.758789 212.274414,285.758789" id="Path-31" stroke="#007CFF" stroke-width="2" stroke-linecap="round" stroke-linejoin="round"></path>
                                <path d="M134.067383,335.683594 C132.703125,357.81543 125.621094,386.93457 125.621094,432.058594 C125.621094,477.182617 137.550781,554.613281 140.089844,575.519531 C142.628906,596.425781 154.558594,629.855469 154.558594,629.855469" id="Path-29" stroke="#007CFF" stroke-width="2" stroke-linecap="round" stroke-linejoin="round"></path>
                                <path d="M0.59375,677.713867 C0.59375,677.713867 1.84863281,669.75293 3.60449219,667.633789 C5.36035156,665.514648 27.2109375,651.011719 38.5507812,648.583984 C49.890625,646.15625 106.818359,655.076172 106.818359,655.076172" id="Path-32" stroke="#007CFF" stroke-width="2" stroke-linecap="round" stroke-linejoin="round"></path>
                                <path d="M28.8007812,668.118164 C27.817828,670.608949 22.9595831,672.413089 18.6748047,674.397461 C14.3900263,676.381833 4.92889455,680.503984 2.34375,683.267578 C-1.90039063,687.804688 1.20898437,694.087891 1.20898437,694.087891" id="Path-33" stroke="#007CFF" stroke-width="2" stroke-linecap="round" stroke-linejoin="round"></path>
                                <path d="M30.3496094,685.463867 C28.7348633,686.780273 24.7299805,688.274414 21.2026367,689.305664 C17.675293,690.336914 7.17890846,693.593358 4.77148437,696.646484 C1.19238281,701.185547 6.32519531,707.949219 6.32519531,707.949219" id="Path-34" stroke="#007CFF" stroke-width="2" stroke-linecap="round" stroke-linejoin="round"></path>
                                <path d="M34.1845703,701.574219 C28.9257812,705.702148 15.9619141,706.780273 12.6914062,709.87793 C9.42089844,712.975586 11.4296875,719.243164 14.4042969,721.509766 C17.3789062,723.776367 26.0018712,725.784755 37.4570312,726.333984 C48.9121913,726.883214 55.9208984,722.517578 55.9208984,722.517578" id="Path-35" stroke="#007CFF" stroke-width="2" stroke-linecap="round" stroke-linejoin="round"></path>
                                <path d="M129.053711,645.515625 C129.053711,645.515625 112.972656,648.345703 109.02832,651.889648 C105.083984,655.433594 108.703125,674.279297 112.591797,683.146484 C116.480469,692.013672 122.408203,703.759766 128.070313,706.12793 C133.732422,708.496094 144.425781,704.549805 144.425781,704.549805" id="Path-36" stroke="#007CFF" stroke-width="2" stroke-linecap="round" stroke-linejoin="round"></path>
                                <path d="M369.382812,621.958984 C369.382812,621.958984 376.427734,637.150391 382.876953,657.490234 C389.326172,677.830078 392.072266,697.125 392.072266,697.125" id="Path-37" stroke="#007CFF" stroke-width="2" stroke-linecap="round" stroke-linejoin="round"></path>
                                <path d="M31.6210938,719.06543 L57.9091797,719.489258 C79.2988281,719.489258 102.046875,709.141602 121.271484,704.310547" id="Path" stroke="#007CFF" stroke-width="2" stroke-linecap="round" stroke-linejoin="round"></path>
                                <path d="M145.024414,636.672852 C145.024414,636.672852 130.201172,634.529297 113.925781,641.222656 C97.6503906,647.916016 94.0908203,653.423828 94.0908203,653.423828" id="Path-38" stroke="#007CFF" stroke-width="2" stroke-linecap="round" stroke-linejoin="round"></path>
                                <path d="M263.793945,38.5380859 C263.793945,38.5380859 281.138672,47.9550781 291.457031,70.859375 C301.775391,93.7636719 298.552734,119.167969 298.552734,119.167969" id="Path-43" stroke="#007CFF" stroke-width="2" stroke-linecap="round" stroke-linejoin="round"></path>
                                <path d="M297.171875,141.353516 C301.950684,141.353516 304.558594,136.514648 305.500977,131.182617" id="Path-44" stroke="#007CFF" stroke-width="2" stroke-linecap="round" stroke-linejoin="round"></path>
                                <path d="M215.758789,172.200195 C217.388523,172.200195 219.951904,173.303711 219.951904,173.303711 C219.951904,173.303711 222.236191,172.237697 224.14502,172.200195" id="Path-45" stroke="#007CFF" stroke-width="2" stroke-linecap="round" stroke-linejoin="round"></path>
                                <path d="M153.101562,191.619141 C155.435547,207.521484 168.021484,221.359375 179.224609,223.753906" id="Path-48" stroke="#007CFF" stroke-width="2" stroke-linecap="round" stroke-linejoin="round"></path>
                                <g id="Group-2" transform="translate(182.000000, 109.000000)">
                                    <g id="Group-9" transform="translate(68.000000, 1.800003)">
                                        <mask id="mask-2" fill="white">
                                            <use xlink:href="#path-1"></use>
                                        </mask>
                                        <g id="Clip-8"></g>
                                        <polygon id="Fill-7" fill="#007CFF" mask="url(#mask-2)" points="-5 15 15 15 15 -5 -5 -5"></polygon>
                                    </g>
                                    <g id="Group-12" transform="translate(8.000000, 0.800003)">
                                        <mask id="mask-4" fill="white">
                                            <use xlink:href="#path-3"></use>
                                        </mask>
                                        <g id="Clip-11"></g>
                                        <polygon id="Fill-10" fill="#007CFF" mask="url(#mask-4)" points="-5 15 15 15 15 -5 -5 -5"></polygon>
                                    </g>
                                    <path d="M60.1103516,6.00927734 C63.6630859,3.40625 68.6821383,2.16653242 73.831543,2.95507813 C78.9809477,3.74362383 82.5459,6.837919 82.5459,6.837919" id="Stroke-102" stroke="#007CFF" stroke-width="2" stroke-linecap="round" stroke-linejoin="round"></path>
                                    <path d="M0.110351562,5.00927734 C3.66308594,2.40625 8.68213828,1.16653242 13.831543,1.95507813 C18.9809477,2.74362383 22.5459,5.837919 22.5459,5.837919" id="Stroke-102" stroke="#007CFF" stroke-width="2" stroke-linecap="round" stroke-linejoin="round"></path>
                                </g>
                                <path d="M226.124512,158.894043 L227.876465,159.486328" id="Path-69-Copy" stroke="#007CFF" stroke-width="2" stroke-linecap="round" stroke-linejoin="round"></path>
                            </g>
                        </g>
                    </g>
                </g>
            </g>
        </g>
    </g>
</svg>