<?xml version="1.0" encoding="UTF-8"?>
<svg width="45px" height="36px" viewBox="0 0 45 36" version="1.1" xmlns="http://www.w3.org/2000/svg" xmlns:xlink="http://www.w3.org/1999/xlink">
    <!-- Generator: Sketch 46 (44423) - http://www.bohemiancoding.com/sketch -->
    <title>Group Copy</title>
    <desc>Created with Sketch.</desc>
    <defs></defs>
    <g id="Page-1" stroke="none" stroke-width="1" fill="none" fill-rule="evenodd">
        <g id="Homepage-Desktop-HD-Sliders-1" transform="translate(-161.000000, -121.000000)" fill="#007CFF">
            <g id="Group-Copy" transform="translate(160.000000, 120.000000)">
                <path d="M27.5675854,24.5078652 C28.6812192,24.8736709 31.2013178,21.9434039 31.6979747,21.3456261 C32.1946317,20.7478483 32.8058302,20.7843823 33.1996888,21.1622107 C33.5935474,21.5400391 34.0295319,21.9283057 33.664565,22.6812597 C33.299598,23.4342137 30.3586132,28.13526 26.7346668,27.9042199 C23.1107203,27.6731798 23.0218085,24.0675935 23.2910602,21.5117066 C23.5603119,18.9558197 24.7811244,13.9351943 25.1884968,12.5564097 C25.5958693,11.177625 26.4466821,10.6666153 27.6920992,10.6586934 C28.9375162,10.6507715 29.110773,11.6302921 28.9264255,12.5564097 C28.7420781,13.4825272 27.6422377,17.078514 27.2987998,19.3417564 C26.9553618,21.6049987 26.4539516,24.1420595 27.5675854,24.5078652 Z M28.439834,8.97095436 C27.1748499,8.97095436 26.1493776,7.94548208 26.1493776,6.68049793 C26.1493776,5.41551377 27.1748499,4.39004149 28.439834,4.39004149 C29.7048182,4.39004149 30.7302905,5.41551377 30.7302905,6.68049793 C30.7302905,7.94548208 29.7048182,8.97095436 28.439834,8.97095436 Z" id="Path-2" transform="translate(28.499783, 16.151248) rotate(-7.000000) translate(-28.499783, -16.151248) "></path>
                <path d="M40.1729245,17.0890455 C40.0365734,16.4486993 40.5343487,15.6803674 40.737336,15.2985315 C40.9403232,14.9166956 41.1063105,13.9194672 39.8183015,13.6378201 C38.5302926,13.356173 37.3429384,14.9104512 36.8497298,15.6752415 C36.3565212,16.4400318 35.4882801,17.9903024 35.6688996,20.4291315 C35.8495191,22.8679606 36.8824426,24.2265212 38.7583514,24.2499838 C40.6342602,24.2734464 41.9208701,23.0661015 43.5649921,20.3473961 C43.8231517,19.9205057 44.8217794,19.8517878 45.4079073,20.3473961 C45.9940353,20.8430044 45.9589925,21.4981928 45.8907709,22.0091092 C45.8225493,22.5200256 44.9791923,24.0399134 43.4075791,25.4188845 C41.8359659,26.7978556 39.8412261,27.5053982 38.1751126,27.4774621 C36.5089992,27.4495259 33.4189847,26.4461464 32.5709678,23.0661015 C31.7229509,19.6860566 32.7144941,16.3307094 34.1090294,14.072593 C35.5035647,11.8144766 37.8491089,10.4632788 39.7154135,10.4986012 C41.5817181,10.5339236 43.8520458,11.4940353 43.9444048,14.072593 C44.0085422,15.8632344 43.5070223,16.7937913 42.9768137,17.3929671 C42.4466051,17.9921429 41.8428626,18.0715484 41.3282182,18.0180522 C40.8135738,17.964556 40.3092756,17.7293917 40.1729245,17.0890455 Z" id="Path-3"></path>
                <path d="M26.7538657,17.147306 C25.7385568,18.0734086 22.729164,19.4303885 21.0607469,19.0928631 C19.5248609,22.3160604 17.6699279,24.9930046 15.4958921,27.1237759 C13.3218563,29.2545473 11.1424452,30.319917 8.95759336,30.319917 C6.70784491,30.319917 5.03137481,29.0111887 3.92813278,26.3936929 C2.82489075,23.7761971 2.27327801,20.239386 2.27327801,15.7831535 C2.27327801,11.9758869 2.54367641,8.5580511 3.08448133,5.52954357 C3.2791711,4.40466934 3.55497747,3.64214585 3.91190871,3.24195021 C4.26883996,2.84175457 4.87994035,2.64165975 5.74522822,2.64165975 C7.1729532,2.64165975 7.88680498,3.25816811 7.88680498,4.49120332 C7.88680498,4.6209965 7.86517311,4.85894709 7.82190871,5.20506224 C7.17294281,9.09885764 6.84846473,12.6248528 6.84846473,15.7831535 C6.84846473,19.0928796 7.1242711,21.6075848 7.67589212,23.3273444 C8.22751313,25.047104 9.05493224,25.906971 10.1581743,25.906971 C11.2830485,25.906971 12.5052493,25.1282236 13.8248133,23.5707054 C15.1443773,22.0131872 16.3557621,20.0555028 17.4590041,17.6975934 C16.1394402,16.8755699 15.144374,15.8102002 14.4737759,14.5014523 C13.8031778,13.1927044 13.4678838,11.6838813 13.4678838,9.97493776 C13.4678838,8.26599422 13.7328743,6.82206675 14.2628631,5.64311203 C14.7928519,4.46415731 15.5175196,3.58265852 16.436888,2.99858921 C17.3562563,2.4145199 18.3783623,2.12248963 19.5032365,2.12248963 C20.8876971,2.12248963 21.9855146,2.62002269 22.796722,3.61510373 C23.6079294,4.61018478 24.013527,5.97299273 24.013527,7.70356846 C24.013527,10.1912711 23.4727302,12.906071 22.3911203,15.8480498 C24.9109505,15.7831535 25.5480582,13.2869959 26.6382991,13.2869959 C26.8804677,13.2869959 27.7824089,13.2541899 27.9511921,14.4527801 C28.1199754,15.6513703 27.7691747,16.2212033 26.7538657,17.147306 Z M18.7893776,14.4527801 C19.6330333,12.0299741 20.0548548,10.0290259 20.0548548,8.44987552 C20.0548548,7.54132326 19.9358795,6.87614319 19.6979253,6.45431535 C19.4599711,6.03248752 19.1354931,5.82157676 18.7244813,5.82157676 C18.140412,5.82157676 17.6645108,6.16227875 17.2967635,6.84369295 C16.9290161,7.52510714 16.7451452,8.49313342 16.7451452,9.74780083 C16.7451452,11.8677561 17.4265492,13.4360668 18.7893776,14.4527801 Z" id="V" transform="translate(15.132495, 16.221203) rotate(-10.000000) translate(-15.132495, -16.221203) "></path>
                <path d="M20.7382767,36.9020994 C22.5651758,36.1395642 23.7609987,35.3518947 27.7345924,34.469927 C31.7081861,33.5879594 34.6876919,33.7266498 35.3356911,33.6097892 C35.9836902,33.4929286 36.3959197,33.1076583 36.423467,32.4607375 C36.4510143,31.8138167 36.0883896,31.3411009 35.3356911,31.1293492 C34.5829925,30.9175976 31.0003709,30.3291046 27.0429654,30.9344593 C23.08556,31.5398141 20.7733755,32.3410887 19.0117286,33.502446 C17.992816,34.1741593 17.6730121,35.1578223 18.0965205,36.1334616 C18.5200289,37.1091009 19.6298144,37.364764 20.7382767,36.9020994 Z" id="Path-4-Copy-2" fill-rule="nonzero" transform="translate(27.169719, 33.897070) rotate(6.000000) translate(-27.169719, -33.897070) "></path>
            </g>
        </g>
    </g>
</svg>