<svg width="33" height="28" viewBox="0 0 33 28" xmlns="http://www.w3.org/2000/svg" xmlns:xlink="http://www.w3.org/1999/xlink"><title>Logo</title><defs><path d="M15.646 12.444c-.464.963-.87 2.113-1.224 3.453-.415 1.575-.646 2.902-.62 4.221.043 2.132.825 3.795 2.62 4.54 2.526 1.05 4.272.162 6.781-2.313.436-.433.638-.632.837-.82a1.5 1.5 0 1 0-2.065-2.176c-.224.212-.45.434-.878.86-1.711 1.687-2.517 2.097-3.525 1.68-.963-.4-1.002-2.374-.25-5.227.309-1.166.652-2.14 1.026-2.916a1.5 1.5 0 1 0-2.702-1.302z" id="a"/></defs><g fill="#007CFF" fill-rule="evenodd"><path d="M18.365 7.94a1.5 1.5 0 0 0 0-3c-2.143 0-3.222-1.057-3.56-3.635-.222-1.687-2.636-1.76-2.96-.09-1.561 8.038-2.953 14.058-4.169 18.041-.591 1.94-1.136 3.375-1.617 4.286-.141.27-.27.48-.38.628-.825-.616-1.717-4.413-2.31-10.682a85.132 85.132 0 0 1-.32-10.88 1.5 1.5 0 0 0-2.997-.1 88.13 88.13 0 0 0 .33 11.262c.356 3.75.698 6.23 1.243 8.34.838 3.24 2.082 5.148 4.288 5.148 2.819 0 4.981-6.265 7.977-20.947 1.104 1.066 2.61 1.629 4.475 1.629zm9.052 5.325a1.5 1.5 0 0 0 1.056 1.84c1.805.49 2.8-1.144 2.447-2.674-.281-1.22-1.295-2.218-2.72-2.52-2.59-.552-5.086 1.334-6.09 4.172-1.245 3.52-.982 7.547 1.832 8.991 2.79 1.432 5.89-.068 8.19-2.96a1.5 1.5 0 0 0-2.35-1.868c-1.516 1.91-3.288 2.766-4.47 2.16-1.007-.518-1.173-3.062-.374-5.323.55-1.55 1.718-2.435 2.638-2.239-.056.131-.118.27-.16.421z"/><use xlink:href="#a"/></g></svg>