<svg width="301" height="326" viewBox="0 0 301 326" xmlns="http://www.w3.org/2000/svg"><title>Personas</title><g fill="none" fill-rule="evenodd"><path d="M278.173 93.871L262.471 43.03l-23.267 41.99 38.97 8.851zm-3.292 186.426l-50.35-2.006 20.405 32.1 29.945-30.094zM85.468 80.376l-41.116-18.51-9.713 38.69L6.395 80.157l79.073.218z" stroke="#0CB" stroke-width="12" opacity=".1" stroke-linecap="round" stroke-linejoin="round"/><g transform="translate(26 50)"><ellipse fill="#FDE9E4" cx="50" cy="86" rx="9" ry="6"/><ellipse fill="#FDE9E4" cx="98" cy="87" rx="9" ry="6"/><path d="M20.5 75s-1.5 22.25 1.499 42.499C24.998 137.748 46.251 152.5 68.75 152.5c22 0 34.75-14.5 37.75-34s2.5-36 2.5-36-2.5 16-7.999 17.25S91 90.75 86.75 90.5s-6 4-10.25 4-5.75-5-11.5-5-9 11.5-22.501 10.25C28.998 98.5 25 72.5 25 67.5s4.25-19 4.25-19m-8.25 71c0 20-17.5 27-17.5 27" stroke="#007CFF" stroke-width="1.8" stroke-linecap="round" stroke-linejoin="round"/><path d="M81 64.75c0 5.75 4.5 17.25 4.5 20s-3.502 6.248-6.751 6.999M57.625 106.25c0 2.232 11.873 4.998 17.124 4.749 5.251-.249 13.001-3.158 13.001-4.749 0-1.59-7.625-2.75-13.001-2.75-5.376 0-17.124.518-17.124 2.75zm5 8.875s3.75 2.75 10.625 2.75 10.625-2.375 10.625-2.375M18.499 70.499c-2.749-4.249-4.251-6.251-6.5-6.5-2.249-.249-6-1.25-7.75.25S.252 71.5.251 74.75C.25 78 6.125 92 7.75 94.25s11.999 12.499 11.999 12.499M16 65.75s13.998-6.502 17.499-7.251C37 57.75 42.001 58 42.001 58" stroke="#007CFF" stroke-width="1.8" stroke-linecap="round" stroke-linejoin="round"/><path d="M55.287 54.125c-10.588 0-15.037 5.5-15.037 11.375s5.439 15.25 14.82 15.25c9.383 0 14.805-9.25 14.805-15.25s-4-11.375-14.588-11.375zm40.439 1.573c9.962 0 14.149 5.175 14.149 10.703S104.757 80.75 95.93 80.75C87.102 80.75 82 72.046 82 66.4c0-5.645 3.764-10.702 13.726-10.702z" stroke="#007CFF" stroke-width="1.8"/><path d="M69.75 61.875s3.625-1.125 6.875-1.125S82.75 62 82.75 62M47 63.5c1.375-.75 4.876-3.75 10-3.75 5.125 0 8.375 3 8.375 3m19.25 1.125s4.25-2.75 9.5-1.75 8.125 5.375 8.125 5.375" stroke="#007CFF" stroke-width="1.8" stroke-linecap="round" stroke-linejoin="round"/><circle fill="#007CFF" cx="57" cy="62" r="3"/><circle fill="#007CFF" cx="93" cy="64" r="3"/><path d="M12.25 56.75s2.003-5.999 6.501-11c0 0 4.501 3 10.75 2.5s28.247-23.002 61.748-22.751c33.501.251 38.003 24.001 33.752 28.001-4.251 4-17.002-2.001-17.002-2.001S105 40.25 95 33.5c-10-6.75-21-4.75-21-4.75" stroke="#007CFF" stroke-width="1.8" stroke-linecap="round" stroke-linejoin="round"/><path d="M12 56s-1.5-17.75 1.5-26S34.748 4.748 48.499 1.499C62.25-1.75 87.248.998 94.249 9.749c7.001 8.751 10 16.5 10 16.5m4.001 26.501c0 3.25 1 25.75 1 25.75M13.001 54.75l-.5 8m30.5 3.25C36.751 66.75 33 69.624 33 69.624M42.125 64c-2.499 0-7.249-1-9.125-2m28.499 22.999c-2.249 1.501-4.251 6.499-9.25 8.25M55 46.763c4.498-1.75 10.483-3.774 21.498-3.5 11.015.273 18.751 4.5 18.751 4.5M61.098 40.38c3.788-.967 8.65-1.662 15.4-1.494 4.75.118 8.892.971 12.065 1.904M8.252 78.5c0 4.5 3.5 11 6.499 13.25 2.999 2.25 5.748 1.249 5.748 1.249M54 69.75c3.499 1.25 9.502 0 11.001-1.75m31 2.75C92.502 72 86.499 70.75 85 69m1.463 81.012c3.498 10.115 22.156 6.572 22.156 6.572" stroke="#007CFF" stroke-width="1.8" stroke-linecap="round" stroke-linejoin="round"/></g><g transform="translate(179)"><ellipse fill="#FDE9E4" cx="33" cy="90" rx="9" ry="6"/><path d="M41.127 26.794c-16.948 8.125-20.69 22.198-22.698 31.856-2.008 9.659-.635 40.772 1.995 52.676 2.63 11.904 25.014 33.857 38.495 34.563 13.482.707 31.536-23.584 34.398-35.915 2.863-12.332 4.045-38.425 3.005-47.241-1.04-8.817-5.116-21.798-16.432-30.403-11.316-8.605-25.569-8.85-32.915-7.232" stroke="#007CFF" stroke-width="1.8" stroke-linecap="round" stroke-linejoin="round"/><ellipse fill="#FDE9E4" cx="81" cy="90" rx="9" ry="6"/><path d="M69.027 66.255c1.935.102 11.3-3.062 15.67-2.833 4.368.23 9.025 3.314 9.502 2.588.477-.726-3.375-4.871-8.079-5.869-4.704-.997-16.402 1.274-17.695 2.077-1.294.804-1.333 3.936.602 4.037z" fill="#007CFF"/><path d="M70.5 74.75s3.823-3.084 8.587-3.21c4.763-.126 8.905 2.031 8.905 2.031m-39.242.891s-3.75-2.696-9.732-2.696c-5.982 0-8.277 2.696-8.277 2.696" stroke="#007CFF" stroke-width="1.8" stroke-linecap="round" stroke-linejoin="round"/><path d="M49.838 65.95c-2.47-.63-10.052-1.673-13.81-1.62-3.757.054-10.472 3.977-11.438 3.3-.966-.676 3.842-6.432 9.886-7.117 6.045-.684 12.983.68 14.697 1.396 1.714.716 3.135 4.67.665 4.04z" fill="#007CFF"/><path d="M39.56 111.6c3.668 1.63 10.688 1.436 13.996 1.609 3.309.173 5.142 1.02 5.142 1.02s1.537-.67 4.789-.625c3.251.045 9.566.189 15.623-1.935 0 0-6.938 5.683-9.887 7.118-1.487.723-4.92 3.121-10.35 2.837-5.43-.285-9.643-2.578-11.271-3.47-3.286-1.8-8.043-6.555-8.043-6.555zm12.337-3.735c3.37.176 7.28 2.009 7.28 2.009s4.599-1.762 6.602-1.782M49.968 125.56c2.565 1.416 5.409 2.595 9.12 2.738 2.868.111 5.848-.866 8.147-2.105M38.101 8.11c-7.24-.379-19.632 4.443-28.747 25.494C.24 54.656-2.553 124.643 23.911 126.03M41.648 7.348s14.161-12.276 38.38-1.494c24.22 10.783 29.376 36.588 30.93 54.694 1.555 18.106 2.747 62.229-20.483 66.018" stroke="#007CFF" stroke-width="1.8" stroke-linecap="round" stroke-linejoin="round"/><path d="M73.66 17.485c14.388 2.506 22.483 10.44 28.267 19.506 5.785 9.066 10.45 15.568 15.193 15.817" stroke="#007CFF" stroke-width="1.8" stroke-linecap="round" stroke-linejoin="round"/><path d="M44.187 20.946s8.703-3.549 19.935-2.96c11.233.589 22.207 6.17 28.975 15.538 6.768 9.367 12.698 25.198 21.435 25.656m-7.591 11.119s-2.873 26.134 13.884 36.026" stroke="#007CFF" stroke-width="1.8" stroke-linecap="round" stroke-linejoin="round"/><path d="M96.533 68.25c.738 5.047 2.897 16.425 8.207 24.965 5.309 8.54 14.039 14.004 16.336 13.123m-81.92-84.904C29.93 25.457 18.779 37.64 16.208 53.277m-1.79 13.174s-1.72 16.683 2.476 29.17c4.198 12.487 8.768 14.228 11.29 22.371M11.731 93.347c-.523 9.987 2.131 26.144 9.36 31.532M66.049 68.5c-3.177 6-1.11 16.468 0 20.916 1.108 4.448 3.41 8.08 2.194 9.647-1.215 1.567-4.076 3.47-6.362 2.838" stroke="#007CFF" stroke-width="1.8" stroke-linecap="round" stroke-linejoin="round"/><circle fill="#007CFF" transform="rotate(3 39.643 73.677)" cx="39.643" cy="73.677" r="3"/><circle fill="#007CFF" transform="rotate(3 78.693 73.774)" cx="78.693" cy="73.774" r="3"/><path d="M90.498 126.117s9.382-7.016 10.878-16.45M25.3 125.437S36.498 149.498 23 160m56.002-24c-2.502 8.5.002 21 4.5 25.5" stroke="#007CFF" stroke-width="1.8" stroke-linecap="round" stroke-linejoin="round"/></g><g transform="translate(142 175)"><ellipse fill="#FDE9E4" transform="rotate(4 31.2 85)" cx="31.201" cy="85" rx="11" ry="7"/><ellipse fill="#FDE9E4" transform="rotate(4 90.981 88.099)" cx="90.981" cy="88.099" rx="9.721" ry="6.186"/><path d="M44.927 131.323s2.336 3.637 6.29 4.463c3.953.826 6.436-.25 10.124 0 3.688.25 6.563 1.125 10.231.523 3.669-.602 8.463-4.965 9.798-7.058M45.03 104.56s8.278-2.728 10.58-2.626c2.303.101 4.331 1.52 6.376 1.604 2.045.084 3.494-1.06 6.093-1.074 2.6-.014 11.6 4.238 11.6 4.238s-8.074 4.597-17.633 4.378c-9.558-.218-17.015-6.52-17.015-6.52zm5.868-17.114c.282 1.6 1.309 3.102 3.403 3.461 2.094.36 3.171-.368 4.728.182s1.625 2.379 4.475 2.702c2.85.322 3.28-1.19 5.866-1.645" stroke="#007CFF" stroke-width="1.8" stroke-linecap="round" stroke-linejoin="round"/><path d="M74.333 63.059c.745.63 8.227-.767 11.915-.723 3.69.044 8.252 4.324 9.743 3.426 1.492-.897-3.635-6.214-6.77-7.438-3.134-1.223-13.678.079-14.96 1.447s-.674 2.657.072 3.288zm-20.926-.247c1.583-.365 2.379-2.473.74-4.02-1.64-1.545-13.099-3.39-16.388-2.63-3.289.76-6.988 4.179-6.735 5.275.253 1.096 2.922-.674 6.941-1.602 4.02-.928 13.858 3.343 15.442 2.977z" fill="#007CFF"/><path d="M75.279 71.2s2.194-2.636 7.722-2.528c5.528.108 7.226 3.55 7.226 3.55m-38.323-2.123s-2.25-3.5-8.313-3.5c-6.062 0-8.034 2.95-8.034 2.95m44.566 8.911s4.223 2.35 9.212-.308m-49.688-1.773c5.159 2.263 9.862-.216 9.862-.216M47.016 88.66c-2.237 1.939-4.571 11.12-8.557 12.43m37.57-10.741c3 1.625 4.14 6.398 6.07 9.199 1.93 2.8 5.097 4.432 5.097 4.432" stroke="#007CFF" stroke-width="1.8" stroke-linecap="round" stroke-linejoin="round"/><path d="M12.177 65.802c1.006-4.366 1.762-22.396 6.05-31.91 4.288-9.515 15.104-20.976 28.358-24.168 13.255-3.192 28.737-2.02 39.957 4.887 11.22 6.907 15.938 17.795 17.885 25.956 1.946 8.161 3.063 31.657 3.063 31.657" stroke="#007CFF" stroke-width="1.8" stroke-linecap="round" stroke-linejoin="round"/><path d="M103.903 75.723s0-4.624 3.463-3.478c3.463 1.146 1.538 14.479 1.538 19.104s1.125 8.375.5 11.875-3.5 4.375-3.5 4.375m-93.126-5.876c-2.557 1.34-3.623-3.913-2.748-10.664.874-6.752.611-12.04-.17-16.472-.782-4.431-.833-7.214 0-8.25.832-1.035 2.396-.803 3.96 1.587s.845 13.432.845 13.432" stroke="#007CFF" stroke-width="1.8" stroke-linecap="round" stroke-linejoin="round"/><ellipse fill="#007CFF" transform="rotate(-10 83.551 71.163)" cx="83.551" cy="71.163" rx="3" ry="2.5"/><ellipse fill="#007CFF" transform="rotate(-10 44.59 69.03)" cx="44.589" cy="69.031" rx="3" ry="2.5"/><path d="M13.382 89.198c-.364 5.14-1.783 15.8 1.257 24.403 3.04 8.602 9.064 17.568 15.522 22.521 6.457 4.954 15.653 10.314 32.402 10.28 16.748-.034 27.208-11.27 34.116-19.597 6.908-8.326 10.85-21.968 9.692-31.41-1.157-9.443-2.668-30.246-6.375-33.274-3.707-3.027-.301-18.738-9.083-28.48s-18.899-3.522-25.807-3.827c-6.908-.305-15.94-5.971-25.443-2.198-9.502 3.774-15.8 15.297-18.715 26.739-2.916 11.442-7.202 29.703-7.566 34.843zM19.002 124c4.998 17.5-6.5 26-6.5 26m39.32-36.72c4.04 3.476 14.648 3.89 19.818.82" stroke="#007CFF" stroke-width="1.8" stroke-linecap="round" stroke-linejoin="round"/><path d="M71.922 64.941c-1.307 1.528-1.916 2.354-2.407 4.2-.992 3.73-.618 9.402.971 12.782 1.59 3.379 5.64 7.508-.971 10.324m23.483 40.251c0 12.002 10.004 17.502 10.004 17.502" stroke="#007CFF" stroke-width="1.8" stroke-linecap="round" stroke-linejoin="round"/></g></g></svg>