<svg width="1638" height="473" viewBox="0 0 1638 473" xmlns="http://www.w3.org/2000/svg"><title>Illustration</title><g transform="translate(-15 -49)" stroke="#007CFF" fill="none" fill-rule="evenodd"><ellipse opacity=".2" transform="rotate(-4 834.368 285.805)" cx="834.368" cy="285.805" rx="819.875" ry="229.009"/><ellipse opacity=".2" transform="rotate(-4 837 282.99)" cx="836.999" cy="282.99" rx="561.356" ry="157.814"/><ellipse opacity=".2" transform="rotate(-4 813.267 281.67)" cx="813.267" cy="281.67" rx="311.348" ry="86.826"/><ellipse opacity=".3" transform="rotate(-10 814.079 276.728)" cx="814.079" cy="276.728" rx="186.285" ry="58.299"/><ellipse opacity=".4" transform="rotate(-4 836.704 277.418)" cx="836.704" cy="277.418" rx="134.174" ry="37.287"/><ellipse opacity=".5" transform="rotate(-4 838.915 278.814)" cx="838.915" cy="278.814" rx="74.66" ry="20.852"/><ellipse opacity=".5" transform="rotate(-4 839.16 278.166)" cx="839.159" cy="278.166" rx="43.923" ry="12.221"/><ellipse opacity=".6" transform="rotate(-4 838.237 278.136)" cx="838.237" cy="278.136" rx="21.472" ry="6.135"/><ellipse fill-opacity=".1" fill="#007CFF" opacity=".8" transform="rotate(-4 838.237 278.136)" cx="838.237" cy="278.136" rx="6.098" ry="1.742"/></g></svg>