<svg xmlns="http://www.w3.org/2000/svg" viewBox="0 0 100 100" height="100" width="100"><path fill-rule="evenodd" clip-rule="evenodd" d="M59.3 42.5c-.5-.4-1.2-.1-1.7 0-.6.2-1.2.4-1.7.6-1.1.4-2.1.9-2.9 1.4l-.2.2h-.2c-.1.1-.5.3-.7.5-.2.1-.3.4-.5.6-.1.1-.3.2-.4.3-.1.1-.2.3-.3.4-.1.1-.2.1-.3.2-.1.1-.2.3-.3.4-.1.1-.2 0-.3.1-.1.1-.2.3-.3.4-.1.1-.2 0-.3.1-.1 0-.1.1-.2.2s-.2.2-.3.4c-.1.1-.2.3-.3.4-.1.1 0 .2-.1.3-.1.1-.2.2-.3.4-.1.2-.3.4-.4.6-.2.3-.6.7-.9 1.1-.3.3-.5.4-.8.7-.3.3-.6.7-.9 1.1l-.2.2c-.1.2-.3.4-.4.6-.1.1-.1.3-.2.4 0-.2-.1-.1-.2-.1-.1.1-.1.2-.2.3l-.5.5c-.1.1-.2.3-.4.4-.1 0-.3.2-.4.3 0 0 0 .2-.1.2h-.2c-.1.1-.2.2-.2.3h-.2l-.1.2h-.2v.1h-.2l-.2.2-.1.1c-.2.2-.4.2-.6.4-.1.1-.2.2-.2.3-.1 0-.1.1-.2.1-.1.1-.4.3-.6.4 0 0-.2.1-.3.1v.1h-.2v.1c-.1.1-.2 0-.3.1-.1.1-.2.2-.2.3-.1 0-.1.1-.2.1 0 0-.2.1-.3.1l-.2.2c-.1.1-.3.1-.5.2 0 0 0 .1-.1.1s-.7.4-.9.5c0 0-.2.1-.3.1v.1h-.2l-.2.2c-.1.1-.4.3-.6.4-.1.1-.2.1-.5.2s-.7.4-1.1.5c-.2.1-.4.1-.6.2h-.2c0 .1-.2.1-.4.2-.1.2-.6.3-1.1.4 0 0 0 .1-.1.1-1.1.1-2.4.3-3.7.4h-.9s0 .1-.1.1h-.3c-.1-.1-1 0-1.3-.1-.8-.1-1.9-.4-2.9-.7-.2-.1-.4-.1-.6-.1-.1 0-.2-.1-.5-.1-.1 0-.1 0-.2-.1-.3-.2-.9-.3-1.1-.6l-.1-.1c-.1-.1-.2-.5-.2-.6-.1-.2-.2-1 0-1.4.1-.3.2-.4.5-.7.4-.4 1.1-.3 1.8-.1h.2v.1c.7.2 1.3.4 2 .4h.2c.2.2 1.7 0 2.3-.1 1.1-.1 2-.1 2.8-.3.1 0 .1-.1.3-.1.3-.1.5-.1.9-.2.2-.1.4-.1.6-.2.1-.1.1-.1.3-.1.1 0 .4-.2.6-.3.3-.1.7-.3 1-.4.1 0 .2-.1.3-.1.1 0 .1-.2.2-.2.2-.1.4-.1.5-.2l.2-.2c.1-.1.2-.2.4-.3 0 0 0-.1.1-.1s.2-.2.3-.2c.1 0 .1-.2.2-.2.2-.1.4-.1.5-.2.1 0 .1-.2.2-.2.4-.3 1-.6 1.4-1l.2-.2c.1-.1.4-.2.6-.4.1-.1.2-.3.3-.4.1-.1.2-.1.3-.1.1 0 .1-.1.2-.2.2-.2.4-.3.6-.5.2-.2.4-.5.7-.8.2-.2.3-.4.5-.6.1-.1.2-.3.2-.4.1-.1.2-.2.2-.3l.6-.9c.1-.1.2-.2.3-.2.1 0 .4-.4.6-.6.5-.6 1-1.1 1.5-1.7.1-.1.4-.4.4-.6 0-.1.3-.5.5-.7.2-.2.3-.4.5-.6.1-.1.2-.3.4-.5h.2c.1-.1.1-.3.2-.4h.2c.1-.2.3-.4.5-.6l.2-.2c.1-.1.3-.3.4-.5h.2s0-.2.1-.2c.1-.1.2 0 .3-.1.1-.1.1-.2.2-.3.1-.1.2-.1.3-.1.1-.1.2-.1.3-.2.2-.2.7-.5 1.1-.7h.2v-.1h.2v-.1h.2v-.1c.5-.2 1-.4 1.6-.7 0 0 0-.1.1-.1.3-.1.6-.3.9-.4h.2v-.1c.3-.1.5-.2.8-.3l.3-.1c.1-.1.5-.3.8-.4.7-.2 1.4-.3 2-.4.1 0 .1-.1.3-.1.5-.1 1.3-.2 1.9-.1.2 0 .4.1.8 0 1-.3 3.2-.3 4.4-.3.6 0 1.1 0 1.6.1.1 0 .3.1.5.2.1 0 .1.1.2.2.2.1.3.1.5.2.1.1 0 .2.1.3 0 0 .2.1.2.2.2.5.2 1.6.1 2.2 0 .1-.1.2-.2.4 0 0-.1 0-.1.1s-.1.2-.2.3c-.2.2-.4.8-.5 1.1-.1.2-.1.3-.1.5 0 .1-.1.1-.2.2 0 .1 0 .2-.1.3-.1.2-.1.3-.1.5-.1.2-.1.4-.1.5 0 .1-.1.1-.2.2v.2c-.1.1-.1.3-.2.6l-.2.2v.3c0 .1-.1.1-.2.2-.1.2-.1.5-.2.7 0 .1-.1.1-.2.2v.2c-.4.4-.2 1.7-.2 2.7.1.9.1 1.6.4 2.3 0 .1.1.1.1.2l.1.1c.1.1 0 .2.1.3 0 .1.2.1.2.2.2.3.4.7.7.9.1.2.3.3.5.4.3.3.6.7 1.1 1 .1.1.3.1.5.2 0 0 0 .1.1.1h.1c.1 0 .2.2.3.2h.2v.1h.2c.1.1.1.1.4.2.2.1.4.2.6.2.2.1.5.1.6.1 0 0 0 .1.1.1s.3.1.5.1h.5c.1.1.7.3 1 .4.2.1.4.1.6.1.1 0 .2 0 .4.1.1 0 .2 0 .4.1.6.1 2.1-.2 2.9 0l.2.2h.4c.8 0 1.5-.2 2.3 0 .5.1 1 .4 1.3.8v.2l.2.2c.1.1.3.2.3.2.2.4.3.8.2 1.3 0 .1 0 .3-.1.5 0 0-.1 0-.1.1s-.4.5-.5.7h-.2v.1h-.2v.1h-.2c-.1.1-.1.2-.3.3h-.2v.1H80c-.1.2-.8.2-1.4.3-.4.1-.9.2-1.3.2-.5 0-1-.1-1.5-.2H75s0-.1-.1-.1h-.1c-.1 0-.1 0-.3-.1-.3 0-1-.2-1.5-.3-.9-.2-1.7-.4-2.6-.6-.2-.1-.5-.1-.7-.1 0 0 0-.1-.1-.1h-.1c-.1 0-.2 0-.5-.1 0 0 0-.1-.1-.1s-.4-.1-.5-.1c-.2-.1-.4-.2-.6-.2-.2-.1-.3-.1-.5-.1-.1 0-.1-.1-.1-.1-.2-.1-.4-.1-.6-.1-.1 0-.1-.1-.2-.2-.1 0-.2 0-.3-.1-.1 0-.1-.1-.2-.2-.2-.1-.7-.3-1-.5-.1 0-.1-.1-.2-.2l-.6-.3c-.1 0-.1-.1-.2-.2s-.2-.2-.4-.2c-.4-.2-.9-.8-1.3-1.2l-.2-.2c-.2-.3-.6-.7-.9-1-.4-.4-.8-.8-1.1-1.3 0-.1-.1-.2-.1-.3 0 0-.2 0-.2-.1v-.2h-.1v-.2c-.1-.1-.3-.3-.4-.5v-.2c-.1-.1-.1-.1-.1-.2s-.1-.1-.1-.1c-.1-.4-.2-1-.3-1.5-.1-.7-.2-1.4-.3-2.3v-.3l.1-.1c0-.1-.1-.1-.1-.3 0-.7-.1-1.3 0-1.8 0 0 .1 0 .1-.1v-.2l.2-.2c0-.2 0-.3.1-.5 0-.1.1-.2.2-.4 0-.1 0-.2.1-.3l.2-.1c.1-.1.1-.3.1-.5 0-.1 0-.2.1-.3l.2-.1c0-.1 0-.2.1-.3.1-.1.1-.3.2-.5 0 0 .1 0 .1-.1-1-.2-.7-.6-.8-1z"/></svg>